<svg width="220" height="32" viewBox="0 0 220 32" fill="none" xmlns="http://www.w3.org/2000/svg">
<path d="M132.941 15.8342H131.305L130.403 13.0802H127.286L126.425 15.8342H124.832L127.92 6.47064H129.824L132.927 15.8342H132.941ZM130.135 11.9235L129.317 9.48626C129.232 9.2384 129.063 8.64629 128.837 7.72371H128.809C128.71 8.12303 128.569 8.71514 128.358 9.48626L127.554 11.9235H130.135Z" fill="black"/>
<path d="M139.795 15.8341H138.441L138.357 14.8014H138.328C137.849 15.5862 137.116 15.9856 136.128 15.9856C135.437 15.9856 134.901 15.779 134.492 15.3522C134.013 14.8427 133.759 14.0716 133.759 13.0388V9.05931H135.296V12.791C135.296 14.0853 135.748 14.7463 136.664 14.7463C137.355 14.7463 137.821 14.4158 138.089 13.7686C138.159 13.6034 138.187 13.4106 138.187 13.1903V9.04553H139.725V13.865C139.725 14.5122 139.753 15.1594 139.795 15.8203" fill="black"/>
<path d="M145.112 10.1748H143.42V13.4658C143.42 14.3057 143.716 14.7188 144.308 14.7188C144.576 14.7188 144.816 14.6913 144.985 14.65L145.027 15.7791C144.717 15.8893 144.322 15.9444 143.829 15.9444C143.222 15.9444 142.743 15.7653 142.404 15.4073C142.066 15.0493 141.897 14.4434 141.897 13.5897V10.1748H140.881V9.05939H141.897V7.82009L143.406 7.37946V9.05939H145.098V10.1748H145.112Z" fill="black"/>
<path d="M152.615 12.3916C152.615 13.4244 152.305 14.2781 151.698 14.9529C151.064 15.6414 150.217 15.9856 149.16 15.9856C148.102 15.9856 147.326 15.6551 146.734 14.9942C146.128 14.3332 145.831 13.507 145.831 12.5018C145.831 11.4966 146.142 10.6016 146.762 9.92684C147.383 9.26588 148.229 8.92163 149.273 8.92163C150.316 8.92163 151.106 9.25211 151.727 9.91306C152.319 10.5465 152.615 11.3727 152.615 12.3916ZM151.021 12.433C151.021 11.8133 150.88 11.2763 150.612 10.8357C150.288 10.2986 149.823 10.037 149.23 10.037C148.638 10.037 148.144 10.2986 147.82 10.8357C147.538 11.2763 147.411 11.8133 147.411 12.4605C147.411 13.1077 147.552 13.6172 147.82 14.0578C148.158 14.5948 148.624 14.8565 149.216 14.8565C149.808 14.8565 150.26 14.5811 150.598 14.044C150.88 13.5896 151.021 13.0526 151.021 12.433Z" fill="black"/>
<path d="M157.664 10.395C157.509 10.3675 157.354 10.3537 157.17 10.3537C156.62 10.3537 156.211 10.5465 155.915 10.9458C155.661 11.3039 155.534 11.7445 155.534 12.2815V15.8342H153.997V11.1937C153.997 10.4088 153.997 9.70654 153.955 9.05935H155.295L155.351 10.3675H155.393C155.548 9.92686 155.816 9.56884 156.169 9.29344C156.508 9.04558 156.888 8.93542 157.283 8.93542C157.424 8.93542 157.551 8.93543 157.664 8.96297V10.395Z" fill="black"/>
<path d="M160.513 7.04892C160.513 7.32432 160.428 7.53086 160.245 7.70987C160.062 7.87511 159.836 7.95773 159.554 7.95773C159.3 7.95773 159.088 7.87511 158.905 7.6961C158.736 7.53086 158.637 7.31055 158.637 7.04892C158.637 6.78729 158.722 6.58074 158.905 6.40173C159.088 6.23649 159.314 6.15387 159.568 6.15387C159.822 6.15387 160.062 6.23649 160.231 6.40173C160.414 6.56697 160.499 6.78729 160.499 7.04892M160.344 15.8341H158.806V9.05933H160.344V15.8341Z" fill="black"/>
<path d="M166.281 13.8788C166.281 14.5122 166.041 15.008 165.576 15.3935C165.096 15.7791 164.448 15.9581 163.616 15.9581C162.826 15.9581 162.163 15.8066 161.613 15.5037L161.937 14.4021C162.473 14.705 163.037 14.8565 163.63 14.8565C164.419 14.8565 164.814 14.5673 164.814 14.0165C164.814 13.7687 164.73 13.5621 164.56 13.3969C164.391 13.2316 164.081 13.0802 163.658 12.9149C162.431 12.4743 161.81 11.8271 161.81 10.9734C161.81 10.395 162.036 9.89932 162.487 9.51376C162.939 9.1282 163.545 8.93542 164.292 8.93542C164.969 8.93542 165.562 9.07313 166.041 9.33475L165.717 10.4088C165.266 10.1472 164.8 10.0233 164.307 10.0233C163.982 10.0233 163.728 10.0921 163.545 10.2436C163.362 10.395 163.277 10.5878 163.277 10.8081C163.277 11.0285 163.376 11.235 163.559 11.3727C163.714 11.5104 164.039 11.6619 164.49 11.8271C165.675 12.2677 166.281 12.9562 166.281 13.8651" fill="black"/>
<path d="M169.426 7.04892C169.426 7.32432 169.341 7.53086 169.158 7.70987C168.975 7.87511 168.749 7.95773 168.467 7.95773C168.213 7.95773 168.002 7.87511 167.818 7.6961C167.649 7.53086 167.55 7.31055 167.55 7.04892C167.55 6.78729 167.635 6.58074 167.818 6.40173C168.002 6.23649 168.227 6.15387 168.481 6.15387C168.735 6.15387 168.975 6.23649 169.144 6.40173C169.327 6.56697 169.412 6.78729 169.412 7.04892M169.257 15.8341H167.72V9.05933H169.257V15.8341Z" fill="black"/>
<path d="M176.844 12.1301C176.844 12.4055 176.83 12.6258 176.788 12.8186H172.148C172.162 13.4933 172.388 14.0028 172.825 14.347C173.22 14.6637 173.713 14.8152 174.334 14.8152C175.025 14.8152 175.646 14.705 176.21 14.4985L176.449 15.545C175.787 15.8204 175.025 15.9581 174.122 15.9581C173.051 15.9581 172.204 15.6552 171.598 15.0355C170.991 14.4159 170.681 13.5897 170.681 12.5432C170.681 11.4966 170.963 10.6705 171.542 9.99572C172.148 9.26592 172.952 8.9079 173.967 8.9079C174.983 8.9079 175.73 9.26592 176.238 9.99572C176.647 10.5741 176.858 11.2763 176.858 12.1301M175.363 11.7445C175.363 11.3039 175.279 10.9183 175.067 10.5878C174.799 10.1747 174.39 9.96818 173.84 9.96818C173.333 9.96818 172.924 10.1747 172.613 10.5741C172.359 10.9045 172.204 11.2901 172.162 11.7445H175.378H175.363Z" fill="black"/>
<path d="M181.851 10.395C181.696 10.3675 181.541 10.3537 181.357 10.3537C180.807 10.3537 180.398 10.5465 180.102 10.9458C179.848 11.3039 179.721 11.7445 179.721 12.2815V15.8342H178.184V11.1937C178.184 10.4088 178.184 9.70654 178.142 9.05935H179.482L179.538 10.3675H179.58C179.735 9.92686 180.003 9.56884 180.356 9.29344C180.694 9.04558 181.075 8.93542 181.47 8.93542C181.611 8.93542 181.738 8.93543 181.851 8.96297V10.395Z" fill="black"/>
<path d="M186.773 10.1748H185.081V13.4658C185.081 14.3057 185.377 14.7188 185.969 14.7188C186.237 14.7188 186.477 14.6913 186.646 14.65L186.688 15.7791C186.378 15.8893 185.983 15.9444 185.49 15.9444C184.883 15.9444 184.404 15.7653 184.065 15.4073C183.727 15.0493 183.557 14.4434 183.557 13.5897V10.1748H182.542V9.05939H183.557V7.82009L185.066 7.37946V9.05939H186.759V10.1748H186.773Z" fill="black"/>
<path d="M193.669 12.1301C193.669 12.4055 193.655 12.6258 193.613 12.8186H188.973C188.987 13.4933 189.213 14.0028 189.65 14.347C190.045 14.6637 190.538 14.8152 191.159 14.8152C191.85 14.8152 192.471 14.705 193.035 14.4985L193.274 15.545C192.626 15.8204 191.85 15.9581 190.947 15.9581C189.876 15.9581 189.029 15.6552 188.423 15.0355C187.817 14.4159 187.506 13.5897 187.506 12.5432C187.506 11.5242 187.788 10.6705 188.367 9.99572C188.973 9.26592 189.777 8.9079 190.792 8.9079C191.808 8.9079 192.555 9.26592 193.063 9.99572C193.472 10.5741 193.683 11.2763 193.683 12.1301M192.189 11.7445C192.189 11.3039 192.104 10.9183 191.892 10.5878C191.624 10.1747 191.215 9.96818 190.665 9.96818C190.158 9.96818 189.749 10.1747 189.438 10.5741C189.185 10.9045 189.029 11.2901 188.987 11.7445H192.203H192.189Z" fill="black"/>
<path d="M198.676 10.395C198.521 10.3675 198.366 10.3537 198.182 10.3537C197.632 10.3537 197.223 10.5465 196.927 10.9458C196.673 11.3039 196.546 11.7445 196.546 12.2815V15.8342H195.009V11.1937C195.009 10.4088 195.009 9.70654 194.967 9.05935H196.307L196.363 10.3675H196.405C196.561 9.92686 196.829 9.56884 197.181 9.29344C197.52 9.04558 197.9 8.93542 198.295 8.93542C198.436 8.93542 198.563 8.93543 198.676 8.96297V10.395Z" fill="black"/>
<path d="M131.065 29.2047C131.065 30.0034 130.783 30.6506 130.205 31.1463C129.57 31.6971 128.696 31.9725 127.582 31.9725C126.552 31.9725 125.706 31.7797 125.086 31.3941L125.438 30.1411C126.115 30.5266 126.863 30.7194 127.666 30.7194C128.245 30.7194 128.696 30.5955 129.02 30.3339C129.345 30.0722 129.5 29.7418 129.5 29.3149C129.5 28.9293 129.373 28.6126 129.105 28.351C128.837 28.0894 128.4 27.8553 127.779 27.6212C126.101 27.0153 125.255 26.1203 125.255 24.936C125.255 24.1649 125.551 23.5315 126.143 23.0496C126.736 22.5539 127.525 22.3198 128.499 22.3198C129.373 22.3198 130.092 22.4712 130.685 22.7604L130.304 23.9859C129.768 23.6968 129.147 23.5453 128.47 23.5453C127.934 23.5453 127.511 23.6692 127.201 23.9308C126.947 24.1649 126.82 24.4403 126.82 24.7846C126.82 25.1564 126.961 25.4593 127.257 25.7072C127.511 25.9275 127.977 26.1753 128.654 26.437C129.486 26.7674 130.092 27.1392 130.487 27.5799C130.882 28.0205 131.079 28.5575 131.079 29.2047" fill="black"/>
<path d="M138.328 28.1307C138.328 28.4061 138.314 28.6264 138.272 28.8192H133.632C133.646 29.4939 133.872 30.0034 134.309 30.3476C134.704 30.6643 135.198 30.8158 135.818 30.8158C136.509 30.8158 137.13 30.7056 137.694 30.4991L137.934 31.5456C137.271 31.821 136.509 31.9587 135.607 31.9587C134.535 31.9587 133.689 31.6558 133.082 31.0361C132.476 30.4165 132.165 29.5903 132.165 28.5438C132.165 27.5248 132.447 26.6711 133.026 25.9963C133.632 25.2665 134.436 24.9085 135.451 24.9085C136.467 24.9085 137.214 25.2665 137.722 25.9963C138.131 26.5747 138.343 27.2769 138.343 28.1307M136.862 27.7451C136.862 27.3045 136.777 26.9189 136.566 26.5884C136.298 26.1753 135.889 25.955 135.339 25.955C134.831 25.955 134.422 26.1616 134.112 26.5747C133.858 26.9052 133.703 27.2907 133.66 27.7451H136.876H136.862Z" fill="black"/>
<path d="M143.349 26.3956C143.194 26.3681 143.039 26.3543 142.856 26.3543C142.306 26.3543 141.897 26.5471 141.6 26.9464C141.347 27.3045 141.22 27.7451 141.22 28.2821V31.8348H139.682V27.1943C139.682 26.4094 139.682 25.7072 139.64 25.06H140.98L141.036 26.3681H141.079C141.234 25.9275 141.502 25.5695 141.854 25.2941C142.193 25.06 142.574 24.936 142.968 24.936C143.109 24.936 143.236 24.936 143.349 24.9636V26.3956Z" fill="black"/>
<path d="M150.725 25.0738L148.102 31.8486H146.607L144.069 25.0738H145.719L146.903 28.654C147.101 29.2461 147.27 29.8244 147.397 30.3614H147.439C147.552 29.8657 147.721 29.3012 147.933 28.654L149.103 25.0738H150.711H150.725Z" fill="black"/>
<path d="M153.489 23.0634C153.489 23.3388 153.405 23.5453 153.221 23.7105C153.038 23.8758 152.812 23.9584 152.53 23.9584C152.277 23.9584 152.065 23.8758 151.882 23.6968C151.712 23.5315 151.614 23.3112 151.614 23.0496C151.614 22.788 151.698 22.5814 151.882 22.4024C152.065 22.2372 152.291 22.1545 152.544 22.1545C152.798 22.1545 153.038 22.2372 153.207 22.4024C153.391 22.5676 153.475 22.788 153.475 23.0496M153.306 31.8348H151.769V25.06H153.306V31.8348Z" fill="black"/>
<path d="M160.132 25.2527L159.836 26.3956C159.441 26.2029 159.004 26.1202 158.496 26.1202C157.819 26.1202 157.283 26.3406 156.888 26.7812C156.493 27.2218 156.296 27.7864 156.296 28.4611C156.296 29.1772 156.507 29.7417 156.916 30.1548C157.325 30.5679 157.847 30.7745 158.496 30.7745C158.976 30.7745 159.441 30.6781 159.892 30.4991L160.104 31.6145C159.596 31.8485 158.961 31.9587 158.2 31.9587C157.142 31.9587 156.31 31.642 155.675 31.0223C155.055 30.4027 154.73 29.5627 154.73 28.5162C154.73 27.4697 155.069 26.616 155.746 25.9412C156.423 25.2665 157.325 24.936 158.468 24.936C159.117 24.936 159.667 25.0462 160.132 25.2527Z" fill="black"/>
<path d="M166.972 28.1307C166.972 28.4061 166.958 28.6264 166.916 28.8192H162.276C162.29 29.4939 162.515 30.0034 162.953 30.3476C163.348 30.6643 163.841 30.8158 164.462 30.8158C165.153 30.8158 165.773 30.7056 166.337 30.4991L166.577 31.5456C165.928 31.821 165.153 31.9587 164.25 31.9587C163.178 31.9587 162.332 31.6558 161.726 31.0361C161.119 30.4165 160.809 29.5903 160.809 28.5438C160.809 27.4973 161.091 26.6711 161.669 25.9963C162.276 25.2665 163.08 24.9085 164.095 24.9085C165.11 24.9085 165.858 25.2665 166.366 25.9963C166.775 26.5747 166.986 27.2769 166.986 28.1307M165.505 27.7451C165.505 27.3045 165.421 26.9189 165.209 26.5884C164.941 26.1753 164.532 25.955 163.982 25.955C163.474 25.955 163.066 26.1616 162.755 26.5747C162.501 26.9052 162.346 27.2907 162.304 27.7451H165.519H165.505Z" fill="black"/>
<path d="M177.817 25.1977C177.817 26.0652 177.564 26.7537 177.042 27.277C176.365 27.9517 175.392 28.2959 174.094 28.2959C173.713 28.2959 173.417 28.2684 173.22 28.2271V31.8486H171.683V22.5952C172.416 22.4713 173.248 22.4024 174.193 22.4024C175.406 22.4024 176.322 22.664 176.943 23.1735C177.535 23.6692 177.832 24.3577 177.832 25.2115M176.28 25.2666C176.28 24.7158 176.097 24.2889 175.744 23.9997C175.392 23.7105 174.884 23.5591 174.235 23.5591C173.812 23.5591 173.46 23.5866 173.192 23.6417V27.0291C173.403 27.0842 173.713 27.1117 174.08 27.1117C174.757 27.1117 175.293 26.9465 175.688 26.616C176.083 26.2855 176.266 25.8311 176.266 25.2528" fill="black"/>
<path d="M182.909 26.3956C182.754 26.3681 182.598 26.3543 182.415 26.3543C181.865 26.3543 181.456 26.5471 181.16 26.9464C180.906 27.3045 180.779 27.7451 180.779 28.2821V31.8348H179.242V27.1943C179.242 26.4094 179.242 25.7072 179.2 25.06H180.539L180.596 26.3681H180.638C180.793 25.9275 181.061 25.5695 181.414 25.2941C181.752 25.06 182.133 24.936 182.528 24.936C182.669 24.936 182.796 24.936 182.909 24.9636V26.3956Z" fill="black"/>
<path d="M190.256 28.4061C190.256 29.4388 189.946 30.2925 189.34 30.9673C188.705 31.6558 187.859 32 186.801 32C185.743 32 184.968 31.6695 184.375 31.0086C183.769 30.3476 183.473 29.5214 183.473 28.5162C183.473 27.511 183.783 26.616 184.404 25.9412C185.024 25.2803 185.87 24.936 186.914 24.936C187.958 24.936 188.747 25.2665 189.368 25.9275C189.96 26.5747 190.256 27.3871 190.256 28.4061ZM188.663 28.4336C188.663 27.814 188.522 27.2769 188.254 26.8363C187.929 26.2993 187.464 26.0376 186.872 26.0376C186.279 26.0376 185.786 26.2993 185.461 26.8363C185.179 27.2769 185.052 27.814 185.052 28.4611C185.052 29.1083 185.193 29.6178 185.461 30.0585C185.8 30.5955 186.265 30.8571 186.858 30.8571C187.45 30.8571 187.901 30.5817 188.24 30.0447C188.522 29.5903 188.663 29.0532 188.663 28.4336Z" fill="black"/>
<path d="M197.139 25.0738L194.516 31.8486H193.021L190.482 25.0738H192.132L193.317 28.654C193.514 29.2461 193.683 29.8244 193.81 30.3614H193.853C193.966 29.8657 194.135 29.3012 194.346 28.654L195.517 25.0738H197.125H197.139Z" fill="black"/>
<path d="M199.762 23.0634C199.762 23.3388 199.677 23.5453 199.494 23.7105C199.311 23.8758 199.085 23.9584 198.803 23.9584C198.549 23.9584 198.338 23.8758 198.154 23.6968C197.985 23.5315 197.886 23.3112 197.886 23.0496C197.886 22.788 197.971 22.5814 198.154 22.4024C198.338 22.2372 198.563 22.1545 198.817 22.1545C199.071 22.1545 199.311 22.2372 199.48 22.4024C199.663 22.5676 199.748 22.788 199.748 23.0496M199.579 31.8348H198.041V25.06H199.579V31.8348Z" fill="black"/>
<path d="M207.491 31.8348H206.122L206.052 30.747H206.01C205.572 31.5732 204.825 31.9863 203.781 31.9863C202.949 31.9863 202.258 31.6696 201.694 31.0224C201.144 30.389 200.862 29.549 200.862 28.53C200.862 27.4422 201.158 26.5472 201.765 25.8724C202.343 25.239 203.062 24.9223 203.922 24.9223C204.853 24.9223 205.516 25.2252 205.883 25.8449V21.948H207.42V30.0034C207.42 30.6644 207.434 31.2702 207.476 31.8348M205.897 28.9844V27.8553C205.897 27.6625 205.897 27.4973 205.855 27.3871C205.77 27.0291 205.587 26.7262 205.305 26.4783C205.022 26.2304 204.67 26.1065 204.275 26.1065C203.697 26.1065 203.26 26.3268 202.921 26.7675C202.597 27.2081 202.427 27.7727 202.427 28.4749C202.427 29.1772 202.583 29.6867 202.893 30.0998C203.231 30.5404 203.669 30.7608 204.233 30.7608C204.74 30.7608 205.135 30.5817 205.446 30.21C205.742 29.8657 205.883 29.4526 205.883 28.9707" fill="black"/>
<path d="M214.993 28.1307C214.993 28.4061 214.979 28.6264 214.937 28.8192H210.297C210.311 29.4939 210.537 30.0034 210.974 30.3476C211.369 30.6643 211.863 30.8158 212.483 30.8158C213.174 30.8158 213.795 30.7056 214.359 30.4991L214.599 31.5456C213.936 31.821 213.174 31.9587 212.272 31.9587C211.2 31.9587 210.353 31.6558 209.747 31.0361C209.141 30.4165 208.83 29.5903 208.83 28.5438C208.83 27.4973 209.112 26.6711 209.691 25.9963C210.297 25.2665 211.101 24.9085 212.116 24.9085C213.132 24.9085 213.865 25.2665 214.387 25.9963C214.796 26.5747 215.008 27.2769 215.008 28.1307M213.513 27.7451C213.513 27.3045 213.428 26.9189 213.216 26.5884C212.948 26.1753 212.539 25.955 211.989 25.955C211.482 25.955 211.073 26.1616 210.762 26.5747C210.509 26.9052 210.353 27.2907 210.311 27.7451H213.527H213.513Z" fill="black"/>
<path d="M220 26.3956C219.845 26.3681 219.69 26.3543 219.506 26.3543C218.956 26.3543 218.547 26.5471 218.251 26.9464C217.997 27.3045 217.87 27.7451 217.87 28.2821V31.8348H216.333V27.1943C216.333 26.4094 216.333 25.7072 216.291 25.06H217.631L217.687 26.3681H217.729C217.885 25.9275 218.152 25.5695 218.505 25.2941C218.844 25.06 219.224 24.936 219.619 24.936C219.76 24.936 219.887 24.936 220 24.9636V26.3956Z" fill="black"/>
<path d="M26.2147 23.4627C26.1795 23.5792 25.535 25.7566 23.988 28.0155C22.652 29.9601 21.2574 31.9046 19.0542 31.9512C16.8979 31.9861 16.2064 30.682 13.7454 30.682C11.2844 30.682 10.5109 31.9163 8.47175 31.9978C6.35057 32.0793 4.74504 29.8902 3.38561 27.9457C0.619869 23.9634 -1.48959 16.7092 1.34646 11.8187C2.75277 9.38509 5.2724 7.84807 8.00298 7.8015C10.089 7.76657 12.0461 9.18714 13.3118 9.18714C14.5775 9.18714 16.9682 7.46382 19.4761 7.71999C20.5191 7.76657 23.4724 8.13918 25.3592 10.8872C25.2068 10.9803 21.8434 12.9249 21.8786 16.977C21.9254 21.8209 26.1561 23.4278 26.2029 23.4511M17.8354 5.11173C18.9605 3.76102 19.7222 1.87469 19.5113 0C17.894 0.0582201 15.9252 1.07125 14.765 2.42196C13.722 3.62129 12.8079 5.53091 13.054 7.37067C14.8587 7.5104 16.7104 6.46244 17.8237 5.11173" fill="black"/>
<path d="M43.0947 15.8775H41.4492L40.5477 13.1113H37.414L36.5555 15.8775H34.9529L38.058 6.46112H39.9754L43.0947 15.8775ZM40.2758 11.9517L39.4602 9.4928C39.3744 9.24133 39.217 8.65455 38.9737 7.7185H38.9451C38.8449 8.12366 38.7019 8.71043 38.4872 9.4928L37.6859 11.9517H40.2758Z" fill="black"/>
<path d="M49.9058 15.8776H48.5464L48.4606 14.8437H48.432C47.9455 15.6401 47.2157 16.0312 46.2284 16.0312C45.5416 16.0312 44.9978 15.8217 44.5828 15.4025C44.0963 14.8856 43.8531 14.1172 43.8531 13.0834V9.08771H45.3985V12.8319C45.3985 14.1312 45.8563 14.7878 46.7721 14.7878C47.459 14.7878 47.9312 14.4665 48.203 13.8099C48.2746 13.6422 48.3032 13.4466 48.3032 13.2371V9.08771H49.8486V13.9216C49.8486 14.5643 49.8629 15.2209 49.9058 15.8776Z" fill="black"/>
<path d="M55.2144 10.2193H53.5117V13.5164C53.5117 14.3547 53.8122 14.7738 54.4131 14.7738C54.685 14.7738 54.914 14.7458 55.1 14.7039L55.1429 15.8495C54.8424 15.9613 54.4418 16.0172 53.9409 16.0172C53.3256 16.0172 52.8535 15.8356 52.51 15.4723C52.1666 15.1091 51.9949 14.4944 51.9949 13.6421V10.2193H50.979V9.08763H51.9949V7.84423L53.5117 7.39716V9.08763H55.2144V10.2193Z" fill="black"/>
<path d="M62.698 12.4267C62.698 13.4746 62.3976 14.3268 61.7823 14.9974C61.1384 15.682 60.2941 16.0312 59.2353 16.0312C58.1764 16.0312 57.4037 15.6959 56.8027 15.0393C56.2018 14.3827 55.887 13.5444 55.887 12.5385C55.887 11.5326 56.2018 10.6245 56.8314 9.9539C57.461 9.2833 58.3052 8.948 59.3641 8.948C60.4229 8.948 61.2099 9.2833 61.8252 9.93993C62.4119 10.5826 62.7124 11.4069 62.7124 12.4267H62.698ZM61.0954 12.4547C61.0954 11.826 60.9523 11.2951 60.6805 10.848C60.3514 10.3032 59.8935 10.0377 59.2925 10.0377C58.6915 10.0377 58.205 10.3032 57.8759 10.848C57.604 11.2951 57.461 11.84 57.461 12.4826C57.461 13.1253 57.604 13.6422 57.8759 14.0893C58.205 14.6341 58.6772 14.8996 59.2782 14.8996C59.8792 14.8996 60.3371 14.6202 60.6662 14.0753C60.9523 13.6143 61.0954 13.0834 61.0954 12.4547Z" fill="black"/>
<path d="M67.6489 10.4149C67.4915 10.387 67.3341 10.373 67.1624 10.373C66.6187 10.373 66.2037 10.5686 65.9032 10.9738C65.6457 11.323 65.5169 11.7701 65.5169 12.315V15.8776H63.9715V11.2253C63.9715 10.4429 63.9572 9.73037 63.9286 9.08771H65.2737L65.3309 10.387H65.3738C65.5312 9.93993 65.7888 9.57669 66.1465 9.31124C66.4899 9.07374 66.862 8.948 67.2626 8.948C67.4057 8.948 67.5345 8.948 67.6489 8.97594V10.4149Z" fill="black"/>
<path d="M70.5108 7.04801C70.5108 7.31345 70.4249 7.53699 70.2389 7.70464C70.0529 7.87229 69.8239 7.95611 69.5377 7.95611C69.2802 7.95611 69.0655 7.87229 68.8795 7.69067C68.7078 7.52302 68.622 7.29948 68.622 7.04801C68.622 6.79653 68.7078 6.573 68.8938 6.40535C69.0798 6.23769 69.2945 6.15387 69.5664 6.15387C69.8382 6.15387 70.0529 6.23769 70.2389 6.40535C70.4249 6.573 70.5108 6.78256 70.5108 7.04801ZM70.3247 15.8776H68.7794V9.08776H70.3247V15.8776Z" fill="black"/>
<path d="M76.3345 13.9216C76.3345 14.5503 76.0913 15.0672 75.6191 15.4445C75.1469 15.8217 74.4887 16.0173 73.6444 16.0173C72.8575 16.0173 72.1849 15.8636 71.6269 15.5562L71.956 14.4385C72.4854 14.7599 73.0578 14.9136 73.6588 14.9136C74.4457 14.9136 74.8464 14.6341 74.8464 14.0613C74.8464 13.8099 74.7605 13.6003 74.5888 13.4326C74.4171 13.265 74.1166 13.1113 73.6731 12.9437C72.4282 12.4966 71.8129 11.84 71.8129 10.9877C71.8129 10.401 72.0418 9.91198 72.4997 9.5208C72.9576 9.12961 73.5586 8.93402 74.317 8.93402C75.0038 8.93402 75.5905 9.07373 76.077 9.33918L75.7479 10.4149C75.3043 10.1495 74.8321 10.0237 74.3313 10.0237C74.0022 10.0237 73.7589 10.0936 73.5729 10.2473C73.3869 10.401 73.301 10.5826 73.301 10.8201C73.301 11.0576 73.4012 11.2392 73.5872 11.3929C73.7446 11.5326 74.0594 11.6863 74.5316 11.8539C75.7336 12.301 76.3345 12.9856 76.3345 13.9077V13.9216Z" fill="black"/>
<path d="M79.3537 7.04801C79.3537 7.31345 79.2679 7.53699 79.0818 7.70464C78.8958 7.87229 78.6669 7.95611 78.3807 7.95611C78.1231 7.95611 77.9085 7.87229 77.7225 7.69067C77.5508 7.52302 77.4649 7.29948 77.4649 7.04801C77.4649 6.79653 77.5508 6.573 77.7368 6.40535C77.9228 6.23769 78.1375 6.15387 78.4093 6.15387C78.6812 6.15387 78.8958 6.23769 79.0818 6.40535C79.2679 6.573 79.3537 6.78256 79.3537 7.04801ZM79.182 15.8776H77.6366V9.08776H79.182V15.8776Z" fill="black"/>
<path d="M86.6513 12.1613C86.6513 12.4267 86.637 12.6642 86.5941 12.8459H81.9579C81.9722 13.5165 82.2012 14.0334 82.6305 14.3827C83.0168 14.704 83.5319 14.8577 84.1472 14.8577C84.834 14.8577 85.4636 14.7459 86.0217 14.5363L86.265 15.5842C85.6067 15.8636 84.834 16.0033 83.9326 16.0033C82.8594 16.0033 82.0009 15.6959 81.3856 15.0672C80.7703 14.4525 80.4555 13.6143 80.4555 12.5664C80.4555 11.5186 80.7417 10.6943 81.314 10.0098C81.915 9.28329 82.7306 8.92004 83.7466 8.92004C84.7625 8.92004 85.5066 9.28329 86.0217 10.0098C86.4367 10.5826 86.637 11.2951 86.637 12.1473L86.6513 12.1613ZM85.1775 11.7701C85.1775 11.323 85.0916 10.9319 84.877 10.6105C84.6051 10.1914 84.2045 9.98183 83.6464 9.98183C83.1456 9.98183 82.7306 10.1914 82.4158 10.5965C82.1583 10.9179 82.0009 11.3091 81.9579 11.7701H85.1775Z" fill="black"/>
<path d="M91.5736 10.4149C91.4162 10.387 91.2588 10.373 91.0871 10.373C90.5433 10.373 90.1284 10.5686 89.8279 10.9738C89.5703 11.323 89.4415 11.7701 89.4415 12.315V15.8776H87.8962V11.2253C87.8962 10.4429 87.8819 9.73037 87.8532 9.08771H89.1983L89.2555 10.387H89.2985C89.4559 9.93993 89.7134 9.57669 90.0711 9.31124C90.4146 9.07374 90.7866 8.948 91.1872 8.948C91.3303 8.948 91.4591 8.948 91.5736 8.97594V10.4149Z" fill="black"/>
<path d="M96.6819 10.2193H94.9792V13.5164C94.9792 14.3547 95.2796 14.7738 95.8806 14.7738C96.1525 14.7738 96.3814 14.7458 96.5675 14.7039L96.6104 15.8495C96.3099 15.9613 95.9092 16.0172 95.4084 16.0172C94.7931 16.0172 94.321 15.8356 93.9775 15.4723C93.6341 15.1091 93.4624 14.4944 93.4624 13.6421V10.2193H92.4465V9.08763H93.4624V7.84423L94.9792 7.39716V9.08763H96.6819V10.2193Z" fill="black"/>
<path d="M103.55 12.1613C103.55 12.4267 103.536 12.6642 103.493 12.8459H98.8569C98.8712 13.5165 99.1001 14.0334 99.5294 14.3827C99.9158 14.704 100.431 14.8577 101.046 14.8577C101.733 14.8577 102.363 14.7459 102.921 14.5363L103.164 15.5842C102.506 15.8636 101.733 16.0033 100.832 16.0033C99.7584 16.0033 98.8998 15.6959 98.2845 15.0672C97.6692 14.4525 97.3544 13.6143 97.3544 12.5664C97.3544 11.5186 97.6406 10.6943 98.213 10.0098C98.814 9.28329 99.6296 8.92004 100.646 8.92004C101.661 8.92004 102.406 9.28329 102.921 10.0098C103.336 10.5826 103.536 11.2951 103.536 12.1473L103.55 12.1613ZM102.076 11.7701C102.076 11.323 101.991 10.9319 101.776 10.6105C101.504 10.1914 101.103 9.98183 100.545 9.98183C100.045 9.98183 99.6296 10.1914 99.3148 10.5965C99.0572 10.9179 98.8998 11.3091 98.8569 11.7701H102.076Z" fill="black"/>
<path d="M108.601 10.4149C108.444 10.387 108.287 10.373 108.115 10.373C107.571 10.373 107.156 10.5686 106.856 10.9738C106.598 11.323 106.469 11.7701 106.469 12.315V15.8776H104.924V11.2253C104.924 10.4429 104.91 9.73037 104.881 9.08771H106.226L106.283 10.387H106.326C106.484 9.93993 106.741 9.57669 107.099 9.31124C107.442 9.07374 107.814 8.948 108.215 8.948C108.358 8.948 108.487 8.948 108.601 8.97594V10.4149Z" fill="black"/>
<path d="M42.923 31.8462H41.3776V27.5991H37.1994V31.8462H35.654V22.4299H37.1994V26.2719H41.3776V22.4299H42.923V31.8462Z" fill="black"/>
<path d="M50.0632 31.8463H48.6752L48.5608 31.0639H48.5178C48.0456 31.6926 47.3588 32 46.486 32C45.8277 32 45.2983 31.7904 44.8977 31.3853C44.5399 31.008 44.3539 30.547 44.3539 30.0021C44.3539 29.1779 44.7116 28.5352 45.4271 28.1021C46.1425 27.669 47.1442 27.4455 48.432 27.4594V27.3337C48.432 26.4396 47.9455 25.9925 46.9868 25.9925C46.2999 25.9925 45.699 26.1601 45.1695 26.4954L44.8547 25.5035C45.4986 25.1123 46.2999 24.9167 47.2443 24.9167C49.0616 24.9167 49.9774 25.8528 49.9774 27.7249V30.2257C49.9774 30.9102 50.006 31.4411 50.0775 31.8463H50.0632ZM46.8151 23.324C46.8151 23.5476 46.7435 23.7292 46.5861 23.8829C46.443 24.0366 46.257 24.1064 46.0281 24.1064C45.7991 24.1064 45.6274 24.0366 45.47 23.8689C45.3126 23.7152 45.2411 23.5336 45.2411 23.3101C45.2411 23.0865 45.3126 22.9189 45.47 22.7652C45.6274 22.6115 45.8134 22.5277 46.0424 22.5277C46.2713 22.5277 46.443 22.5976 46.5861 22.7652C46.7292 22.9189 46.8008 23.1005 46.8008 23.3101L46.8151 23.324ZM48.4606 29.5132V28.4653C46.7435 28.4374 45.885 28.8984 45.885 29.8345C45.885 30.1838 45.9851 30.4492 46.1855 30.6308C46.3858 30.8124 46.6434 30.8963 46.9438 30.8963C47.2873 30.8963 47.6021 30.7845 47.8882 30.5749C48.1744 30.3654 48.3604 30.0999 48.432 29.7786C48.4463 29.7087 48.4606 29.6109 48.4606 29.5132ZM49.5052 23.324C49.5052 23.5476 49.4336 23.7292 49.2905 23.8829C49.1474 24.0366 48.9614 24.1064 48.7182 24.1064C48.4749 24.1064 48.3175 24.0366 48.1601 23.8689C48.017 23.7152 47.9455 23.5336 47.9455 23.3101C47.9455 23.0865 48.017 22.9189 48.1744 22.7652C48.3318 22.6115 48.5178 22.5277 48.7468 22.5277C48.9757 22.5277 49.1474 22.5976 49.2905 22.7652C49.4336 22.9189 49.5052 23.1005 49.5052 23.3101V23.324Z" fill="black"/>
<path d="M57.7042 31.8463H56.1588V27.9484C56.1588 26.7469 55.6866 26.1461 54.7565 26.1461C54.2986 26.1461 53.9266 26.3138 53.6404 26.6491C53.3543 26.9844 53.2112 27.3756 53.2112 27.8226V31.8602H51.6658V27.0123C51.6658 26.4116 51.6515 25.7689 51.6086 25.0704H52.9679L53.0395 26.1182H53.0824C53.2684 25.7969 53.526 25.5174 53.8837 25.3079C54.2986 25.0564 54.7708 24.9307 55.286 24.9307C55.9299 24.9307 56.4736 25.1402 56.9029 25.5454C57.4323 26.0483 57.7042 26.8028 57.7042 27.7947V31.8602V31.8463Z" fill="black"/>
<path d="M65.5885 31.8463H64.2148L64.1433 30.7566H64.1003C63.6567 31.5809 62.9127 32 61.8681 32C61.0239 32 60.3371 31.6787 59.779 31.036C59.221 30.3934 58.9491 29.5551 58.9491 28.5352C58.9491 27.4315 59.2496 26.5514 59.8506 25.8668C60.4372 25.2381 61.1527 24.9168 62.0112 24.9168C62.9556 24.9168 63.6138 25.2241 63.9859 25.8389V21.941H65.5312V30.0162C65.5312 30.6728 65.5455 31.2875 65.5885 31.8463ZM63.9859 28.9683V27.8367C63.9859 27.6411 63.9715 27.4874 63.9429 27.3617C63.8571 26.9984 63.6711 26.6911 63.3849 26.4396C63.0987 26.1881 62.7553 26.0624 62.3546 26.0624C61.7823 26.0624 61.3244 26.2859 60.9953 26.733C60.6662 27.1801 60.4945 27.7529 60.4945 28.4514C60.4945 29.15 60.6519 29.6669 60.9667 30.086C61.2958 30.5331 61.7536 30.7566 62.3117 30.7566C62.8125 30.7566 63.2275 30.575 63.528 30.1978C63.8285 29.8485 63.9715 29.4433 63.9715 28.9544L63.9859 28.9683Z" fill="black"/>
<path d="M68.808 31.8463H67.2626V21.941H68.808V31.8463Z" fill="black"/>
<path d="M76.2916 28.13C76.2916 28.3955 76.2773 28.633 76.2344 28.8146H71.5982C71.6125 29.4852 71.8415 30.0021 72.2708 30.3514C72.6571 30.6727 73.1722 30.8264 73.7875 30.8264C74.4743 30.8264 75.1039 30.7147 75.662 30.5051L75.9053 31.5529C75.247 31.8323 74.4743 31.972 73.5729 31.972C72.4997 31.972 71.6412 31.6647 71.0259 31.036C70.4106 30.4213 70.0958 29.583 70.0958 28.5352C70.0958 27.4874 70.382 26.6631 70.9543 25.9785C71.5553 25.252 72.3709 24.8888 73.3869 24.8888C74.4028 24.8888 75.1469 25.252 75.662 25.9785C76.077 26.5513 76.2773 27.2638 76.2773 28.1161L76.2916 28.13ZM74.8178 27.7249C74.8178 27.2778 74.7319 26.8866 74.5173 26.5653C74.2454 26.1462 73.8448 25.9366 73.2867 25.9366C72.7859 25.9366 72.3709 26.1462 72.0561 26.5513C71.7986 26.8727 71.6412 27.2638 71.5982 27.7249H74.8178Z" fill="black"/>
<path d="M81.2139 26.3697C81.0565 26.3418 80.8991 26.3278 80.7274 26.3278C80.1837 26.3278 79.7687 26.5234 79.4682 26.9285C79.2106 27.2778 79.0819 27.7249 79.0819 28.2698V31.8323H77.5365V27.18C77.5365 26.3977 77.5222 25.6851 77.4936 25.0425H78.8386L78.8958 26.3418H78.9388C79.0962 25.8947 79.3537 25.5315 79.7115 25.266C80.0549 25.0285 80.4269 24.9028 80.8276 24.9028C80.9707 24.9028 81.0994 24.9028 81.2139 24.9307V26.3697Z" fill="black"/>
</svg>
