<svg id="acn" xmlns="http://www.w3.org/2000/svg" width="182.498" height="57.053" viewBox="0 0 182.498 57.053">
  <g id="XMLID_314_" transform="translate(0)">
    <path id="XMLID_315_" d="M46.382,41.782a31.513,31.513,0,0,1-3.946,8.1c-2.373,3.472-4.837,6.931-8.721,7-3.813.072-5.041-2.263-9.4-2.263s-5.726,2.193-9.332,2.336c-3.746.141-6.6-3.754-8.994-7.211C1.1,42.671-2.637,29.759,2.384,21.049a13.926,13.926,0,0,1,11.782-7.142c3.683-.069,7.151,2.473,9.4,2.473s6.466-3.06,10.9-2.61a13.307,13.307,0,0,1,10.419,5.649c-.266.169-6.221,3.634-6.156,10.838A12.575,12.575,0,0,0,46.382,41.782ZM31.564,9.094A12.526,12.526,0,0,0,34.528,0a12.708,12.708,0,0,0-8.389,4.315c-1.844,2.131-3.461,5.541-3.023,8.807C26.309,13.371,29.579,11.5,31.564,9.094Z" transform="translate(0)" fill="#fff"/>
  </g>
  <g id="Gruppe_5697" data-name="Gruppe 5697" transform="translate(61.514 13.379)">
    <path id="Pfad_8658" data-name="Pfad 8658" d="M68.21,23.2c0-5.132,2.9-8.366,7.422-8.366,3.673,0,6.446,2.257,6.873,5.637H80.012a4.312,4.312,0,0,0-4.38-3.436c-2.942,0-4.851,2.414-4.851,6.165,0,3.784,1.886,6.176,4.862,6.176a4.16,4.16,0,0,0,4.368-3.11h2.5c-.617,3.346-3.155,5.311-6.884,5.311C71.085,31.577,68.21,28.366,68.21,23.2Z" transform="translate(-68.21 -14.835)" fill="#fff"/>
    <path id="Pfad_8659" data-name="Pfad 8659" d="M85.68,25.893c0-3.717,2.189-6.052,5.6-6.052s5.6,2.336,5.6,6.052-2.167,6.052-5.6,6.052S85.68,29.621,85.68,25.893Zm8.737,0c0-2.549-1.168-4.054-3.134-4.054s-3.133,1.516-3.133,4.054c0,2.56,1.168,4.054,3.133,4.054S94.417,28.453,94.417,25.893Z" transform="translate(-69.925 -15.326)" fill="#fff"/>
    <path id="Pfad_8660" data-name="Pfad 8660" d="M100.314,19.988h2.314V22h.055a3.775,3.775,0,0,1,3.717-2.145c2.605,0,4.1,1.673,4.1,4.379V31.8h-2.436V24.7c0-1.774-.82-2.762-2.527-2.762A2.745,2.745,0,0,0,102.74,25v6.8h-2.425Z" transform="translate(-71.362 -15.327)" fill="#fff"/>
    <path id="Pfad_8661" data-name="Pfad 8661" d="M118.938,19.853c2.617,0,4.492,1.448,4.548,3.537h-2.279c-.1-1.045-.988-1.685-2.336-1.685-1.314,0-2.19.607-2.19,1.527,0,.708.584,1.179,1.808,1.482l1.988.461c2.381.572,3.279,1.449,3.279,3.178,0,2.134-2.021,3.593-4.907,3.593-2.785,0-4.66-1.426-4.839-3.582h2.4c.168,1.134,1.078,1.74,2.55,1.74,1.448,0,2.358-.595,2.358-1.538,0-.73-.449-1.123-1.685-1.437l-2.11-.517c-2.134-.517-3.212-1.606-3.212-3.245C114.312,21.279,116.187,19.853,118.938,19.853Z" transform="translate(-72.706 -15.327)" fill="#fff"/>
    <path id="Pfad_8662" data-name="Pfad 8662" d="M137.414,31.815H135.09V29.783h-.056a3.692,3.692,0,0,1-3.661,2.167c-2.571,0-4.144-1.662-4.144-4.368V20h2.425V27.11c0,1.8.854,2.751,2.527,2.751a2.736,2.736,0,0,0,2.808-3.054V20h2.425Z" transform="translate(-74.004 -15.342)" fill="#fff"/>
    <path id="Pfad_8663" data-name="Pfad 8663" d="M141.657,15.134h2.425v16.2h-2.425Z" transform="translate(-75.421 -14.864)" fill="#fff"/>
    <path id="Pfad_8664" data-name="Pfad 8664" d="M150.528,16.9v2.8h2.246v1.92h-2.246v6.513c0,1.01.449,1.482,1.437,1.482a7.378,7.378,0,0,0,.8-.056v1.909a6.68,6.68,0,0,1-1.347.112c-2.392,0-3.324-.9-3.324-3.189V21.618h-1.718V19.7h1.718V16.9Z" transform="translate(-75.884 -15.038)" fill="#fff"/>
    <path id="Pfad_8665" data-name="Pfad 8665" d="M155.436,28.442c0-2.066,1.583-3.312,4.39-3.481l3.234-.18v-.9c0-1.314-.865-2.055-2.336-2.055a2.258,2.258,0,0,0-2.482,1.662h-2.268c.067-2.133,2.055-3.649,4.817-3.649,2.818,0,4.682,1.538,4.682,3.863v8.1H163.15V29.857h-.056A4.22,4.22,0,0,1,159.365,32C157.053,32,155.436,30.564,155.436,28.442Zm7.624-1.067v-.91l-2.908.18c-1.449.09-2.269.719-2.269,1.73,0,1.033.853,1.707,2.156,1.707A2.832,2.832,0,0,0,163.06,27.375Z" transform="translate(-76.773 -15.326)" fill="#fff"/>
    <path id="Pfad_8666" data-name="Pfad 8666" d="M169.553,19.988h2.314V22h.055a3.775,3.775,0,0,1,3.717-2.145c2.605,0,4.1,1.673,4.1,4.379V31.8H177.3V24.7c0-1.774-.82-2.762-2.527-2.762a2.745,2.745,0,0,0-2.8,3.054v6.8h-2.425Z" transform="translate(-78.159 -15.327)" fill="#fff"/>
    <path id="Pfad_8667" data-name="Pfad 8667" d="M186.6,16.9v2.8h2.246v1.92H186.6v6.513c0,1.01.449,1.482,1.437,1.482a7.343,7.343,0,0,0,.8-.056v1.909a6.68,6.68,0,0,1-1.347.112c-2.391,0-3.324-.9-3.324-3.189V21.618h-1.717V19.7h1.717V16.9Z" transform="translate(-79.424 -15.038)" fill="#fff"/>
    <path id="Pfad_8668" data-name="Pfad 8668" d="M196.485,19.853c2.617,0,4.492,1.448,4.548,3.537h-2.279c-.1-1.045-.988-1.685-2.336-1.685-1.314,0-2.19.607-2.19,1.527,0,.708.584,1.179,1.808,1.482l1.988.461c2.381.572,3.279,1.449,3.279,3.178,0,2.134-2.021,3.593-4.907,3.593-2.785,0-4.66-1.426-4.839-3.582h2.4c.168,1.134,1.078,1.74,2.55,1.74,1.448,0,2.358-.595,2.358-1.538,0-.73-.449-1.123-1.685-1.437l-2.11-.517c-2.134-.517-3.212-1.606-3.212-3.245C191.859,21.279,193.734,19.853,196.485,19.853Z" transform="translate(-80.319 -15.327)" fill="#fff"/>
    <path id="Pfad_8669" data-name="Pfad 8669" d="M69.878,61.338v-16.2h2.279l8.4,11.948h.09V45.135H83.1v16.2H80.826L72.427,49.4h-.1V61.338Z" transform="translate(-68.374 -17.809)" fill="#fff"/>
    <path id="Pfad_8670" data-name="Pfad 8670" d="M97.976,58.33c-.326,2.145-2.414,3.616-5.087,3.616-3.436,0-5.57-2.3-5.57-6s2.145-6.109,5.468-6.109c3.267,0,5.323,2.246,5.323,5.828V56.5H89.767v.146a3.076,3.076,0,0,0,3.178,3.346,2.674,2.674,0,0,0,2.728-1.662Zm-8.2-3.525h5.907a2.841,2.841,0,0,0-2.9-3A2.992,2.992,0,0,0,89.779,54.8Z" transform="translate(-70.086 -18.271)" fill="#fff"/>
    <path id="Pfad_8671" data-name="Pfad 8671" d="M104.782,46.9v2.8h2.246v1.92h-2.246v6.513c0,1.011.449,1.482,1.437,1.482a7.517,7.517,0,0,0,.8-.055v1.908a6.654,6.654,0,0,1-1.347.112c-2.392,0-3.324-.9-3.324-3.188V51.618h-1.718V49.7h1.718V46.9Z" transform="translate(-71.393 -17.983)" fill="#fff"/>
    <path id="Pfad_8672" data-name="Pfad 8672" d="M122.563,61.816h-2.526l-2.482-8.848H117.5l-2.459,8.848h-2.5L109.291,50h2.425l2.156,9.3h.045l2.459-9.3h2.336l2.47,9.3h.056l2.156-9.3h2.4Z" transform="translate(-72.243 -18.287)" fill="#fff"/>
    <path id="Pfad_8673" data-name="Pfad 8673" d="M128.4,55.894c0-3.717,2.189-6.053,5.6-6.053s5.6,2.336,5.6,6.053-2.167,6.052-5.6,6.052S128.4,59.621,128.4,55.894Zm8.736,0c0-2.55-1.168-4.054-3.133-4.054s-3.133,1.516-3.133,4.054c0,2.559,1.168,4.053,3.133,4.053S137.135,58.453,137.135,55.894Z" transform="translate(-74.119 -18.271)" fill="#fff"/>
    <path id="Pfad_8674" data-name="Pfad 8674" d="M143.288,49.989H145.6V52h.056a2.815,2.815,0,0,1,2.84-2.133,3.733,3.733,0,0,1,.831.09v2.268a3.406,3.406,0,0,0-1.089-.146,2.443,2.443,0,0,0-2.527,2.718V61.8h-2.425Z" transform="translate(-75.581 -18.274)" fill="#fff"/>
    <path id="Pfad_8675" data-name="Pfad 8675" d="M159.359,49.525h2.852l-4.9,5.087,5.087,6.726h-2.819l-4.008-5.244-1.011,1v4.245h-2.425v-16.2h2.425v9.454h.023Z" transform="translate(-76.449 -17.809)" fill="#fff"/>
  </g>
</svg>
