<?xml version="1.0" encoding="UTF-8"?>
<svg id="Gruppe_5733" xmlns="http://www.w3.org/2000/svg" xmlns:xlink="http://www.w3.org/1999/xlink" version="1.1" viewBox="0 0 210 58">
  <!-- Generator: Adobe Illustrator 29.0.0, SVG Export Plug-In . SVG Version: 2.1.0 Build 186)  -->
  <defs>
    <style>
      .st0 {
        fill: none;
      }

      .st1 {
        clip-path: url(#clippath);
      }
    </style>
    <clipPath id="clippath">
      <rect class="st0" x=".6" y=".5" width="208.9" height="57.1"/>
    </clipPath>
  </defs>
  <g class="st1">
    <g id="Gruppe_5703">
      <path id="Pfad_8677" d="M47,42.3c-.9,2.9-2.3,5.6-4,8.1-2.4,3.5-4.8,6.9-8.7,7-3.8,0-5-2.3-9.4-2.3s-5.7,2.2-9.4,2.3c-3.8.1-6.6-3.8-9-7.2C1.7,43.2-2.1,30.3,2.9,21.6c2.4-4.3,6.9-7,11.8-7.2,3.7,0,7.2,2.5,9.4,2.5s6.5-3.1,10.9-2.6c4.2.1,8,2.2,10.4,5.7-.3.2-6.2,3.6-6.2,10.9,0,5,3,9.6,7.7,11.5M32.2,9.6c2.2-2.5,3.2-5.8,3-9.1-3.3.3-6.3,1.9-8.4,4.3-1.8,2.1-3.5,5.6-3,8.8,3.2.2,6.5-1.6,8.5-4"/>
      <path id="Pfad_8678" d="M81.3,31.1h-2.4l-1.3-4.1h-4.6l-1.3,4.1h-2.3l4.5-14.1h2.8l4.6,14.1ZM77.1,25.2l-1.2-3.7c-.1-.4-.4-1.3-.7-2.7h0c-.1.6-.4,1.5-.7,2.7l-1.2,3.7h3.8Z"/>
      <path id="Pfad_8679" d="M91.3,31.1h-2v-1.6h-.2c-.7,1.2-1.9,1.8-3.2,1.8-.9,0-1.8-.3-2.4-.9-.8-1-1.2-2.2-1.1-3.5v-6h2.3v5.6c0,2,.7,2.9,2,2.9,1,0,1.8-.6,2.1-1.5.1-.3.2-.6.1-.9v-6.2h2.3v7.3c0,1,0,1.9,0,2.9"/>
      <path id="Pfad_8680" d="M99.2,22.6h-2.5v5c0,1.3.4,1.9,1.3,1.9.3,0,.7,0,1-.1v1.7c-.5.2-1.1.3-1.7.2-.8,0-1.6-.3-2.1-.8-.6-.8-.8-1.8-.8-2.8v-5.1h-1.5v-1.7h1.5v-1.9l2.2-.7v2.5h2.5v1.7Z"/>
      <path id="Pfad_8681" d="M110.2,25.9c0,1.4-.4,2.8-1.3,3.9-1,1-2.3,1.6-3.7,1.6-1.4,0-2.7-.5-3.6-1.5-.9-1-1.4-2.4-1.3-3.8,0-1.4.4-2.8,1.4-3.9,1-1,2.3-1.6,3.7-1.5,1.4,0,2.7.5,3.6,1.5.9,1,1.4,2.4,1.3,3.7M107.9,26c0-.8-.2-1.7-.6-2.4-.4-.8-1.2-1.2-2-1.2-.9,0-1.7.4-2.1,1.2-.4.7-.6,1.6-.6,2.4,0,.8.2,1.7.6,2.4.4.8,1.2,1.2,2.1,1.2.9,0,1.6-.5,2-1.2.4-.7.7-1.6.6-2.4"/>
      <path id="Pfad_8682" d="M117.7,22.9c-.2,0-.5,0-.7,0-.7,0-1.4.3-1.9.9-.4.6-.6,1.3-.6,2v5.3h-2.3v-7c0-1.2,0-2.2,0-3.2h2v2h.1c.2-.6.6-1.2,1.1-1.6.5-.4,1-.5,1.6-.5.2,0,.4,0,.6,0v2.2Z"/>
      <path id="Pfad_8683" d="M121.9,17.9c0,.4-.1.7-.4,1-.3.3-.6.4-1,.4-.4,0-.7-.1-1-.4-.3-.3-.4-.6-.4-1,0-.4.1-.7.4-1,.6-.5,1.4-.5,2,0,.3.2.4.6.4,1M121.6,31.1h-2.3v-10.2h2.3v10.2Z"/>
      <path id="Pfad_8684" d="M130.4,28.1c0,.9-.4,1.7-1,2.3-.8.6-1.9.9-2.9.9-1,0-2-.2-2.9-.7l.5-1.7c.8.5,1.6.7,2.5.7,1.2,0,1.7-.4,1.7-1.3,0-.3-.1-.7-.4-.9-.4-.3-.8-.6-1.3-.7-1.8-.7-2.7-1.6-2.7-2.9,0-.8.4-1.7,1-2.2.7-.6,1.7-.9,2.7-.9.9,0,1.8.2,2.6.6l-.5,1.6c-.6-.4-1.3-.6-2.1-.6-.4,0-.8,0-1.1.3-.3.2-.4.5-.4.9,0,.3.1.7.4.9.4.3.9.5,1.4.7,1.8.7,2.6,1.7,2.6,3.1"/>
      <path id="Pfad_8685" d="M135,17.9c0,.4-.1.7-.4,1-.3.3-.6.4-1,.4-.4,0-.7-.1-1-.4-.3-.3-.4-.6-.4-1,0-.4.1-.7.4-1,.6-.5,1.4-.5,2,0,.3.2.4.6.4,1M134.7,31.1h-2.3v-10.2h2.3v10.2Z"/>
      <path id="Pfad_8686" d="M145.9,25.5c0,.3,0,.7,0,1h-6.8c0,.9.3,1.7,1,2.3.6.5,1.4.7,2.2.7.9,0,1.9-.2,2.8-.5l.4,1.6c-1.1.4-2.2.7-3.4.6-1.4,0-2.7-.4-3.7-1.4-.9-1-1.4-2.4-1.4-3.8,0-1.4.4-2.8,1.3-3.8.9-1.1,2.2-1.7,3.6-1.6,1.3,0,2.6.5,3.3,1.6.6,1,.9,2.1.9,3.2M143.7,24.9c0-.6-.1-1.2-.4-1.7-.4-.6-1.1-1-1.8-.9-.7,0-1.4.3-1.8.9-.4.5-.6,1.1-.7,1.8h4.7Z"/>
      <path id="Pfad_8687" d="M153.3,22.9c-.2,0-.5,0-.7,0-.7,0-1.4.3-1.9.9-.4.6-.6,1.3-.6,2v5.3h-2.3v-7c0-1.2,0-2.2,0-3.2h2v2h.1c.2-.6.6-1.2,1.1-1.6.5-.4,1-.5,1.6-.5.2,0,.4,0,.6,0v2.2Z"/>
      <path id="Pfad_8688" d="M160.5,22.6h-2.5v5c0,1.3.4,1.9,1.3,1.9.3,0,.7,0,1-.1v1.7c-.5.2-1.1.3-1.7.2-.8,0-1.6-.3-2.1-.8-.6-.8-.8-1.8-.8-2.8v-5.1h-1.5v-1.7h1.5v-1.9l2.2-.7v2.5h2.5v1.7Z"/>
      <path id="Pfad_8689" d="M170.7,25.5c0,.3,0,.7,0,1h-6.8c0,.9.3,1.7,1,2.3.6.5,1.4.7,2.2.7.9,0,1.9-.2,2.8-.5l.4,1.6c-1.1.4-2.2.7-3.4.6-1.4,0-2.7-.4-3.7-1.4-.9-1-1.4-2.4-1.4-3.8,0-1.4.4-2.8,1.3-3.8.9-1.1,2.2-1.7,3.6-1.6,1.3,0,2.6.5,3.3,1.6.6,1,.9,2.1.9,3.2M168.5,24.9c0-.6-.1-1.2-.4-1.7-.4-.6-1.1-1-1.8-.9-.7,0-1.4.3-1.8.9-.4.5-.6,1.1-.7,1.8h4.7Z"/>
      <path id="Pfad_8690" d="M178.1,22.9c-.2,0-.5,0-.7,0-.7,0-1.4.3-1.9.9-.4.6-.6,1.3-.6,2v5.3h-2.3v-7c0-1.2,0-2.2,0-3.2h2v2h.1c.2-.6.6-1.2,1.1-1.6.5-.4,1-.5,1.6-.5.2,0,.4,0,.6,0v2.2Z"/>
      <path id="Pfad_8691" d="M78.5,51.3c0,1.1-.4,2.2-1.3,2.9-1.1.9-2.5,1.3-3.9,1.2-1.3,0-2.6-.2-3.7-.9l.5-1.9c1,.6,2.1.9,3.3.9.7,0,1.4-.2,2-.6.5-.4.7-.9.7-1.5,0-.5-.2-1.1-.6-1.4-.6-.5-1.2-.9-2-1.1-2.5-.9-3.7-2.3-3.7-4,0-1.1.5-2.2,1.3-2.9,1-.8,2.2-1.2,3.5-1.1,1.1,0,2.2.2,3.2.7l-.6,1.9c-.8-.4-1.8-.7-2.7-.7-.7,0-1.3.2-1.9.6-.4.3-.6.8-.6,1.3,0,.5.2,1,.7,1.4.6.5,1.3.8,2.1,1.1,1,.4,1.9.9,2.7,1.7.6.7.9,1.6.9,2.5"/>
      <path id="Pfad_8692" d="M89.2,49.7c0,.3,0,.7,0,1h-6.8c0,.9.3,1.7,1,2.3.6.5,1.4.7,2.2.7.9,0,1.9-.2,2.8-.5l.4,1.6c-1.1.4-2.2.7-3.4.6-1.4,0-2.7-.4-3.7-1.4-.9-1-1.4-2.4-1.4-3.8,0-1.4.4-2.8,1.3-3.8.9-1.1,2.2-1.7,3.6-1.6,1.3,0,2.6.5,3.3,1.6.6,1,.9,2.1.9,3.2M87,49.1c0-.6-.1-1.2-.4-1.7-.4-.6-1.1-1-1.8-.9-.7,0-1.4.3-1.8.9-.4.5-.6,1.1-.7,1.8h4.7Z"/>
      <path id="Pfad_8693" d="M96.6,47c-.2,0-.5,0-.7,0-.7,0-1.4.3-1.9.9-.4.6-.6,1.3-.6,2v5.3h-2.3v-7c0-1.2,0-2.2,0-3.2h2v2h.1c.2-.6.6-1.2,1.1-1.6.5-.4,1-.5,1.6-.5.2,0,.4,0,.6,0v2.2Z"/>
      <path id="Pfad_8694" d="M107.4,45l-3.9,10.2h-2.2l-3.7-10.2h2.4l1.7,5.4c.3.9.5,1.8.7,2.6h0c.2-.7.4-1.6.7-2.6l1.7-5.4h2.4Z"/>
      <path id="Pfad_8695" d="M111.5,42c0,.4-.1.7-.4,1-.3.3-.6.4-1,.4-.4,0-.7-.1-1-.4-.3-.3-.4-.6-.4-1,0-.4.1-.7.4-1,.6-.5,1.4-.5,2,0,.3.3.4.6.4,1M111.3,55.2h-2.3v-10.2h2.3v10.2Z"/>
      <path id="Pfad_8696" d="M121.3,45.3l-.4,1.7c-.6-.3-1.3-.4-2-.4-.9,0-1.8.3-2.4,1-.6.7-.9,1.6-.9,2.5,0,.9.3,1.9.9,2.6.6.6,1.4,1,2.3.9.7,0,1.4-.1,2.1-.4l.3,1.7c-.9.4-1.8.6-2.8.5-1.4,0-2.7-.4-3.7-1.4-1-1-1.5-2.4-1.4-3.8-.1-2.8,2.1-5.3,4.9-5.4.2,0,.4,0,.6,0,.8,0,1.7.1,2.5.5"/>
      <path id="Pfad_8697" d="M131.4,49.7c0,.3,0,.7,0,1h-6.8c0,.9.3,1.7,1,2.3.6.5,1.4.7,2.2.7.9,0,1.9-.2,2.8-.5l.4,1.6c-1.1.4-2.2.7-3.4.6-1.4,0-2.7-.4-3.7-1.4-.9-1-1.4-2.4-1.4-3.8,0-1.4.4-2.8,1.3-3.8.9-1.1,2.2-1.7,3.6-1.6,1.3,0,2.6.5,3.3,1.6.6,1,.9,2.1.9,3.2M129.2,49.1c0-.6-.1-1.2-.4-1.7-.4-.6-1.1-1-1.8-.9-.7,0-1.4.3-1.8.9-.4.5-.6,1.1-.7,1.8h4.7Z"/>
      <path id="Pfad_8698" d="M147.3,45.2c0,1.2-.4,2.3-1.2,3.1-1.6,1.3-3.6,1.8-5.6,1.4v5.5h-2.3v-14c1.2-.2,2.5-.3,3.7-.3,1.4-.1,2.9.3,4.1,1.2.9.8,1.4,1.9,1.3,3.1M145.1,45.3c0-.7-.3-1.4-.8-1.9-.6-.5-1.4-.7-2.2-.7-.5,0-1,0-1.5.1v5.1c.4,0,.9.1,1.3.1.9,0,1.7-.2,2.4-.7.6-.5.9-1.3.9-2"/>
      <path id="Pfad_8699" d="M154.8,47c-.2,0-.5,0-.7,0-.7,0-1.4.3-1.9.9-.4.6-.6,1.3-.6,2v5.3h-2.3v-7c0-1.2,0-2.2,0-3.2h2v2h.1c.2-.6.6-1.2,1.1-1.6.5-.4,1-.5,1.6-.5.2,0,.4,0,.6,0v2.2Z"/>
      <path id="Pfad_8700" d="M165.6,50.1c0,1.4-.4,2.8-1.3,3.9-1,1-2.3,1.6-3.7,1.6-1.4,0-2.7-.5-3.6-1.5-.9-1-1.4-2.4-1.3-3.8,0-1.4.4-2.8,1.4-3.9,1-1,2.3-1.6,3.7-1.5,1.4,0,2.7.5,3.6,1.5.9,1,1.4,2.4,1.3,3.7M163.3,50.1c0-.8-.2-1.7-.6-2.4-.4-.8-1.2-1.2-2-1.2-.9,0-1.7.4-2.1,1.2-.4.7-.6,1.6-.6,2.4,0,.8.2,1.7.6,2.4.6,1.1,2,1.5,3.2.9.4-.2.7-.5.9-1,.4-.7.7-1.6.6-2.4"/>
      <path id="Pfad_8701" d="M175.8,45l-3.9,10.2h-2.2l-3.7-10.2h2.4l1.7,5.4c.3.9.5,1.8.7,2.6h0c.2-.7.4-1.6.7-2.6l1.7-5.4h2.4Z"/>
      <path id="Pfad_8702" d="M179.6,42c0,.4-.1.7-.4,1-.3.3-.6.4-1,.4-.4,0-.7-.1-1-.4-.3-.3-.4-.6-.4-1,0-.4.1-.7.4-1,.6-.5,1.4-.5,2,0,.3.3.4.6.4,1M179.4,55.2h-2.3v-10.2h2.3v10.2Z"/>
      <path id="Pfad_8703" d="M191,55.2h-2v-1.6h-.2c-.6,1.2-1.9,2-3.3,1.9-1.2,0-2.3-.5-3.1-1.4-.8-1.1-1.3-2.4-1.2-3.8,0-1.5.4-2.9,1.3-4,.8-.9,2-1.4,3.2-1.4,1.1-.1,2.3.4,2.9,1.4v-5.9h2.3v12.1c0,1,0,1.9,0,2.8M188.7,50.9v-1.7c0-.2,0-.5,0-.7-.1-.5-.4-1-.8-1.4-.4-.4-1-.6-1.5-.6-.8,0-1.5.4-2,1-.5.8-.8,1.7-.7,2.6,0,.9.2,1.7.7,2.4.4.6,1.2,1,2,1,.7,0,1.4-.3,1.8-.8.4-.5.7-1.2.7-1.9"/>
      <path id="Pfad_8704" d="M202.1,49.7c0,.3,0,.7,0,1h-6.8c0,.9.3,1.7,1,2.3.6.5,1.4.7,2.2.7.9,0,1.9-.2,2.8-.5l.4,1.6c-1.1.4-2.2.7-3.4.6-1.4,0-2.7-.4-3.7-1.4-.9-1-1.4-2.4-1.4-3.8,0-1.4.4-2.8,1.3-3.8.9-1.1,2.2-1.7,3.6-1.6,1.3,0,2.6.5,3.3,1.6.6,1,.9,2.1.9,3.2M199.9,49.1c0-.6-.1-1.2-.4-1.7-.4-.6-1.1-1-1.8-.9-.7,0-1.4.3-1.8.9-.4.5-.6,1.1-.7,1.8h4.7Z"/>
      <path id="Pfad_8705" d="M209.4,47c-.2,0-.5,0-.7,0-.7,0-1.4.3-1.9.9-.4.6-.6,1.3-.6,2v5.3h-2.3v-7c0-1.2,0-2.2,0-3.2h2v2h.1c.2-.6.6-1.2,1.1-1.6.5-.4,1-.5,1.6-.5.2,0,.4,0,.6,0v2.2Z"/>
    </g>
  </g>
</svg>