<svg xmlns="http://www.w3.org/2000/svg" width="107.93" height="35.054" viewBox="0 0 107.93 35.054"><path d="M2125.607-491.883a19.335,19.335,0,0,1-2.428,4.986c-1.461,2.137-2.978,4.266-5.366,4.309-2.346.045-3.1-1.393-5.784-1.393s-3.525,1.35-5.744,1.438c-2.307.087-4.064-2.31-5.536-4.438-3.01-4.352-5.308-12.3-2.22-17.661a8.573,8.573,0,0,1,7.252-4.4c2.267-.042,4.4,1.522,5.787,1.522s3.98-1.883,6.71-1.606a8.193,8.193,0,0,1,6.412,3.476,7.939,7.939,0,0,0-3.79,6.671,7.734,7.734,0,0,0,4.708,7.092M2116.487-512a7.707,7.707,0,0,0,1.825-5.6,7.826,7.826,0,0,0-5.164,2.654,7.334,7.334,0,0,0-1.859,5.422,6.5,6.5,0,0,0,5.2-2.479" transform="translate(-2097.062 517.595)" fill="#fff"/><g transform="translate(42.25 9.907)"><g transform="translate(0 0.269)"><path d="M2137.439-501.016h-1.468l-.8-2.528h-2.8l-.767,2.528h-1.429l2.77-8.6h1.71Zm-2.515-3.588-.729-2.246c-.075-.23-.221-.771-.433-1.622h-.026q-.127.549-.409,1.622l-.714,2.246Z" transform="translate(-2130.175 509.62)" fill="#fff"/><path d="M2141.8-501.535h-1.212l-.076-.945h-.025a2.141,2.141,0,0,1-1.967,1.086,1.938,1.938,0,0,1-1.469-.574,3.026,3.026,0,0,1-.65-2.119v-3.652h1.378v3.422q0,1.788,1.226,1.786a1.283,1.283,0,0,0,1.276-.893,1.452,1.452,0,0,0,.089-.523v-3.792h1.378v4.417C2141.746-502.734,2141.764-502.14,2141.8-501.535Z" transform="translate(-2128.457 510.139)" fill="#fff"/></g><g transform="translate(14.298)"><path d="M2145.16-506.373h-1.519v3.014q0,1.148.8,1.148a2.477,2.477,0,0,0,.613-.062l.04,1.045a3.092,3.092,0,0,1-1.073.154,1.65,1.65,0,0,1-1.277-.5,2.445,2.445,0,0,1-.459-1.672v-3.129h-.906v-1.034h.906v-1.136l1.354-.408v1.544h1.519Z" transform="translate(-2141.381 510.074)" fill="#fff"/><path d="M2150.889-504.66a3.4,3.4,0,0,1-.818,2.349,2.916,2.916,0,0,1-2.273.944,2.771,2.771,0,0,1-2.175-.907,3.3,3.3,0,0,1-.812-2.284,3.37,3.37,0,0,1,.837-2.362,2.89,2.89,0,0,1,2.253-.92,2.835,2.835,0,0,1,2.2.907A3.273,3.273,0,0,1,2150.889-504.66Zm-1.428.031a2.758,2.758,0,0,0-.372-1.462,1.362,1.362,0,0,0-1.238-.739,1.382,1.382,0,0,0-1.265.739,2.827,2.827,0,0,0-.37,1.489,2.781,2.781,0,0,0,.37,1.464,1.393,1.393,0,0,0,1.252.737,1.379,1.379,0,0,0,1.238-.75A2.766,2.766,0,0,0,2149.46-504.63Z" transform="translate(-2140.435 510.38)" fill="#fff"/><path d="M2153.754-506.5a2.347,2.347,0,0,0-.434-.038,1.309,1.309,0,0,0-1.124.549,2.067,2.067,0,0,0-.344,1.225v3.256h-1.378v-4.252q0-1.072-.038-1.953h1.2l.051,1.188h.038a2.129,2.129,0,0,1,.689-.982,1.671,1.671,0,0,1,1-.333,2.16,2.16,0,0,1,.344.026Z" transform="translate(-2138.882 510.38)" fill="#fff"/><path d="M2155.393-509.014a.788.788,0,0,1-.244.6.871.871,0,0,1-.625.23.779.779,0,0,1-.58-.237.805.805,0,0,1-.236-.593.776.776,0,0,1,.241-.587.843.843,0,0,1,.6-.23.837.837,0,0,1,.6.23A.772.772,0,0,1,2155.393-509.014Zm-.155,8.056h-1.378v-6.2h1.378Z" transform="translate(-2137.98 509.831)" fill="#fff"/><path d="M2160.006-503.295a1.707,1.707,0,0,1-.638,1.392,2.7,2.7,0,0,1-1.76.523,3.592,3.592,0,0,1-1.8-.421l.294-1.021a2.89,2.89,0,0,0,1.52.433q1.059,0,1.059-.777a.753.753,0,0,0-.23-.569,2.442,2.442,0,0,0-.815-.44q-1.661-.614-1.661-1.788a1.713,1.713,0,0,1,.613-1.341,2.374,2.374,0,0,1,1.622-.536,3.123,3.123,0,0,1,1.568.37l-.292.984a2.435,2.435,0,0,0-1.264-.358,1.014,1.014,0,0,0-.676.205.65.65,0,0,0-.243.523.645.645,0,0,0,.256.524,2.913,2.913,0,0,0,.842.42Q2160.008-504.559,2160.006-503.295Z" transform="translate(-2137.4 510.38)" fill="#fff"/><path d="M2161.576-509.014a.794.794,0,0,1-.242.6.878.878,0,0,1-.626.23.784.784,0,0,1-.582-.237.805.805,0,0,1-.236-.593.775.775,0,0,1,.243-.587.838.838,0,0,1,.6-.23.845.845,0,0,1,.6.23A.78.78,0,0,1,2161.576-509.014Zm-.154,8.056h-1.378v-6.2h1.38Z" transform="translate(-2136.273 509.831)" fill="#fff"/><path d="M2167.506-504.9a3.188,3.188,0,0,1-.051.625h-4.137a1.806,1.806,0,0,0,.6,1.4,2.046,2.046,0,0,0,1.352.433,4.543,4.543,0,0,0,1.672-.294l.218.958a5.191,5.191,0,0,1-2.081.383,3.009,3.009,0,0,1-2.266-.85,3.132,3.132,0,0,1-.823-2.278,3.565,3.565,0,0,1,.765-2.338,2.649,2.649,0,0,1,2.17-.994,2.314,2.314,0,0,1,2.03.994A3.35,3.35,0,0,1,2167.506-504.9Zm-1.315-.357a1.864,1.864,0,0,0-.269-1.06,1.2,1.2,0,0,0-1.1-.574,1.316,1.316,0,0,0-1.1.56,2.056,2.056,0,0,0-.408,1.074Z" transform="translate(-2135.694 510.378)" fill="#fff"/><path d="M2170.471-506.5a2.346,2.346,0,0,0-.434-.038,1.31,1.31,0,0,0-1.125.549,2.069,2.069,0,0,0-.344,1.225v3.256h-1.378v-4.252q0-1.072-.039-1.953h1.2l.051,1.188h.039a2.122,2.122,0,0,1,.688-.982,1.673,1.673,0,0,1,1-.333,2.163,2.163,0,0,1,.344.026Z" transform="translate(-2134.269 510.38)" fill="#fff"/><path d="M2174.143-506.373h-1.518v3.014c0,.766.267,1.148.8,1.148a2.478,2.478,0,0,0,.612-.062l.038,1.045a3.083,3.083,0,0,1-1.073.154,1.647,1.647,0,0,1-1.276-.5,2.437,2.437,0,0,1-.46-1.672v-3.129h-.906v-1.034h.906v-1.136l1.354-.408v1.544h1.518Z" transform="translate(-2133.383 510.074)" fill="#fff"/><path d="M2179.311-504.9a3.335,3.335,0,0,1-.05.625h-4.138a1.809,1.809,0,0,0,.6,1.4,2.05,2.05,0,0,0,1.352.433,4.543,4.543,0,0,0,1.672-.294l.218.958a5.19,5.19,0,0,1-2.08.383,3.012,3.012,0,0,1-2.268-.85,3.133,3.133,0,0,1-.823-2.278,3.564,3.564,0,0,1,.768-2.338,2.643,2.643,0,0,1,2.169-.994,2.312,2.312,0,0,1,2.03.994A3.347,3.347,0,0,1,2179.311-504.9Zm-1.317-.357a1.866,1.866,0,0,0-.268-1.06,1.2,1.2,0,0,0-1.1-.574,1.314,1.314,0,0,0-1.1.56,2.062,2.062,0,0,0-.41,1.074Z" transform="translate(-2132.435 510.378)" fill="#fff"/><path d="M2182.367-506.5a2.337,2.337,0,0,0-.432-.038,1.307,1.307,0,0,0-1.125.549,2.069,2.069,0,0,0-.344,1.225v3.256h-1.379v-4.252q0-1.072-.037-1.953h1.2l.051,1.188h.037a2.134,2.134,0,0,1,.689-.982,1.678,1.678,0,0,1,1-.333,2.157,2.157,0,0,1,.344.026Z" transform="translate(-2130.986 510.38)" fill="#fff"/></g><g transform="translate(0.625 14.851)"><path d="M2137.151-489.588h-1.378v-3.882h-3.728v3.882h-1.379v-8.6h1.379v3.51h3.728v-3.51h1.378Z" transform="translate(-2130.665 498.192)" fill="#fff"/></g><g transform="translate(8.387 14.403)"><path d="M2141.843-489.613H2140.6l-.1-.716h-.039a2.122,2.122,0,0,1-1.812.856,1.869,1.869,0,0,1-1.417-.563,1.763,1.763,0,0,1-.486-1.263,1.93,1.93,0,0,1,.953-1.737,4.952,4.952,0,0,1,2.674-.587v-.115c0-.818-.431-1.226-1.29-1.226a2.9,2.9,0,0,0-1.622.461l-.281-.907a3.987,3.987,0,0,1,2.132-.536q2.438,0,2.438,2.566v2.286A9.663,9.663,0,0,0,2141.843-489.613Zm-2.9-7.776a.7.7,0,0,1-.2.512.654.654,0,0,1-.491.2.668.668,0,0,1-.5-.211.7.7,0,0,1-.2-.505.689.689,0,0,1,.21-.5.686.686,0,0,1,.5-.21.625.625,0,0,1,.487.21A.721.721,0,0,1,2138.945-497.389Zm1.468,5.643v-.958q-2.3-.036-2.3,1.252a.93.93,0,0,0,.267.727.97.97,0,0,0,.677.242,1.4,1.4,0,0,0,.849-.287,1.171,1.171,0,0,0,.479-.734A1.1,1.1,0,0,0,2140.413-491.745Zm.932-5.643a.709.709,0,0,1-.2.512.678.678,0,0,1-.505.2.647.647,0,0,1-.491-.211.709.709,0,0,1-.2-.505.7.7,0,0,1,.205-.5.673.673,0,0,1,.51-.21.619.619,0,0,1,.484.21A.716.716,0,0,1,2141.345-497.389Z" transform="translate(-2136.748 498.665)" fill="#fff"/><path d="M2147.26-490.079h-1.38v-3.561q0-1.648-1.25-1.647a1.243,1.243,0,0,0-1,.453,1.608,1.608,0,0,0-.383,1.067v3.689h-1.377v-4.429c0-.546-.018-1.138-.051-1.776h1.212l.065.958h.037a1.986,1.986,0,0,1,.716-.741,2.341,2.341,0,0,1,1.25-.344,1.972,1.972,0,0,1,1.442.563,2.725,2.725,0,0,1,.716,2.054Z" transform="translate(-2135.348 499.131)" fill="#fff"/><path d="M2152.875-489.491h-1.224l-.063-1h-.04a2.058,2.058,0,0,1-1.99,1.137,2.333,2.333,0,0,1-1.864-.88,3.435,3.435,0,0,1-.74-2.286,3.589,3.589,0,0,1,.807-2.438,2.5,2.5,0,0,1,1.927-.868,1.876,1.876,0,0,1,1.759.843v-3.562h1.378v7.379C2152.825-490.559,2152.843-490,2152.875-489.491Zm-1.429-2.617v-1.035a1.95,1.95,0,0,0-.039-.432,1.551,1.551,0,0,0-.5-.837,1.351,1.351,0,0,0-.922-.338,1.415,1.415,0,0,0-1.212.612,2.615,2.615,0,0,0-.441,1.569,2.461,2.461,0,0,0,.423,1.494,1.419,1.419,0,0,0,1.2.614,1.33,1.33,0,0,0,1.09-.51A1.715,1.715,0,0,0,2151.447-492.108Z" transform="translate(-2133.931 498.543)" fill="#fff"/><path d="M2154.145-489.491h-1.378v-9.052h1.378Z" transform="translate(-2132.327 498.543)" fill="#fff"/><path d="M2160.263-493.472a3.393,3.393,0,0,1-.051.625h-4.137a1.811,1.811,0,0,0,.6,1.4,2.051,2.051,0,0,0,1.352.433,4.548,4.548,0,0,0,1.672-.294l.218.958a5.2,5.2,0,0,1-2.082.383,3.012,3.012,0,0,1-2.267-.85,3.136,3.136,0,0,1-.823-2.278,3.566,3.566,0,0,1,.767-2.338,2.647,2.647,0,0,1,2.169-.994,2.311,2.311,0,0,1,2.03.994A3.347,3.347,0,0,1,2160.263-493.472Zm-1.316-.358a1.878,1.878,0,0,0-.268-1.059,1.2,1.2,0,0,0-1.1-.574,1.315,1.315,0,0,0-1.1.56,2.06,2.06,0,0,0-.408,1.073Z" transform="translate(-2131.781 499.129)" fill="#fff"/><path d="M2163.23-495.071a2.349,2.349,0,0,0-.434-.038,1.305,1.305,0,0,0-1.124.549,2.068,2.068,0,0,0-.344,1.225v3.256h-1.378v-4.252c0-.715-.014-1.365-.038-1.953h1.2l.051,1.188h.038a2.129,2.129,0,0,1,.689-.983,1.67,1.67,0,0,1,1-.333,2.159,2.159,0,0,1,.346.025Z" transform="translate(-2130.356 499.131)" fill="#fff"/></g></g></svg>