<svg width="100" height="59" viewBox="0 0 100 59" fill="none" xmlns="http://www.w3.org/2000/svg">
<g clip-path="url(#clip0_1_243)">
<path d="M38.6321 47.0723H37.4789L36.8426 45.084H34.6456L34.0392 47.0723H32.9158L35.093 40.3122H36.435L38.6221 47.0723H38.6321ZM36.6537 44.2489L36.0772 42.4893C36.0175 42.3104 35.8982 41.8829 35.7391 41.2168H35.7193C35.6497 41.5051 35.5503 41.9326 35.4011 42.4893L34.8345 44.2489H36.6537Z" fill="white"/>
<path d="M43.4636 47.0723H42.5092L42.4496 46.3267H42.4297C42.0917 46.8933 41.5747 47.1816 40.8788 47.1816C40.3917 47.1816 40.0139 47.0325 39.7256 46.7243C39.3876 46.3565 39.2087 45.7998 39.2087 45.0542V42.1811H40.2923V44.8752C40.2923 45.8097 40.6104 46.2869 41.2566 46.2869C41.7437 46.2869 42.0718 46.0483 42.2607 45.5811C42.3104 45.4618 42.3303 45.3226 42.3303 45.1635V42.1712H43.4139V45.6507C43.4139 46.1179 43.4338 46.5852 43.4636 47.0623" fill="white"/>
<path d="M47.2115 42.9864H46.0185V45.3624C46.0185 45.9688 46.2273 46.267 46.6448 46.267C46.8337 46.267 47.0027 46.2471 47.122 46.2173L47.1518 47.0325C46.9331 47.112 46.6548 47.1518 46.3068 47.1518C45.8793 47.1518 45.5413 47.0226 45.3027 46.7641C45.0641 46.5056 44.9448 46.0682 44.9448 45.4518V42.9864H44.2291V42.1811H44.9448V41.2864L46.0086 40.9683V42.1811H47.2015V42.9864H47.2115Z" fill="white"/>
<path d="M52.5002 44.5869C52.5002 45.3325 52.2815 45.9489 51.854 46.436C51.4067 46.9331 50.8102 47.1816 50.0646 47.1816C49.319 47.1816 48.7722 46.943 48.3547 46.4659C47.9272 45.9887 47.7184 45.3922 47.7184 44.6665C47.7184 43.9408 47.9372 43.2946 48.3746 42.8074C48.812 42.3303 49.4085 42.0817 50.1441 42.0817C50.8798 42.0817 51.4365 42.3203 51.8739 42.7975C52.2915 43.2548 52.5002 43.8513 52.5002 44.5869ZM51.3769 44.6168C51.3769 44.1694 51.2774 43.7817 51.0886 43.4636C50.8599 43.0759 50.5318 42.887 50.1143 42.887C49.6968 42.887 49.3488 43.0759 49.1202 43.4636C48.9213 43.7817 48.8319 44.1694 48.8319 44.6367C48.8319 45.1039 48.9313 45.4717 49.1202 45.7898C49.3588 46.1776 49.6868 46.3664 50.1044 46.3664C50.5219 46.3664 50.84 46.1676 51.0786 45.7799C51.2774 45.4518 51.3769 45.0641 51.3769 44.6168Z" fill="white"/>
<path d="M56.0592 43.1454C55.9499 43.1256 55.8405 43.1156 55.7113 43.1156C55.3236 43.1156 55.0353 43.2548 54.8265 43.5431C54.6476 43.8016 54.5581 44.1197 54.5581 44.5074V47.0723H53.4745V43.722C53.4745 43.1554 53.4745 42.6484 53.4447 42.1811H54.3891L54.4289 43.1256H54.4587C54.568 42.8074 54.7569 42.549 55.0055 42.3501C55.2441 42.1712 55.5125 42.0917 55.7908 42.0917C55.8902 42.0917 55.9797 42.0917 56.0592 42.1115V43.1454Z" fill="white"/>
<path d="M58.0674 40.7297C58.0674 40.9285 58.0078 41.0776 57.8785 41.2069C57.7493 41.3262 57.5902 41.3858 57.3914 41.3858C57.2124 41.3858 57.0633 41.3262 56.9341 41.1969C56.8148 41.0776 56.7452 40.9186 56.7452 40.7297C56.7452 40.5408 56.8049 40.3917 56.9341 40.2625C57.0633 40.1432 57.2224 40.0835 57.4013 40.0835C57.5803 40.0835 57.7493 40.1432 57.8686 40.2625C57.9978 40.3818 58.0575 40.5408 58.0575 40.7297M57.9481 47.0723H56.8645V42.1811H57.9481V47.0723Z" fill="white"/>
<path d="M62.1334 45.6606C62.1334 46.1179 61.9644 46.4758 61.6364 46.7541C61.2983 47.0325 60.841 47.1617 60.2545 47.1617C59.6978 47.1617 59.2305 47.0524 58.8428 46.8337L59.0715 46.0384C59.4493 46.2571 59.8469 46.3664 60.2644 46.3664C60.8212 46.3664 61.0995 46.1577 61.0995 45.76C61.0995 45.5811 61.0399 45.432 60.9206 45.3127C60.8013 45.1934 60.5826 45.084 60.2843 44.9647C59.4194 44.6466 58.982 44.1793 58.982 43.563C58.982 43.1454 59.1411 42.7876 59.4592 42.5092C59.7773 42.2308 60.2048 42.0917 60.7317 42.0917C61.2089 42.0917 61.6264 42.1911 61.9644 42.38L61.7358 43.1554C61.4176 42.9665 61.0896 42.877 60.7416 42.877C60.513 42.877 60.334 42.9267 60.2048 43.0361C60.0756 43.1454 60.0159 43.2846 60.0159 43.4437C60.0159 43.6027 60.0855 43.7519 60.2147 43.8513C60.3241 43.9507 60.5527 44.06 60.8709 44.1793C61.7059 44.4975 62.1334 44.9945 62.1334 45.6507" fill="white"/>
<path d="M64.3503 40.7297C64.3503 40.9285 64.2907 41.0776 64.1614 41.2069C64.0322 41.3262 63.8732 41.3858 63.6743 41.3858C63.4954 41.3858 63.3463 41.3262 63.217 41.1969C63.0977 41.0776 63.0281 40.9186 63.0281 40.7297C63.0281 40.5408 63.0878 40.3917 63.217 40.2625C63.3463 40.1432 63.5053 40.0835 63.6843 40.0835C63.8632 40.0835 64.0322 40.1432 64.1515 40.2625C64.2807 40.3818 64.3404 40.5408 64.3404 40.7297M64.231 47.0723H63.1474V42.1811H64.231V47.0723Z" fill="white"/>
<path d="M69.5795 44.3981C69.5795 44.5969 69.5695 44.7559 69.5397 44.8951H66.269C66.2789 45.3822 66.438 45.7501 66.7462 45.9986C67.0245 46.2273 67.3725 46.3366 67.8099 46.3366C68.297 46.3366 68.7345 46.2571 69.1321 46.108L69.3011 46.8635C68.8339 47.0623 68.297 47.1617 67.6608 47.1617C66.9052 47.1617 66.3088 46.943 65.8813 46.4957C65.4538 46.0483 65.2351 45.4518 65.2351 44.6963C65.2351 43.9407 65.4339 43.3443 65.8415 42.8571C66.269 42.3303 66.8357 42.0718 67.5514 42.0718C68.2672 42.0718 68.7941 42.3303 69.152 42.8571C69.4403 43.2747 69.5894 43.7817 69.5894 44.3981M68.5356 44.1197C68.5356 43.8016 68.476 43.5232 68.3269 43.2846C68.138 42.9864 67.8497 42.8373 67.462 42.8373C67.1041 42.8373 66.8158 42.9864 66.5971 43.2747C66.4181 43.5133 66.3088 43.7916 66.2789 44.1197H68.5456H68.5356Z" fill="white"/>
<path d="M73.1087 43.1454C72.9993 43.1256 72.8899 43.1156 72.7607 43.1156C72.373 43.1156 72.0847 43.2548 71.8759 43.5431C71.697 43.8016 71.6075 44.1197 71.6075 44.5074V47.0723H70.5239V43.722C70.5239 43.1554 70.5239 42.6484 70.4941 42.1811H71.4385L71.4783 43.1256H71.5081C71.6174 42.8074 71.8063 42.549 72.0549 42.3501C72.2935 42.1712 72.5619 42.0917 72.8402 42.0917C72.9396 42.0917 73.0291 42.0917 73.1087 42.1115V43.1454Z" fill="white"/>
<path d="M76.5782 42.9864H75.3852V45.3624C75.3852 45.9688 75.594 46.267 76.0115 46.267C76.2004 46.267 76.3694 46.2471 76.4887 46.2173L76.5186 47.0325C76.2998 47.112 76.0215 47.1518 75.6735 47.1518C75.2461 47.1518 74.9081 47.0226 74.6695 46.7641C74.4309 46.5056 74.3116 46.0682 74.3116 45.4518V42.9864H73.5958V42.1811H74.3116V41.2864L75.3753 40.9683V42.1811H76.5683V42.9864H76.5782Z" fill="white"/>
<path d="M81.4395 44.3981C81.4395 44.5969 81.4296 44.7559 81.3998 44.8951H78.129C78.139 45.3822 78.2981 45.7501 78.6062 45.9986C78.8846 46.2273 79.2325 46.3366 79.67 46.3366C80.1571 46.3366 80.5945 46.2571 80.9922 46.108L81.1612 46.8635C80.7039 47.0623 80.1571 47.1617 79.5208 47.1617C78.7653 47.1617 78.1688 46.943 77.7413 46.4957C77.3139 46.0483 77.0952 45.4518 77.0952 44.6963C77.0952 43.9606 77.294 43.3443 77.7016 42.8571C78.1291 42.3303 78.6957 42.0718 79.4115 42.0718C80.1273 42.0718 80.6542 42.3303 81.012 42.8571C81.3003 43.2747 81.4495 43.7817 81.4495 44.3981M80.3957 44.1197C80.3957 43.8016 80.336 43.5232 80.1869 43.2846C79.998 42.9864 79.7097 42.8373 79.322 42.8373C78.9641 42.8373 78.6758 42.9864 78.4571 43.2747C78.2782 43.5133 78.1688 43.7916 78.139 44.1197H80.4056H80.3957Z" fill="white"/>
<path d="M84.9687 43.1454C84.8593 43.1256 84.75 43.1156 84.6207 43.1156C84.233 43.1156 83.9447 43.2548 83.7359 43.5431C83.557 43.8016 83.4675 44.1197 83.4675 44.5074V47.0723H82.3839V43.722C82.3839 43.1554 82.3839 42.6484 82.3541 42.1811H83.2985L83.3383 43.1256H83.3681C83.4775 42.8074 83.6664 42.549 83.9149 42.3501C84.1535 42.1712 84.4219 42.0917 84.7003 42.0917C84.7997 42.0917 84.8891 42.0917 84.9687 42.1115V43.1454Z" fill="white"/>
<path d="M37.3099 56.7253C37.3099 57.3019 37.111 57.7692 36.7034 58.1271C36.2561 58.5247 35.6397 58.7235 34.8543 58.7235C34.1286 58.7235 33.5321 58.5844 33.0947 58.306L33.3433 57.4013C33.8204 57.6797 34.3473 57.8189 34.914 57.8189C35.3216 57.8189 35.6397 57.7294 35.8684 57.5405C36.097 57.3516 36.2064 57.113 36.2064 56.8049C36.2064 56.5265 36.1169 56.2978 35.928 56.109C35.7391 55.9201 35.4309 55.7511 34.9935 55.5821C33.8105 55.1447 33.214 54.4985 33.214 53.6435C33.214 53.0868 33.4228 52.6295 33.8403 52.2815C34.2579 51.9237 34.8146 51.7547 35.5005 51.7547C36.1169 51.7547 36.6239 51.864 37.0414 52.0728L36.773 52.9576C36.3953 52.7488 35.9578 52.6394 35.4806 52.6394C35.1029 52.6394 34.8046 52.7289 34.5859 52.9178C34.407 53.0868 34.3175 53.2856 34.3175 53.5342C34.3175 53.8026 34.4169 54.0213 34.6257 54.2002C34.8046 54.3593 35.1327 54.5382 35.6099 54.7271C36.1964 54.9657 36.6239 55.2341 36.9023 55.5522C37.1806 55.8704 37.3198 56.2581 37.3198 56.7253" fill="white"/>
<path d="M42.4297 55.9499C42.4297 56.1487 42.4197 56.3078 42.3899 56.447H39.1192C39.1291 56.9341 39.2882 57.3019 39.5964 57.5505C39.8747 57.7791 40.2227 57.8885 40.6601 57.8885C41.1472 57.8885 41.5846 57.8089 41.9823 57.6598L42.1513 58.4154C41.6841 58.6142 41.1472 58.7136 40.511 58.7136C39.7554 58.7136 39.159 58.4949 38.7315 58.0475C38.304 57.6002 38.0853 57.0037 38.0853 56.2481C38.0853 55.5125 38.2841 54.8961 38.6917 54.409C39.1192 53.8821 39.6859 53.6236 40.4016 53.6236C41.1174 53.6236 41.6443 53.8821 42.0022 54.409C42.2905 54.8265 42.4396 55.3335 42.4396 55.9499M41.3958 55.6715C41.3958 55.3534 41.3361 55.0751 41.187 54.8365C40.9981 54.5382 40.7098 54.3792 40.3221 54.3792C39.9642 54.3792 39.6759 54.5283 39.4572 54.8265C39.2783 55.0651 39.1689 55.3435 39.1391 55.6715H41.4057H41.3958Z" fill="white"/>
<path d="M45.9688 54.6973C45.8594 54.6774 45.7501 54.6675 45.6208 54.6675C45.2331 54.6675 44.9448 54.8066 44.7361 55.0949C44.5571 55.3534 44.4676 55.6715 44.4676 56.0593V58.6241H43.384V55.2739C43.384 54.7072 43.384 54.2002 43.3542 53.733H44.2986L44.3384 54.6774H44.3682C44.4776 54.3593 44.6665 54.1008 44.915 53.902C45.1536 53.733 45.422 53.6435 45.7004 53.6435C45.7998 53.6435 45.8893 53.6435 45.9688 53.6634V54.6973Z" fill="white"/>
<path d="M51.1681 53.7429L49.319 58.6341H48.2652L46.4758 53.7429H47.6389L48.474 56.3277C48.6132 56.7551 48.7325 57.1727 48.822 57.5604H48.8518C48.9313 57.2025 49.0506 56.7949 49.1997 56.3277L50.0249 53.7429H51.1582H51.1681Z" fill="white"/>
<path d="M53.1166 52.2915C53.1166 52.4903 53.057 52.6394 52.9277 52.7587C52.7985 52.878 52.6394 52.9377 52.4406 52.9377C52.2616 52.9377 52.1125 52.878 51.9833 52.7488C51.864 52.6295 51.7944 52.4704 51.7944 52.2815C51.7944 52.0927 51.8541 51.9435 51.9833 51.8143C52.1125 51.695 52.2716 51.6354 52.4505 51.6354C52.6295 51.6354 52.7985 51.695 52.9178 51.8143C53.047 51.9336 53.1067 52.0927 53.1067 52.2815M52.9874 58.6241H51.9038V53.733H52.9874V58.6241Z" fill="white"/>
<path d="M57.799 53.8722L57.5902 54.6973C57.3119 54.5581 57.0037 54.4985 56.6458 54.4985C56.1686 54.4985 55.7908 54.6575 55.5125 54.9756C55.2341 55.2938 55.0949 55.7014 55.0949 56.1885C55.0949 56.7054 55.2441 57.113 55.5324 57.4113C55.8207 57.7095 56.1885 57.8586 56.6458 57.8586C56.9838 57.8586 57.3119 57.7891 57.63 57.6598L57.7791 58.4651C57.4212 58.6341 56.9739 58.7136 56.437 58.7136C55.6914 58.7136 55.1049 58.4849 54.6575 58.0376C54.2201 57.5902 53.9915 56.9838 53.9915 56.2283C53.9915 55.4727 54.23 54.8564 54.7072 54.3692C55.1844 53.8821 55.8207 53.6435 56.6259 53.6435C57.0832 53.6435 57.4709 53.723 57.799 53.8722Z" fill="white"/>
<path d="M62.6206 55.9499C62.6206 56.1487 62.6106 56.3078 62.5808 56.447H59.3101C59.32 56.9341 59.4791 57.3019 59.7873 57.5505C60.0656 57.7791 60.4136 57.8885 60.851 57.8885C61.3381 57.8885 61.7755 57.8089 62.1732 57.6598L62.3422 58.4154C61.8849 58.6142 61.3381 58.7136 60.7019 58.7136C59.9463 58.7136 59.3499 58.4949 58.9224 58.0475C58.4949 57.6002 58.2762 57.0037 58.2762 56.2481C58.2762 55.4926 58.475 54.8961 58.8826 54.409C59.3101 53.8821 59.8767 53.6236 60.5925 53.6236C61.3083 53.6236 61.8352 53.8821 62.1931 54.409C62.4814 54.8265 62.6305 55.3335 62.6305 55.9499M61.5867 55.6715C61.5867 55.3534 61.527 55.0751 61.3779 54.8365C61.189 54.5382 60.9007 54.3792 60.513 54.3792C60.1551 54.3792 59.8668 54.5283 59.6481 54.8265C59.4691 55.0651 59.3598 55.3435 59.33 55.6715H61.5966H61.5867Z" fill="white"/>
<path d="M70.2654 53.8324C70.2654 54.4587 70.0865 54.9558 69.7187 55.3335C69.2415 55.8207 68.5555 56.0692 67.6409 56.0692C67.3725 56.0692 67.1637 56.0493 67.0246 56.0195V58.6341H65.9409V51.9535C66.4579 51.864 67.0444 51.8143 67.7105 51.8143C68.5655 51.8143 69.2116 52.0032 69.6491 52.371C70.0666 52.7289 70.2754 53.226 70.2754 53.8423M69.1818 53.8821C69.1818 53.4844 69.0526 53.1763 68.8041 52.9675C68.5555 52.7587 68.1976 52.6494 67.7403 52.6494C67.4421 52.6494 67.1936 52.6693 67.0047 52.709V55.1546C67.1538 55.1944 67.3725 55.2142 67.631 55.2142C68.1082 55.2142 68.4859 55.0949 68.7643 54.8564C69.0426 54.6178 69.1719 54.2897 69.1719 53.8722" fill="white"/>
<path d="M73.8543 54.6973C73.7449 54.6774 73.6355 54.6675 73.5063 54.6675C73.1186 54.6675 72.8303 54.8066 72.6215 55.0949C72.4426 55.3534 72.3531 55.6715 72.3531 56.0593V58.6241H71.2695V55.2739C71.2695 54.7072 71.2695 54.2002 71.2397 53.733H72.1841L72.2239 54.6774H72.2537C72.3631 54.3593 72.5519 54.1008 72.8005 53.902C73.0391 53.733 73.3075 53.6435 73.5858 53.6435C73.6852 53.6435 73.7747 53.6435 73.8543 53.6634V54.6973Z" fill="white"/>
<path d="M79.0337 56.1487C79.0337 56.8943 78.815 57.5107 78.3875 57.9978C77.9402 58.4949 77.3437 58.7434 76.5981 58.7434C75.8525 58.7434 75.3057 58.5048 74.8882 58.0276C74.4607 57.5505 74.2519 56.954 74.2519 56.2283C74.2519 55.5025 74.4706 54.8564 74.908 54.3692C75.3455 53.892 75.9419 53.6435 76.6776 53.6435C77.4133 53.6435 77.97 53.8821 78.4074 54.3593C78.8249 54.8265 79.0337 55.4131 79.0337 56.1487ZM77.9103 56.1686C77.9103 55.7213 77.8109 55.3335 77.622 55.0154C77.3934 54.6277 77.0653 54.4388 76.6478 54.4388C76.2302 54.4388 75.8823 54.6277 75.6536 55.0154C75.4548 55.3335 75.3653 55.7213 75.3653 56.1885C75.3653 56.6557 75.4648 57.0236 75.6536 57.3417C75.8922 57.7294 76.2203 57.9183 76.6378 57.9183C77.0554 57.9183 77.3735 57.7195 77.6121 57.3317C77.8109 57.0037 77.9103 56.616 77.9103 56.1686Z" fill="white"/>
<path d="M83.8851 53.7429L82.036 58.6341H80.9822L79.1928 53.7429H80.3559L81.191 56.3277C81.3302 56.7551 81.4495 57.1727 81.5389 57.5604H81.5688C81.6483 57.2025 81.7676 56.7949 81.9167 56.3277L82.7418 53.7429H83.8752H83.8851Z" fill="white"/>
<path d="M85.7342 52.2915C85.7342 52.4903 85.6745 52.6394 85.5453 52.7587C85.4161 52.878 85.257 52.9377 85.0582 52.9377C84.8792 52.9377 84.7301 52.878 84.6009 52.7488C84.4816 52.6295 84.412 52.4704 84.412 52.2815C84.412 52.0927 84.4716 51.9435 84.6009 51.8143C84.7301 51.695 84.8892 51.6354 85.0681 51.6354C85.2471 51.6354 85.4161 51.695 85.5354 51.8143C85.6646 51.9336 85.7242 52.0927 85.7242 52.2815M85.6049 58.6241H84.5213V53.733H85.6049V58.6241Z" fill="white"/>
<path d="M91.182 58.6241H90.2177L90.168 57.8388H90.1382C89.83 58.4352 89.3031 58.7335 88.5674 58.7335C87.9809 58.7335 87.4938 58.5048 87.0961 58.0376C86.7084 57.5803 86.5096 56.9739 86.5096 56.2382C86.5096 55.4528 86.7184 54.8066 87.1458 54.3195C87.5534 53.8622 88.0604 53.6336 88.6669 53.6336C89.323 53.6336 89.7902 53.8523 90.0487 54.2996V51.4862H91.1323V57.3019C91.1323 57.7791 91.1423 58.2165 91.1721 58.6241M90.0586 56.5663V55.7511C90.0586 55.6119 90.0586 55.4926 90.0288 55.4131C89.9692 55.1546 89.8399 54.9359 89.6411 54.7569C89.4423 54.578 89.1938 54.4885 88.9154 54.4885C88.5078 54.4885 88.1996 54.6476 87.961 54.9657C87.7324 55.2838 87.6131 55.6914 87.6131 56.1984C87.6131 56.7054 87.7224 57.0733 87.9411 57.3715C88.1797 57.6896 88.4879 57.8487 88.8856 57.8487C89.2435 57.8487 89.5218 57.7195 89.7405 57.451C89.9493 57.2025 90.0487 56.9043 90.0487 56.5563" fill="white"/>
<path d="M96.4708 55.9499C96.4708 56.1487 96.4609 56.3078 96.4311 56.447H93.1604C93.1703 56.9341 93.3294 57.3019 93.6376 57.5505C93.9159 57.7791 94.2639 57.8885 94.7013 57.8885C95.1884 57.8885 95.6258 57.8089 96.0235 57.6598L96.1925 58.4154C95.7252 58.6142 95.1884 58.7136 94.5522 58.7136C93.7966 58.7136 93.2001 58.4949 92.7727 58.0475C92.3452 57.6002 92.1265 57.0037 92.1265 56.2481C92.1265 55.4926 92.3253 54.8961 92.7329 54.409C93.1604 53.8821 93.727 53.6236 94.4428 53.6236C95.1586 53.6236 95.6755 53.8821 96.0434 54.409C96.3317 54.8265 96.4808 55.3335 96.4808 55.9499M95.427 55.6715C95.427 55.3534 95.3673 55.0751 95.2182 54.8365C95.0293 54.5382 94.741 54.3792 94.3533 54.3792C93.9954 54.3792 93.7071 54.5283 93.4884 54.8265C93.3095 55.0651 93.2001 55.3435 93.1703 55.6715H95.4369H95.427Z" fill="white"/>
<path d="M100 54.6973C99.8907 54.6774 99.7813 54.6675 99.6521 54.6675C99.2644 54.6675 98.9761 54.8066 98.7673 55.0949C98.5883 55.3534 98.4989 55.6715 98.4989 56.0593V58.6241H97.4153V55.2739C97.4153 54.7072 97.4153 54.2002 97.3854 53.733H98.3299L98.3696 54.6774H98.3995C98.5088 54.3593 98.6977 54.1008 98.9462 53.902C99.1848 53.733 99.4532 53.6435 99.7316 53.6435C99.831 53.6435 99.9205 53.6435 100 53.6634V54.6973Z" fill="white"/>
<path d="M22.2385 20.0318C22.2087 20.1312 21.6619 21.9903 20.3497 23.9189C19.2164 25.5791 18.0333 27.2393 16.1644 27.2791C14.3352 27.3089 13.7486 26.1955 11.6609 26.1955C9.57325 26.1955 8.91712 27.2492 7.18733 27.3188C5.38794 27.3884 4.02598 25.5194 2.87278 23.8592C0.526625 20.4593 -1.26282 14.2658 1.14299 10.0905C2.33595 8.01273 4.47334 6.70047 6.78967 6.6607C8.55923 6.63088 10.2194 7.84372 11.2931 7.84372C12.3668 7.84372 14.3948 6.3724 16.5223 6.59111C17.407 6.63088 19.9123 6.949 21.5128 9.29516C21.3836 9.37469 18.5304 11.0349 18.5602 14.4945C18.6 18.6301 22.1888 20.002 22.2286 20.0219M15.1305 4.36425C16.0848 3.21106 16.731 1.60056 16.5521 0C15.1802 0.0497067 13.51 0.914604 12.5258 2.0678C11.6411 3.09176 10.8656 4.72214 11.0744 6.29287C12.6054 6.41217 14.1761 5.51745 15.1205 4.36425" fill="white"/>
<path d="M38.5824 14.6337H37.4391L36.8128 12.6653H34.6357L34.0392 14.6337H32.9258L35.083 7.93319H36.4152L38.5824 14.6337ZM36.6239 11.8401L36.0573 10.0905C35.9976 9.91152 35.8883 9.49398 35.7193 8.82791H35.6994C35.6298 9.11621 35.5304 9.53375 35.3813 10.0905L34.8245 11.8401H36.6239Z" fill="white"/>
<path d="M43.3144 14.6337H42.37L42.3104 13.898H42.2905C41.9525 14.4647 41.4455 14.743 40.7595 14.743C40.2823 14.743 39.9046 14.5939 39.6163 14.2957C39.2783 13.9278 39.1093 13.3811 39.1093 12.6454V9.80217H40.1829V12.4664C40.1829 13.391 40.501 13.8582 41.1373 13.8582C41.6145 13.8582 41.9425 13.6296 42.1314 13.1623C42.1811 13.043 42.201 12.9039 42.201 12.7547V9.80217H43.2747V13.2419C43.2747 13.6992 43.2846 14.1664 43.3144 14.6337Z" fill="white"/>
<path d="M47.0027 10.6074H45.8197V12.9536C45.8197 13.5501 46.0284 13.8483 46.446 13.8483C46.6349 13.8483 46.7939 13.8284 46.9232 13.7986L46.953 14.6138C46.7442 14.6933 46.4659 14.7331 46.1179 14.7331C45.6904 14.7331 45.3624 14.6038 45.1238 14.3454C44.8852 14.0869 44.7659 13.6495 44.7659 13.043V10.6074H44.0601V9.80217H44.7659V8.91739L45.8197 8.59927V9.80217H47.0027V10.6074Z" fill="white"/>
<path d="M52.202 12.1781C52.202 12.9238 51.9933 13.5302 51.5658 14.0074C51.1184 14.4945 50.5319 14.743 49.7962 14.743C49.0606 14.743 48.5237 14.5044 48.1062 14.0372C47.6886 13.5699 47.4699 12.9735 47.4699 12.2577C47.4699 11.5419 47.6886 10.8957 48.1261 10.4185C48.5635 9.94135 49.15 9.70275 49.8857 9.70275C50.6213 9.70275 51.1681 9.94135 51.5956 10.4086C52.0032 10.8659 52.212 11.4524 52.212 12.1781H52.202ZM51.0886 12.198C51.0886 11.7507 50.9892 11.3729 50.8003 11.0548C50.5716 10.6671 50.2535 10.4782 49.836 10.4782C49.4184 10.4782 49.0804 10.6671 48.8518 11.0548C48.6629 11.3729 48.5635 11.7606 48.5635 12.2179C48.5635 12.6752 48.6629 13.043 48.8518 13.3612C49.0804 13.7489 49.4085 13.9378 49.826 13.9378C50.2436 13.9378 50.5617 13.7389 50.7904 13.3512C50.9892 13.0232 51.0886 12.6454 51.0886 12.198Z" fill="white"/>
<path d="M55.6417 10.7466C55.5323 10.7267 55.423 10.7168 55.3037 10.7168C54.9259 10.7168 54.6376 10.856 54.4289 11.1443C54.2499 11.3928 54.1604 11.7109 54.1604 12.0986V14.6337H53.0868V11.3232C53.0868 10.7665 53.0768 10.2595 53.0569 9.80217H53.9914L54.0312 10.7267H54.061C54.1704 10.4086 54.3493 10.1501 54.5979 9.96123C54.8364 9.79223 55.0949 9.70275 55.3733 9.70275C55.4727 9.70275 55.5622 9.70275 55.6417 9.72264V10.7466Z" fill="white"/>
<path d="M57.63 8.35073C57.63 8.53962 57.5703 8.69868 57.4411 8.81797C57.3119 8.93727 57.1528 8.99692 56.954 8.99692C56.775 8.99692 56.6259 8.93727 56.4967 8.80803C56.3774 8.68874 56.3177 8.52968 56.3177 8.35073C56.3177 8.17179 56.3774 8.01273 56.5066 7.89343C56.6358 7.77413 56.785 7.71449 56.9738 7.71449C57.1627 7.71449 57.3119 7.77413 57.4411 7.89343C57.5703 8.01273 57.63 8.16185 57.63 8.35073ZM57.5007 14.6337H56.4271V9.80217H57.5007V14.6337Z" fill="white"/>
<path d="M61.6761 13.2419C61.6761 13.6892 61.5071 14.0571 61.179 14.3255C60.851 14.5939 60.3937 14.7331 59.8071 14.7331C59.2604 14.7331 58.7931 14.6237 58.4054 14.405L58.634 13.6097C59.0019 13.8384 59.3995 13.9477 59.8171 13.9477C60.3638 13.9477 60.6422 13.7489 60.6422 13.3413C60.6422 13.1623 60.5826 13.0132 60.4633 12.8939C60.344 12.7746 60.1352 12.6653 59.827 12.546C58.9621 12.2279 58.5346 11.7606 58.5346 11.1542C58.5346 10.7367 58.6937 10.3887 59.0118 10.1104C59.3299 9.83199 59.7475 9.69281 60.2744 9.69281C60.7516 9.69281 61.1591 9.79223 61.4972 9.98111L61.2685 10.7466C60.9603 10.5577 60.6323 10.4682 60.2843 10.4682C60.0557 10.4682 59.8867 10.5179 59.7574 10.6273C59.6282 10.7367 59.5685 10.8659 59.5685 11.0349C59.5685 11.2039 59.6381 11.3331 59.7674 11.4425C59.8767 11.5419 60.0954 11.6513 60.4235 11.7706C61.2586 12.0887 61.6761 12.5758 61.6761 13.2319V13.2419Z" fill="white"/>
<path d="M63.7737 8.35073C63.7737 8.53962 63.7141 8.69868 63.5849 8.81797C63.4556 8.93727 63.2966 8.99692 63.0977 8.99692C62.9188 8.99692 62.7697 8.93727 62.6404 8.80803C62.5211 8.68874 62.4615 8.52968 62.4615 8.35073C62.4615 8.17179 62.5211 8.01273 62.6504 7.89343C62.7796 7.77413 62.9287 7.71449 63.1176 7.71449C63.3065 7.71449 63.4556 7.77413 63.5849 7.89343C63.7141 8.01273 63.7737 8.16185 63.7737 8.35073ZM63.6544 14.6337H62.5808V9.80217H63.6544V14.6337Z" fill="white"/>
<path d="M68.8438 11.9893C68.8438 12.1782 68.8339 12.3472 68.8041 12.4764H65.5831C65.593 12.9536 65.7521 13.3214 66.0503 13.5699C66.3187 13.7986 66.6766 13.9079 67.1041 13.9079C67.5813 13.9079 68.0187 13.8284 68.4064 13.6793L68.5754 14.4249C68.1181 14.6237 67.5813 14.7231 66.955 14.7231C66.2094 14.7231 65.6129 14.5044 65.1854 14.0571C64.7579 13.6196 64.5392 13.0232 64.5392 12.2776C64.5392 11.532 64.738 10.9454 65.1357 10.4583C65.5532 9.94135 66.1199 9.68287 66.8257 9.68287C67.5316 9.68287 68.0485 9.94135 68.4064 10.4583C68.6947 10.8659 68.8339 11.3729 68.8339 11.9793L68.8438 11.9893ZM67.8199 11.7109C67.8199 11.3928 67.7602 11.1144 67.6111 10.8858C67.4222 10.5875 67.1439 10.4384 66.7561 10.4384C66.4082 10.4384 66.1199 10.5875 65.9012 10.8758C65.7222 11.1045 65.6129 11.3828 65.5831 11.7109H67.8199Z" fill="white"/>
<path d="M72.2636 10.7466C72.1543 10.7267 72.0449 10.7168 71.9256 10.7168C71.5479 10.7168 71.2596 10.856 71.0508 11.1443C70.8719 11.3928 70.7824 11.7109 70.7824 12.0986V14.6337H69.7087V11.3232C69.7087 10.7665 69.6988 10.2595 69.6789 9.80217H70.6134L70.6531 10.7267H70.683C70.7923 10.4086 70.9713 10.1501 71.2198 9.96123C71.4584 9.79223 71.7169 9.70275 71.9952 9.70275C72.0946 9.70275 72.1841 9.70275 72.2636 9.72264V10.7466Z" fill="white"/>
<path d="M75.8127 10.6074H74.6297V12.9536C74.6297 13.5501 74.8384 13.8483 75.256 13.8483C75.4449 13.8483 75.6039 13.8284 75.7332 13.7986L75.763 14.6138C75.5542 14.6933 75.2759 14.7331 74.9279 14.7331C74.5004 14.7331 74.1724 14.6038 73.9338 14.3454C73.6952 14.0869 73.5759 13.6495 73.5759 13.043V10.6074H72.8701V9.80217H73.5759V8.91739L74.6297 8.59927V9.80217H75.8127V10.6074Z" fill="white"/>
<path d="M80.5846 11.9893C80.5846 12.1782 80.5746 12.3472 80.5448 12.4764H77.3238C77.3337 12.9536 77.4928 13.3214 77.791 13.5699C78.0595 13.7986 78.4174 13.9079 78.8448 13.9079C79.322 13.9079 79.7594 13.8284 80.1472 13.6793L80.3162 14.4249C79.8589 14.6237 79.322 14.7231 78.6957 14.7231C77.9501 14.7231 77.3536 14.5044 76.9261 14.0571C76.4987 13.6196 76.28 13.0232 76.28 12.2776C76.28 11.532 76.4788 10.9454 76.8764 10.4583C77.294 9.94135 77.8606 9.68287 78.5665 9.68287C79.2723 9.68287 79.7893 9.94135 80.1472 10.4583C80.4355 10.8659 80.5746 11.3729 80.5746 11.9793L80.5846 11.9893ZM79.5606 11.7109C79.5606 11.3928 79.501 11.1144 79.3518 10.8858C79.163 10.5875 78.8846 10.4384 78.4969 10.4384C78.1489 10.4384 77.8606 10.5875 77.6419 10.8758C77.463 11.1045 77.3536 11.3828 77.3238 11.7109H79.5606Z" fill="white"/>
<path d="M84.0938 10.7466C83.9845 10.7267 83.8751 10.7168 83.7558 10.7168C83.3781 10.7168 83.0898 10.856 82.881 11.1443C82.7021 11.3928 82.6126 11.7109 82.6126 12.0986V14.6337H81.5389V11.3232C81.5389 10.7665 81.529 10.2595 81.5091 9.80217H82.4436L82.4833 10.7267H82.5132C82.6225 10.4086 82.8015 10.1501 83.05 9.96123C83.2886 9.79223 83.5471 9.70275 83.8254 9.70275C83.9248 9.70275 84.0143 9.70275 84.0938 9.72264V10.7466Z" fill="white"/>
<path d="M38.4631 25.9966H37.3894V22.9745H34.4865V25.9966H33.4129V19.2962H34.4865V22.03H37.3894V19.2962H38.4631V25.9966Z" fill="white"/>
<path d="M43.4238 25.9966H42.4595L42.38 25.4399H42.3501C42.0221 25.8873 41.5449 26.106 40.9385 26.106C40.4812 26.106 40.1133 25.9569 39.835 25.6686C39.5865 25.4001 39.4572 25.0721 39.4572 24.6844C39.4572 24.0978 39.7057 23.6405 40.2028 23.3323C40.6999 23.0242 41.3958 22.8651 42.2905 22.875V22.7856C42.2905 22.1493 41.9525 21.8312 41.2864 21.8312C40.8092 21.8312 40.3917 21.9505 40.0239 22.1891L39.8052 21.4833C40.2525 21.2049 40.8092 21.0657 41.4654 21.0657C42.7279 21.0657 43.3642 21.7318 43.3642 23.0639V24.8434C43.3642 25.3306 43.384 25.7083 43.4338 25.9966H43.4238ZM41.1671 19.9324C41.1671 20.0915 41.1174 20.2207 41.0081 20.3301C40.9087 20.4394 40.7794 20.4891 40.6204 20.4891C40.4613 20.4891 40.342 20.4394 40.2326 20.3201C40.1233 20.2108 40.0736 20.0815 40.0736 19.9225C40.0736 19.7634 40.1233 19.6441 40.2326 19.5347C40.342 19.4254 40.4712 19.3657 40.6303 19.3657C40.7894 19.3657 40.9087 19.4155 41.0081 19.5347C41.1075 19.6441 41.1572 19.7733 41.1572 19.9225L41.1671 19.9324ZM42.3104 24.3364V23.5908C41.1174 23.5709 40.5209 23.899 40.5209 24.5651C40.5209 24.8136 40.5905 25.0025 40.7297 25.1317C40.8689 25.261 41.0478 25.3206 41.2566 25.3206C41.4952 25.3206 41.7139 25.2411 41.9127 25.092C42.1116 24.9428 42.2408 24.754 42.2905 24.5253C42.3004 24.4756 42.3104 24.406 42.3104 24.3364ZM43.0361 19.9324C43.0361 20.0915 42.9864 20.2207 42.887 20.3301C42.7876 20.4394 42.6583 20.4891 42.4893 20.4891C42.3203 20.4891 42.211 20.4394 42.1016 20.3201C42.0022 20.2108 41.9525 20.0815 41.9525 19.9225C41.9525 19.7634 42.0022 19.6441 42.1116 19.5347C42.2209 19.4254 42.3501 19.3657 42.5092 19.3657C42.6683 19.3657 42.7876 19.4155 42.887 19.5347C42.9864 19.6441 43.0361 19.7733 43.0361 19.9225V19.9324Z" fill="white"/>
<path d="M48.7325 25.9966H47.6588V23.223C47.6588 22.368 47.3308 21.9405 46.6846 21.9405C46.3664 21.9405 46.108 22.0598 45.9091 22.2984C45.7103 22.537 45.6109 22.8154 45.6109 23.1335V26.0066H44.5372V22.5569C44.5372 22.1294 44.5273 21.6721 44.4975 21.1751H45.4419L45.4916 21.9207H45.5214C45.6507 21.692 45.8296 21.4932 46.0781 21.3441C46.3664 21.1651 46.6945 21.0757 47.0524 21.0757C47.4998 21.0757 47.8775 21.2248 48.1758 21.5131C48.5436 21.871 48.7325 22.4078 48.7325 23.1136V26.0066V25.9966Z" fill="white"/>
<path d="M54.2102 25.9966H53.2558L53.2061 25.2212H53.1763C52.8681 25.8077 52.3511 26.106 51.6254 26.106C51.0389 26.106 50.5617 25.8773 50.174 25.42C49.7863 24.9627 49.5974 24.3662 49.5974 23.6405C49.5974 22.8552 49.8062 22.2288 50.2237 21.7417C50.6313 21.2944 51.1283 21.0657 51.7248 21.0657C52.381 21.0657 52.8383 21.2844 53.0967 21.7218V18.9482H54.1704V24.6943C54.1704 25.1615 54.1803 25.599 54.2102 25.9966ZM53.0967 23.9487V23.1435C53.0967 23.0043 53.0868 22.8949 53.0669 22.8054C53.0073 22.547 52.878 22.3283 52.6792 22.1493C52.4804 21.9704 52.2418 21.8809 51.9634 21.8809C51.5658 21.8809 51.2476 22.04 51.019 22.3581C50.7903 22.6762 50.671 23.0838 50.671 23.5809C50.671 24.0779 50.7804 24.4458 50.9991 24.744C51.2278 25.0621 51.5459 25.2212 51.9336 25.2212C52.2815 25.2212 52.5698 25.092 52.7786 24.8235C52.9874 24.575 53.0868 24.2867 53.0868 23.9388L53.0967 23.9487Z" fill="white"/>
<path d="M56.447 25.9966H55.3733V18.9482H56.447V25.9966Z" fill="white"/>
<path d="M61.6463 23.3522C61.6463 23.5411 61.6363 23.7101 61.6065 23.8393H58.3855C58.3955 24.3165 58.5545 24.6844 58.8528 24.9329C59.1212 25.1615 59.4791 25.2709 59.9065 25.2709C60.3837 25.2709 60.8211 25.1914 61.2089 25.0423L61.3779 25.7879C60.9206 25.9867 60.3837 26.0861 59.7574 26.0861C59.0118 26.0861 58.4153 25.8674 57.9879 25.42C57.5604 24.9826 57.3417 24.3861 57.3417 23.6405C57.3417 22.8949 57.5405 22.3084 57.9382 21.8213C58.3557 21.3043 58.9223 21.0458 59.6282 21.0458C60.334 21.0458 60.851 21.3043 61.2089 21.8213C61.4972 22.2289 61.6363 22.7359 61.6363 23.3423L61.6463 23.3522ZM60.6223 23.0639C60.6223 22.7458 60.5627 22.4674 60.4136 22.2388C60.2247 21.9406 59.9463 21.7914 59.5586 21.7914C59.2106 21.7914 58.9223 21.9406 58.7036 22.2289C58.5247 22.4575 58.4153 22.7359 58.3855 23.0639H60.6223Z" fill="white"/>
<path d="M65.0661 22.0996C64.9567 22.0797 64.8474 22.0698 64.7281 22.0698C64.3503 22.0698 64.062 22.209 63.8533 22.4973C63.6743 22.7458 63.5848 23.0639 63.5848 23.4516V25.9867H62.5112V22.6762C62.5112 22.1195 62.5012 21.6125 62.4814 21.1552H63.4158L63.4556 22.0797H63.4854C63.5948 21.7616 63.7737 21.5031 64.0223 21.3142C64.2609 21.1452 64.5193 21.0558 64.7977 21.0558C64.8971 21.0558 64.9866 21.0558 65.0661 21.0757V22.0996Z" fill="white"/>
</g>
<defs>
<clipPath id="clip0_1_243">
<rect width="100" height="58.7335" fill="white"/>
</clipPath>
</defs>
</svg>
