<?xml version="1.0" encoding="UTF-8"?>
<svg id="Ebene_1" xmlns="http://www.w3.org/2000/svg" version="1.1" viewBox="0 0 178 58">
  <!-- Generator: Adobe Illustrator 29.0.0, SVG Export Plug-In . SVG Version: 2.1.0 Build 186)  -->
  <path d="M47.5,42.4c-.9,2.9-2.3,5.6-4,8.1-2.4,3.5-4.9,7-8.8,7-3.8,0-5.1-2.3-9.4-2.3s-5.8,2.2-9.4,2.3c-3.8.1-6.6-3.8-9-7.2C2,43.3-1.7,30.3,3.3,21.5c2.4-4.3,6.9-7,11.8-7.2,3.7,0,7.2,2.5,9.4,2.5s6.5-3.1,10.9-2.6c4.2.1,8.1,2.2,10.5,5.7-3.8,2.3-6.1,6.4-6.2,10.9,0,5,3,9.6,7.7,11.6M32.6,9.5c2.2-2.5,3.2-5.8,3-9.1-3.3.3-6.3,1.9-8.4,4.3-2.2,2.4-3.3,5.6-3,8.8,3.3,0,6.4-1.4,8.5-4"/>
  <g>
    <g>
      <path d="M81.7,31h-2.4l-1.3-4.1h-4.6l-1.3,4.1h-2.3l4.5-14h2.8l4.5,14ZM77.6,25.2l-1.2-3.7c-.1-.4-.4-1.3-.7-2.6h0c-.1.6-.4,1.5-.7,2.6l-1.2,3.7h3.8Z"/>
      <path d="M91.7,31h-2v-1.5h-.2c-.6,1.1-1.9,1.8-3.2,1.8-.9,0-1.8-.3-2.4-.9-.8-1-1.2-2.2-1.1-3.5v-6h2.2v5.6c0,1.9.7,2.9,2,2.9.9,0,1.8-.6,2.1-1.5.1-.3.1-.6.1-.9v-6.2h2.2v7.2c0,1,0,1.9,0,2.9Z"/>
    </g>
    <g>
      <path d="M99.4,22.6h-2.5v4.9c0,1.2.4,1.9,1.3,1.9.3,0,.7,0,1-.1v1.7c-.5.2-1.1.3-1.7.3-.8,0-1.5-.3-2.1-.8-.6-.8-.8-1.8-.7-2.7v-5.1h-1.5v-1.7h1.5v-1.9l2.2-.7v2.5h2.5v1.7Z"/>
      <path d="M110.3,25.9c0,1.4-.4,2.8-1.3,3.8-.9,1-2.3,1.6-3.7,1.5-1.3,0-2.6-.5-3.6-1.5-.9-1-1.4-2.4-1.3-3.7,0-1.4.4-2.8,1.4-3.9.9-1,2.3-1.6,3.7-1.5,1.4,0,2.7.5,3.6,1.5.9,1,1.3,2.4,1.3,3.7ZM107.9,26c0-.8-.2-1.7-.6-2.4-.4-.8-1.2-1.2-2-1.2-.9,0-1.7.4-2.1,1.2-.4.7-.6,1.6-.6,2.4,0,.8.2,1.7.6,2.4.4.8,1.2,1.2,2,1.2.9,0,1.6-.5,2-1.2.4-.7.6-1.6.6-2.4h0Z"/>
      <path d="M117.5,22.9c-.2,0-.5,0-.7,0-.7,0-1.4.3-1.8.9-.4.6-.6,1.3-.6,2v5.3h-2.2v-6.9c0-1.2,0-2.2,0-3.2h2v1.9h.1c.2-.6.6-1.2,1.1-1.6.5-.4,1-.5,1.6-.5.2,0,.4,0,.6,0v2.1Z"/>
      <path d="M121.6,17.9c0,.4-.1.7-.4,1-.3.3-.6.4-1,.4-.4,0-.7-.1-.9-.4-.3-.3-.4-.6-.4-1,0-.4.1-.7.4-1,.3-.2.6-.4,1-.4.4,0,.7.1,1,.4.3.2.4.6.4,1ZM121.4,31h-2.2v-10.1h2.2v10.1Z"/>
      <path d="M130.1,28.1c0,.9-.4,1.7-1,2.3-.8.6-1.8.9-2.9.9-1,0-2-.2-2.9-.7l.5-1.7c.7.5,1.6.7,2.5.7,1.2,0,1.7-.4,1.7-1.3,0-.3-.1-.7-.4-.9-.4-.3-.8-.6-1.3-.7-1.8-.7-2.7-1.6-2.7-2.9,0-.8.4-1.6,1-2.2.7-.6,1.7-.9,2.6-.9.9,0,1.8.2,2.6.6l-.5,1.6c-.6-.4-1.3-.6-2.1-.6-.4,0-.8,0-1.1.3-.3.2-.4.5-.4.9,0,.3.1.7.4.9.4.3.9.5,1.4.7,1.7.7,2.6,1.7,2.6,3.1Z"/>
      <path d="M134.5,17.9c0,.4-.1.7-.4,1-.3.3-.6.4-1,.4-.4,0-.7-.1-.9-.4-.3-.3-.4-.6-.4-1,0-.4.1-.7.4-1,.3-.2.6-.4,1-.4.4,0,.7.1,1,.4.3.2.4.6.4,1ZM134.3,31h-2.2v-10.1h2.2v10.1Z"/>
      <path d="M145.1,25.5c0,.3,0,.7,0,1h-6.7c0,.9.3,1.7,1,2.3.6.5,1.4.7,2.2.7.9,0,1.9-.1,2.7-.5l.4,1.6c-1.1.4-2.2.7-3.4.6-1.4,0-2.7-.4-3.7-1.4-.9-1-1.4-2.3-1.3-3.7,0-1.4.4-2.7,1.3-3.8.9-1.1,2.2-1.7,3.5-1.6,1.3,0,2.6.5,3.3,1.6.6.9.9,2.1.9,3.2ZM143,24.9c0-.6-.1-1.2-.4-1.7-.4-.6-1.1-1-1.8-.9-.7,0-1.4.3-1.8.9-.4.5-.6,1.1-.7,1.8h4.7Z"/>
      <path d="M152.3,22.9c-.2,0-.5,0-.7,0-.7,0-1.4.3-1.8.9-.4.6-.6,1.3-.6,2v5.3h-2.2v-6.9c0-1.2,0-2.2,0-3.2h2v1.9h.1c.2-.6.6-1.2,1.1-1.6.5-.4,1-.5,1.6-.5.2,0,.4,0,.6,0v2.1Z"/>
      <path d="M159.7,22.6h-2.5v4.9c0,1.2.4,1.9,1.3,1.9.3,0,.7,0,1-.1v1.7c-.5.2-1.1.3-1.7.3-.8,0-1.5-.3-2.1-.8-.6-.8-.8-1.8-.7-2.7v-5.1h-1.5v-1.7h1.5v-1.9l2.2-.7v2.5h2.5v1.7Z"/>
      <path d="M169.7,25.5c0,.3,0,.7,0,1h-6.8c0,.9.3,1.7,1,2.3.6.5,1.4.7,2.2.7.9,0,1.9-.1,2.7-.5l.4,1.6c-1.1.4-2.2.7-3.4.6-1.4,0-2.7-.4-3.7-1.4-.9-1-1.4-2.3-1.3-3.7,0-1.4.4-2.7,1.3-3.8.9-1.1,2.2-1.7,3.5-1.6,1.3,0,2.6.5,3.3,1.6.6.9.9,2.1.9,3.2ZM167.6,24.9c0-.6-.1-1.2-.4-1.7-.4-.6-1.1-1-1.8-.9-.7,0-1.4.3-1.8.9-.4.5-.6,1.1-.7,1.8h4.7Z"/>
      <path d="M177.1,22.9c-.2,0-.5,0-.7,0-.7,0-1.4.3-1.8.9-.4.6-.6,1.3-.6,2v5.3h-2.2v-6.9c0-1.2,0-2.2,0-3.2h2v1.9h.1c.2-.6.6-1.2,1.1-1.6.5-.4,1-.5,1.6-.5.2,0,.4,0,.6,0v2.1Z"/>
    </g>
    <path d="M81.5,54.8h-2.2v-6.3h-6.1v6.3h-2.2v-14h2.2v5.7h6.1v-5.7h2.2v14Z"/>
    <g>
      <path d="M91.9,54.8h-2l-.2-1.2h0c-.7.9-1.8,1.5-3,1.4-.9,0-1.7-.3-2.3-.9-.5-.6-.8-1.3-.8-2.1,0-1.2.6-2.2,1.6-2.8,1.3-.7,2.8-1.1,4.4-1v-.2c0-1.3-.7-2-2.1-2-.9,0-1.9.2-2.6.8l-.5-1.5c1.1-.6,2.3-.9,3.5-.9,2.7,0,4,1.4,4,4.2v3.7c0,.8,0,1.6.1,2.4ZM87.2,42.1c0,.3-.1.6-.3.8-.2.2-.5.3-.8.3-.3,0-.6-.1-.8-.3-.2-.2-.3-.5-.3-.8,0-.3.1-.6.3-.8.2-.2.5-.3.8-.3.3,0,.6.1.8.3.2.2.3.5.3.8h0ZM89.6,51.4v-1.6c-2.5,0-3.7.6-3.7,2,0,.4.1.9.4,1.2.3.3.7.4,1.1.4.5,0,1-.2,1.4-.5.4-.3.7-.7.8-1.2,0-.1,0-.3,0-.4h0ZM91.1,42.1c0,.3-.1.6-.3.8-.2.2-.5.3-.8.3-.3,0-.6-.1-.8-.3-.2-.2-.3-.5-.3-.8,0-.3.1-.6.3-.8.2-.2.5-.4.8-.3.3,0,.6.1.8.3.2.2.3.5.3.8Z"/>
      <path d="M103,54.8h-2.2v-5.8c0-1.8-.7-2.7-2-2.7-.6,0-1.2.3-1.6.7-.4.5-.6,1.1-.6,1.7v6h-2.2v-7.2c0-.9,0-1.9,0-2.9h2v1.6h.2c.3-.5.7-.9,1.2-1.2.6-.4,1.3-.6,2-.6.9,0,1.7.3,2.4.9.8.9,1.3,2.1,1.2,3.3v6.1Z"/>
      <path d="M114.5,54.8h-2v-1.6h-.2c-.6,1.2-1.9,2-3.2,1.9-1.2,0-2.3-.5-3-1.4-.8-1.1-1.3-2.4-1.2-3.7,0-1.4.4-2.9,1.3-4,.8-.9,1.9-1.4,3.1-1.4,1.1-.1,2.2.4,2.9,1.4v-5.8h2.2v12c0,1,0,1.9,0,2.7ZM112.2,50.6v-1.7c0-.2,0-.5,0-.7-.1-.5-.4-1-.8-1.4-.4-.4-1-.6-1.5-.6-.8,0-1.5.4-2,1-.5.8-.8,1.7-.7,2.6,0,.9.2,1.7.7,2.4.4.6,1.2,1,2,1,.7,0,1.4-.3,1.8-.8.4-.5.7-1.2.6-1.9h0Z"/>
      <path d="M119.2,54.8h-2.2v-14.8h2.2v14.8Z"/>
      <path d="M130,49.3c0,.3,0,.7,0,1h-6.7c0,.9.3,1.7,1,2.3.6.5,1.4.7,2.2.7.9,0,1.9-.1,2.7-.5l.4,1.6c-1.1.4-2.2.7-3.4.6-1.4,0-2.7-.4-3.7-1.4-.9-1-1.4-2.3-1.3-3.7,0-1.4.4-2.7,1.3-3.8.9-1.1,2.2-1.7,3.5-1.6,1.3,0,2.6.5,3.3,1.6.6.9.9,2.1.9,3.2ZM127.9,48.7c0-.6-.1-1.2-.4-1.7-.4-.6-1.1-1-1.8-.9-.7,0-1.4.3-1.8.9-.4.5-.6,1.1-.7,1.8h4.7Z"/>
      <path d="M137.2,46.7c-.2,0-.5,0-.7,0-.7,0-1.4.3-1.8.9-.4.6-.6,1.3-.6,2v5.3h-2.2v-6.9c0-1.2,0-2.2,0-3.2h2v1.9h.1c.2-.6.6-1.2,1.1-1.6.5-.4,1-.5,1.6-.5.2,0,.4,0,.6,0v2.1Z"/>
    </g>
  </g>
</svg>