<svg xmlns="http://www.w3.org/2000/svg" xmlns:xlink="http://www.w3.org/1999/xlink" width="208.892" height="57.053" viewBox="0 0 208.892 57.053"><defs><clipPath id="a"><rect width="208.892" height="57.053" fill="#fff"/></clipPath></defs><g transform="translate(0 0)" clip-path="url(#a)"><path d="M46.459,41.849a31.379,31.379,0,0,1-3.952,8.115c-2.377,3.478-4.846,6.943-8.734,7.014-3.82.073-5.049-2.268-9.413-2.268s-5.738,2.2-9.35,2.34C11.256,57.191,8.4,53.291,6,49.828c-4.9-7.085-8.64-20.02-3.613-28.744a13.954,13.954,0,0,1,11.8-7.154c3.688-.068,7.162,2.478,9.418,2.478s6.477-3.065,10.922-2.616a13.338,13.338,0,0,1,10.435,5.658c-.268.169-6.232,3.64-6.167,10.858a12.592,12.592,0,0,0,7.661,11.542M31.616,9.11A12.542,12.542,0,0,0,34.585,0,12.75,12.75,0,0,0,26.18,4.321c-1.844,2.138-3.465,5.554-3.024,8.825,3.2.248,6.471-1.628,8.46-4.035" transform="translate(0 0)" fill="#fff"/><path d="M57.384,25.03H54.972l-1.319-4.145H49.06L47.8,25.03h-2.35L50,10.9h2.809ZM53.26,19.136l-1.2-3.685q-.191-.567-.714-2.66h-.042q-.211.9-.672,2.66l-1.174,3.685Z" transform="translate(23.313 5.591)" fill="#fff"/><path d="M63.022,23.7H61.028L60.9,22.149H60.86a3.524,3.524,0,0,1-3.232,1.779,3.182,3.182,0,0,1-2.413-.944,4.971,4.971,0,0,1-1.07-3.486V13.492H56.4v5.632q0,2.943,2.014,2.943a2.109,2.109,0,0,0,2.1-1.471,2.364,2.364,0,0,0,.147-.862V13.492h2.257v7.269q0,1.45.1,2.941" transform="translate(27.772 6.92)" fill="#fff"/><path d="M67.292,16.044H64.8v4.962q0,1.89,1.318,1.891a4.216,4.216,0,0,0,1-.1l.064,1.71a5.154,5.154,0,0,1-1.761.25,2.706,2.706,0,0,1-2.1-.818,4.016,4.016,0,0,1-.755-2.75V16.044H61.08V14.351h1.495V12.484l2.229-.67v2.537h2.489Z" transform="translate(31.329 6.059)" fill="#fff"/><path d="M75.878,18.583a5.584,5.584,0,0,1-1.342,3.858A4.8,4.8,0,0,1,70.8,23.993,4.562,4.562,0,0,1,67.223,22.5a5.419,5.419,0,0,1-1.333-3.753,5.543,5.543,0,0,1,1.375-3.88,4.76,4.76,0,0,1,3.7-1.51,4.665,4.665,0,0,1,3.61,1.489,5.376,5.376,0,0,1,1.3,3.734m-2.35.059a4.561,4.561,0,0,0-.608-2.405,2.244,2.244,0,0,0-2.035-1.212,2.277,2.277,0,0,0-2.079,1.212,4.639,4.639,0,0,0-.608,2.446,4.553,4.553,0,0,0,.608,2.405A2.291,2.291,0,0,0,70.863,22.3,2.268,2.268,0,0,0,72.9,21.068a4.531,4.531,0,0,0,.629-2.425" transform="translate(33.796 6.853)" fill="#fff"/><path d="M79.256,15.564a4.17,4.17,0,0,0-.717-.059,2.158,2.158,0,0,0-1.856.9,3.38,3.38,0,0,0-.569,2.014v5.348H73.856v-7q0-1.766-.056-3.215h1.973l.083,1.965h.062a3.471,3.471,0,0,1,1.135-1.616,2.732,2.732,0,0,1,1.635-.546,3.388,3.388,0,0,1,.567.042Z" transform="translate(37.853 6.853)" fill="#fff"/><path d="M81.112,11.945a1.3,1.3,0,0,1-.4.988,1.432,1.432,0,0,1-1.026.377,1.286,1.286,0,0,1-.953-.389,1.32,1.32,0,0,1-.387-.976,1.272,1.272,0,0,1,.4-.965,1.47,1.47,0,0,1,1.968,0,1.278,1.278,0,0,1,.4.965m-.254,13.239H78.6V14.974h2.256Z" transform="translate(40.185 5.438)" fill="#fff"/><path d="M88.126,20.822a2.812,2.812,0,0,1-1.045,2.284,4.423,4.423,0,0,1-2.887.859,5.9,5.9,0,0,1-2.95-.688l.483-1.67a4.8,4.8,0,0,0,2.49.694q1.736,0,1.738-1.277a1.249,1.249,0,0,0-.377-.932,3.948,3.948,0,0,0-1.337-.723q-2.714-1.005-2.714-2.932a2.8,2.8,0,0,1,1-2.2,3.9,3.9,0,0,1,2.661-.879,5.124,5.124,0,0,1,2.576.608l-.483,1.616A3.993,3.993,0,0,0,85.209,15a1.679,1.679,0,0,0-1.114.336,1.071,1.071,0,0,0-.4.859,1.054,1.054,0,0,0,.418.859,4.715,4.715,0,0,0,1.378.691q2.632,1.005,2.632,3.08" transform="translate(41.671 6.853)" fill="#fff"/><path d="M89.794,11.945a1.3,1.3,0,0,1-.4.988,1.43,1.43,0,0,1-1.026.377,1.285,1.285,0,0,1-.952-.389,1.321,1.321,0,0,1-.389-.976,1.278,1.278,0,0,1,.4-.965,1.47,1.47,0,0,1,1.968,0,1.272,1.272,0,0,1,.4.965M89.54,25.185H87.284V14.974H89.54Z" transform="translate(44.639 5.438)" fill="#fff"/><path d="M99.146,18.195a5.364,5.364,0,0,1-.083,1.03H92.237a2.961,2.961,0,0,0,.988,2.309,3.383,3.383,0,0,0,2.229.713,7.558,7.558,0,0,0,2.753-.481l.359,1.579a8.522,8.522,0,0,1-3.421.631,4.95,4.95,0,0,1-3.726-1.4,5.167,5.167,0,0,1-1.353-3.752,5.863,5.863,0,0,1,1.26-3.846A4.358,4.358,0,0,1,94.9,13.343a3.806,3.806,0,0,1,3.344,1.638,5.5,5.5,0,0,1,.9,3.213m-2.171-.585a3.064,3.064,0,0,0-.442-1.741,1.989,1.989,0,0,0-1.811-.944,2.163,2.163,0,0,0-1.811.923,3.381,3.381,0,0,0-.675,1.762Z" transform="translate(46.196 6.843)" fill="#fff"/><path d="M102.793,15.564a4.17,4.17,0,0,0-.717-.059,2.156,2.156,0,0,0-1.856.9,3.38,3.38,0,0,0-.569,2.014v5.348H97.393v-7q0-1.766-.056-3.215H99.31l.083,1.965h.062a3.46,3.46,0,0,1,1.135-1.616,2.729,2.729,0,0,1,1.635-.546,3.388,3.388,0,0,1,.567.042Z" transform="translate(49.925 6.853)" fill="#fff"/><path d="M107.847,16.044h-2.489v4.962q0,1.89,1.318,1.891a4.216,4.216,0,0,0,1-.1l.064,1.71a5.154,5.154,0,0,1-1.761.25,2.708,2.708,0,0,1-2.1-.818,4.024,4.024,0,0,1-.755-2.75V16.044h-1.495V14.351h1.495V12.484l2.229-.67v2.537h2.489Z" transform="translate(52.13 6.059)" fill="#fff"/><path d="M115.527,18.195a5.363,5.363,0,0,1-.083,1.03h-6.826a2.961,2.961,0,0,0,.988,2.309,3.381,3.381,0,0,0,2.229.713,7.559,7.559,0,0,0,2.754-.481l.357,1.579a8.517,8.517,0,0,1-3.421.631,4.947,4.947,0,0,1-3.725-1.4,5.161,5.161,0,0,1-1.353-3.752,5.862,5.862,0,0,1,1.26-3.846,4.356,4.356,0,0,1,3.573-1.638,3.806,3.806,0,0,1,3.344,1.638,5.5,5.5,0,0,1,.9,3.213m-2.171-.585a3.076,3.076,0,0,0-.442-1.741,1.99,1.99,0,0,0-1.812-.944,2.166,2.166,0,0,0-1.811.923,3.366,3.366,0,0,0-.673,1.762Z" transform="translate(54.598 6.843)" fill="#fff"/><path d="M119.173,15.564a4.17,4.17,0,0,0-.717-.059,2.158,2.158,0,0,0-1.856.9,3.38,3.38,0,0,0-.569,2.014v5.348h-2.257v-7q0-1.766-.056-3.215h1.973l.083,1.965h.064a3.458,3.458,0,0,1,1.133-1.616,2.735,2.735,0,0,1,1.635-.546,3.387,3.387,0,0,1,.567.042Z" transform="translate(58.327 6.853)" fill="#fff"/><path d="M54.5,37.088a3.757,3.757,0,0,1-1.26,2.936,5.6,5.6,0,0,1-3.864,1.239,6.8,6.8,0,0,1-3.676-.877l.526-1.88a6.391,6.391,0,0,0,3.278.868,3.111,3.111,0,0,0,2-.576,1.883,1.883,0,0,0,.714-1.542,1.965,1.965,0,0,0-.589-1.446,5.486,5.486,0,0,0-1.953-1.091q-3.719-1.382-3.72-4.045a3.57,3.57,0,0,1,1.312-2.853,5.19,5.19,0,0,1,3.472-1.11,6.874,6.874,0,0,1,3.209.672l-.566,1.85a5.512,5.512,0,0,0-2.707-.661,2.742,2.742,0,0,0-1.868.589,1.677,1.677,0,0,0-.567,1.28,1.729,1.729,0,0,0,.652,1.384,7.358,7.358,0,0,0,2.058,1.091,6.975,6.975,0,0,1,2.69,1.72,3.594,3.594,0,0,1,.862,2.454" transform="translate(23.438 13.699)" fill="#fff"/><path d="M61.669,34.153a5.347,5.347,0,0,1-.083,1.029H54.76a2.964,2.964,0,0,0,.988,2.31,3.383,3.383,0,0,0,2.229.713,7.59,7.59,0,0,0,2.753-.481l.357,1.579a8.517,8.517,0,0,1-3.421.631,4.947,4.947,0,0,1-3.725-1.4,5.164,5.164,0,0,1-1.353-3.752,5.86,5.86,0,0,1,1.26-3.846,4.359,4.359,0,0,1,3.573-1.64,3.807,3.807,0,0,1,3.344,1.64,5.5,5.5,0,0,1,.9,3.213M59.5,33.568a3.072,3.072,0,0,0-.442-1.741,1.991,1.991,0,0,0-1.812-.946,2.163,2.163,0,0,0-1.809.924,3.381,3.381,0,0,0-.675,1.762Z" transform="translate(26.973 15.027)" fill="#fff"/><path d="M65.316,31.523a4.17,4.17,0,0,0-.717-.059,2.158,2.158,0,0,0-1.856.9,3.38,3.38,0,0,0-.569,2.014v5.348H59.916v-7c0-1.177-.018-2.247-.056-3.215h1.973l.083,1.964h.062a3.474,3.474,0,0,1,1.135-1.614,2.742,2.742,0,0,1,1.635-.546,3.567,3.567,0,0,1,.567.041Z" transform="translate(30.703 15.038)" fill="#fff"/><path d="M73.969,29.45,70.113,39.66h-2.2L64.182,29.45h2.431l1.74,5.4q.438,1.343.734,2.584h.062q.252-1.114.734-2.584l1.719-5.4Z" transform="translate(32.92 15.104)" fill="#fff"/><path d="M74.274,27.9a1.3,1.3,0,0,1-.4.985,1.424,1.424,0,0,1-1.026.378,1.293,1.293,0,0,1-.953-.387,1.323,1.323,0,0,1-.387-.976,1.279,1.279,0,0,1,.4-.967,1.47,1.47,0,0,1,1.968,0,1.279,1.279,0,0,1,.4.967M74.02,41.143H71.764V30.932H74.02Z" transform="translate(36.678 13.622)" fill="#fff"/><path d="M82.5,29.8l-.44,1.72a4.4,4.4,0,0,0-1.971-.425,2.974,2.974,0,0,0-2.359,1,3.7,3.7,0,0,0-.87,2.526,3.52,3.52,0,0,0,.912,2.558,3.087,3.087,0,0,0,2.316.943,5.446,5.446,0,0,0,2.055-.405l.315,1.688a6.623,6.623,0,0,1-2.811.522,4.964,4.964,0,0,1-3.716-1.415,5.175,5.175,0,0,1-1.384-3.784,5.166,5.166,0,0,1,5.5-5.407A5.751,5.751,0,0,1,82.5,29.8" transform="translate(38.235 15.037)" fill="#fff"/><path d="M89.548,34.153a5.347,5.347,0,0,1-.083,1.029H82.639a2.964,2.964,0,0,0,.988,2.31,3.381,3.381,0,0,0,2.229.713,7.59,7.59,0,0,0,2.753-.481l.357,1.579a8.517,8.517,0,0,1-3.421.631,4.947,4.947,0,0,1-3.725-1.4,5.164,5.164,0,0,1-1.353-3.752,5.86,5.86,0,0,1,1.26-3.846A4.357,4.357,0,0,1,85.3,29.3a3.807,3.807,0,0,1,3.344,1.64,5.5,5.5,0,0,1,.9,3.213m-2.171-.585a3.072,3.072,0,0,0-.442-1.741,1.991,1.991,0,0,0-1.812-.946,2.163,2.163,0,0,0-1.809.924,3.381,3.381,0,0,0-.675,1.762Z" transform="translate(41.273 15.027)" fill="#fff"/><path d="M100.08,31.006a4.283,4.283,0,0,1-1.153,3.13,7.037,7.037,0,0,1-5.636,1.421v5.471H91.036V27.077a20.858,20.858,0,0,1,3.693-.293,6.13,6.13,0,0,1,4.05,1.156,3.864,3.864,0,0,1,1.3,3.067m-2.245.1a2.345,2.345,0,0,0-.8-1.909,3.365,3.365,0,0,0-2.219-.666,7.452,7.452,0,0,0-1.528.127v5.106a5.408,5.408,0,0,0,1.319.126,3.517,3.517,0,0,0,2.366-.737,2.56,2.56,0,0,0,.858-2.047" transform="translate(46.693 13.737)" fill="#fff"/><path d="M103.82,31.523a4.17,4.17,0,0,0-.717-.059,2.156,2.156,0,0,0-1.856.9,3.37,3.37,0,0,0-.569,2.014v5.348H98.42v-7c0-1.177-.02-2.247-.056-3.215h1.973l.083,1.964h.062a3.463,3.463,0,0,1,1.135-1.614,2.742,2.742,0,0,1,1.635-.546,3.567,3.567,0,0,1,.567.041Z" transform="translate(50.452 15.038)" fill="#fff"/><path d="M112.509,34.542a5.591,5.591,0,0,1-1.342,3.858,4.8,4.8,0,0,1-3.735,1.552,4.562,4.562,0,0,1-3.578-1.489,5.413,5.413,0,0,1-1.333-3.755,5.543,5.543,0,0,1,1.375-3.881,4.759,4.759,0,0,1,3.7-1.508,4.655,4.655,0,0,1,3.608,1.489,5.367,5.367,0,0,1,1.3,3.734m-2.35.059a4.557,4.557,0,0,0-.61-2.405,2.242,2.242,0,0,0-2.035-1.213,2.278,2.278,0,0,0-2.077,1.213,4.635,4.635,0,0,0-.608,2.446,4.557,4.557,0,0,0,.608,2.405,2.323,2.323,0,0,0,4.092-.02,4.544,4.544,0,0,0,.629-2.427" transform="translate(52.584 15.038)" fill="#fff"/><path d="M119.144,29.45l-3.856,10.21h-2.2l-3.729-10.21h2.431l1.738,5.4q.44,1.343.735,2.584h.062q.252-1.114.734-2.584l1.719-5.4Z" transform="translate(56.09 15.104)" fill="#fff"/><path d="M119.31,27.9a1.3,1.3,0,0,1-.4.985,1.424,1.424,0,0,1-1.026.378,1.3,1.3,0,0,1-.953-.387,1.328,1.328,0,0,1-.387-.976,1.279,1.279,0,0,1,.4-.967,1.47,1.47,0,0,1,1.968,0,1.279,1.279,0,0,1,.4.967m-.254,13.238H116.8V30.932h2.256Z" transform="translate(59.778 13.622)" fill="#fff"/><path d="M129.2,41.247h-2.015l-.1-1.637h-.064a3.387,3.387,0,0,1-3.274,1.862,3.839,3.839,0,0,1-3.064-1.446,5.639,5.639,0,0,1-1.218-3.755,5.894,5.894,0,0,1,1.331-4.006,4.1,4.1,0,0,1,3.168-1.427,3.082,3.082,0,0,1,2.891,1.386V26.356h2.256V38.5q0,1.491.092,2.752m-2.348-4.3V35.25a3.344,3.344,0,0,0-.062-.711,2.552,2.552,0,0,0-.82-1.369,2.215,2.215,0,0,0-1.513-.554,2.32,2.32,0,0,0-1.986,1,4.287,4.287,0,0,0-.723,2.57,4.026,4.026,0,0,0,.693,2.446,2.325,2.325,0,0,0,1.974,1A2.175,2.175,0,0,0,126.2,38.8a2.788,2.788,0,0,0,.652-1.861" transform="translate(61.273 13.517)" fill="#fff"/><path d="M136.277,34.153a5.346,5.346,0,0,1-.083,1.029h-6.826a2.964,2.964,0,0,0,.988,2.31,3.381,3.381,0,0,0,2.229.713,7.59,7.59,0,0,0,2.754-.481L135.7,39.3a8.517,8.517,0,0,1-3.421.631,4.947,4.947,0,0,1-3.725-1.4,5.164,5.164,0,0,1-1.353-3.752,5.86,5.86,0,0,1,1.26-3.846,4.357,4.357,0,0,1,3.574-1.64,3.809,3.809,0,0,1,3.344,1.64,5.5,5.5,0,0,1,.9,3.213m-2.171-.585a3.073,3.073,0,0,0-.442-1.741,1.991,1.991,0,0,0-1.812-.946,2.168,2.168,0,0,0-1.811.924,3.367,3.367,0,0,0-.673,1.762Z" transform="translate(65.241 15.027)" fill="#fff"/><path d="M139.923,31.523a4.17,4.17,0,0,0-.717-.059,2.158,2.158,0,0,0-1.856.9,3.38,3.38,0,0,0-.569,2.014v5.348h-2.257v-7c0-1.177-.018-2.247-.056-3.215h1.973l.083,1.964h.064a3.461,3.461,0,0,1,1.133-1.614,2.745,2.745,0,0,1,1.635-.546,3.567,3.567,0,0,1,.567.041Z" transform="translate(68.969 15.038)" fill="#fff"/></g></svg>