<svg xmlns="http://www.w3.org/2000/svg" width="175.66" height="57.05" viewBox="0 0 175.66 57.05"><g transform="translate(0 0)"><g transform="translate(0)"><path d="M2143.521-475.749a31.461,31.461,0,0,1-3.952,8.115c-2.378,3.478-4.847,6.942-8.735,7.013-3.818.073-5.049-2.268-9.414-2.268s-5.737,2.2-9.349,2.34c-3.754.141-6.613-3.759-9.01-7.222-4.9-7.083-8.638-20.019-3.614-28.742a13.954,13.954,0,0,1,11.8-7.154c3.688-.068,7.162,2.477,9.417,2.477s6.477-3.065,10.921-2.614a13.335,13.335,0,0,1,10.436,5.657c-.268.17-6.233,3.64-6.168,10.857a12.586,12.586,0,0,0,7.663,11.542m-14.844-32.738a12.539,12.539,0,0,0,2.97-9.108,12.737,12.737,0,0,0-8.4,4.319c-1.844,2.137-3.466,5.553-3.026,8.824,3.2.249,6.471-1.626,8.46-4.035" transform="translate(-2097.062 517.595)" fill="#fff"/><g transform="translate(68.764 16.123)"><g transform="translate(0 0.438)"><path d="M2142-495.617h-2.388l-1.311-4.114h-4.55l-1.249,4.114h-2.325l4.508-14h2.784Zm-4.094-5.839-1.186-3.655q-.185-.561-.7-2.639h-.043q-.206.894-.665,2.639l-1.164,3.655Z" transform="translate(-2130.175 509.62)" fill="#fff"/><path d="M2145.185-497.641h-1.972l-.124-1.539h-.042a3.485,3.485,0,0,1-3.2,1.767,3.156,3.156,0,0,1-2.39-.935,4.925,4.925,0,0,1-1.057-3.449v-5.943h2.243v5.569q0,2.909,2,2.907a2.088,2.088,0,0,0,2.076-1.454,2.354,2.354,0,0,0,.146-.851v-6.172h2.243v7.189C2145.1-499.593,2145.132-498.626,2145.185-497.641Z" transform="translate(-2123.474 511.644)" fill="#fff"/></g><g transform="translate(23.271)"><path d="M2147.532-504.755h-2.474v4.905q0,1.869,1.308,1.869a4.043,4.043,0,0,0,1-.1l.063,1.7a5.027,5.027,0,0,1-1.746.251,2.687,2.687,0,0,1-2.079-.812,3.983,3.983,0,0,1-.747-2.72v-5.092h-1.475v-1.682h1.475v-1.848l2.2-.664v2.513h2.474Z" transform="translate(-2141.381 510.779)" fill="#fff"/><path d="M2154.7-502.665a5.531,5.531,0,0,1-1.332,3.823,4.744,4.744,0,0,1-3.7,1.537,4.51,4.51,0,0,1-3.541-1.477,5.361,5.361,0,0,1-1.321-3.717,5.485,5.485,0,0,1,1.363-3.844,4.7,4.7,0,0,1,3.666-1.5,4.62,4.62,0,0,1,3.576,1.477A5.33,5.33,0,0,1,2154.7-502.665Zm-2.326.05a4.489,4.489,0,0,0-.6-2.38,2.214,2.214,0,0,0-2.014-1.2,2.246,2.246,0,0,0-2.058,1.2,4.594,4.594,0,0,0-.6,2.423,4.518,4.518,0,0,0,.6,2.382,2.266,2.266,0,0,0,2.037,1.2,2.246,2.246,0,0,0,2.015-1.221A4.51,4.51,0,0,0,2152.377-502.615Z" transform="translate(-2137.688 511.974)" fill="#fff"/><path d="M2155.837-505.658a3.821,3.821,0,0,0-.706-.062,2.129,2.129,0,0,0-1.829.893,3.365,3.365,0,0,0-.561,1.994v5.3H2150.5v-6.919q0-1.744-.062-3.179h1.952l.082,1.933h.063a3.459,3.459,0,0,1,1.122-1.6,2.721,2.721,0,0,1,1.621-.542,3.494,3.494,0,0,1,.561.042Z" transform="translate(-2131.632 511.974)" fill="#fff"/><path d="M2156.45-508.5a1.285,1.285,0,0,1-.4.978,1.423,1.423,0,0,1-1.018.374,1.268,1.268,0,0,1-.945-.386,1.311,1.311,0,0,1-.385-.966,1.264,1.264,0,0,1,.393-.955,1.373,1.373,0,0,1,.979-.374,1.366,1.366,0,0,1,.976.374A1.26,1.26,0,0,1,2156.45-508.5Zm-.251,13.112h-2.243v-10.1h2.243Z" transform="translate(-2128.11 509.831)" fill="#fff"/><path d="M2162.642-500.443a2.779,2.779,0,0,1-1.039,2.266,4.392,4.392,0,0,1-2.865.851,5.844,5.844,0,0,1-2.931-.685l.478-1.661a4.7,4.7,0,0,0,2.473.7q1.724,0,1.724-1.265a1.223,1.223,0,0,0-.374-.926,3.967,3.967,0,0,0-1.327-.716q-2.7-1-2.7-2.909a2.787,2.787,0,0,1,1-2.183,3.861,3.861,0,0,1,2.639-.872,5.084,5.084,0,0,1,2.552.6l-.475,1.6a3.962,3.962,0,0,0-2.058-.584,1.656,1.656,0,0,0-1.1.334,1.059,1.059,0,0,0-.394.851,1.047,1.047,0,0,0,.415.854,4.736,4.736,0,0,0,1.37.683Q2162.645-502.5,2162.642-500.443Z" transform="translate(-2125.849 511.974)" fill="#fff"/><path d="M2162.633-508.5a1.291,1.291,0,0,1-.394.978,1.428,1.428,0,0,1-1.018.374,1.273,1.273,0,0,1-.947-.386,1.308,1.308,0,0,1-.384-.966,1.26,1.26,0,0,1,.395-.955,1.365,1.365,0,0,1,.976-.374,1.375,1.375,0,0,1,.978.374A1.269,1.269,0,0,1,2162.633-508.5Zm-.251,13.112h-2.242v-10.1h2.245Z" transform="translate(-2121.453 509.831)" fill="#fff"/><path d="M2170.967-503.05a5.23,5.23,0,0,1-.083,1.018h-6.733a2.943,2.943,0,0,0,.978,2.286,3.33,3.33,0,0,0,2.2.7,7.4,7.4,0,0,0,2.721-.478l.355,1.56a8.448,8.448,0,0,1-3.386.623,4.9,4.9,0,0,1-3.689-1.383,5.1,5.1,0,0,1-1.34-3.707,5.8,5.8,0,0,1,1.247-3.8,4.306,4.306,0,0,1,3.531-1.618,3.765,3.765,0,0,1,3.3,1.618A5.443,5.443,0,0,1,2170.967-503.05Zm-2.141-.581a3.039,3.039,0,0,0-.436-1.726,1.961,1.961,0,0,0-1.787-.934,2.141,2.141,0,0,0-1.787.912,3.349,3.349,0,0,0-.665,1.749Z" transform="translate(-2119.191 511.965)" fill="#fff"/><path d="M2172.554-505.658a3.839,3.839,0,0,0-.706-.062,2.129,2.129,0,0,0-1.83.893,3.36,3.36,0,0,0-.561,1.994v5.3h-2.242v-6.919q0-1.744-.062-3.179h1.952l.083,1.933h.063a3.468,3.468,0,0,1,1.121-1.6,2.725,2.725,0,0,1,1.623-.542,3.522,3.522,0,0,1,.561.042Z" transform="translate(-2113.633 511.974)" fill="#fff"/><path d="M2176.513-504.755h-2.471v4.905c0,1.246.434,1.869,1.309,1.869a4.038,4.038,0,0,0,1-.1l.062,1.7a5.013,5.013,0,0,1-1.746.251,2.681,2.681,0,0,1-2.076-.812,3.965,3.965,0,0,1-.748-2.72v-5.092h-1.474v-1.682h1.474v-1.848l2.2-.664v2.513h2.471Z" transform="translate(-2110.175 510.779)" fill="#fff"/><path d="M2182.773-503.05a5.417,5.417,0,0,1-.082,1.018h-6.735a2.945,2.945,0,0,0,.978,2.286,3.335,3.335,0,0,0,2.2.7,7.4,7.4,0,0,0,2.721-.478l.355,1.56a8.447,8.447,0,0,1-3.385.623,4.9,4.9,0,0,1-3.691-1.383,5.1,5.1,0,0,1-1.339-3.707,5.8,5.8,0,0,1,1.248-3.8,4.3,4.3,0,0,1,3.53-1.618,3.765,3.765,0,0,1,3.305,1.618A5.45,5.45,0,0,1,2182.773-503.05Zm-2.143-.581a3.034,3.034,0,0,0-.436-1.726,1.957,1.957,0,0,0-1.786-.934,2.136,2.136,0,0,0-1.785.912,3.349,3.349,0,0,0-.667,1.749Z" transform="translate(-2106.481 511.965)" fill="#fff"/><path d="M2184.448-505.658a3.815,3.815,0,0,0-.7-.062,2.125,2.125,0,0,0-1.829.893,3.362,3.362,0,0,0-.561,1.994v5.3h-2.245v-6.919q0-1.744-.06-3.179H2181l.083,1.933h.061a3.46,3.46,0,0,1,1.121-1.6,2.729,2.729,0,0,1,1.621-.542,3.5,3.5,0,0,1,.56.042Z" transform="translate(-2100.824 511.974)" fill="#fff"/></g><g transform="translate(1.018 24.17)"><path d="M2141.221-484.19h-2.243v-6.317h-6.068v6.317h-2.244v-14h2.244v5.713h6.068v-5.713h2.243Z" transform="translate(-2130.665 498.192)" fill="#fff"/></g><g transform="translate(13.65 23.441)"><path d="M2145.04-484.286h-2.014l-.167-1.165h-.064a3.457,3.457,0,0,1-2.949,1.393,3.038,3.038,0,0,1-2.307-.916,2.87,2.87,0,0,1-.792-2.056,3.143,3.143,0,0,1,1.551-2.826,8.058,8.058,0,0,1,4.353-.955V-491q0-2-2.1-2a4.714,4.714,0,0,0-2.64.75l-.457-1.476a6.485,6.485,0,0,1,3.469-.872q3.969,0,3.969,4.176v3.721A15.623,15.623,0,0,0,2145.04-484.286Zm-4.716-12.655a1.144,1.144,0,0,1-.324.833,1.066,1.066,0,0,1-.8.332,1.088,1.088,0,0,1-.81-.343,1.135,1.135,0,0,1-.331-.822,1.126,1.126,0,0,1,.341-.818,1.117,1.117,0,0,1,.821-.343,1.017,1.017,0,0,1,.792.343A1.177,1.177,0,0,1,2140.324-496.941Zm2.388,9.185v-1.559q-3.739-.059-3.738,2.037a1.51,1.51,0,0,0,.434,1.184,1.58,1.58,0,0,0,1.1.395,2.275,2.275,0,0,0,1.381-.467,1.909,1.909,0,0,0,.781-1.194A1.86,1.86,0,0,0,2142.712-487.756Zm1.519-9.185a1.148,1.148,0,0,1-.322.833,1.1,1.1,0,0,1-.822.332,1.051,1.051,0,0,1-.8-.343,1.152,1.152,0,0,1-.323-.822,1.131,1.131,0,0,1,.334-.818,1.1,1.1,0,0,1,.831-.343,1,1,0,0,1,.786.343A1.162,1.162,0,0,1,2144.23-496.941Z" transform="translate(-2136.748 499.018)" fill="#fff"/><path d="M2150.673-486.106h-2.244v-5.8q0-2.682-2.036-2.681a2.024,2.024,0,0,0-1.622.737,2.616,2.616,0,0,0-.623,1.736v6h-2.242v-7.208q0-1.333-.083-2.891h1.973l.105,1.56h.06a3.239,3.239,0,0,1,1.166-1.206,3.814,3.814,0,0,1,2.036-.561,3.211,3.211,0,0,1,2.346.916,4.436,4.436,0,0,1,1.165,3.343Z" transform="translate(-2131.286 500.837)" fill="#fff"/><path d="M2156.591-483.811H2154.6l-.1-1.622h-.064a3.353,3.353,0,0,1-3.241,1.85,3.8,3.8,0,0,1-3.034-1.433,5.589,5.589,0,0,1-1.2-3.721,5.841,5.841,0,0,1,1.314-3.968,4.064,4.064,0,0,1,3.136-1.412,3.052,3.052,0,0,1,2.862,1.373v-5.8h2.242v12.009C2156.508-485.55,2156.538-484.642,2156.591-483.811Zm-2.325-4.259v-1.684a3.2,3.2,0,0,0-.063-.7,2.528,2.528,0,0,0-.814-1.362,2.2,2.2,0,0,0-1.5-.55,2.305,2.305,0,0,0-1.974,1,4.26,4.26,0,0,0-.718,2.554,3.994,3.994,0,0,0,.69,2.432,2.308,2.308,0,0,0,1.96,1,2.164,2.164,0,0,0,1.773-.831A2.791,2.791,0,0,0,2154.266-488.071Z" transform="translate(-2125.76 498.543)" fill="#fff"/><path d="M2155.009-483.811h-2.242v-14.732h2.242Z" transform="translate(-2119.501 498.543)" fill="#fff"/><path d="M2163.725-491.622a5.362,5.362,0,0,1-.084,1.018h-6.732a2.944,2.944,0,0,0,.978,2.286,3.336,3.336,0,0,0,2.2.7,7.405,7.405,0,0,0,2.722-.478l.355,1.56a8.465,8.465,0,0,1-3.388.623,4.9,4.9,0,0,1-3.689-1.383,5.1,5.1,0,0,1-1.34-3.707,5.8,5.8,0,0,1,1.248-3.8,4.309,4.309,0,0,1,3.531-1.618,3.76,3.76,0,0,1,3.3,1.618A5.444,5.444,0,0,1,2163.725-491.622Zm-2.142-.583a3.05,3.05,0,0,0-.437-1.724,1.959,1.959,0,0,0-1.786-.934,2.139,2.139,0,0,0-1.788.912,3.347,3.347,0,0,0-.665,1.746Z" transform="translate(-2117.369 500.828)" fill="#fff"/><path d="M2165.312-494.229a3.807,3.807,0,0,0-.705-.062,2.125,2.125,0,0,0-1.83.893,3.364,3.364,0,0,0-.561,1.994v5.3h-2.243v-6.919c0-1.163-.023-2.222-.062-3.179h1.953l.083,1.933h.061a3.465,3.465,0,0,1,1.122-1.6,2.716,2.716,0,0,1,1.62-.542,3.5,3.5,0,0,1,.562.042Z" transform="translate(-2111.809 500.837)" fill="#fff"/></g></g></g></g></svg>