<svg xmlns="http://www.w3.org/2000/svg" width="212.901" height="87.458" viewBox="0 0 212.901 87.458"><path d="M2291.468-959.108c0,1.3-1.461,2.349-3.263,2.349s-3.263-1.052-3.263-2.349v-28.869c0-1.3,1.465-2.348,3.268-2.348s3.259,1.051,3.259,2.348v1.342h.129a6.894,6.894,0,0,1,6.142-3.519,7.1,7.1,0,0,1,5.822,3.264,8.208,8.208,0,0,1,6.782-3.264c3.264,0,7.1,2.112,7.1,7.935v23.11c0,1.3-1.46,2.349-3.263,2.349s-3.263-1.052-3.263-2.349v-20.68c0-2.367-1.152-3.84-3.2-3.84-2.432,0-3.263,1.6-3.263,4.48v20.039c0,1.3-1.46,2.349-3.263,2.349s-3.265-1.052-3.265-2.349v-20.68c0-2.367-1.151-3.84-3.2-3.84-2.432,0-3.264,1.6-3.264,4.48Z" transform="translate(-2284.941 1016.34)" fill="#af0d21"/><path d="M2363.567-979.881c0-2.432,1.215-3.711,3.2-3.711s3.2,1.217,3.2,3.841c0,1.627,1.46,2.349,3.263,2.349s3.261-1.054,3.261-2.352c0-6.014-3.71-10.365-9.726-10.365a9.288,9.288,0,0,0-8.509,4.671,14.274,14.274,0,0,0-1.216,6.59v11.333a14.271,14.271,0,0,0,1.216,6.589,9.288,9.288,0,0,0,8.509,4.671c6.015,0,9.726-4.35,9.726-10.365,0-1.3-1.459-2.352-3.261-2.352s-3.263.721-3.263,2.349c0,2.624-1.219,3.841-3.2,3.841s-3.2-1.279-3.2-3.711Z" transform="translate(-2296.872 1016.306)" fill="#af0d21"/><path d="M2447.239-992.83v-4.735c0-1.408.7-2.239,1.919-2.239l1.091.007c1.226,0,2.223-1.359,2.223-3.064s-1-3.087-2.223-3.087l-1.156,0c-4.222,0-8.382,2.43-8.382,8.7v4.415l-3.69,0c-1.017,0-1.843,1.155-1.843,2.569s.825,2.555,1.843,2.555l3.69,0v26.02c0,1.3,1.461,2.349,3.263,2.349s3.263-1.052,3.263-2.349v-26.02h7.945v26.02c0,1.3,1.462,2.349,3.264,2.349s3.262-1.052,3.262-2.349v-26.02l3.969-.006c1.017,0,1.842-1.146,1.842-2.56s-.825-2.554-1.843-2.554l-3.967,0v-4.735c0-1.408.7-2.239,1.92-2.239l1.091.007c1.228,0,2.223-1.359,2.223-3.064s-1-3.087-2.223-3.087l-1.155,0c-4.224,0-8.383,2.43-8.383,8.7v4.415Z" transform="translate(-2309.802 1018.925)" fill="#af0d21"/><path d="M2483.495-987.858c0-1.3-1.462-2.349-3.263-2.349s-3.263,1.052-3.263,2.349l0,28.77c0,1.3,1.461,2.349,3.263,2.349s3.263-1.051,3.263-2.349Z" transform="translate(-2316.717 1016.32)" fill="#af0d21"/><path d="M2483.5-1003.655c0-1.3-1.462-2.349-3.263-2.349s-3.26,1.052-3.26,2.35v1.436c0,1.3,1.461,2.349,3.263,2.349s3.263-1.051,3.263-2.349Z" transform="translate(-2316.718 1018.935)" fill="#af0d21"/><path d="M2496.406-979.97c0-2.432,1.216-3.711,3.2-3.711s3.2,1.218,3.2,3.841c0,1.628,1.46,2.349,3.263,2.349s3.261-1.053,3.261-2.351c0-6.013-3.711-10.366-9.726-10.366a9.289,9.289,0,0,0-8.509,4.672,14.273,14.273,0,0,0-1.216,6.59v11.407a14.272,14.272,0,0,0,1.216,6.589,9.289,9.289,0,0,0,8.509,4.671c6.015,0,9.726-4.35,9.726-10.365,0-1.3-1.458-2.352-3.261-2.352s-3.263.723-3.263,2.349c0,2.624-1.218,3.841-3.2,3.841s-3.2-1.279-3.2-3.711Z" transform="translate(-2318.854 1016.321)" fill="#af0d21"/><path d="M2373.444-934.04c10.212-9.009,16.87-24.612,16.87-42.431,0-19.637-8.176-36.647-20.169-45.027,16.227,8.386,26.261,25.279,26.261,44.93a50.685,50.685,0,0,1-22.961,42.528" transform="translate(-2299.04 1021.499)" fill="#d6d6d6"/><path d="M2411.765-936.364h1.341v-4.485c0-.593.171-.92.672-.92.421,0,.657.3.657.788v4.617h1.343v-4.485c0-.593.171-.92.67-.92.422,0,.658.3.658.788v4.617h1.341v-5.117a1.456,1.456,0,0,0-1.46-1.631,1.686,1.686,0,0,0-1.395.672,1.461,1.461,0,0,0-1.2-.672,1.418,1.418,0,0,0-1.263.725h-.027v-.646h-1.341Z" transform="translate(-2305.927 1008.527)" fill="#d6d6d6"/><path d="M2426.349-936.364h1.342v-4.642a1.923,1.923,0,0,0-2.012-2.105,2.012,2.012,0,0,0-1.46.566,2.211,2.211,0,0,0-.606,1.447h1.3a.78.78,0,0,1,.763-.671c.5,0,.67.341.67.789v.7c-.276-.014-.461-.039-.644-.039-1.684,0-2.119.736-2.119,2.262,0,1.473.83,1.776,1.448,1.776a1.427,1.427,0,0,0,1.289-.763h.026Zm0-1.959c0,.539-.276.855-.723.855s-.7-.343-.7-.855c0-.711.474-.947,1.052-.947a1.92,1.92,0,0,1,.368.04Z" transform="translate(-2307.883 1008.527)" fill="#d6d6d6" fill-rule="evenodd"/><path d="M2433.876-941.007c0-.5.25-.763.659-.763s.657.25.657.789h1.342a1.955,1.955,0,0,0-2-2.13,1.909,1.909,0,0,0-1.75.96,2.936,2.936,0,0,0-.25,1.355v2.2a2.942,2.942,0,0,0,.25,1.356,1.909,1.909,0,0,0,1.75.96,1.958,1.958,0,0,0,1.459-.592,2.05,2.05,0,0,0,.539-1.422h-1.342c-.026.29-.145.673-.657.673a.6.6,0,0,1-.659-.658Z" transform="translate(-2309.365 1008.527)" fill="#d6d6d6"/><path d="M2444.675-941.165a1.883,1.883,0,0,0-1.9-1.947,1.933,1.933,0,0,0-1.974,1.947,1.9,1.9,0,0,0,1.356,1.842l.644.237c.513.2.672.447.672.815a.728.728,0,0,1-.75.724c-.5,0-.671-.381-.724-.751h-1.263a1.943,1.943,0,0,0,2,2.014,1.976,1.976,0,0,0,2-2.014,1.857,1.857,0,0,0-1.314-1.88l-.79-.315c-.5-.2-.565-.434-.565-.683a.645.645,0,0,1,.658-.672.662.662,0,0,1,.684.684Z" transform="translate(-2310.722 1008.527)" fill="#d6d6d6"/><path d="M2461.389-943.017h-1.42l-.8,4.144h-.025l-.711-4.144h-1.052l-.75,4.144h-.026l-.816-4.144h-1.42l1.578,6.67h1.185l.737-3.96h.027l.737,3.96h1.184Z" transform="translate(-2312.976 1008.512)" fill="#d6d6d6"/><path d="M2465.977-938.6a2.949,2.949,0,0,0,.249,1.356,1.912,1.912,0,0,0,1.751.96,1.911,1.911,0,0,0,1.749-.96,2.951,2.951,0,0,0,.25-1.356v-2.2a2.945,2.945,0,0,0-.25-1.355,1.911,1.911,0,0,0-1.749-.96,1.912,1.912,0,0,0-1.751.96,2.943,2.943,0,0,0-.249,1.355Zm1.342-2.407c0-.5.249-.763.658-.763s.657.262.657.763v2.619c0,.5-.25.763-.657.763s-.658-.264-.658-.763Z" transform="translate(-2314.898 1008.527)" fill="#d6d6d6" fill-rule="evenodd"/><path d="M2474.7-936.364h1.343v-3.959a1.338,1.338,0,0,1,1.368-1.446,1.056,1.056,0,0,1,.408.079v-1.422a2.45,2.45,0,0,0-1.776.79v-.711H2474.7Z" transform="translate(-2316.342 1008.527)" fill="#d6d6d6" fill-rule="evenodd"/><path d="M2481.84-936.883h1.343v-1.867l.645-1.013,1.211,2.88h1.459l-1.921-3.959,1.592-2.711h-1.341l-1.618,2.907h-.027v-5.6h-1.343Z" transform="translate(-2317.523 1009.046)" fill="#d6d6d6"/><path d="M2500.268-939.192v-1.842a1.947,1.947,0,0,0-2-2.078,1.911,1.911,0,0,0-1.75.96,2.942,2.942,0,0,0-.25,1.355v2.2a2.948,2.948,0,0,0,.25,1.356,1.911,1.911,0,0,0,1.75.96,1.956,1.956,0,0,0,1.459-.592,2.042,2.042,0,0,0,.539-1.422h-1.341c-.026.29-.144.673-.657.673a.6.6,0,0,1-.658-.658v-.908Zm-2.656-1.815c0-.5.25-.763.658-.763s.657.262.657.763v.764h-1.315Z" transform="translate(-2319.911 1008.527)" fill="#d6d6d6" fill-rule="evenodd"/><path d="M2507.492-936.364h1.342v-4.642a1.924,1.924,0,0,0-2.013-2.105,2.015,2.015,0,0,0-1.46.566,2.207,2.207,0,0,0-.6,1.447h1.3a.779.779,0,0,1,.763-.671c.5,0,.671.341.671.789v.7c-.275-.014-.46-.039-.645-.039-1.685,0-2.118.736-2.118,2.262,0,1.473.828,1.776,1.446,1.776a1.429,1.429,0,0,0,1.29-.763h.026Zm0-1.959c0,.539-.275.855-.722.855s-.7-.343-.7-.855c0-.711.474-.947,1.053-.947a1.924,1.924,0,0,1,.368.04Z" transform="translate(-2321.311 1008.527)" fill="#d6d6d6" fill-rule="evenodd"/><path d="M2517.232-941.165a1.884,1.884,0,0,0-1.9-1.947,1.931,1.931,0,0,0-1.972,1.947,1.9,1.9,0,0,0,1.354,1.842l.645.237c.512.2.67.447.67.815a.727.727,0,0,1-.75.724c-.5,0-.67-.381-.723-.751H2513.3a1.942,1.942,0,0,0,2,2.014,1.976,1.976,0,0,0,2-2.014,1.858,1.858,0,0,0-1.315-1.88l-.79-.315c-.5-.2-.566-.434-.566-.683a.645.645,0,0,1,.657-.672.662.662,0,0,1,.684.684Z" transform="translate(-2322.729 1008.527)" fill="#d6d6d6"/><path d="M2521.883-936.883h1.343v-6.669h-1.343Zm0-8.024h1.343v-1.342h-1.343Z" transform="translate(-2324.15 1009.046)" fill="#d6d6d6" fill-rule="evenodd"/><path d="M2531.426-939.192v-1.842a1.947,1.947,0,0,0-2-2.078,1.909,1.909,0,0,0-1.749.96,2.946,2.946,0,0,0-.25,1.355v2.2a2.951,2.951,0,0,0,.25,1.356,1.909,1.909,0,0,0,1.749.96,1.96,1.96,0,0,0,1.461-.592,2.05,2.05,0,0,0,.539-1.422h-1.342c-.026.29-.145.673-.658.673a.6.6,0,0,1-.658-.658v-.908Zm-2.658-1.815c0-.5.251-.763.658-.763s.658.262.658.763v.764h-1.316Z" transform="translate(-2325.067 1008.527)" fill="#d6d6d6" fill-rule="evenodd"/><path d="M2536.153-936.364h1.342v-3.959a1.337,1.337,0,0,1,1.368-1.446,1.055,1.055,0,0,1,.409.079v-1.422a2.452,2.452,0,0,0-1.776.79v-.711h-1.342Z" transform="translate(-2326.511 1008.527)" fill="#d6d6d6" fill-rule="evenodd"/><path d="M2411.79-967.543a14.275,14.275,0,0,0,1.215,6.589,9.287,9.287,0,0,0,8.509,4.672,9.288,9.288,0,0,0,8.51-4.672,14.265,14.265,0,0,0,1.215-6.589v-11.4a14.267,14.267,0,0,0-1.215-6.59,9.289,9.289,0,0,0-8.51-4.672,9.289,9.289,0,0,0-8.509,4.672,14.276,14.276,0,0,0-1.215,6.59Zm6.526-12.427c0-2.432,1.215-3.711,3.2-3.711s3.2,1.279,3.2,3.711v13.45c0,2.432-1.216,3.712-3.2,3.712s-3.2-1.28-3.2-3.712Z" transform="translate(-2305.932 1016.321)" fill="#af0d21" fill-rule="evenodd"/><path d="M2335.341-979.97c0-2.432,1.216-3.711,3.2-3.711s3.2,1.279,3.2,3.711v13.658c0,2.431-1.215,3.711-3.2,3.711s-3.2-1.28-3.2-3.711Zm-6.492,15.342a9.794,9.794,0,0,0,1.386,5.353,6.126,6.126,0,0,0,5.591,3,6.463,6.463,0,0,0,5.928-3.974l.012,1.184c0,1.271,1.46,2.3,3.226,2.3s3.273-1.057,3.273-2.328v-19.852a14.285,14.285,0,0,0-1.216-6.59,9.29,9.29,0,0,0-8.51-4.672,9.292,9.292,0,0,0-8.511,4.672,14.3,14.3,0,0,0-1.215,6.59v12.87c0,.5.032,1.443.033,1.448" transform="translate(-2292.201 1016.321)" fill="#af0d21" fill-rule="evenodd"/><path d="M2523.23-979.97c0-2.432,1.217-3.711,3.2-3.711s3.2,1.279,3.2,3.711v3.711h-6.4Zm3.236,17.165a2.944,2.944,0,0,1-3.22-3.2l-.016-5.137h11.057a1.858,1.858,0,0,0,1.867-1.844V-980.1c0-5.694-3.712-10.108-9.726-10.108a9.286,9.286,0,0,0-8.508,4.671,14.263,14.263,0,0,0-1.217,6.59l-.01,11.407a14.249,14.249,0,0,0,1.262,6.589,9.288,9.288,0,0,0,8.51,4.672,9.525,9.525,0,0,0,7.1-2.879,9.956,9.956,0,0,0,2.623-6.912c0-1.3-1.462-2.349-3.263-2.349s-3.263,1.053-3.263,2.351c-.129,1.408-.7,3.263-3.2,3.263" transform="translate(-2323.291 1016.32)" fill="#af0d21" fill-rule="evenodd"/></svg>