<svg xmlns="http://www.w3.org/2000/svg" width="182.743" height="75.07" viewBox="0 0 182.743 75.07"><path d="M2290.543-963.53c0,1.114-1.254,2.016-2.8,2.016s-2.8-.9-2.8-2.016v-24.779c0-1.113,1.257-2.015,2.805-2.015s2.8.9,2.8,2.016v1.152h.11a5.919,5.919,0,0,1,5.272-3.021,6.1,6.1,0,0,1,5,2.8,7.044,7.044,0,0,1,5.822-2.8c2.8,0,6.1,1.813,6.1,6.811v19.837c0,1.114-1.254,2.016-2.8,2.016s-2.8-.9-2.8-2.016v-17.75c0-2.031-.989-3.3-2.747-3.3-2.087,0-2.8,1.373-2.8,3.845v17.2c0,1.114-1.253,2.016-2.8,2.016s-2.8-.9-2.8-2.016v-17.75c0-2.031-.988-3.3-2.745-3.3-2.088,0-2.8,1.373-2.8,3.845Z" transform="translate(-2284.941 1012.655)" fill="#af0d21"/><path d="M2362.643-981.331c0-2.087,1.043-3.185,2.746-3.185s2.749,1.045,2.749,3.3c0,1.4,1.253,2.016,2.8,2.016s2.8-.9,2.8-2.019c0-5.162-3.184-8.9-8.348-8.9a7.972,7.972,0,0,0-7.3,4.009,12.249,12.249,0,0,0-1.044,5.657v9.727a12.246,12.246,0,0,0,1.044,5.656,7.971,7.971,0,0,0,7.3,4.009c5.163,0,8.348-3.734,8.348-8.9,0-1.114-1.252-2.019-2.8-2.019s-2.8.619-2.8,2.016c0,2.252-1.046,3.3-2.749,3.3s-2.746-1.1-2.746-3.186Z" transform="translate(-2305.394 1012.596)" fill="#af0d21"/><path d="M2445.531-994.688v-4.064c0-1.208.6-1.922,1.647-1.922l.937.006c1.052,0,1.908-1.167,1.908-2.63s-.855-2.65-1.908-2.65l-.992,0c-3.625,0-7.194,2.086-7.194,7.468v3.79h-3.168c-.873,0-1.581.991-1.581,2.2s.708,2.193,1.581,2.193l3.168,0v22.334c0,1.113,1.253,2.016,2.8,2.016s2.8-.9,2.8-2.016V-990.3h6.819v22.334c0,1.113,1.255,2.016,2.8,2.016s2.8-.9,2.8-2.016V-990.3l3.407-.005c.873,0,1.581-.983,1.581-2.2s-.708-2.192-1.583-2.192h-3.4v-4.064c0-1.208.6-1.922,1.647-1.922l.938.006c1.053,0,1.907-1.167,1.907-2.63s-.854-2.65-1.907-2.65l-.991,0c-3.626,0-7.2,2.086-7.2,7.468v3.79Z" transform="translate(-2327.563 1017.087)" fill="#af0d21"/><path d="M2482.57-988.19c0-1.114-1.255-2.016-2.8-2.016s-2.8.9-2.8,2.016l0,24.695c0,1.114,1.254,2.016,2.8,2.016s2.8-.9,2.8-2.016Z" transform="translate(-2339.418 1012.622)" fill="#af0d21"/><path d="M2482.572-1003.988c0-1.113-1.255-2.017-2.8-2.017s-2.8.9-2.8,2.017v1.232c0,1.114,1.254,2.016,2.8,2.016s2.8-.9,2.8-2.016Z" transform="translate(-2339.419 1017.103)" fill="#af0d21"/><path d="M2495.482-981.42c0-2.087,1.044-3.185,2.745-3.185s2.749,1.045,2.749,3.3c0,1.4,1.254,2.016,2.8,2.016s2.8-.9,2.8-2.018c0-5.162-3.185-8.9-8.348-8.9a7.973,7.973,0,0,0-7.3,4.01,12.248,12.248,0,0,0-1.044,5.657v9.791a12.246,12.246,0,0,0,1.044,5.656,7.972,7.972,0,0,0,7.3,4.009c5.163,0,8.348-3.734,8.348-8.9,0-1.114-1.251-2.018-2.8-2.018s-2.8.62-2.8,2.016c0,2.252-1.046,3.3-2.749,3.3s-2.745-1.1-2.745-3.185Z" transform="translate(-2343.081 1012.622)" fill="#af0d21"/><path d="M2372.977-946.429c8.766-7.733,14.48-21.126,14.48-36.42,0-16.856-7.017-31.456-17.313-38.649,13.929,7.2,22.541,21.7,22.541,38.566a43.505,43.505,0,0,1-19.709,36.5" transform="translate(-2309.112 1021.499)" fill="#fff"/><path d="M2411.765-937.32h1.151v-3.85c0-.509.147-.79.577-.79.361,0,.564.259.564.676v3.964h1.152v-3.85c0-.509.147-.79.575-.79.362,0,.565.259.565.676v3.964h1.151v-4.392a1.249,1.249,0,0,0-1.253-1.4,1.447,1.447,0,0,0-1.2.577,1.255,1.255,0,0,0-1.028-.577,1.218,1.218,0,0,0-1.084.622h-.023v-.554h-1.151Z" transform="translate(-2320.919 999.261)" fill="#fff"/><path d="M2425.958-937.32h1.151V-941.3a1.651,1.651,0,0,0-1.727-1.807,1.727,1.727,0,0,0-1.254.486,1.9,1.9,0,0,0-.52,1.242h1.118a.67.67,0,0,1,.656-.576c.429,0,.575.293.575.677v.6c-.237-.012-.4-.034-.553-.034-1.445,0-1.819.632-1.819,1.942,0,1.264.713,1.524,1.243,1.524a1.225,1.225,0,0,0,1.106-.655h.023Zm0-1.682c0,.463-.237.734-.621.734s-.6-.295-.6-.734c0-.61.407-.813.9-.813a1.641,1.641,0,0,1,.316.034Z" transform="translate(-2324.273 999.261)" fill="#fff" fill-rule="evenodd"/><path d="M2433.686-941.305c0-.43.215-.655.566-.655s.564.214.564.677h1.152a1.678,1.678,0,0,0-1.716-1.829,1.639,1.639,0,0,0-1.5.824,2.524,2.524,0,0,0-.215,1.163v1.885a2.53,2.53,0,0,0,.215,1.164,1.639,1.639,0,0,0,1.5.824,1.682,1.682,0,0,0,1.253-.508,1.759,1.759,0,0,0,.463-1.22h-1.152c-.022.249-.124.577-.564.577a.517.517,0,0,1-.566-.565Z" transform="translate(-2326.812 999.261)" fill="#fff"/><path d="M2444.118-941.441a1.616,1.616,0,0,0-1.626-1.671,1.659,1.659,0,0,0-1.695,1.671,1.63,1.63,0,0,0,1.164,1.581l.553.2c.441.169.576.384.576.7a.624.624,0,0,1-.643.621c-.43,0-.577-.328-.622-.645h-1.084a1.668,1.668,0,0,0,1.716,1.728,1.7,1.7,0,0,0,1.717-1.728,1.594,1.594,0,0,0-1.129-1.614l-.678-.271c-.429-.169-.485-.373-.485-.587a.554.554,0,0,1,.565-.577.569.569,0,0,1,.586.587Z" transform="translate(-2329.141 999.261)" fill="#fff"/><path d="M2460.394-943.017h-1.219l-.689,3.557h-.022l-.61-3.557h-.9l-.645,3.557h-.022l-.7-3.557h-1.219l1.354,5.725h1.017l.632-3.4h.023l.632,3.4h1.017Z" transform="translate(-2333.005 999.234)" fill="#fff"/><path d="M2465.978-939.239a2.54,2.54,0,0,0,.213,1.164,1.642,1.642,0,0,0,1.5.824,1.64,1.64,0,0,0,1.5-.824,2.533,2.533,0,0,0,.214-1.164v-1.885a2.528,2.528,0,0,0-.214-1.163,1.64,1.64,0,0,0-1.5-.824,1.642,1.642,0,0,0-1.5.824,2.535,2.535,0,0,0-.213,1.163Zm1.151-2.066c0-.43.214-.655.565-.655s.564.225.564.655v2.248c0,.428-.214.655-.564.655s-.565-.226-.565-.655Z" transform="translate(-2336.299 999.261)" fill="#fff" fill-rule="evenodd"/><path d="M2474.7-937.32h1.153v-3.4a1.148,1.148,0,0,1,1.174-1.241.906.906,0,0,1,.35.067v-1.221a2.1,2.1,0,0,0-1.524.678v-.61H2474.7Z" transform="translate(-2338.774 999.261)" fill="#fff" fill-rule="evenodd"/><path d="M2481.84-938.21h1.153v-1.6l.553-.87,1.039,2.472h1.253l-1.649-3.4,1.366-2.327H2484.4l-1.389,2.5h-.023v-4.81h-1.153Z" transform="translate(-2340.8 1000.151)" fill="#fff"/><path d="M2499.7-939.747v-1.581a1.671,1.671,0,0,0-1.715-1.783,1.64,1.64,0,0,0-1.5.824,2.527,2.527,0,0,0-.215,1.163v1.885a2.532,2.532,0,0,0,.215,1.164,1.64,1.64,0,0,0,1.5.824,1.679,1.679,0,0,0,1.252-.508,1.752,1.752,0,0,0,.463-1.22h-1.151c-.023.249-.124.577-.564.577a.517.517,0,0,1-.564-.565v-.779Zm-2.28-1.558c0-.43.214-.655.564-.655s.564.225.564.655v.656h-1.128Z" transform="translate(-2344.893 999.261)" fill="#fff" fill-rule="evenodd"/><path d="M2507.1-937.32h1.152V-941.3a1.652,1.652,0,0,0-1.728-1.807,1.728,1.728,0,0,0-1.253.486,1.892,1.892,0,0,0-.519,1.242h1.117a.67.67,0,0,1,.655-.576c.429,0,.576.293.576.677v.6c-.236-.012-.4-.034-.553-.034-1.446,0-1.818.632-1.818,1.942,0,1.264.711,1.524,1.242,1.524a1.226,1.226,0,0,0,1.107-.655h.022Zm0-1.682c0,.463-.236.734-.62.734s-.6-.295-.6-.734c0-.61.408-.813.9-.813a1.641,1.641,0,0,1,.315.034Z" transform="translate(-2347.293 999.261)" fill="#fff" fill-rule="evenodd"/><path d="M2516.675-941.441a1.617,1.617,0,0,0-1.627-1.671,1.658,1.658,0,0,0-1.693,1.671,1.629,1.629,0,0,0,1.163,1.581l.554.2c.439.169.576.384.576.7a.624.624,0,0,1-.644.621c-.43,0-.575-.328-.621-.645H2513.3a1.667,1.667,0,0,0,1.717,1.728,1.7,1.7,0,0,0,1.715-1.728,1.594,1.594,0,0,0-1.128-1.614l-.678-.271c-.43-.169-.485-.373-.485-.587a.554.554,0,0,1,.564-.577.568.568,0,0,1,.587.587Z" transform="translate(-2349.724 999.261)" fill="#fff"/><path d="M2521.883-938.21h1.152v-5.725h-1.152Zm0-6.887h1.152v-1.152h-1.152Z" transform="translate(-2352.159 1000.151)" fill="#fff" fill-rule="evenodd"/><path d="M2530.859-939.747v-1.581a1.671,1.671,0,0,0-1.716-1.783,1.64,1.64,0,0,0-1.5.824,2.534,2.534,0,0,0-.214,1.163v1.885a2.539,2.539,0,0,0,.214,1.164,1.64,1.64,0,0,0,1.5.824,1.681,1.681,0,0,0,1.253-.508,1.76,1.76,0,0,0,.463-1.22h-1.152c-.023.249-.124.577-.564.577a.517.517,0,0,1-.565-.565v-.779Zm-2.281-1.558c0-.43.215-.655.565-.655s.564.225.564.655v.656h-1.129Z" transform="translate(-2353.732 999.261)" fill="#fff" fill-rule="evenodd"/><path d="M2536.153-937.32h1.152v-3.4a1.148,1.148,0,0,1,1.174-1.241.9.9,0,0,1,.35.067v-1.221a2.1,2.1,0,0,0-1.524.678v-.61h-1.152Z" transform="translate(-2356.208 999.261)" fill="#fff" fill-rule="evenodd"/><path d="M2411.791-970.754a12.247,12.247,0,0,0,1.043,5.656,7.971,7.971,0,0,0,7.3,4.01,7.971,7.971,0,0,0,7.3-4.01,12.241,12.241,0,0,0,1.043-5.656v-9.788a12.242,12.242,0,0,0-1.043-5.657,7.972,7.972,0,0,0-7.3-4.01,7.972,7.972,0,0,0-7.3,4.01,12.248,12.248,0,0,0-1.043,5.657Zm5.6-10.667c0-2.087,1.043-3.185,2.746-3.185s2.746,1.1,2.746,3.185v11.545c0,2.087-1.043,3.186-2.746,3.186s-2.746-1.1-2.746-3.186Z" transform="translate(-2320.928 1012.622)" fill="#af0d21" fill-rule="evenodd"/><path d="M2334.417-981.42c0-2.087,1.044-3.185,2.747-3.185s2.746,1.1,2.746,3.185V-969.7c0,2.087-1.043,3.185-2.746,3.185s-2.747-1.1-2.747-3.185Zm-5.572,13.169a8.406,8.406,0,0,0,1.189,4.6,5.259,5.259,0,0,0,4.8,2.571,5.548,5.548,0,0,0,5.089-3.411l.01,1.016c0,1.091,1.253,1.976,2.769,1.976s2.81-.908,2.81-2v-17.04a12.261,12.261,0,0,0-1.044-5.657,7.975,7.975,0,0,0-7.3-4.01,7.976,7.976,0,0,0-7.305,4.01,12.274,12.274,0,0,0-1.042,5.657v11.047c0,.425.028,1.238.029,1.243" transform="translate(-2297.387 1012.622)" fill="#af0d21" fill-rule="evenodd"/><path d="M2522.3-981.42c0-2.087,1.044-3.186,2.745-3.186s2.748,1.1,2.748,3.186v3.185H2522.3Zm2.777,14.734a2.527,2.527,0,0,1-2.764-2.745l-.013-4.41h9.49a1.6,1.6,0,0,0,1.6-1.583v-6.106c0-4.887-3.186-8.677-8.349-8.677a7.97,7.97,0,0,0-7.3,4.009,12.241,12.241,0,0,0-1.044,5.657l-.009,9.791a12.226,12.226,0,0,0,1.084,5.655,7.971,7.971,0,0,0,7.3,4.01,8.174,8.174,0,0,0,6.1-2.471,8.545,8.545,0,0,0,2.252-5.933c0-1.114-1.255-2.016-2.8-2.016s-2.8.9-2.8,2.018c-.111,1.208-.6,2.8-2.746,2.8" transform="translate(-2350.688 1012.622)" fill="#af0d21" fill-rule="evenodd"/></svg>