<?xml version="1.0" encoding="UTF-8"?><svg id="Ebene_1" xmlns="http://www.w3.org/2000/svg" viewBox="0 0 360 360"><path d="m2.93,2.93h354.15v354.15H2.93c0-118.05,0-236.1,0-354.15Z" fill="none" stroke="#fff" stroke-miterlimit="10" stroke-width="3.54"/><path d="m259.22,121.92h10.5v-10.48h10.55v10.33h10.67v-10.38h10.54v21.09h10.61l-.05-.05v10.51h-10.47v10.57h-21.1v10.57h20.97v10.53h10.57v-10.38h10.57v10.42h10.53v21.09h-21v-10.45c-7.15,0-14.17,0-21.2,0,0-3.49,0-6.99,0-10.52h-10.43v10.48h10.48v10.49h-10.48v10.59h20.99v10.66h10.61l-.05-.05c.02,3.54.03,7.07.05,10.61-7.06,0-14.12,0-21.17,0,0-3.49,0-6.99,0-10.52h-10.43v10.48h10.48v10.47h21.08v-10.48h21.04v10.59h-10.43v21.15c-3.61,0-7.11,0-10.6,0,0-3.5,0-6.99,0-10.52h-20.99v10.48h21.04v10.52h21v21.1h-31.53v-20.93h-10.57v20.98h-10.57v21.1h-10.57v-20.95h-10.57v10.45h-21.2l.05.05v-10.66h-21.18v-21.09h10.61v-21.12h10.48v-10.53h-42.22c0-3.54,0-7.08,0-10.61h10.57v-10.57h10.62v10.52h52.73v-21.11h-10.61v-10.41h-42.24v10.48h-10.51c0-3.49,0-6.97,0-10.57h-10.57v-10.63h10.64v-10.57h10.57v-10.57h42.11v-10.57h-31.5v-20.97h10.53v10.37h10.57v-10.49c3.59,0,7.05,0,10.51,0,0,3.49,0,6.99,0,10.52h10.43v-10.48h-10.48c.02-3.54.03-7.07.05-10.61l-.05.05Zm-10.45,126.79v31.56h31.51v-31.56h-31.51Zm21-73.9h-42.13v10.38h42.13v-10.38Zm21.12-42.27h-10.43v10.39h10.43v-10.39Z" fill="#fff" stroke-width="0"/><path d="m90.22,238.08h-21.08v10.49h-21.1v-20.96h31.5v-31.7h-20.97v-10.57h-21.1v-10.57h10.42v-21.13h21.13v-10.53h10.57v10.5h21.2l-.05-.05v10.65h-10.52v10.53h-21.04v10.52h21.03c0,3.49,0,6.97,0,10.57h10.57c0,3.54,0,7.07,0,10.61h-10.47v10.52h10.47v10.65h-10.61v10.53l.05-.05Z" fill="#fff" stroke-width="0"/><path d="m164.13,47.96c.02-3.54.03-7.07.05-10.61l-.05.05h21.1v21.04h21.2v-21.09l-.05.05h21.05v10.48h21.16v21.16h-10.52l.05.05v-10.48h-21.18v10.48l.05-.05h-10.61v10.61l.05-.05h-10.57v10.61h-10.61v10.47h-10.6v-10.38h-10.6v10.43h-10.49l.05.05v-10.61h-10.61l.05.05v-10.55h42.17v-10.59h-31.55v-21.17c3.51,0,7.01,0,10.51,0,0,3.49,0,6.99,0,10.52h10.43v-10.48h-10.48Z" fill="#fff" stroke-width="0"/><path d="m26.84,100.67V26.9h73.82v73.77H26.84Zm63.26-10.51v-52.69h-52.64v52.69h52.64Z" fill="#fff" stroke-width="0"/><path d="m333.16,26.9v73.77h-73.82V26.9h73.82Zm-63.32,63.2h52.69v-52.64h-52.69v52.64Z" fill="#fff" stroke-width="0"/><path d="m26.84,333.1v-73.77h73.82v73.77H26.84Zm10.63-63.26v52.69h52.63v-52.69h-52.63Z" fill="#fff" stroke-width="0"/><path d="m153.61,290.91h-21.05v10.52h10.36v10.57h-20.93v10.57h20.94v10.53h-31.51v-52.69h10.5v-10.63l-.05.05c3.54-.02,7.07-.03,10.61-.05,0,3.49,0,6.99,0,10.52h10.43v-10.48h-10.48v-10.52h31.6v10.6h-10.47v21.05l.05-.05Z" fill="#fff" stroke-width="0"/><path d="m100.78,153.61v-10.5h-10.48v-10.55h20.9v-10.6h-20.94v-10.6h31.65v-10.61l-.05.05h10.61v-10.61l-.05.05c3.54,0,7.08,0,10.61,0,0,0-.05-.05-.05-.05v10.61h10.61l-.05-.05c.02,7.06.03,14.12.05,21.18-3.54,0-7.07,0-10.61,0v-10.47h-10.52v10.47h-10.65v21.21h-10.47c0,3.58,0,7.03,0,10.49-3.54-.02-7.08-.03-10.61-.05l.05.05Z" fill="#fff" stroke-width="0"/><path d="m238.09,301.48v10.53h10.56v10.65l.05-.05h-21.05v10.47h-52.9v-10.47l-.05.05h21.2v-10.61c3.63,0,7.09,0,10.54,0,0,3.49,0,6.98,0,10.47h10.52v-10.47h10.65v-10.52h10.53l-.05-.05Z" fill="#fff" stroke-width="0"/><path d="m174.74,322.61h-10.5v10.48h-10.54v-21.01h10.38v-10.55h-10.47v-10.62l-.05.05c10.58-.02,21.16-.03,31.74-.05,0,7.01,0,14.02,0,21.2h-10.61v10.54l.05-.05Z" fill="#fff" stroke-width="0"/><path d="m216.96,90.22h10.5v10.43h10.55v-10.33h10.66v20.98h10.55c0,3.62,0,7.12,0,10.62l.05-.05h-21.17v-10.47h-10.55v10.38h-10.54v-31.6l-.05.05Z" fill="#fff" stroke-width="0"/><path d="m47.89,195.95v20.97h-10.46v31.66h-10.53v-52.63h20.99Z" fill="#fff" stroke-width="0"/><path d="m121.92,100.74h-10.48v-21.01h10.34v-10.56h-10.33v-10.61h31.5v10.48h-10.51c0,7.14,0,14.16,0,21.18l.05-.05h-10.61v10.61l.05-.05Z" fill="#fff" stroke-width="0"/><path d="m322.65,312.04h-10.5v21.04h-31.72v-10.45h10.49v-10.56h10.56v-10.5h21.12v10.51l.05-.05Z" fill="#fff" stroke-width="0"/><path d="m121.92,269.78h-10.55v-21.09h-21.15v-10.6s-.05.05-.05.05c14.1-.02,28.21-.03,42.31-.05v10.6h-10.61v21.14l.05-.05Z" fill="#fff" stroke-width="0"/><path d="m79.51,121.83H26.87v-10.44h52.63v10.44Z" fill="#fff" stroke-width="0"/><path d="m37.41,164.11h-10.52v-31.56h20.96v10.44h-10.44v21.13Z" fill="#fff" stroke-width="0"/><path d="m248.65,322.65h21.04v10.48h-20.99c0-3.53,0-7.03,0-10.52,0,0-.05.05-.05.05Z" fill="#fff" stroke-width="0"/><path d="m142.93,47.9h-10.38v-21h10.38v21Z" fill="#fff" stroke-width="0"/><path d="m238.09,69.04v10.57h-21.13l.05.05c0-3.54,0-7.07,0-10.61l-.05.05h21.18l-.05-.05Z" fill="#fff" stroke-width="0"/><path d="m312.09,132.48v-21.04h10.48v20.99c-3.53,0-7.03,0-10.52,0,0,0,.05.05.05.05Z" fill="#fff" stroke-width="0"/><path d="m312.09,217.01v-10.48h21.04v10.43c-7.06,0-14.08,0-21.09,0,0,0,.05.05.05.05Z" fill="#fff" stroke-width="0"/><path d="m216.96,79.61c0,3.54,0,7.08,0,10.62,0,0,.05-.05.05-.05-3.54.02-7.07.03-10.61.05.02-3.54.03-7.08.05-10.61l-.05.05h10.61l-.05-.05Z" fill="#fff" stroke-width="0"/><path d="m322.67,153.5v-10.39h10.43v10.39h-10.43Z" fill="#fff" stroke-width="0"/><path d="m111.36,47.84v-10.37h10.43v10.37h-10.43Z" fill="#fff" stroke-width="0"/><path d="m248.58,37.33h-10.37v-10.43h10.37v10.43Z" fill="#fff" stroke-width="0"/><path d="m206.44,37.35h-10.48v-10.48h10.43c0,3.54,0,7.03,0,10.53,0,0,.05-.05.05-.05Z" fill="#fff" stroke-width="0"/><path d="m164.18,37.35h-10.48v-10.48h10.43c0,3.54,0,7.03,0,10.52,0,0,.05-.05.05-.05Z" fill="#fff" stroke-width="0"/><path d="m322.6,312.09h10.48v10.47h-10.43c0-3.53,0-7.03,0-10.52,0,0-.05.05-.05.05Z" fill="#fff" stroke-width="0"/><path d="m195.87,216.96c0,3.54,0,7.07,0,10.61h-21.13v10.57h-10.5v10.43h-10.54v-21.01h10.37v-10.55h-10.47v-10.61l-.05.05h21.09v10.52h21.21Z" fill="#fff" stroke-width="0"/><path d="m195.82,143.05c3.54,0,7.07,0,10.61,0l-.05-.05v21.06h-10.44v10.54h-10.61v-10.44h-31.67v-21.11c3.52,0,7.02,0,10.51,0l-.05-.05v10.48h31.74v-10.48l-.05.05Z" fill="#fff" stroke-width="0"/><path d="m153.61,206.39h-31.61v-10.44h10.34v-10.61h10.67v-10.55h21.06v10.47h-10.51v21.18s.05-.05.05-.05Z" fill="#fff" stroke-width="0"/><path d="m195.82,90.17c3.54,0,7.07,0,10.61,0v31.74h-21.18v-10.54h10.57v-21.2Z" fill="#fff" stroke-width="0"/><path d="m132.43,238.13v-10.53h-21.13v-10.65h31.65v21.18h-10.52Z" fill="#fff" stroke-width="0"/><path d="m206.44,301.52h-10.53v-10.57h-10.65c.02-3.54.03-7.07.05-10.61l-.05.05h10.61v-10.61s-.05.05-.05.05h10.61l-.05-.05c.02,10.58.03,21.16.05,31.74Z" fill="#fff" stroke-width="0"/><path d="m174.69,121.92c3.54-.02,7.07-.03,10.61-.05v10.53h10.52c0,3.67,0,7.16,0,10.65l.05-.05c-10.58,0-21.16,0-31.74,0l.05.05c0-3.54,0-7.08,0-10.61l-.05.05h10.61v-10.61l-.05.05Z" fill="#fff" stroke-width="0"/><path d="m121.87,174.74v-10.53h-10.57v-10.65h31.65v10.57h-10.48v10.6h-10.61Z" fill="#fff" stroke-width="0"/><path d="m174.69,238.09h21.18c0,3.54,0,7.07,0,10.61h-21.18v-10.61Z" fill="#fff" stroke-width="0"/><path d="m132.43,121.87c3.54,0,7.07,0,10.61,0,0,6.97,0,13.94,0,21.03h-10.61v-21.03Z" fill="#fff" stroke-width="0"/><path d="m195.82,206.39h10.61c0,3.54,0,7.07,0,10.61h-10.61v-10.61Z" fill="#fff" stroke-width="0"/><path d="m100.74,217c0-3.54,0-7.07,0-10.61h10.61c0,3.64,0,7.13,0,10.61-3.54,0-7.07,0-10.61,0Z" fill="#fff" stroke-width="0"/><path d="m153.56,121.87c3.54.02,7.07.03,10.61.05l-.05-.05v10.61l.05-.05c-3.49,0-6.97,0-10.61,0v-10.57Z" fill="#fff" stroke-width="0"/><path d="m206.44,143.05v-10.48h10.48v10.43c-3.54,0-7.03,0-10.52,0,0,0,.05.05.05.05Z" fill="#fff" stroke-width="0"/><path d="m195.87,195.83v10.61h-10.47v-10.61h10.47Z" fill="#fff" stroke-width="0"/><path d="m100.74,195.87c0-3.54,0-7.07,0-10.61,3.54,0,7.07,0,10.61,0v10.61h-10.61Z" fill="#fff" stroke-width="0"/><path d="m195.82,248.65h10.56v10.61s.05-.05.05-.05h-10.61l.05.05c-.02-3.54-.03-7.07-.05-10.61Z" fill="#fff" stroke-width="0"/><path d="m185.31,269.83v-10.57h10.57s-.05-.05-.05-.05v10.61l.05-.05c-3.54,0-7.07,0-10.61,0l.05.05Z" fill="#fff" stroke-width="0"/><path d="m185.31,280.35h-10.47v-10.52h10.47s-.05-.05-.05-.05v10.61l.05-.05Z" fill="#fff" stroke-width="0"/><path d="m111.3,185.31v-10.61h10.61v10.61h-10.61Z" fill="#fff" stroke-width="0"/><path d="m227.58,216.88v-10.38h21v10.38h-21Z" fill="#fff" stroke-width="0"/><path d="m259.28,269.71v-10.38h10.43v10.38h-10.43Z" fill="#fff" stroke-width="0"/><path d="m217,269.83c-3.54-.02-7.08-.03-10.61-.05,0,0,.05.05.05.05,0-3.54,0-7.07,0-10.61,0,0-.05.05-.05.05h10.61v10.57Z" fill="#fff" stroke-width="0"/><path d="m217,312.09h-10.61v-10.61h10.61v10.61Z" fill="#fff" stroke-width="0"/><path d="m100.78,185.31h-10.61c0-3.54,0-7.07,0-10.61h10.61v10.61Z" fill="#fff" stroke-width="0"/><path d="m164.17,121.92v-10.47h10.52v10.47l.05-.05c-3.54,0-7.07,0-10.61,0l.05.05Z" fill="#fff" stroke-width="0"/><path d="m79.58,48.04v31.48h-31.54v-31.48h31.54Z" fill="#fff" stroke-width="0"/><path d="m312.03,48.03v31.51h-31.56v-31.51h31.56Z" fill="#fff" stroke-width="0"/><path d="m79.54,312.03h-31.51v-31.56h31.51v31.56Z" fill="#fff" stroke-width="0"/></svg>