<?xml version="1.0" encoding="UTF-8"?><svg id="Text" xmlns="http://www.w3.org/2000/svg" viewBox="0 0 512 512"><g><path d="M419.67,349.87c-.5,1.44-8.44,28.87-27.84,57.18-16.75,24.5-34.15,48.91-61.54,49.41-26.92,.51-35.58-15.97-66.33-15.97s-40.43,15.47-65.88,16.48c-26.45,1-46.6-26.48-63.49-50.89-34.53-49.91-60.88-141.06-25.46-202.53,17.56-30.57,49.03-49.91,83.17-50.41,25.98-.48,50.47,17.46,66.35,17.46s45.64-21.6,76.95-18.42c13.09,.55,49.88,5.28,73.53,39.87-1.89,1.2-43.91,25.65-43.45,76.5,.54,60.85,53.37,81.09,53.98,81.33" fill="#b1b3b4"/><path d="M315.09,119.19c14.08-17.02,23.52-40.66,20.93-64.19-20.22,.74-44.72,13.46-59.22,30.44-13,15.06-24.41,39.13-21.32,62.18,22.54,1.75,45.6-11.47,59.61-28.43" fill="#b1b3b4"/><rect x="92.33" y="55" width="327.35" height="402" fill="none"/></g><rect width="512" height="512" fill="none"/></svg>