<?xml version="1.0" encoding="UTF-8"?><svg id="Text" xmlns="http://www.w3.org/2000/svg" viewBox="0 0 192 192"><g><path d="M157.07,131.02c-.19,.54-3.15,10.77-10.39,21.34-6.25,9.14-12.74,18.25-22.96,18.44-10.04,.19-13.28-5.96-24.75-5.96s-15.08,5.77-24.58,6.15c-9.87,.37-17.39-9.88-23.69-18.99-12.88-18.62-22.71-52.63-9.5-75.57,6.55-11.41,18.29-18.62,31.03-18.81,9.7-.18,18.83,6.51,24.76,6.51s17.03-8.06,28.71-6.87c4.88,.21,18.61,1.97,27.43,14.87-.7,.45-16.38,9.57-16.21,28.54,.2,22.7,19.91,30.25,20.14,30.34" fill="#b1b3b4"/><path d="M118.05,44.96c5.25-6.35,8.77-15.17,7.81-23.95-7.55,.28-16.69,5.02-22.1,11.36-4.85,5.62-9.11,14.6-7.95,23.2,8.41,.65,17.01-4.28,22.24-10.61" fill="#b1b3b4"/><rect x="34.93" y="21" width="122.14" height="149.99" fill="none"/></g><rect x=".48" y=".48" width="191.03" height="191.03" fill="none"/></svg>