<svg width="211" height="34" viewBox="0 0 211 34" fill="none" xmlns="http://www.w3.org/2000/svg">
<path d="M2.47435 21.6946C2.47435 22.1874 1.92055 22.585 1.23746 22.585C0.55438 22.585 0.000488281 22.1862 0.000488281 21.6946V10.7512C0.000488281 10.2584 0.555852 9.86113 1.23932 9.86113C1.92278 9.86113 2.47472 10.2595 2.47472 10.7512V11.2599H2.52358C2.75482 10.8478 3.09348 10.5062 3.50346 10.2713C3.91345 10.0364 4.37944 9.91705 4.85187 9.92596C5.29296 9.93551 5.72491 10.0533 6.10976 10.2691C6.49461 10.4849 6.82055 10.7919 7.05882 11.1632C7.35759 10.7669 7.74686 10.4478 8.19409 10.2326C8.64132 10.0173 9.13353 9.91219 9.62967 9.92596C10.867 9.92596 12.3211 10.7266 12.3211 12.9339V21.6942C12.3211 22.187 11.7676 22.5846 11.0841 22.5846C10.4007 22.5846 9.84725 22.1858 9.84725 21.6942V13.855C9.84725 12.9578 9.41058 12.3994 8.63424 12.3994C7.71234 12.3994 7.39736 13.0059 7.39736 14.0976V21.6938C7.39736 22.1866 6.84385 22.5843 6.16038 22.5843C5.47692 22.5843 4.92276 22.1855 4.92276 21.6938V13.8547C4.92276 12.9574 4.48647 12.399 3.70975 12.399C2.78785 12.399 2.4724 13.0055 2.4724 14.0972L2.47435 21.6946Z" fill="#AF0D21"/>
<path d="M25.282 13.8073C25.282 12.8854 25.7427 12.4005 26.4951 12.4005C27.2476 12.4005 27.7082 12.8619 27.7082 13.8566C27.7082 14.4733 28.2616 14.747 28.945 14.747C29.6285 14.747 30.1812 14.3474 30.1812 13.8554C30.1812 11.5757 28.7748 9.92634 26.4943 9.92634C25.8457 9.89531 25.2012 10.0443 24.6319 10.3568C24.0627 10.6693 23.5909 11.1331 23.2689 11.697C22.9192 12.4813 22.7612 13.3376 22.8079 14.1951V18.4911C22.7612 19.3484 22.9192 20.2046 23.2689 20.9888C23.5909 21.5527 24.0627 22.0165 24.6319 22.329C25.2012 22.6414 25.8457 22.7904 26.4943 22.7594C28.7744 22.7594 30.1812 21.1104 30.1812 18.8303C30.1812 18.3375 29.6281 17.9388 28.945 17.9388C28.262 17.9388 27.7082 18.2121 27.7082 18.8292C27.7082 19.8239 27.2461 20.2852 26.4951 20.2852C25.7442 20.2852 25.282 19.8004 25.282 18.8785V13.8073Z" fill="#AF0D21"/>
<path d="M52.0984 9.89145V8.09656C52.0984 7.56283 52.3638 7.24781 52.8258 7.24781L53.2394 7.25047C53.7042 7.25047 54.0821 6.73531 54.0821 6.08899C54.0821 5.44268 53.703 4.91881 53.2394 4.91881H52.8012C51.2008 4.91881 49.6238 5.83996 49.6238 8.21673V9.89032H48.2251C47.8396 9.89032 47.5264 10.3282 47.5264 10.8642C47.5264 11.4002 47.8392 11.8327 48.2251 11.8327H49.6238V21.6961C49.6238 22.1889 50.1777 22.5865 50.8608 22.5865C51.5439 22.5865 52.0977 22.1877 52.0977 21.6961V11.8327H55.1093V21.6961C55.1093 22.1889 55.6636 22.5865 56.3467 22.5865C57.0298 22.5865 57.5832 22.1877 57.5832 21.6961V11.8327L59.0877 11.8304C59.4732 11.8304 59.786 11.396 59.786 10.86C59.786 10.324 59.4732 9.89184 59.0874 9.89184H57.5836V8.09693C57.5836 7.5632 57.8489 7.24821 58.3113 7.24821L58.7249 7.25084C59.1904 7.25084 59.5677 6.7357 59.5677 6.08939C59.5677 5.44307 59.1885 4.91918 58.7249 4.91918H58.2871C56.6859 4.91918 55.1093 5.84033 55.1093 8.2171V9.89071L52.0984 9.89145Z" fill="#AF0D21"/>
<path d="M63.2207 10.7887C63.2207 10.2959 62.6665 9.89828 61.9838 9.89828C61.3011 9.89828 60.7469 10.2971 60.7469 10.7887V21.6946C60.7469 22.1873 61.3007 22.585 61.9838 22.585C62.6669 22.585 63.2207 22.1866 63.2207 21.6946V10.7887Z" fill="#AF0D21"/>
<path d="M63.2222 5.79181C63.2222 5.29902 62.6681 4.90138 61.9853 4.90138C61.3026 4.90138 60.7496 5.30017 60.7496 5.79221V6.33654C60.7496 6.82933 61.3034 7.22698 61.9865 7.22698C62.6695 7.22698 63.2233 6.82858 63.2233 6.33654L63.2222 5.79181Z" fill="#AF0D21"/>
<path d="M67.3048 13.7792C67.3048 12.8573 67.7657 12.3725 68.5178 12.3725C69.2699 12.3725 69.7308 12.8342 69.7308 13.8285C69.7308 14.4456 70.2843 14.7189 70.9678 14.7189C71.6512 14.7189 72.2039 14.3198 72.2039 13.8277C72.2039 11.5484 70.7972 9.89827 68.517 9.89827C67.8684 9.86733 67.2238 10.0164 66.6545 10.3289C66.0853 10.6415 65.6136 11.1054 65.2915 11.6693C64.9418 12.4536 64.7838 13.3099 64.8305 14.1674V18.4914C64.7838 19.3488 64.9418 20.2049 65.2915 20.9891C65.6136 21.553 66.0854 22.0168 66.6546 22.3293C67.2239 22.6418 67.8684 22.7907 68.517 22.7598C70.7972 22.7598 72.2039 21.1108 72.2039 18.8307C72.2039 18.3379 71.6512 17.9391 70.9678 17.9391C70.2843 17.9391 69.7308 18.2132 69.7308 18.8296C69.7308 19.8242 69.2691 20.2855 68.5178 20.2855C67.7665 20.2855 67.3048 19.8007 67.3048 18.8788V13.7792Z" fill="#AF0D21"/>
<path d="M28.2045 33.1527C32.0755 29.7377 34.5993 23.823 34.5993 17.0684C34.5993 9.62459 31.5001 3.17661 26.9539 0C33.1051 3.17888 36.9087 9.58252 36.9087 17.0316C36.9148 20.231 36.1219 23.3812 34.6019 26.1964C33.082 29.0116 30.8828 31.4028 28.2045 33.1527Z" fill="black"/>
<path d="M40.1201 27.3545H40.6285V25.6543C40.6285 25.4295 40.6933 25.3056 40.8832 25.3056C41.0428 25.3056 41.1323 25.4193 41.1323 25.6043V27.3545H41.6414V25.6543C41.6414 25.4295 41.7062 25.3056 41.8953 25.3056C42.0553 25.3056 42.1447 25.4193 42.1447 25.6043V27.3545H42.6531V25.4148C42.6625 25.3368 42.6552 25.2577 42.6316 25.1828C42.6081 25.1078 42.5688 25.0388 42.5164 24.9803C42.464 24.9217 42.3998 24.8751 42.3279 24.8434C42.256 24.8117 42.1782 24.7957 42.0997 24.7965C41.9976 24.7936 41.8963 24.8152 41.8043 24.8596C41.7123 24.9039 41.6322 24.9696 41.5709 25.0512C41.5218 24.9747 41.4545 24.9114 41.3752 24.867C41.2959 24.8226 41.2069 24.7984 41.116 24.7965C41.0188 24.7947 40.9229 24.8194 40.8386 24.8678C40.7543 24.9162 40.6847 24.9865 40.6372 25.0713H40.627V24.8264H40.1186L40.1201 27.3545Z" fill="black"/>
<path fill-rule="evenodd" clip-rule="evenodd" d="M44.9072 27.3545H45.4158V25.5948C45.4259 25.4906 45.4134 25.3853 45.3791 25.2864C45.3448 25.1874 45.2896 25.0969 45.2172 25.0212C45.1449 24.9455 45.057 24.8863 44.9597 24.8475C44.8623 24.8088 44.7578 24.7915 44.6532 24.7969C44.5513 24.7938 44.4498 24.8113 44.3547 24.8481C44.2596 24.885 44.173 24.9405 44.0997 25.0114C43.9587 25.1601 43.877 25.3552 43.87 25.5599H44.3628C44.3727 25.49 44.4072 25.4259 44.4603 25.3792C44.5133 25.3326 44.5814 25.3065 44.6521 25.3056C44.8416 25.3056 44.906 25.4349 44.906 25.6047V25.87C44.8014 25.8647 44.7312 25.8553 44.6619 25.8553C44.0235 25.8553 43.8586 26.1342 43.8586 26.7127C43.8586 27.2711 44.1733 27.3859 44.4075 27.3859C44.5078 27.3877 44.6066 27.3617 44.6929 27.3106C44.7791 27.2595 44.8495 27.1855 44.8962 27.0967H44.906L44.9072 27.3545ZM44.9072 26.6119C44.9072 26.8162 44.8025 26.936 44.6331 26.936C44.4636 26.936 44.3677 26.806 44.3677 26.6119C44.3677 26.3424 44.5474 26.2529 44.7665 26.2529C44.8134 26.2534 44.8601 26.2585 44.906 26.2681L44.9072 26.6119Z" fill="black"/>
<path d="M47.1985 25.5944C47.1985 25.4049 47.2932 25.3052 47.4483 25.3052C47.6033 25.3052 47.6973 25.4 47.6973 25.6043H48.206C48.2154 25.5001 48.2027 25.3951 48.1686 25.2962C48.1345 25.1972 48.0799 25.1067 48.0083 25.0304C47.9366 24.9541 47.8497 24.8939 47.7531 24.8536C47.6565 24.8134 47.5525 24.794 47.4479 24.7969C47.3145 24.7904 47.1819 24.821 47.0648 24.8852C46.9478 24.9494 46.8508 25.0448 46.7845 25.1608C46.7126 25.322 46.6802 25.4981 46.6898 25.6744V26.5084C46.6802 26.6848 46.7127 26.861 46.7845 27.0224C46.8508 27.1383 46.9478 27.2337 47.0648 27.2979C47.1819 27.3622 47.3145 27.3927 47.4479 27.3863C47.5506 27.3892 47.6528 27.3708 47.748 27.3321C47.8432 27.2935 47.9293 27.2355 48.001 27.1619C48.1357 27.015 48.2088 26.8221 48.2053 26.6228H47.6966C47.6867 26.7328 47.6416 26.878 47.4475 26.878C47.4139 26.8815 47.3799 26.8774 47.348 26.8661C47.3162 26.8548 47.2872 26.8366 47.2633 26.8127C47.2393 26.7888 47.221 26.7599 47.2097 26.728C47.1983 26.6962 47.1943 26.6622 47.1977 26.6285L47.1985 25.5944Z" fill="black"/>
<path d="M50.7778 25.5346C50.7811 25.4383 50.7649 25.3423 50.7301 25.2524C50.6953 25.1626 50.6425 25.0807 50.5752 25.0117C50.5079 24.9428 50.4274 24.8881 50.3384 24.8512C50.2494 24.8142 50.1539 24.7956 50.0575 24.7965C49.9596 24.7944 49.8622 24.812 49.7711 24.8482C49.6801 24.8845 49.5972 24.9386 49.5274 25.0074C49.4577 25.0762 49.4024 25.1583 49.3649 25.2489C49.3274 25.3394 49.3086 25.4366 49.3093 25.5346C49.3075 25.691 49.3567 25.8437 49.4494 25.9697C49.5422 26.0957 49.6734 26.188 49.8233 26.2328L50.0674 26.3226C50.2619 26.3985 50.3221 26.4921 50.3221 26.6316C50.3219 26.6684 50.3144 26.7048 50.2999 26.7387C50.2854 26.7725 50.2644 26.8032 50.2379 26.8287C50.2114 26.8543 50.18 26.8743 50.1456 26.8876C50.1113 26.9009 50.0746 26.9071 50.0378 26.906C49.8483 26.906 49.7835 26.7616 49.7634 26.6214H49.2847C49.281 26.7222 49.2979 26.8227 49.3347 26.9166C49.3714 27.0106 49.427 27.096 49.4981 27.1676C49.5692 27.2392 49.6542 27.2954 49.7479 27.3327C49.8416 27.3701 49.942 27.3878 50.0428 27.3848C50.1432 27.386 50.2428 27.3671 50.3356 27.3291C50.4285 27.2911 50.5129 27.2348 50.5836 27.1636C50.6543 27.0924 50.7099 27.0077 50.7473 26.9145C50.7846 26.8214 50.8029 26.7217 50.801 26.6214C50.8097 26.464 50.7654 26.3082 50.6751 26.1789C50.5848 26.0497 50.4537 25.9546 50.3029 25.9087L50.0034 25.7893C49.8139 25.7135 49.7892 25.6248 49.7892 25.5304C49.7877 25.497 49.7932 25.4637 49.8052 25.4325C49.8171 25.4013 49.8354 25.3729 49.8587 25.349C49.8821 25.3252 49.9102 25.3063 49.9411 25.2937C49.972 25.2811 50.0053 25.2749 50.0387 25.2756C50.073 25.2745 50.1072 25.2804 50.1392 25.293C50.1711 25.3056 50.2003 25.3247 50.2246 25.349C50.2489 25.3733 50.268 25.4024 50.2806 25.4344C50.2932 25.4663 50.299 25.5006 50.2979 25.5349L50.7778 25.5346Z" fill="black"/>
<path d="M56.2591 24.8268H55.7208L55.4176 26.3977H55.4081L55.1386 24.8268H54.7398L54.4555 26.3977H54.4456L54.1364 24.8268H53.598L54.1962 27.3552H54.6455L54.9248 25.8541H54.935L55.2144 27.3552H55.6632L56.2591 24.8268Z" fill="black"/>
<path fill-rule="evenodd" clip-rule="evenodd" d="M57.2698 26.5069C57.2602 26.6833 57.2925 26.8594 57.3642 27.0209C57.4305 27.1368 57.5276 27.2322 57.6448 27.2964C57.7619 27.3606 57.8945 27.3912 58.0279 27.3848C58.1612 27.3911 58.2937 27.3604 58.4107 27.2962C58.5277 27.232 58.6246 27.1367 58.6909 27.0209C58.7627 26.8594 58.7951 26.6833 58.7857 26.5069V25.6729C58.7952 25.4966 58.7627 25.3206 58.6909 25.1593C58.6246 25.0434 58.5277 24.9482 58.4107 24.8839C58.2937 24.8197 58.1612 24.7891 58.0279 24.7954C57.8945 24.789 57.7619 24.8196 57.6448 24.8838C57.5276 24.948 57.4305 25.0433 57.3642 25.1593C57.2925 25.3206 57.2602 25.4967 57.2698 25.6729V26.5069ZM57.7785 25.5944C57.7785 25.4049 57.8729 25.3052 58.0279 25.3052C58.183 25.3052 58.277 25.4045 58.277 25.5944V26.5872C58.277 26.7768 58.1822 26.8765 58.0279 26.8765C57.8736 26.8765 57.7785 26.7764 57.7785 26.5872V25.5944Z" fill="black"/>
<path fill-rule="evenodd" clip-rule="evenodd" d="M60.0288 27.3545H60.5379V25.8537C60.5321 25.7828 60.5414 25.7114 60.565 25.6443C60.5886 25.5772 60.6261 25.5158 60.675 25.4641C60.7239 25.4124 60.7831 25.3715 60.8489 25.3442C60.9146 25.3169 60.9853 25.3038 61.0564 25.3056C61.1095 25.3052 61.1621 25.3154 61.2112 25.3355V24.7965C61.0845 24.7979 60.9594 24.8251 60.8436 24.8766C60.7278 24.9281 60.6238 25.0028 60.5379 25.096V24.8264H60.0288V27.3545Z" fill="black"/>
<path d="M62.2879 27.3545H62.797V26.6467L63.0414 26.2627L63.5006 27.3545H64.0536L63.3254 25.8537L63.9289 24.8261H63.4205L62.8072 25.928H62.797V23.8052H62.2879V27.3545Z" fill="black"/>
<path fill-rule="evenodd" clip-rule="evenodd" d="M68.368 26.2824V25.5842C68.375 25.4815 68.3604 25.3784 68.3252 25.2817C68.29 25.1849 68.2348 25.0966 68.1634 25.0224C68.092 24.9482 68.0059 24.8898 67.9106 24.8509C67.8153 24.812 67.7128 24.7935 67.6099 24.7965C67.4765 24.7901 67.344 24.8207 67.227 24.8849C67.1099 24.9492 67.0128 25.0445 66.9465 25.1604C66.8747 25.3217 66.8423 25.4977 66.8518 25.674V26.508C66.8423 26.6844 66.8748 26.8606 66.9465 27.022C67.0128 27.1379 67.1099 27.2333 67.227 27.2975C67.344 27.3617 67.4765 27.3923 67.6099 27.3859C67.7126 27.3889 67.8148 27.3705 67.91 27.3318C68.0052 27.2932 68.0914 27.2352 68.163 27.1615C68.2979 27.0148 68.3711 26.8218 68.3673 26.6225H67.859C67.8491 26.7324 67.8044 26.8776 67.6099 26.8776C67.5763 26.881 67.5423 26.8769 67.5105 26.8656C67.4787 26.8543 67.4498 26.836 67.4259 26.8122C67.402 26.7883 67.3838 26.7594 67.3724 26.7275C67.3611 26.6957 67.3571 26.6618 67.3605 26.6282V26.284L68.368 26.2824ZM67.3612 25.5944C67.3612 25.4049 67.456 25.3052 67.6106 25.3052C67.7653 25.3052 67.8597 25.4045 67.8597 25.5944V25.8841H67.3612V25.5944Z" fill="black"/>
<path fill-rule="evenodd" clip-rule="evenodd" d="M70.5758 27.3545H71.0845V25.5948C71.0945 25.4905 71.0819 25.3853 71.0476 25.2863C71.0133 25.1873 70.9581 25.0969 70.8857 25.0212C70.8133 24.9455 70.7254 24.8863 70.628 24.8475C70.5307 24.8088 70.4261 24.7916 70.3215 24.7969C70.2196 24.7939 70.1181 24.8113 70.023 24.8482C69.928 24.885 69.8413 24.9406 69.7681 25.0114C69.6277 25.1603 69.5468 25.3554 69.5406 25.5599H70.0334C70.0432 25.49 70.0778 25.4258 70.1309 25.3791C70.1839 25.3325 70.2519 25.3064 70.3226 25.3056C70.5121 25.3056 70.577 25.4349 70.577 25.6047V25.87C70.4728 25.8647 70.4026 25.8553 70.3325 25.8553C69.6938 25.8553 69.5296 26.1342 69.5296 26.7127C69.5296 27.2711 69.8435 27.3859 70.0777 27.3859C70.178 27.3877 70.2769 27.3616 70.3632 27.3106C70.4496 27.2595 70.52 27.1855 70.5667 27.0967H70.5766L70.5758 27.3545ZM70.5758 26.6119C70.5758 26.8162 70.4716 26.936 70.3022 26.936C70.1327 26.936 70.0368 26.806 70.0368 26.6119C70.0368 26.3424 70.2165 26.2529 70.436 26.2529C70.4829 26.2534 70.5295 26.2585 70.5754 26.2681L70.5758 26.6119Z" fill="black"/>
<path d="M73.7303 25.5346C73.7336 25.4383 73.7173 25.3423 73.6825 25.2525C73.6477 25.1627 73.5951 25.0808 73.5278 25.0119C73.4605 24.9429 73.3799 24.8883 73.2909 24.8513C73.202 24.8143 73.1065 24.7956 73.0102 24.7965C72.9122 24.7944 72.8148 24.812 72.7238 24.8483C72.6328 24.8845 72.55 24.9386 72.4803 25.0074C72.4106 25.0763 72.3554 25.1584 72.318 25.2489C72.2806 25.3395 72.2618 25.4366 72.2627 25.5346C72.2608 25.6909 72.3099 25.8435 72.4025 25.9695C72.4951 26.0955 72.6262 26.1879 72.7759 26.2328L73.0203 26.3226C73.2144 26.3985 73.2744 26.4921 73.2744 26.6316C73.2742 26.6684 73.2667 26.7049 73.2523 26.7388C73.2378 26.7726 73.2167 26.8033 73.1902 26.8289C73.1636 26.8544 73.1323 26.8745 73.0979 26.8877C73.0635 26.901 73.0269 26.9072 72.9901 26.906C72.8005 26.906 72.736 26.7616 72.716 26.6214H72.2399C72.2361 26.7222 72.2531 26.8227 72.2898 26.9167C72.3265 27.0107 72.382 27.0961 72.4531 27.1677C72.5242 27.2393 72.6093 27.2955 72.703 27.3329C72.7967 27.3702 72.8972 27.3879 72.998 27.3848C73.0984 27.386 73.198 27.3671 73.2908 27.3291C73.3837 27.2911 73.4681 27.2348 73.5388 27.1636C73.6095 27.0924 73.6651 27.0077 73.7025 26.9145C73.7398 26.8214 73.7581 26.7217 73.7562 26.6214C73.7649 26.4639 73.7204 26.3081 73.63 26.1789C73.5396 26.0497 73.4086 25.9546 73.2577 25.9087L72.9582 25.7893C72.7687 25.7135 72.7436 25.6248 72.7436 25.5304C72.7422 25.497 72.7477 25.4638 72.7596 25.4326C72.7716 25.4014 72.7898 25.373 72.8131 25.3492C72.8364 25.3253 72.8644 25.3065 72.8953 25.2938C72.9262 25.2812 72.9593 25.275 72.9927 25.2756C73.027 25.2745 73.0613 25.2804 73.0933 25.293C73.1252 25.3056 73.1543 25.3247 73.1786 25.349C73.2029 25.3733 73.222 25.4024 73.2346 25.4344C73.2472 25.4663 73.2531 25.5006 73.252 25.5349L73.7303 25.5346Z" fill="black"/>
<path fill-rule="evenodd" clip-rule="evenodd" d="M74.9549 27.3545H75.464V24.8264H74.9549V27.3545ZM74.9549 24.3128H75.464V23.8041H74.9549V24.3128Z" fill="black"/>
<path fill-rule="evenodd" clip-rule="evenodd" d="M78.2248 26.2824V25.5842C78.2318 25.4815 78.2172 25.3784 78.1819 25.2817C78.1467 25.1849 78.0916 25.0966 78.0202 25.0224C77.9488 24.9482 77.8627 24.8898 77.7673 24.8509C77.672 24.812 77.5696 24.7935 77.4666 24.7965C77.3333 24.7901 77.2008 24.8207 77.0838 24.8849C76.9668 24.9492 76.8698 25.0445 76.8036 25.1604C76.7319 25.3217 76.6994 25.4977 76.7089 25.674V26.508C76.6994 26.6844 76.7319 26.8606 76.8036 27.022C76.8698 27.1379 76.9668 27.2333 77.0838 27.2975C77.2008 27.3617 77.3333 27.3923 77.4666 27.3859C77.5695 27.3889 77.6718 27.3705 77.7671 27.3319C77.8625 27.2932 77.9487 27.2352 78.0204 27.1615C78.1551 27.0147 78.2283 26.8217 78.2248 26.6225H77.716C77.7062 26.7324 77.6611 26.8776 77.4666 26.8776C77.433 26.881 77.3991 26.8769 77.3672 26.8656C77.3354 26.8543 77.3065 26.836 77.2827 26.8122C77.2588 26.7883 77.2405 26.7594 77.2292 26.7275C77.2178 26.6957 77.2138 26.6618 77.2172 26.6282V26.284L78.2248 26.2824ZM77.2172 25.5944C77.2172 25.4049 77.3124 25.3052 77.4666 25.3052C77.6209 25.3052 77.716 25.4045 77.716 25.5944V25.8841H77.2172V25.5944Z" fill="black"/>
<path fill-rule="evenodd" clip-rule="evenodd" d="M79.4693 27.3545H79.978V25.8537C79.9722 25.7828 79.9814 25.7114 80.005 25.6442C80.0286 25.5771 80.066 25.5156 80.1149 25.4639C80.1638 25.4122 80.2231 25.3714 80.2889 25.3441C80.3546 25.3168 80.4254 25.3037 80.4966 25.3056C80.5497 25.3052 80.6024 25.3154 80.6516 25.3355V24.7965C80.5249 24.7979 80.3999 24.8252 80.2841 24.8767C80.1683 24.9282 80.0643 25.0028 79.9784 25.096V24.8264H79.4697L79.4693 27.3545Z" fill="black"/>
<path fill-rule="evenodd" clip-rule="evenodd" d="M40.1278 18.4899C40.081 19.3472 40.2388 20.2034 40.5883 20.9876C40.9103 21.5516 41.3821 22.0155 41.9514 22.3281C42.5206 22.6406 43.1652 22.7896 43.8139 22.7586C44.4626 22.7897 45.1073 22.6407 45.6766 22.3281C46.246 22.0155 46.7177 21.5516 47.0398 20.9876C47.3894 20.2034 47.5473 19.3472 47.5004 18.4899V14.1685C47.5473 13.311 47.3894 12.4547 47.0398 11.6704C46.7177 11.1064 46.246 10.6425 45.6766 10.3299C45.1073 10.0174 44.4626 9.86838 43.8139 9.89939C43.1652 9.86845 42.5206 10.0175 41.9514 10.3301C41.3821 10.6426 40.9104 11.1065 40.5883 11.6704C40.2388 12.4548 40.081 13.3111 40.1278 14.1685V18.4899ZM42.6016 13.7792C42.6016 12.8573 43.0622 12.3724 43.8147 12.3724C44.5672 12.3724 45.0277 12.8573 45.0277 13.7792V18.8777C45.0277 19.7996 44.5668 20.2848 43.8147 20.2848C43.0626 20.2848 42.6016 19.7996 42.6016 18.8777V13.7792Z" fill="#AF0D21"/>
<path fill-rule="evenodd" clip-rule="evenodd" d="M16.3532 13.7792C16.3532 12.8573 16.8141 12.3725 17.5662 12.3725C18.3183 12.3725 18.7792 12.8573 18.7792 13.7792V18.9566C18.7792 19.8781 18.3186 20.3633 17.5662 20.3633C16.8137 20.3633 16.3532 19.8781 16.3532 18.9566V13.7792ZM13.8923 19.5949C13.8689 20.3077 14.0513 21.0122 14.4177 21.6241C14.6334 21.989 14.945 22.288 15.3186 22.4885C15.6922 22.6889 16.1135 22.7833 16.537 22.7613C17.0181 22.7586 17.4877 22.6143 17.8873 22.3464C18.2869 22.0785 18.5988 21.6989 18.7841 21.2549L18.7887 21.7037C18.7887 22.1855 19.3421 22.5755 20.0115 22.5755C20.681 22.5755 21.2522 22.1749 21.2522 21.6931V14.1678C21.2988 13.3103 21.1409 12.4541 20.7913 11.6697C20.4692 11.1057 19.9974 10.6418 19.4281 10.3293C18.8588 10.0167 18.2142 9.86771 17.5654 9.89869C16.9167 9.86773 16.2719 10.0168 15.7026 10.3293C15.1332 10.6419 14.6614 11.1057 14.3392 11.6697C13.99 12.4542 13.8321 13.3103 13.8786 14.1678V19.0464C13.8786 19.2359 13.8911 19.5953 13.8911 19.5953" fill="#AF0D21"/>
<path fill-rule="evenodd" clip-rule="evenodd" d="M75.7911 13.7788C75.7911 12.8569 76.2524 12.3721 77.0041 12.3721C77.7558 12.3721 78.2171 12.8569 78.2171 13.7788V15.1856H75.7911V13.7788ZM77.0178 20.2856C76.8542 20.3017 76.689 20.2814 76.5341 20.2263C76.3792 20.1711 76.2384 20.0824 76.1218 19.9665C76.0052 19.8506 75.9156 19.7104 75.8595 19.5558C75.8034 19.4013 75.7822 19.2363 75.7972 19.0725L75.7911 17.1252H79.9826C80.169 17.1261 80.3483 17.0531 80.4809 16.922C80.6136 16.791 80.6889 16.6127 80.6903 16.4262V13.7295C80.6903 11.5711 79.2831 9.89789 77.0034 9.89789C76.3548 9.86685 75.7103 10.0158 75.1411 10.3283C74.5719 10.6408 74.1002 11.1046 73.7782 11.6685C73.4283 12.4528 73.2701 13.3091 73.3169 14.1666L73.3132 18.4907C73.2716 19.3494 73.4356 20.2057 73.7916 20.9884C74.1136 21.5524 74.5854 22.0163 75.1547 22.3289C75.724 22.6414 76.3687 22.7904 77.0175 22.7594C77.5172 22.7737 78.0144 22.6841 78.4777 22.4962C78.941 22.3084 79.3602 22.0263 79.7088 21.668C80.3642 20.9546 80.7203 20.0165 80.7031 19.0479C80.7031 18.5551 80.149 18.1575 79.4662 18.1575C78.7835 18.1575 78.2294 18.5566 78.2294 19.0487C78.1805 19.5824 77.9639 20.2856 77.0163 20.2856" fill="#AF0D21"/>
<path d="M105.775 20.1561C105.528 20.9302 105.17 21.6645 104.713 22.3362C104.075 23.2706 103.411 24.2015 102.367 24.2206C101.341 24.2402 101.01 23.6113 99.838 23.6113C98.6656 23.6113 98.2965 24.2023 97.3261 24.2399C96.3176 24.2778 95.5503 23.23 94.9055 22.2997C93.5891 20.3963 92.5843 16.9212 93.9349 14.5774C94.2513 14.0098 94.71 13.5341 95.2657 13.1972C95.8215 12.8602 96.4553 12.6735 97.105 12.6555C98.0958 12.6372 99.0291 13.3212 99.6352 13.3212C100.241 13.3212 101.375 12.4978 102.569 12.6184C103.122 12.6381 103.663 12.7857 104.15 13.0494C104.636 13.3131 105.055 13.6859 105.373 14.1384C105.301 14.1839 103.699 15.1164 103.716 17.0555C103.718 17.717 103.915 18.3633 104.28 18.9144C104.646 19.4655 105.166 19.897 105.775 20.1561ZM101.787 11.3605C102.367 10.6824 102.654 9.80232 102.585 8.91309C101.711 8.9965 100.903 9.41203 100.327 10.0739C99.8316 10.6483 99.3961 11.5661 99.5146 12.4448C100.374 12.5115 101.253 12.0072 101.787 11.3605Z" fill="black"/>
<path d="M114.973 17.1396H114.325L113.971 16.026H112.737L112.399 17.1396H111.767L112.99 13.3435H113.744L114.973 17.1396ZM113.865 15.5561L113.543 14.5661C113.509 14.4646 113.445 14.2264 113.351 13.8515H113.34C113.302 14.0127 113.242 14.2509 113.159 14.5661L112.844 15.5561H113.865Z" fill="black"/>
<path d="M117.686 17.1393H117.15L117.116 16.7226H117.105C117.019 16.8747 116.892 16.9999 116.738 17.0843C116.585 17.1687 116.412 17.2089 116.237 17.2006C116.117 17.2061 115.997 17.1864 115.886 17.1427C115.774 17.099 115.673 17.0323 115.589 16.947C115.378 16.6825 115.275 16.3477 115.301 16.0104V14.3969H115.907V15.9099C115.907 16.437 116.087 16.7006 116.448 16.7006C116.572 16.7059 116.695 16.67 116.797 16.5986C116.899 16.5271 116.975 16.4241 117.012 16.3054C117.04 16.2313 117.053 16.1528 117.052 16.0738V14.3969H117.658V16.3497C117.658 16.6094 117.667 16.8728 117.685 17.1398" fill="black"/>
<path d="M119.789 14.8512H119.119V16.1843C119.119 16.5228 119.237 16.6921 119.473 16.6923C119.564 16.6941 119.654 16.6851 119.742 16.6654L119.759 17.1248C119.606 17.1745 119.446 17.1972 119.286 17.192C119.182 17.198 119.077 17.1816 118.98 17.1436C118.883 17.1057 118.795 17.0472 118.722 16.9722C118.566 16.7591 118.494 16.4962 118.519 16.2334V14.8512H118.12V14.3963H118.521V13.8948L119.12 13.7148V14.3963H119.789L119.789 14.8512Z" fill="black"/>
<path d="M122.758 15.7466C122.773 16.1252 122.644 16.4955 122.398 16.7831C122.271 16.9214 122.115 17.0304 121.942 17.1024C121.768 17.1745 121.581 17.2078 121.394 17.2C121.214 17.2078 121.035 17.1759 120.869 17.1066C120.703 17.0373 120.554 16.9322 120.433 16.7989C120.19 16.5205 120.062 16.16 120.075 15.7906C120.06 15.4087 120.192 15.0354 120.444 14.7483C120.571 14.6126 120.725 14.5061 120.897 14.4361C121.068 14.366 121.253 14.3341 121.438 14.3426C121.619 14.3352 121.8 14.3672 121.967 14.4362C122.134 14.5053 122.285 14.6098 122.408 14.7426C122.648 15.0205 122.773 15.3792 122.757 15.7458M122.126 15.7616C122.132 15.5353 122.076 15.3117 121.963 15.1155C121.911 15.0157 121.832 14.9322 121.736 14.8747C121.639 14.8172 121.528 14.7878 121.416 14.7899C121.302 14.7866 121.189 14.8153 121.09 14.8729C120.991 14.9304 120.911 15.0145 120.857 15.1155C120.743 15.3153 120.687 15.5427 120.694 15.7726C120.688 15.999 120.744 16.2227 120.857 16.4188C120.911 16.5189 120.991 16.6023 121.088 16.6599C121.186 16.7175 121.297 16.747 121.411 16.7452C121.524 16.7462 121.635 16.7157 121.731 16.6573C121.828 16.5988 121.907 16.5147 121.958 16.4142C122.075 16.2172 122.133 15.9914 122.127 15.7627" fill="black"/>
<path d="M124.756 14.9355C124.692 14.9247 124.628 14.9194 124.563 14.9197C124.466 14.9152 124.37 14.9349 124.283 14.9771C124.196 15.0194 124.121 15.0827 124.064 15.1615C123.957 15.3211 123.904 15.5106 123.911 15.7025V17.1393H123.305V15.2587C123.305 14.9424 123.3 14.6545 123.29 14.395H123.82L123.842 14.9229H123.859C123.916 14.7517 124.022 14.6009 124.164 14.4888C124.29 14.3937 124.445 14.3423 124.603 14.3421C124.654 14.3416 124.705 14.3453 124.755 14.3534L124.756 14.9355Z" fill="black"/>
<path d="M125.881 13.5831C125.883 13.6324 125.874 13.6816 125.855 13.7274C125.837 13.7731 125.809 13.8144 125.773 13.8486C125.698 13.9174 125.599 13.9538 125.498 13.9498C125.45 13.951 125.403 13.9423 125.359 13.9243C125.315 13.9063 125.275 13.8794 125.242 13.8453C125.207 13.8111 125.18 13.7701 125.162 13.725C125.145 13.6799 125.136 13.6316 125.138 13.5831C125.136 13.5348 125.145 13.4866 125.164 13.442C125.182 13.3973 125.21 13.357 125.245 13.3239C125.318 13.2585 125.412 13.2223 125.509 13.2223C125.607 13.2223 125.701 13.2585 125.774 13.3239C125.809 13.3571 125.837 13.3973 125.855 13.442C125.874 13.4867 125.882 13.5348 125.881 13.5831ZM125.813 17.1399H125.206V14.3969H125.812L125.813 17.1399Z" fill="black"/>
<path d="M128.164 16.3481C128.168 16.4652 128.145 16.5815 128.096 16.688C128.048 16.7945 127.975 16.8882 127.884 16.9617C127.66 17.127 127.386 17.2087 127.108 17.1925C126.832 17.2009 126.559 17.1372 126.315 17.0077L126.445 16.559C126.647 16.6812 126.878 16.7457 127.114 16.7455C127.425 16.7455 127.581 16.6311 127.581 16.4024C127.582 16.3559 127.574 16.3097 127.557 16.2666C127.539 16.2235 127.513 16.1844 127.48 16.152C127.374 16.0646 127.252 15.9986 127.121 15.9578C126.634 15.7778 126.391 15.5152 126.391 15.1701C126.389 15.0577 126.412 14.9463 126.459 14.8441C126.505 14.7418 126.574 14.6512 126.66 14.579C126.861 14.4144 127.116 14.3303 127.375 14.3429C127.616 14.3358 127.855 14.3921 128.067 14.5062L127.937 14.9404C127.77 14.8383 127.577 14.7842 127.381 14.784C127.273 14.7775 127.167 14.8095 127.081 14.8743C127.047 14.9019 127.019 14.9371 127.001 14.9771C126.982 15.0171 126.973 15.0609 126.974 15.105C126.973 15.1496 126.983 15.1938 127.002 15.2339C127.022 15.274 127.051 15.3089 127.086 15.3358C127.199 15.4176 127.324 15.4803 127.456 15.5215C127.928 15.7015 128.163 15.9773 128.163 16.3489" fill="black"/>
<path d="M129.41 13.5831C129.412 13.6324 129.403 13.6816 129.385 13.7274C129.366 13.7731 129.338 13.8144 129.302 13.8486C129.228 13.9175 129.128 13.9539 129.027 13.9498C128.979 13.951 128.932 13.9423 128.888 13.9243C128.844 13.9063 128.804 13.8794 128.771 13.8453C128.737 13.8111 128.71 13.7702 128.692 13.7251C128.674 13.68 128.665 13.6316 128.667 13.5831C128.665 13.5348 128.674 13.4867 128.693 13.442C128.711 13.3973 128.739 13.3571 128.774 13.3239C128.847 13.2585 128.941 13.2223 129.038 13.2223C129.136 13.2223 129.23 13.2585 129.303 13.3239C129.338 13.357 129.366 13.3973 129.384 13.442C129.403 13.4866 129.411 13.5348 129.41 13.5831ZM129.342 17.1401H128.736V14.3969H129.342V17.1401Z" fill="black"/>
<path d="M132.341 15.6397C132.342 15.7324 132.335 15.8251 132.318 15.9164H130.484C130.481 16.0329 130.502 16.1489 130.548 16.2561C130.594 16.3633 130.663 16.4591 130.75 16.5367C130.92 16.6698 131.133 16.7377 131.349 16.7283C131.601 16.7316 131.852 16.6877 132.088 16.5991L132.185 17.0233C131.893 17.1424 131.58 17.2001 131.266 17.1928C131.082 17.2028 130.898 17.1745 130.726 17.1098C130.553 17.045 130.396 16.9452 130.265 16.8167C130.14 16.6811 130.044 16.5222 129.982 16.3492C129.919 16.1761 129.892 15.9924 129.901 15.8087C129.888 15.435 130.008 15.0687 130.24 14.7754C130.354 14.6321 130.501 14.5177 130.667 14.4414C130.834 14.3651 131.017 14.3291 131.2 14.3362C131.375 14.3264 131.549 14.3618 131.707 14.4388C131.864 14.5159 131.999 14.6321 132.098 14.7762C132.266 15.032 132.351 15.3339 132.341 15.6397ZM131.757 15.4823C131.765 15.318 131.723 15.1551 131.638 15.0145C131.587 14.9322 131.515 14.8652 131.43 14.8205C131.344 14.7758 131.248 14.7552 131.152 14.7609C131.056 14.7592 130.962 14.7809 130.877 14.8242C130.792 14.8674 130.72 14.9308 130.665 15.0089C130.561 15.1463 130.498 15.3104 130.484 15.4823H131.757Z" fill="black"/>
<path d="M134.322 14.9355C134.259 14.9247 134.194 14.9194 134.13 14.9197C134.033 14.9151 133.937 14.9348 133.85 14.9771C133.762 15.0193 133.687 15.0827 133.631 15.1615C133.524 15.3211 133.471 15.5106 133.478 15.7025V17.1393H132.872V15.2587C132.872 14.9424 132.866 14.6545 132.856 14.395H133.387L133.409 14.9229H133.425C133.483 14.7516 133.589 14.6008 133.73 14.4888C133.857 14.3937 134.011 14.3422 134.17 14.3421C134.221 14.3416 134.272 14.3453 134.322 14.3534L134.322 14.9355Z" fill="black"/>
<path d="M136.272 14.8512H135.604V16.1843C135.604 16.5228 135.722 16.6921 135.958 16.6923C136.048 16.6941 136.138 16.6851 136.226 16.6654L136.244 17.1248C136.091 17.1745 135.931 17.1972 135.771 17.192C135.666 17.198 135.562 17.1815 135.465 17.1436C135.367 17.1057 135.279 17.0472 135.206 16.9722C135.051 16.759 134.979 16.4962 135.004 16.2334V14.8512H134.602V14.3963H135.004V13.8948L135.602 13.7148V14.3963H136.271L136.272 14.8512Z" fill="black"/>
<path d="M138.999 15.6397C139 15.7324 138.993 15.8251 138.976 15.9164H137.143C137.139 16.0329 137.16 16.1489 137.206 16.2561C137.252 16.3633 137.321 16.4591 137.408 16.5367C137.578 16.6698 137.791 16.7377 138.007 16.7283C138.259 16.7316 138.51 16.6877 138.747 16.599L138.843 17.0233C138.551 17.1424 138.238 17.2001 137.924 17.1928C137.74 17.2028 137.556 17.1745 137.384 17.1098C137.211 17.045 137.054 16.9452 136.923 16.8167C136.798 16.6812 136.702 16.5222 136.64 16.3492C136.577 16.1761 136.55 15.9924 136.559 15.8087C136.546 15.435 136.666 15.0687 136.898 14.7754C137.012 14.632 137.159 14.5174 137.325 14.441C137.492 14.3645 137.674 14.3283 137.858 14.3353C138.033 14.3256 138.207 14.361 138.364 14.438C138.522 14.5151 138.657 14.6312 138.756 14.7754C138.924 15.0312 139.009 15.3328 138.998 15.6386M138.415 15.4814C138.422 15.3172 138.381 15.1543 138.296 15.0137C138.245 14.9314 138.173 14.8643 138.088 14.8197C138.002 14.775 137.906 14.7544 137.809 14.7601C137.714 14.7585 137.62 14.7802 137.535 14.8235C137.45 14.8667 137.377 14.9301 137.323 15.0081C137.218 15.1454 137.156 15.3096 137.142 15.4814H138.415Z" fill="black"/>
<path d="M140.98 14.9355C140.916 14.9247 140.852 14.9194 140.787 14.9197C140.691 14.9152 140.594 14.9349 140.507 14.9771C140.42 15.0194 140.345 15.0827 140.289 15.1615C140.182 15.3211 140.128 15.5106 140.136 15.7025V17.1393H139.53V15.2587C139.53 14.9424 139.525 14.6545 139.515 14.395H140.045L140.067 14.9229H140.084C140.141 14.7517 140.247 14.6008 140.388 14.4888C140.515 14.3938 140.669 14.3423 140.828 14.3421C140.879 14.3416 140.93 14.3453 140.98 14.3534V14.9355Z" fill="black"/>
<path d="M114.232 22.5573C114.237 22.7056 114.209 22.8531 114.151 22.9895C114.092 23.1258 114.005 23.2476 113.894 23.3461C113.601 23.5829 113.231 23.7017 112.856 23.679C112.511 23.6953 112.168 23.6136 111.868 23.4433L112.009 22.9383C112.277 23.0939 112.581 23.1744 112.89 23.1715C113.082 23.1831 113.271 23.1285 113.427 23.0167C113.489 22.9675 113.539 22.9044 113.573 22.8325C113.606 22.7605 113.622 22.6817 113.619 22.6024C113.621 22.5303 113.607 22.4586 113.58 22.3918C113.553 22.325 113.512 22.2645 113.461 22.214C113.308 22.0813 113.129 21.9815 112.936 21.9209C112.27 21.6733 111.937 21.3111 111.937 20.8342C111.933 20.688 111.963 20.5429 112.024 20.4101C112.085 20.2772 112.176 20.1601 112.289 20.0677C112.554 19.8588 112.885 19.7528 113.222 19.7695C113.52 19.7592 113.816 19.8212 114.084 19.95L113.932 20.447C113.709 20.3265 113.458 20.2654 113.205 20.2694C113.024 20.2586 112.845 20.3149 112.703 20.4277C112.654 20.4706 112.616 20.5236 112.589 20.583C112.563 20.6423 112.55 20.7066 112.551 20.7716C112.549 20.8428 112.565 20.9134 112.595 20.9779C112.625 21.0424 112.67 21.099 112.726 21.1434C112.893 21.2698 113.08 21.3688 113.279 21.4365C113.552 21.5326 113.799 21.6907 114.001 21.8986C114.158 22.0817 114.24 22.3163 114.232 22.5573Z" fill="black"/>
<path d="M117.108 22.1256C117.109 22.2182 117.102 22.3108 117.085 22.402H115.252C115.248 22.5186 115.269 22.6346 115.315 22.7418C115.361 22.8491 115.43 22.9449 115.517 23.0226C115.688 23.1557 115.9 23.2236 116.116 23.2142C116.368 23.2173 116.619 23.1734 116.856 23.085L116.951 23.5092C116.66 23.6283 116.347 23.686 116.032 23.6787C115.849 23.6887 115.665 23.6604 115.492 23.5957C115.32 23.5309 115.163 23.4311 115.032 23.3026C114.907 23.167 114.811 23.0081 114.749 22.8351C114.686 22.662 114.659 22.4783 114.668 22.2946C114.655 21.9209 114.775 21.5546 115.007 21.2613C115.121 21.1178 115.267 21.0032 115.434 20.9267C115.601 20.8501 115.783 20.8138 115.967 20.8207C116.141 20.8111 116.316 20.8465 116.473 20.9237C116.631 21.0008 116.765 21.1171 116.865 21.2613C117.033 21.5171 117.117 21.8187 117.107 22.1245M116.525 21.9684C116.533 21.8042 116.492 21.6413 116.406 21.5007C116.356 21.4183 116.284 21.3511 116.198 21.3064C116.112 21.2616 116.016 21.2409 115.92 21.2465C115.824 21.245 115.73 21.2668 115.646 21.3101C115.561 21.3533 115.488 21.4168 115.434 21.4948C115.329 21.6322 115.266 21.7963 115.252 21.9682L116.525 21.9684Z" fill="black"/>
<path d="M119.09 21.422C119.026 21.4112 118.961 21.4059 118.897 21.4061C118.8 21.4016 118.704 21.4214 118.617 21.4636C118.53 21.5058 118.455 21.5692 118.398 21.6479C118.291 21.8076 118.238 21.997 118.245 22.189V23.6258H117.639V21.7452C117.639 21.429 117.634 21.1415 117.624 20.8815H118.154L118.176 21.4091H118.193C118.25 21.2381 118.356 21.0875 118.498 20.9755C118.625 20.8806 118.779 20.8292 118.937 20.8288C118.988 20.8284 119.039 20.8321 119.089 20.8398L119.09 21.422Z" fill="black"/>
<path d="M122.01 20.8828L120.974 23.6258H120.383L119.381 20.8828H120.034L120.501 22.3335C120.58 22.5741 120.645 22.8055 120.698 23.0277H120.715C120.76 22.8282 120.826 22.5968 120.912 22.3335L121.374 20.8828H122.01Z" fill="black"/>
<path d="M123.102 20.0682C123.103 20.1174 123.095 20.1664 123.076 20.212C123.058 20.2576 123.03 20.2988 122.994 20.3328C122.957 20.3671 122.914 20.3937 122.866 20.4111C122.819 20.4286 122.769 20.4365 122.718 20.4344C122.671 20.4355 122.624 20.4268 122.58 20.409C122.536 20.3911 122.496 20.3643 122.462 20.3304C122.428 20.2961 122.401 20.2552 122.383 20.2101C122.365 20.165 122.357 20.1167 122.358 20.0682C122.357 20.0198 122.366 19.9716 122.384 19.9268C122.403 19.8821 122.431 19.8417 122.466 19.8084C122.538 19.7431 122.633 19.7069 122.73 19.7069C122.828 19.7069 122.922 19.7431 122.995 19.8084C123.03 19.8417 123.058 19.8821 123.076 19.9268C123.095 19.9716 123.103 20.0198 123.102 20.0682ZM123.033 23.626H122.427V20.8828H123.033V23.626Z" fill="black"/>
<path d="M125.73 20.9588L125.612 21.4209C125.446 21.3424 125.265 21.3033 125.082 21.3067C124.963 21.3014 124.844 21.3228 124.735 21.3693C124.625 21.4158 124.527 21.4862 124.448 21.5754C124.289 21.7646 124.205 22.0066 124.214 22.254C124.208 22.3791 124.226 22.5042 124.268 22.6222C124.31 22.7402 124.375 22.8486 124.46 22.9412C124.54 23.0245 124.637 23.0901 124.744 23.1337C124.851 23.1774 124.966 23.1981 125.082 23.1946C125.271 23.1944 125.459 23.1574 125.634 23.0858L125.718 23.5393C125.48 23.6404 125.222 23.6883 124.963 23.6795C124.78 23.6884 124.596 23.6592 124.424 23.5937C124.253 23.5283 124.096 23.4281 123.965 23.2993C123.838 23.1634 123.74 23.0033 123.676 22.8287C123.612 22.6541 123.584 22.4685 123.593 22.2827C123.584 22.0873 123.615 21.8921 123.687 21.7098C123.758 21.5276 123.867 21.3625 124.006 21.2253C124.146 21.0881 124.313 20.982 124.496 20.9139C124.68 20.8458 124.875 20.8172 125.071 20.8301C125.297 20.8242 125.522 20.8681 125.73 20.9588Z" fill="black"/>
<path d="M128.439 22.1256C128.441 22.2182 128.434 22.3108 128.417 22.402H126.583C126.579 22.5186 126.601 22.6346 126.647 22.7419C126.693 22.8491 126.762 22.9449 126.849 23.0226C127.019 23.1557 127.232 23.2237 127.448 23.2142C127.7 23.2173 127.951 23.1734 128.187 23.085L128.283 23.5092C127.992 23.6283 127.679 23.686 127.364 23.6787C127.18 23.6887 126.996 23.6604 126.824 23.5957C126.652 23.531 126.495 23.4311 126.363 23.3026C126.239 23.167 126.143 23.0081 126.08 22.8351C126.018 22.662 125.991 22.4783 126 22.2946C125.986 21.9209 126.106 21.5546 126.338 21.2613C126.453 21.118 126.599 21.0035 126.766 20.9272C126.933 20.8509 127.115 20.8147 127.298 20.8218C127.473 20.8121 127.648 20.8476 127.805 20.9247C127.962 21.0019 128.097 21.1182 128.197 21.2624C128.365 21.5181 128.449 21.8198 128.438 22.1256M127.855 21.9684C127.863 21.8042 127.822 21.6413 127.736 21.5007C127.686 21.4183 127.614 21.3511 127.528 21.3064C127.442 21.2616 127.346 21.241 127.25 21.2465C127.154 21.245 127.06 21.2668 126.976 21.3101C126.891 21.3533 126.818 21.4168 126.764 21.4948C126.659 21.6322 126.597 21.7964 126.582 21.9682L127.855 21.9684Z" fill="black"/>
<path d="M132.725 20.9336C132.732 21.0873 132.709 21.241 132.655 21.3854C132.602 21.5298 132.521 21.6621 132.415 21.7745C132.205 21.9423 131.961 22.0631 131.7 22.129C131.438 22.1948 131.166 22.2041 130.901 22.1562V23.626H130.295V19.878C130.623 19.8224 130.955 19.7961 131.288 19.7993C131.675 19.7711 132.061 19.8811 132.376 20.1099C132.492 20.2125 132.583 20.3397 132.644 20.4823C132.704 20.6248 132.732 20.7789 132.725 20.9336ZM132.122 20.9607C132.127 20.8645 132.111 20.7682 132.074 20.6793C132.037 20.5904 131.979 20.5112 131.907 20.4478C131.735 20.3195 131.524 20.2561 131.311 20.2689C131.173 20.2661 131.035 20.2776 130.9 20.303V21.6748C131.016 21.7005 131.135 21.7119 131.254 21.7086C131.483 21.7219 131.709 21.6516 131.89 21.5106C131.967 21.4421 132.028 21.3571 132.068 21.2619C132.108 21.1667 132.126 21.0638 132.121 20.9607" fill="black"/>
<path d="M134.74 21.422C134.676 21.4112 134.612 21.4059 134.547 21.4061C134.45 21.4016 134.354 21.4213 134.267 21.4635C134.18 21.5058 134.105 21.5692 134.048 21.6479C133.941 21.8075 133.888 21.997 133.896 22.189V23.6258H133.289V21.7452C133.289 21.429 133.284 21.1415 133.274 20.8815H133.804L133.826 21.4091H133.843C133.9 21.238 134.006 21.0874 134.148 20.9755C134.275 20.8806 134.429 20.8292 134.587 20.8288C134.638 20.8284 134.689 20.8321 134.739 20.8398L134.74 21.422Z" fill="black"/>
<path d="M137.647 22.2331C137.662 22.6117 137.533 22.9819 137.286 23.2695C137.159 23.4079 137.004 23.5168 136.831 23.5889C136.657 23.6609 136.47 23.6942 136.283 23.6865C136.103 23.6945 135.924 23.6628 135.758 23.5936C135.592 23.5245 135.443 23.4196 135.322 23.2865C135.078 23.008 134.95 22.6472 134.963 22.2777C134.948 21.8956 135.08 21.5222 135.333 21.235C135.459 21.0995 135.614 20.993 135.785 20.9231C135.957 20.8531 136.142 20.8213 136.327 20.8299C136.508 20.8224 136.688 20.8543 136.856 20.9234C137.023 20.9925 137.173 21.097 137.296 21.2299C137.536 21.5077 137.661 21.8664 137.645 22.2331M137.014 22.2489C137.02 22.0225 136.964 21.7989 136.85 21.6028C136.799 21.5028 136.72 21.4193 136.623 21.3617C136.527 21.3041 136.416 21.2748 136.304 21.2769C136.189 21.2738 136.077 21.3026 135.978 21.3602C135.879 21.4178 135.799 21.5018 135.746 21.6028C135.631 21.8025 135.575 22.03 135.582 22.2599C135.576 22.4863 135.632 22.7099 135.746 22.906C135.799 23.0051 135.879 23.0877 135.976 23.1451C136.073 23.2025 136.184 23.2325 136.297 23.2319C136.41 23.2314 136.52 23.2003 136.617 23.1419C136.713 23.0836 136.792 23.0002 136.845 22.9007C136.961 22.7035 137.02 22.4778 137.014 22.2489Z" fill="black"/>
<path d="M140.371 20.8828L139.335 23.6258H138.744L137.742 20.8828H138.395L138.862 22.3335C138.941 22.5741 139.007 22.8055 139.06 23.0277H139.077C139.122 22.8282 139.187 22.5968 139.274 22.3335L139.736 20.8828H140.371Z" fill="black"/>
<path d="M141.407 20.0682C141.408 20.1174 141.4 20.1664 141.381 20.212C141.363 20.2576 141.335 20.2988 141.299 20.3328C141.262 20.3671 141.219 20.3937 141.172 20.4111C141.124 20.4286 141.074 20.4365 141.024 20.4344C140.976 20.4354 140.929 20.4267 140.885 20.4088C140.841 20.3909 140.801 20.3643 140.768 20.3304C140.733 20.2961 140.706 20.2551 140.689 20.21C140.671 20.1649 140.662 20.1167 140.664 20.0682C140.662 20.0198 140.671 19.9716 140.69 19.9268C140.708 19.8821 140.736 19.8417 140.771 19.8084C140.844 19.7431 140.938 19.7069 141.035 19.7069C141.133 19.7069 141.227 19.7431 141.3 19.8084C141.335 19.8417 141.363 19.8821 141.381 19.9268C141.4 19.9716 141.408 20.0198 141.407 20.0682ZM141.339 23.6247H140.732V20.8828H141.338L141.339 23.6247Z" fill="black"/>
<path d="M144.465 23.6258H143.924L143.897 23.186H143.88C143.799 23.3471 143.673 23.4806 143.516 23.5696C143.36 23.6587 143.18 23.6993 143 23.6862C142.843 23.6887 142.686 23.655 142.544 23.5877C142.401 23.5203 142.276 23.4211 142.177 23.2977C141.95 23.0119 141.834 22.6536 141.85 22.2889C141.832 21.8983 141.96 21.515 142.208 21.2127C142.313 21.0904 142.443 20.9926 142.591 20.9264C142.738 20.8601 142.897 20.827 143.059 20.8293C143.21 20.8142 143.362 20.8409 143.499 20.9066C143.636 20.9722 143.753 21.0743 143.835 21.2017V19.6252H144.441V22.8878C144.441 23.1548 144.45 23.4013 144.466 23.6271M143.835 22.4719V22.0146C143.837 21.9505 143.831 21.8865 143.819 21.8236C143.786 21.6806 143.709 21.5517 143.598 21.4558C143.486 21.3569 143.341 21.3038 143.192 21.307C143.088 21.3035 142.984 21.3263 142.891 21.3732C142.798 21.4202 142.718 21.4898 142.658 21.5756C142.522 21.7793 142.454 22.0211 142.464 22.2661C142.454 22.4995 142.519 22.73 142.65 22.9232C142.709 23.0085 142.789 23.0778 142.881 23.1247C142.974 23.1716 143.077 23.1947 143.181 23.1919C143.272 23.1948 143.364 23.1762 143.447 23.1373C143.53 23.0985 143.603 23.0406 143.659 22.9684C143.777 22.8286 143.839 22.6508 143.835 22.4684" fill="black"/>
<path d="M147.433 22.1256C147.434 22.2182 147.427 22.3108 147.41 22.402H145.576C145.573 22.5186 145.594 22.6346 145.64 22.7418C145.686 22.8491 145.755 22.9449 145.842 23.0226C146.012 23.1557 146.225 23.2236 146.441 23.2142C146.693 23.2173 146.944 23.1735 147.181 23.085L147.278 23.5084C146.986 23.6275 146.673 23.6852 146.358 23.6779C146.175 23.6879 145.991 23.6596 145.819 23.5949C145.646 23.5301 145.489 23.4303 145.358 23.3018C145.233 23.1662 145.137 23.0073 145.075 22.8343C145.012 22.6612 144.985 22.4775 144.994 22.2938C144.981 21.9201 145.101 21.5538 145.333 21.2605C145.447 21.1169 145.594 21.0023 145.76 20.9257C145.927 20.8492 146.11 20.8129 146.293 20.8199C146.468 20.8103 146.642 20.8458 146.8 20.9229C146.957 21.0001 147.092 21.1163 147.191 21.2605C147.359 21.5163 147.444 21.8179 147.433 22.1237M146.85 21.9665C146.858 21.8023 146.816 21.6394 146.731 21.4988C146.681 21.4164 146.609 21.3492 146.523 21.3045C146.437 21.2597 146.341 21.2391 146.244 21.2447C146.149 21.2431 146.055 21.2649 145.97 21.3082C145.885 21.3515 145.812 21.4149 145.758 21.4929C145.654 21.6302 145.591 21.7945 145.577 21.9663L146.85 21.9665Z" fill="black"/>
<path d="M149.414 21.422C149.35 21.4112 149.286 21.4059 149.221 21.4061C149.124 21.4016 149.028 21.4214 148.941 21.4636C148.854 21.5058 148.779 21.5692 148.722 21.6479C148.616 21.8076 148.562 21.997 148.57 22.189V23.6258H147.963V21.7452C147.963 21.429 147.958 21.1415 147.948 20.8815H148.478L148.501 21.4091H148.518C148.575 21.2381 148.681 21.0874 148.822 20.9755C148.949 20.8807 149.103 20.8293 149.261 20.8288C149.312 20.8284 149.363 20.8321 149.414 20.8398V21.422Z" fill="black"/>
<path d="M176.015 20.1554C175.768 20.9294 175.411 21.6638 174.954 22.3357C174.315 23.2702 173.653 24.2007 172.607 24.2199C171.581 24.2392 171.251 23.6107 170.078 23.6107C168.905 23.6107 168.537 24.2011 167.566 24.2388C166.557 24.2769 165.789 23.2289 165.143 22.2985C163.827 20.3954 162.823 16.92 164.173 14.5763C164.489 14.0085 164.948 13.5328 165.504 13.1958C166.06 12.8589 166.694 12.6723 167.344 12.6545C168.335 12.6361 169.268 13.3202 169.874 13.3202C170.48 13.3202 171.614 12.4965 172.808 12.6177C173.361 12.6373 173.902 12.7847 174.388 13.0484C174.875 13.3121 175.294 13.6849 175.612 14.1376C175.112 14.444 174.697 14.8722 174.408 15.3821C174.118 15.8921 173.962 16.4672 173.955 17.0536C173.957 17.7152 174.153 18.3616 174.519 18.9128C174.885 19.464 175.405 19.8957 176.013 20.1545M172.026 11.3588C172.605 10.681 172.892 9.80112 172.824 8.91205C171.95 8.99505 171.142 9.41053 170.566 10.0726C170.278 10.3929 170.058 10.7679 169.918 11.1752C169.779 11.5825 169.722 12.0137 169.753 12.4431C170.19 12.4493 170.622 12.3547 171.016 12.1667C171.41 11.9788 171.755 11.702 172.026 11.3588Z" fill="black"/>
<path d="M185.185 17.1242H184.544L184.191 16.0188H182.969L182.633 17.1242H182.008L183.22 13.3621H183.968L185.185 17.1242ZM184.085 15.554L183.767 14.572C183.734 14.4715 183.671 14.2351 183.578 13.8627H183.566C183.529 14.0227 183.469 14.2592 183.387 14.572L183.072 15.554H184.085Z" fill="black"/>
<path d="M187.841 17.1242H187.312L187.278 16.7106H187.267C187.182 16.8616 187.056 16.9859 186.904 17.0697C186.752 17.1535 186.58 17.1935 186.407 17.1852C186.288 17.1906 186.17 17.1711 186.059 17.1278C185.949 17.0845 185.849 17.0185 185.765 16.934C185.557 16.6721 185.455 16.3409 185.481 16.0071V14.4105H186.084V15.9066C186.084 16.4276 186.263 16.688 186.622 16.6877C186.745 16.6927 186.866 16.6571 186.967 16.5865C187.068 16.5159 187.142 16.4142 187.18 16.2969C187.207 16.2237 187.22 16.1462 187.219 16.0682V14.4082H187.822V16.3396C187.819 16.5998 187.827 16.8595 187.841 17.1242Z" fill="black"/>
<path d="M189.913 14.8632H189.249V16.1808C189.249 16.5154 189.366 16.6828 189.6 16.6828C189.69 16.6849 189.781 16.6757 189.869 16.6554L189.886 17.1121C189.735 17.1621 189.576 17.1851 189.417 17.1799C189.314 17.1857 189.211 17.1692 189.114 17.1316C189.018 17.0939 188.931 17.0361 188.859 16.9618C188.705 16.7509 188.633 16.491 188.658 16.231V14.8632H188.262V14.4114H188.658V13.9148L189.25 13.7353V14.4083H189.914L189.913 14.8632Z" fill="black"/>
<path d="M192.832 15.7456C192.847 16.121 192.719 16.4879 192.473 16.7725C192.348 16.9095 192.194 17.0175 192.022 17.0888C191.851 17.1601 191.666 17.193 191.48 17.1852C191.302 17.1932 191.125 17.1618 190.96 17.0932C190.796 17.0247 190.648 16.9207 190.529 16.7886C190.288 16.513 190.161 16.1559 190.174 15.79C190.159 15.4118 190.29 15.0424 190.54 14.7582C190.665 14.623 190.818 14.5168 190.989 14.4471C191.159 14.3773 191.343 14.3457 191.527 14.3544C191.706 14.3472 191.885 14.3788 192.05 14.4473C192.216 14.5158 192.365 14.6194 192.487 14.751C192.724 15.0267 192.848 15.3823 192.832 15.7456ZM192.207 15.759C192.214 15.535 192.157 15.3136 192.045 15.1198C191.994 15.0207 191.916 14.9378 191.821 14.8807C191.725 14.8236 191.615 14.7945 191.504 14.7968C191.391 14.7933 191.279 14.8218 191.181 14.8789C191.083 14.936 191.004 15.0195 190.951 15.1198C190.838 15.3176 190.782 15.5429 190.789 15.7707C190.783 15.9948 190.839 16.2162 190.951 16.4104C191.004 16.5094 191.083 16.5919 191.179 16.6488C191.276 16.7057 191.386 16.7348 191.498 16.733C191.61 16.7338 191.72 16.7036 191.815 16.6457C191.911 16.5878 191.989 16.5045 192.04 16.4051C192.155 16.2097 192.213 15.9859 192.207 15.759Z" fill="black"/>
<path d="M194.764 14.9417C194.701 14.9303 194.638 14.9247 194.574 14.9251C194.478 14.9205 194.383 14.9401 194.296 14.982C194.21 15.024 194.136 15.0869 194.08 15.1651C193.975 15.3234 193.923 15.5108 193.93 15.7007V17.1247H193.328V15.2656C193.328 14.953 193.322 14.6689 193.31 14.4132H193.835L193.857 14.9327H193.874C193.931 14.7634 194.036 14.6143 194.175 14.5029C194.301 14.4088 194.454 14.3577 194.611 14.3571C194.662 14.3568 194.712 14.3606 194.762 14.3683L194.764 14.9417Z" fill="black"/>
<path d="M195.875 13.6016C195.877 13.6505 195.868 13.6992 195.85 13.7445C195.832 13.7898 195.804 13.8307 195.769 13.8645C195.694 13.9328 195.596 13.9689 195.495 13.965C195.448 13.9663 195.401 13.9577 195.358 13.9399C195.314 13.922 195.274 13.8953 195.241 13.8614C195.208 13.8275 195.181 13.787 195.163 13.7424C195.145 13.6978 195.137 13.6501 195.138 13.6021C195.137 13.5543 195.145 13.5067 195.164 13.4625C195.182 13.4183 195.209 13.3784 195.244 13.3455C195.315 13.2785 195.409 13.2424 195.507 13.245C195.604 13.2424 195.698 13.2786 195.769 13.3455C195.803 13.3782 195.831 13.418 195.849 13.4622C195.868 13.5063 195.876 13.5538 195.875 13.6016ZM195.808 17.1242H195.205V14.411H195.808V17.1242Z" fill="black"/>
<path d="M198.145 16.3427C198.149 16.4589 198.126 16.5744 198.078 16.6801C198.029 16.7858 197.957 16.8787 197.866 16.9515C197.644 17.1154 197.372 17.1964 197.096 17.1803C196.822 17.1888 196.551 17.1253 196.309 16.9963L196.437 16.55C196.637 16.6736 196.867 16.7391 197.102 16.7393C197.41 16.7393 197.565 16.6261 197.565 16.3997C197.567 16.3534 197.558 16.3074 197.541 16.2644C197.524 16.2215 197.498 16.1828 197.464 16.1507C197.359 16.0643 197.238 15.999 197.108 15.9582C196.624 15.7788 196.382 15.5183 196.382 15.1767C196.38 15.0651 196.403 14.9545 196.45 14.8531C196.496 14.7516 196.565 14.6618 196.651 14.5904C196.85 14.427 197.103 14.3435 197.36 14.3562C197.599 14.3493 197.835 14.4051 198.046 14.5182L197.918 14.9484C197.752 14.8465 197.56 14.7923 197.365 14.7918C197.259 14.7854 197.154 14.8173 197.07 14.8815C197.035 14.909 197.008 14.9439 196.99 14.9836C196.972 15.0232 196.963 15.0666 196.964 15.1103C196.963 15.1546 196.973 15.1985 196.992 15.2383C197.011 15.2782 197.04 15.3129 197.075 15.3396C197.187 15.4203 197.312 15.4823 197.444 15.5231C197.911 15.7007 198.145 15.9739 198.145 16.3427Z" fill="black"/>
<path d="M199.324 13.6016C199.326 13.6504 199.317 13.6991 199.299 13.7444C199.281 13.7897 199.253 13.8306 199.218 13.8645C199.144 13.9327 199.045 13.9688 198.944 13.965C198.897 13.9662 198.85 13.9577 198.806 13.9398C198.763 13.922 198.723 13.8953 198.69 13.8614C198.656 13.8275 198.629 13.787 198.612 13.7424C198.594 13.6978 198.585 13.6501 198.587 13.6021C198.585 13.5543 198.594 13.5067 198.612 13.4624C198.631 13.4182 198.658 13.3783 198.693 13.3455C198.728 13.3123 198.769 13.2864 198.814 13.2692C198.859 13.2519 198.907 13.2437 198.955 13.245C199.052 13.2425 199.147 13.2786 199.218 13.3455C199.252 13.3783 199.28 13.4181 199.298 13.4623C199.316 13.5064 199.325 13.5539 199.324 13.6016ZM199.257 17.1242H198.654V14.411H199.257L199.257 17.1242Z" fill="black"/>
<path d="M202.171 15.6397C202.172 15.7313 202.165 15.8228 202.148 15.9129H200.34C200.336 16.0283 200.358 16.1431 200.403 16.2492C200.448 16.3553 200.517 16.4501 200.603 16.5271C200.771 16.6588 200.98 16.7259 201.194 16.7164C201.443 16.7199 201.691 16.6764 201.925 16.5881L202.02 17.0071C201.732 17.1248 201.422 17.1817 201.11 17.1745C200.928 17.1845 200.746 17.1567 200.576 17.0928C200.405 17.0288 200.25 16.9302 200.119 16.803C199.996 16.6691 199.901 16.5121 199.84 16.3411C199.778 16.1701 199.751 15.9886 199.76 15.8071C199.747 15.4374 199.866 15.0751 200.096 14.7851C200.209 14.6434 200.353 14.5302 200.518 14.4547C200.683 14.3792 200.863 14.3434 201.044 14.3504C201.217 14.3408 201.39 14.3758 201.545 14.4519C201.7 14.528 201.834 14.6427 201.932 14.7851C202.098 15.0384 202.182 15.337 202.171 15.6397ZM201.596 15.4836C201.604 15.3209 201.563 15.1595 201.479 15.0202C201.429 14.9388 201.358 14.8724 201.273 14.8281C201.189 14.7839 201.094 14.7634 200.999 14.769C200.905 14.7675 200.812 14.789 200.728 14.8317C200.644 14.8744 200.573 14.937 200.519 15.0139C200.415 15.1502 200.353 15.3131 200.339 15.4836H201.596Z" fill="black"/>
<path d="M204.091 14.9417C204.028 14.9303 203.965 14.9247 203.901 14.9251C203.805 14.9205 203.71 14.9401 203.624 14.982C203.538 15.024 203.463 15.0869 203.408 15.1651C203.302 15.3233 203.25 15.5108 203.257 15.7007V17.1247H202.654V15.2656C202.654 14.953 202.649 14.6689 202.637 14.4132H203.162L203.184 14.9327H203.201C203.258 14.7635 203.362 14.6144 203.502 14.5029C203.628 14.4088 203.781 14.3576 203.938 14.3571C203.988 14.3568 204.039 14.3606 204.089 14.3683L204.091 14.9417Z" fill="black"/>
<path d="M206.083 14.8632H205.419V16.1808C205.419 16.5154 205.536 16.6828 205.771 16.6828C205.862 16.6849 205.952 16.6757 206.04 16.6554L206.057 17.1121C205.906 17.1623 205.747 17.1852 205.587 17.1799C205.484 17.1858 205.381 17.1694 205.285 17.1318C205.189 17.0941 205.102 17.0361 205.03 16.9618C204.876 16.7511 204.804 16.491 204.829 16.231V14.8632H204.433V14.4114H204.829V13.9148L205.421 13.7353V14.4083H206.085L206.083 14.8632Z" fill="black"/>
<path d="M208.758 15.6397C208.759 15.7313 208.752 15.8228 208.736 15.9129H206.926C206.923 16.0283 206.944 16.143 206.99 16.2491C207.035 16.3552 207.103 16.45 207.189 16.5271C207.357 16.6586 207.567 16.7257 207.78 16.7164C208.029 16.7199 208.277 16.6764 208.511 16.5881L208.606 17.0071C208.317 17.1247 208.008 17.1817 207.697 17.1745C207.515 17.1845 207.333 17.1567 207.162 17.0927C206.991 17.0288 206.836 16.9301 206.705 16.803C206.582 16.6691 206.487 16.5121 206.426 16.3411C206.364 16.1701 206.337 15.9886 206.346 15.8071C206.333 15.4374 206.452 15.0751 206.682 14.7851C206.795 14.6434 206.939 14.5302 207.104 14.4547C207.269 14.3792 207.449 14.3434 207.63 14.3504C207.803 14.3408 207.975 14.3758 208.131 14.4519C208.286 14.528 208.42 14.6427 208.518 14.7851C208.684 15.0383 208.768 15.3369 208.758 15.6397ZM208.182 15.4836C208.19 15.3209 208.149 15.1595 208.065 15.0202C208.015 14.9388 207.944 14.8723 207.86 14.8281C207.775 14.7838 207.681 14.7634 207.585 14.769C207.491 14.7674 207.399 14.789 207.315 14.8317C207.231 14.8744 207.16 14.937 207.106 15.0139C207.002 15.1502 206.94 15.3132 206.926 15.4836H208.182Z" fill="black"/>
<path d="M210.727 14.9417C210.665 14.9303 210.602 14.9247 210.539 14.9251C210.443 14.9204 210.347 14.9399 210.261 14.9819C210.175 15.0238 210.1 15.0868 210.045 15.1651C209.94 15.3233 209.887 15.5108 209.894 15.7007V17.1247H209.291V15.2656C209.291 14.953 209.286 14.6689 209.275 14.4132H209.8L209.822 14.9327H209.838C209.895 14.7635 210 14.6143 210.139 14.5029C210.265 14.4089 210.418 14.3578 210.575 14.3571C210.625 14.3568 210.676 14.3606 210.726 14.3683L210.727 14.9417Z" fill="black"/>
<path d="M185.118 23.5005H184.515V21.8034H182.885V23.5005H182.282V19.7383H182.885V21.2731H184.515V19.7383H185.118V23.5005Z" fill="black"/>
<path d="M187.904 23.5H187.363L187.318 23.186H187.3C187.209 23.3087 187.089 23.4071 186.951 23.4724C186.813 23.5377 186.661 23.5678 186.508 23.5602C186.393 23.5651 186.279 23.5457 186.172 23.5034C186.065 23.461 185.969 23.3966 185.888 23.3143C185.818 23.2408 185.764 23.1542 185.727 23.0594C185.691 22.9646 185.673 22.8636 185.676 22.7621C185.67 22.6096 185.706 22.4585 185.78 22.3248C185.853 22.1911 185.961 22.0797 186.093 22.0026C186.45 21.8088 186.856 21.7199 187.262 21.7459V21.6957C187.262 21.3368 187.074 21.1573 186.698 21.1573C186.447 21.1527 186.2 21.2228 185.989 21.3588L185.866 20.9622C186.149 20.7983 186.472 20.7171 186.798 20.728C187.509 20.728 187.865 21.1019 187.864 21.8496V22.8495C187.861 23.0671 187.874 23.2846 187.904 23.5ZM186.637 20.0999C186.638 20.1412 186.631 20.1824 186.616 20.221C186.601 20.2595 186.579 20.2946 186.55 20.3242C186.522 20.3534 186.489 20.3765 186.452 20.3919C186.415 20.4074 186.375 20.4149 186.335 20.414C186.294 20.4146 186.254 20.4068 186.216 20.3909C186.179 20.3751 186.145 20.3516 186.117 20.322C186.088 20.2931 186.065 20.2587 186.05 20.2208C186.035 20.1828 186.027 20.1422 186.028 20.1013C186.027 20.0605 186.035 20.02 186.05 19.9822C186.065 19.9444 186.088 19.9101 186.117 19.8814C186.146 19.8519 186.18 19.8284 186.218 19.8126C186.256 19.7968 186.297 19.7889 186.338 19.7895C186.378 19.7883 186.417 19.7959 186.454 19.8118C186.491 19.8277 186.524 19.8515 186.55 19.8814C186.606 19.9404 186.637 20.0187 186.637 20.0999ZM187.278 22.5674V22.1483C186.609 22.1379 186.274 22.3203 186.274 22.6957C186.27 22.754 186.278 22.8126 186.298 22.8675C186.318 22.9224 186.35 22.9723 186.391 23.0137C186.473 23.0856 186.578 23.1235 186.687 23.1196C186.821 23.1196 186.952 23.0754 187.058 22.994C187.167 22.9182 187.242 22.8033 187.268 22.6732C187.275 22.6386 187.279 22.6028 187.278 22.5674ZM187.686 20.0999C187.687 20.1412 187.68 20.1823 187.666 20.2209C187.651 20.2594 187.628 20.2945 187.6 20.3242C187.571 20.3537 187.537 20.3768 187.499 20.3923C187.461 20.4077 187.42 20.4151 187.379 20.414C187.339 20.4149 187.298 20.4071 187.261 20.3912C187.224 20.3754 187.191 20.3518 187.164 20.322C187.136 20.2927 187.114 20.2581 187.099 20.2203C187.084 20.1824 187.077 20.142 187.077 20.1013C187.077 20.0605 187.084 20.02 187.1 19.9822C187.115 19.9445 187.138 19.9102 187.167 19.8814C187.196 19.8511 187.231 19.8272 187.269 19.8113C187.308 19.7955 187.35 19.788 187.391 19.7895C187.431 19.7882 187.471 19.7958 187.507 19.8117C187.544 19.8276 187.576 19.8514 187.603 19.8814C187.658 19.9408 187.688 20.0191 187.686 20.0999Z" fill="black"/>
<path d="M190.885 23.5001H190.282V21.9429C190.282 21.4626 190.1 21.2224 189.735 21.2224C189.652 21.22 189.57 21.2365 189.494 21.2708C189.419 21.3051 189.352 21.3562 189.299 21.4202C189.189 21.5503 189.129 21.7161 189.132 21.8868V23.5018H188.53V21.5651C188.53 21.3259 188.522 21.067 188.507 20.7886H189.035L189.063 21.2076H189.08C189.154 21.0737 189.262 20.9618 189.394 20.8832C189.558 20.7825 189.748 20.7303 189.94 20.7325C190.057 20.7289 190.172 20.7488 190.281 20.7911C190.389 20.8333 190.488 20.897 190.571 20.9783C190.682 21.0984 190.767 21.2399 190.821 21.3943C190.875 21.5487 190.897 21.7125 190.885 21.8756V23.5001Z" fill="black"/>
<path d="M193.959 23.5H193.424L193.396 23.0644H193.379C193.299 23.2242 193.174 23.3567 193.019 23.4452C192.864 23.5337 192.686 23.5742 192.508 23.5615C192.352 23.5641 192.197 23.5307 192.056 23.464C191.915 23.3972 191.791 23.2989 191.693 23.1766C191.469 22.8931 191.354 22.538 191.37 22.1766C191.352 21.7898 191.478 21.41 191.723 21.1102C191.827 20.9892 191.957 20.8925 192.102 20.827C192.248 20.7614 192.406 20.7285 192.565 20.7307C192.715 20.7157 192.866 20.7422 193.002 20.8072C193.137 20.8722 193.252 20.9734 193.334 21.0995V19.5418H193.937V22.7683C193.937 23.033 193.945 23.2771 193.959 23.5ZM193.334 22.3556V21.9029C193.336 21.8396 193.33 21.7762 193.318 21.7141C193.286 21.5717 193.209 21.4433 193.099 21.348C192.988 21.2497 192.843 21.1968 192.695 21.2C192.591 21.1967 192.488 21.2197 192.395 21.2667C192.303 21.3137 192.224 21.3834 192.165 21.4691C192.029 21.6715 191.961 21.912 191.972 22.1555C191.961 22.3876 192.026 22.6168 192.157 22.8087C192.216 22.8939 192.294 22.9631 192.386 23.0101C192.478 23.0571 192.581 23.0804 192.684 23.0779C192.775 23.0805 192.866 23.0615 192.949 23.0226C193.032 22.9836 193.104 22.9257 193.16 22.8536C193.277 22.7143 193.338 22.5371 193.334 22.3556Z" fill="black"/>
<path d="M195.216 23.5H194.613V19.5423H195.216V23.5Z" fill="black"/>
<path d="M198.13 22.0156C198.131 22.1071 198.123 22.1986 198.107 22.2888H196.298C196.295 22.4041 196.316 22.5189 196.362 22.625C196.407 22.7311 196.475 22.826 196.561 22.9029C196.729 23.0343 196.939 23.1014 197.152 23.0922C197.402 23.0957 197.65 23.0522 197.883 22.9639L197.979 23.383C197.69 23.5005 197.38 23.5575 197.069 23.5503C196.887 23.5603 196.705 23.5325 196.534 23.4685C196.364 23.4046 196.208 23.3059 196.078 23.1788C195.955 23.0449 195.86 22.8879 195.798 22.7169C195.737 22.5459 195.71 22.3644 195.719 22.1829C195.706 21.8133 195.824 21.451 196.054 21.1609C196.167 21.0193 196.312 20.9061 196.477 20.8306C196.641 20.7551 196.822 20.7193 197.003 20.7262C197.175 20.7166 197.348 20.7516 197.503 20.8277C197.659 20.9038 197.792 21.0185 197.89 21.1609C198.057 21.4141 198.14 21.7127 198.13 22.0156ZM197.555 21.859C197.562 21.6965 197.522 21.5353 197.437 21.396C197.388 21.3145 197.317 21.2481 197.232 21.2039C197.148 21.1596 197.053 21.1392 196.957 21.1448C196.863 21.1432 196.77 21.1647 196.687 21.2074C196.603 21.2501 196.531 21.3127 196.477 21.3897C196.374 21.5259 196.312 21.6887 196.297 21.859H197.555Z" fill="black"/>
<path d="M200.05 21.3197C199.987 21.3083 199.924 21.3028 199.86 21.3031C199.765 21.2985 199.669 21.318 199.583 21.36C199.497 21.4019 199.422 21.4649 199.367 21.5432C199.262 21.7014 199.209 21.8888 199.216 22.0788V23.5027H198.614V21.6436C198.614 21.3296 198.607 21.0465 198.597 20.7913H199.121L199.144 21.3108H199.161C199.218 21.1416 199.322 20.9924 199.462 20.881C199.588 20.7869 199.74 20.7357 199.897 20.7352C199.948 20.7348 199.998 20.7386 200.048 20.7464L200.05 21.3197Z" fill="black"/>
</svg>
