<svg width="267" height="43" viewBox="0 0 267 43" fill="none" xmlns="http://www.w3.org/2000/svg">
<path d="M3.70993 27.5715C3.70993 28.1978 3.00611 28.7031 2.13798 28.7031C1.26985 28.7031 0.565918 28.1963 0.565918 27.5715V13.6636C0.565918 13.0373 1.27173 12.5324 2.14033 12.5324C3.00894 12.5324 3.7104 13.0388 3.7104 13.6636V14.3101H3.7725C4.06637 13.7864 4.49678 13.3522 5.01783 13.0537C5.53887 12.7552 6.1311 12.6035 6.7315 12.6148C7.29209 12.627 7.84105 12.7767 8.33014 13.0509C8.81924 13.3251 9.23349 13.7153 9.5363 14.1873C9.91601 13.6836 10.4107 13.278 10.9791 13.0045C11.5475 12.7309 12.173 12.5973 12.8036 12.6148C14.376 12.6148 16.2241 13.6323 16.2241 16.4376V27.571C16.2241 28.1973 15.5206 28.7026 14.652 28.7026C13.7834 28.7026 13.0801 28.1958 13.0801 27.571V17.6082C13.0801 16.4679 12.5251 15.7583 11.5385 15.7583C10.3669 15.7583 9.96655 16.5291 9.96655 17.9166V27.5705C9.96655 28.1968 9.26309 28.7022 8.39448 28.7022C7.52587 28.7022 6.82159 28.1954 6.82159 27.5705V17.6078C6.82159 16.4674 6.26711 15.7578 5.27999 15.7578C4.10836 15.7578 3.70746 16.5286 3.70746 17.9161L3.70993 27.5715Z" fill="#AF0D21"/>
<path d="M32.6962 17.5475C32.6962 16.3759 33.2817 15.7597 34.2379 15.7597C35.1942 15.7597 35.7795 16.346 35.7795 17.6102C35.7795 18.394 36.4829 18.7418 37.3515 18.7418C38.2201 18.7418 38.9225 18.234 38.9225 17.6087C38.9225 14.7114 37.1351 12.6153 34.2369 12.6153C33.4125 12.5759 32.5934 12.7652 31.87 13.1623C31.1465 13.5595 30.547 14.1489 30.1377 14.8656C29.6933 15.8624 29.4924 16.9506 29.5519 18.0404V23.5001C29.4925 24.5897 29.6933 25.6778 30.1377 26.6744C30.547 27.3911 31.1465 27.9805 31.87 28.3777C32.5934 28.7748 33.4125 28.9641 34.2369 28.9247C37.1347 28.9247 38.9225 26.8291 38.9225 23.9313C38.9225 23.305 38.2196 22.7982 37.3515 22.7982C36.4834 22.7982 35.7795 23.1456 35.7795 23.9299C35.7795 25.194 35.1923 25.7803 34.2379 25.7803C33.2836 25.7803 32.6962 25.1641 32.6962 23.9925V17.5475Z" fill="#AF0D21"/>
<path d="M66.7769 12.571V10.2898C66.7769 9.61153 67.1141 9.21118 67.7014 9.21118L68.227 9.21457C68.8176 9.21457 69.2979 8.55984 69.2979 7.73845C69.2979 6.91705 68.8162 6.25127 68.227 6.25127H67.6701C65.6361 6.25127 63.6319 7.42195 63.6319 10.4426V12.5695H61.8543C61.3643 12.5695 60.9664 13.126 60.9664 13.8072C60.9664 14.4884 61.3638 15.0381 61.8543 15.0381H63.6319V27.5734C63.6319 28.1997 64.3359 28.705 65.204 28.705C66.0721 28.705 66.7759 28.1982 66.7759 27.5734V15.0381H70.6034V27.5734C70.6034 28.1997 71.3078 28.705 72.176 28.705C73.0441 28.705 73.7474 28.1982 73.7474 27.5734V15.0381L75.6595 15.0351C76.1495 15.0351 76.5469 14.4831 76.5469 13.8018C76.5469 13.1206 76.1495 12.5715 75.6591 12.5715H73.7479V10.2903C73.7479 9.612 74.0851 9.21168 74.6728 9.21168L75.1985 9.21504C75.7901 9.21504 76.2695 8.56034 76.2695 7.73895C76.2695 6.91755 75.7877 6.25174 75.1985 6.25174H74.642C72.6071 6.25174 70.6034 7.42242 70.6034 10.443V12.57L66.7769 12.571Z" fill="#AF0D21"/>
<path d="M80.9122 13.7113C80.9122 13.085 80.2078 12.5796 79.3401 12.5796C78.4725 12.5796 77.7682 13.0865 77.7682 13.7113V27.5714C77.7682 28.1977 78.472 28.7031 79.3401 28.7031C80.2082 28.7031 80.9122 28.1968 80.9122 27.5714V13.7113Z" fill="#AF0D21"/>
<path d="M80.914 7.36075C80.914 6.73447 80.2097 6.2291 79.342 6.2291C78.4744 6.2291 77.7715 6.73593 77.7715 7.36125V8.05304C77.7715 8.67933 78.4753 9.18469 79.3435 9.18469C80.2116 9.18469 80.9154 8.67837 80.9154 8.05304L80.914 7.36075Z" fill="#AF0D21"/>
<path d="M86.1025 17.5119C86.1025 16.3403 86.6883 15.7241 87.6441 15.7241C88.5999 15.7241 89.1857 16.3108 89.1857 17.5745C89.1857 18.3588 89.8892 18.7061 90.7578 18.7061C91.6264 18.7061 92.3288 18.1989 92.3288 17.5736C92.3288 14.6767 90.5409 12.5796 87.6432 12.5796C86.8188 12.5403 85.9996 12.7297 85.2761 13.1269C84.5527 13.5242 83.9531 14.1137 83.5439 14.8304C83.0994 15.8272 82.8986 16.9154 82.958 18.0052V23.5006C82.8986 24.5902 83.0995 25.6783 83.5439 26.6749C83.9532 27.3915 84.5528 27.981 85.2762 28.3781C85.9997 28.7752 86.8188 28.9646 87.6432 28.9252C90.5409 28.9252 92.3288 26.8296 92.3288 23.9318C92.3288 23.3055 91.6264 22.7987 90.7578 22.7987C89.8892 22.7987 89.1857 23.147 89.1857 23.9303C89.1857 25.1945 88.5989 25.7808 87.6441 25.7808C86.6893 25.7808 86.1025 25.1646 86.1025 23.993V17.5119Z" fill="#AF0D21"/>
<path d="M36.4102 42.1336C41.3299 37.7934 44.5374 30.2765 44.5374 21.6921C44.5374 12.2318 40.5986 4.03713 34.8209 0C42.6384 4.04002 47.4723 12.1784 47.4723 21.6454C47.4801 25.7114 46.4724 29.715 44.5407 33.2928C42.609 36.8707 39.8141 39.9095 36.4102 42.1336Z" fill="black"/>
<path d="M51.5537 34.7646H52.1998V32.6039C52.1998 32.3182 52.2822 32.1607 52.5236 32.1607C52.7264 32.1607 52.8401 32.3052 52.8401 32.5403V34.7646H53.4871V32.6039C53.4871 32.3182 53.5695 32.1607 53.8098 32.1607C54.0131 32.1607 54.1268 32.3052 54.1268 32.5403V34.7646H54.7729V32.2994C54.7849 32.2003 54.7756 32.0998 54.7456 32.0046C54.7156 31.9094 54.6658 31.8216 54.5992 31.7472C54.5326 31.6729 54.4509 31.6136 54.3596 31.5733C54.2682 31.533 54.1694 31.5127 54.0695 31.5137C53.9398 31.51 53.811 31.5375 53.6941 31.5938C53.5772 31.6502 53.4755 31.7337 53.3975 31.8374C53.3351 31.7402 53.2497 31.6597 53.1488 31.6033C53.048 31.5468 52.9349 31.516 52.8194 31.5137C52.6959 31.5114 52.574 31.5427 52.4669 31.6042C52.3598 31.6658 52.2712 31.7551 52.2108 31.8629H52.1979V31.5517H51.5518L51.5537 34.7646Z" fill="black"/>
<path fill-rule="evenodd" clip-rule="evenodd" d="M57.6375 34.7646H58.2839V32.5283C58.2967 32.3958 58.2808 32.262 58.2372 32.1362C58.1936 32.0104 58.1235 31.8955 58.0315 31.7993C57.9395 31.703 57.8279 31.6278 57.7042 31.5786C57.5805 31.5294 57.4476 31.5074 57.3146 31.5142C57.1851 31.5103 57.0561 31.5324 56.9353 31.5793C56.8145 31.6261 56.7043 31.6967 56.6113 31.7868C56.432 31.9757 56.3282 32.2237 56.3194 32.4839H56.9457C56.9582 32.395 57.0021 32.3136 57.0695 32.2543C57.1369 32.195 57.2234 32.1618 57.3132 32.1607C57.5541 32.1607 57.636 32.325 57.636 32.5408V32.878C57.503 32.8713 57.4138 32.8592 57.3257 32.8592C56.5144 32.8592 56.3049 33.2138 56.3049 33.949C56.3049 34.6586 56.7047 34.8046 57.0025 34.8046C57.1299 34.8069 57.2554 34.7737 57.3651 34.7088C57.4747 34.6439 57.5642 34.5498 57.6235 34.437H57.636L57.6375 34.7646ZM57.6375 33.8208C57.6375 34.0805 57.5044 34.2327 57.2891 34.2327C57.0738 34.2327 56.9519 34.0675 56.9519 33.8208C56.9519 33.4783 57.1802 33.3646 57.4587 33.3646C57.5183 33.3653 57.5776 33.3718 57.636 33.3839L57.6375 33.8208Z" fill="black"/>
<path d="M60.5496 32.5277C60.5496 32.2869 60.67 32.1602 60.8671 32.1602C61.0641 32.1602 61.1836 32.2806 61.1836 32.5403H61.8301C61.842 32.4078 61.8258 32.2744 61.7825 32.1487C61.7391 32.023 61.6698 31.9079 61.5788 31.8109C61.4877 31.714 61.3772 31.6374 61.2545 31.5863C61.1317 31.5351 60.9995 31.5105 60.8666 31.5141C60.6971 31.5059 60.5286 31.5448 60.3798 31.6264C60.231 31.708 60.1077 31.8293 60.0235 31.9766C59.9321 32.1816 59.8909 32.4053 59.9031 32.6294V33.6893C59.8909 33.9135 59.9322 34.1374 60.0235 34.3425C60.1077 34.4899 60.231 34.6111 60.3798 34.6927C60.5286 34.7744 60.6971 34.8132 60.8666 34.805C60.9971 34.8087 61.127 34.7853 61.248 34.7362C61.369 34.6871 61.4784 34.6134 61.5695 34.5198C61.7406 34.3332 61.8336 34.088 61.8292 33.8348H61.1826C61.1701 33.9745 61.1128 34.159 60.8661 34.159C60.8234 34.1635 60.7802 34.1583 60.7397 34.1439C60.6992 34.1296 60.6623 34.1064 60.6319 34.076C60.6015 34.0457 60.5782 34.0089 60.5638 33.9684C60.5494 33.9279 60.5443 33.8847 60.5487 33.842L60.5496 32.5277Z" fill="black"/>
<path d="M65.0984 32.4517C65.1026 32.3293 65.082 32.2073 65.0378 32.0931C64.9935 31.9789 64.9265 31.8749 64.841 31.7872C64.7555 31.6996 64.6531 31.6302 64.54 31.5831C64.4269 31.5361 64.3055 31.5125 64.183 31.5137C64.0585 31.511 63.9347 31.5334 63.819 31.5794C63.7033 31.6255 63.598 31.6943 63.5093 31.7817C63.4207 31.8692 63.3504 31.9735 63.3028 32.0886C63.2552 32.2037 63.2312 32.3271 63.2321 32.4517C63.2299 32.6505 63.2923 32.8446 63.4102 33.0047C63.528 33.1648 63.6949 33.2822 63.8854 33.3391L64.1956 33.4532C64.4428 33.5496 64.5193 33.6686 64.5193 33.8459C64.5191 33.8927 64.5095 33.939 64.4911 33.982C64.4727 34.025 64.4459 34.0639 64.4123 34.0964C64.3786 34.1289 64.3387 34.1544 64.295 34.1713C64.2514 34.1881 64.2048 34.1961 64.158 34.1947C63.9171 34.1947 63.8348 34.0111 63.8093 33.8329H63.2008C63.1961 33.961 63.2177 34.0887 63.2643 34.2081C63.311 34.3276 63.3817 34.4361 63.472 34.5271C63.5624 34.6181 63.6704 34.6895 63.7895 34.737C63.9086 34.7845 64.0362 34.807 64.1643 34.8031C64.2919 34.8047 64.4184 34.7806 64.5365 34.7324C64.6545 34.6841 64.7617 34.6125 64.8516 34.522C64.9414 34.4315 65.0122 34.3239 65.0596 34.2055C65.1071 34.0871 65.1303 33.9604 65.1279 33.8329C65.139 33.6328 65.0827 33.4348 64.9679 33.2706C64.8531 33.1064 64.6865 32.9855 64.4948 32.9272L64.1142 32.7754C63.8734 32.6791 63.842 32.5663 63.842 32.4464C63.8402 32.4039 63.8471 32.3616 63.8623 32.322C63.8775 32.2823 63.9007 32.2462 63.9304 32.2159C63.9601 32.1856 63.9958 32.1616 64.0351 32.1456C64.0744 32.1295 64.1166 32.1217 64.159 32.1226C64.2027 32.1211 64.2461 32.1287 64.2868 32.1447C64.3274 32.1607 64.3644 32.185 64.3953 32.2159C64.4262 32.2468 64.4505 32.2837 64.4665 32.3243C64.4825 32.365 64.49 32.4085 64.4885 32.4522L65.0984 32.4517Z" fill="black"/>
<path d="M72.0646 31.5522H71.3805L70.9951 33.5486H70.9831L70.6406 31.5522H70.1338L69.7724 33.5486H69.7599L69.3668 31.5522H68.6826L69.4429 34.7655H70.0138L70.3688 32.8578H70.3818L70.7369 34.7655H71.3072L72.0646 31.5522Z" fill="black"/>
<path fill-rule="evenodd" clip-rule="evenodd" d="M73.349 33.6874C73.3368 33.9116 73.3779 34.1354 73.4689 34.3406C73.5533 34.488 73.6767 34.6091 73.8256 34.6908C73.9744 34.7724 74.1429 34.8113 74.3125 34.8031C74.4819 34.8111 74.6503 34.7722 74.799 34.6906C74.9476 34.609 75.0709 34.4879 75.1551 34.3406C75.2463 34.1354 75.2875 33.9116 75.2755 33.6874V32.6275C75.2876 32.4035 75.2463 32.1797 75.1551 31.9747C75.0709 31.8275 74.9476 31.7064 74.799 31.6248C74.6503 31.5432 74.4819 31.5042 74.3125 31.5123C74.1429 31.5041 73.9744 31.543 73.8256 31.6246C73.6767 31.7062 73.5533 31.8274 73.4689 31.9747C73.3779 32.1798 73.3368 32.4035 73.349 32.6275V33.6874ZM73.9955 32.5278C73.9955 32.2869 74.1155 32.1602 74.3125 32.1602C74.5095 32.1602 74.629 32.2864 74.629 32.5278V33.7895C74.629 34.0304 74.5086 34.1571 74.3125 34.1571C74.1164 34.1571 73.9955 34.0299 73.9955 33.7895V32.5278Z" fill="black"/>
<path fill-rule="evenodd" clip-rule="evenodd" d="M76.8556 34.7646H77.5026V32.8573C77.4953 32.7672 77.5071 32.6765 77.5371 32.5912C77.5671 32.5058 77.6147 32.4278 77.6768 32.3621C77.739 32.2964 77.8143 32.2445 77.8978 32.2098C77.9814 32.1751 78.0712 32.1584 78.1616 32.1607C78.229 32.1602 78.2959 32.1732 78.3583 32.1988V31.5137C78.1973 31.5154 78.0383 31.5501 77.8911 31.6155C77.744 31.681 77.6117 31.7758 77.5026 31.8943V31.5517H76.8556V34.7646Z" fill="black"/>
<path d="M79.7265 34.7646H80.3735V33.8651L80.6842 33.3771L81.2676 34.7646H81.9705L81.045 32.8573L81.812 31.5513H81.1659L80.3865 32.9517H80.3735V30.2539H79.7265V34.7646Z" fill="black"/>
<path fill-rule="evenodd" clip-rule="evenodd" d="M87.4539 33.4022V32.5148C87.4627 32.3842 87.4442 32.2532 87.3994 32.1303C87.3546 32.0073 87.2846 31.8951 87.1938 31.8008C87.1031 31.7065 86.9936 31.6323 86.8725 31.5828C86.7513 31.5334 86.6212 31.5098 86.4904 31.5137C86.3209 31.5056 86.1524 31.5445 86.0037 31.6261C85.8549 31.7077 85.7315 31.8289 85.6473 31.9762C85.556 32.1812 85.5147 32.4049 85.5268 32.6289V33.6888C85.5148 33.913 85.5561 34.1369 85.6473 34.3421C85.7315 34.4894 85.8549 34.6105 86.0037 34.6921C86.1524 34.7738 86.3209 34.8127 86.4904 34.8046C86.6209 34.8083 86.7508 34.7849 86.8718 34.7358C86.9928 34.6867 87.1022 34.613 87.1932 34.5194C87.3648 34.333 87.4578 34.0876 87.4529 33.8343H86.8069C86.7943 33.974 86.7375 34.1585 86.4904 34.1585C86.4476 34.1629 86.4045 34.1577 86.364 34.1433C86.3236 34.1289 86.2869 34.1057 86.2565 34.0754C86.2262 34.045 86.2029 34.0083 86.1886 33.9678C86.1742 33.9274 86.169 33.8842 86.1734 33.8415V33.4041L87.4539 33.4022ZM86.1743 32.5278C86.1743 32.2869 86.2947 32.1602 86.4913 32.1602C86.6879 32.1602 86.8078 32.2864 86.8078 32.5278V32.8958H86.1743V32.5278Z" fill="black"/>
<path fill-rule="evenodd" clip-rule="evenodd" d="M90.2596 34.7646H90.9061V32.5283C90.9188 32.3957 90.9028 32.262 90.8592 32.1362C90.8156 32.0104 90.7454 31.8955 90.6533 31.7993C90.5613 31.703 90.4496 31.6277 90.3259 31.5785C90.2022 31.5294 90.0693 31.5074 89.9363 31.5142C89.8068 31.5104 89.6778 31.5325 89.557 31.5794C89.4362 31.6262 89.3261 31.6968 89.233 31.7868C89.0546 31.9761 88.9518 32.224 88.9439 32.4839H89.5702C89.5826 32.395 89.6266 32.3135 89.6941 32.2541C89.7615 32.1948 89.8479 32.1617 89.9378 32.1607C90.1786 32.1607 90.2611 32.325 90.2611 32.5408V32.878C90.1286 32.8713 90.0395 32.8592 89.9503 32.8592C89.1386 32.8592 88.9299 33.2138 88.9299 33.949C88.9299 34.6586 89.3288 34.8046 89.6265 34.8046C89.754 34.8069 89.8797 34.7737 89.9894 34.7088C90.0991 34.6439 90.1886 34.5498 90.248 34.437H90.2605L90.2596 34.7646ZM90.2596 33.8208C90.2596 34.0805 90.1271 34.2327 89.9118 34.2327C89.6964 34.2327 89.5746 34.0675 89.5746 33.8208C89.5746 33.4783 89.8029 33.3646 90.0818 33.3646C90.1414 33.3653 90.2007 33.3718 90.2591 33.3839L90.2596 33.8208Z" fill="black"/>
<path d="M94.2688 32.4517C94.2729 32.3293 94.2522 32.2074 94.208 32.0932C94.1637 31.979 94.0968 31.875 94.0113 31.7874C93.9258 31.6998 93.8234 31.6303 93.7103 31.5833C93.5973 31.5363 93.4759 31.5126 93.3535 31.5137C93.229 31.511 93.1052 31.5334 92.9896 31.5795C92.8739 31.6255 92.7687 31.6943 92.6801 31.7818C92.5915 31.8692 92.5213 31.9736 92.4738 32.0887C92.4263 32.2037 92.4024 32.3272 92.4035 32.4517C92.4012 32.6504 92.4635 32.8444 92.5812 33.0045C92.6989 33.1645 92.8655 33.282 93.0558 33.3391L93.3664 33.4532C93.6131 33.5496 93.6893 33.6686 93.6893 33.8459C93.6891 33.8927 93.6795 33.939 93.6612 33.9821C93.6428 34.0251 93.6159 34.0641 93.5822 34.0966C93.5485 34.1291 93.5087 34.1545 93.465 34.1714C93.4213 34.1882 93.3747 34.1962 93.3279 34.1947C93.0871 34.1947 93.0051 34.0111 92.9796 33.8329H92.3745C92.3697 33.961 92.3913 34.0887 92.4379 34.2082C92.4846 34.3276 92.5552 34.4363 92.6455 34.5272C92.7359 34.6182 92.844 34.6897 92.9631 34.7371C93.0822 34.7846 93.2099 34.8071 93.3381 34.8031C93.4656 34.8047 93.5921 34.7806 93.7102 34.7324C93.8282 34.6841 93.9354 34.6125 94.0253 34.522C94.1152 34.4315 94.1859 34.3239 94.2334 34.2055C94.2808 34.0871 94.304 33.9604 94.3016 33.8329C94.3126 33.6328 94.2561 33.4348 94.1413 33.2706C94.0264 33.1063 93.8598 32.9854 93.6681 32.9272L93.2875 32.7754C93.0466 32.6791 93.0147 32.5663 93.0147 32.4464C93.0129 32.404 93.0199 32.3617 93.0351 32.3221C93.0503 32.2825 93.0734 32.2464 93.1031 32.2161C93.1327 32.1857 93.1683 32.1618 93.2075 32.1457C93.2468 32.1297 93.2888 32.1218 93.3312 32.1226C93.3749 32.1211 93.4184 32.1287 93.4591 32.1447C93.4997 32.1607 93.5366 32.185 93.5675 32.2159C93.5984 32.2468 93.6227 32.2837 93.6387 32.3243C93.6547 32.365 93.6623 32.4085 93.6608 32.4522L94.2688 32.4517Z" fill="black"/>
<path fill-rule="evenodd" clip-rule="evenodd" d="M95.8249 34.7646H96.4719V31.5517H95.8249V34.7646ZM95.8249 30.899H96.4719V30.2524H95.8249V30.899Z" fill="black"/>
<path fill-rule="evenodd" clip-rule="evenodd" d="M99.9805 33.4022V32.5148C99.9894 32.3842 99.9709 32.2532 99.9261 32.1303C99.8813 32.0073 99.8112 31.8951 99.7205 31.8008C99.6298 31.7065 99.5203 31.6323 99.3992 31.5828C99.278 31.5334 99.1478 31.5098 99.017 31.5137C98.8476 31.5056 98.6792 31.5445 98.5304 31.6261C98.3817 31.7077 98.2586 31.8289 98.1744 31.9762C98.0832 32.1812 98.042 32.4049 98.054 32.6289V33.6888C98.042 33.913 98.0833 34.1369 98.1744 34.3421C98.2586 34.4894 98.3817 34.6105 98.5304 34.6922C98.6792 34.7738 98.8476 34.8127 99.017 34.8046C99.1477 34.8083 99.2778 34.7849 99.3989 34.7358C99.5201 34.6868 99.6297 34.613 99.7208 34.5194C99.892 34.3328 99.985 34.0875 99.9805 33.8343H99.334C99.3215 33.974 99.2642 34.1585 99.017 34.1585C98.9743 34.1629 98.9312 34.1577 98.8907 34.1433C98.8503 34.1289 98.8136 34.1057 98.7832 34.0754C98.7529 34.045 98.7296 34.0083 98.7152 33.9678C98.7008 33.9274 98.6957 33.8842 98.7001 33.8415V33.4041L99.9805 33.4022ZM98.7001 32.5278C98.7001 32.2869 98.821 32.1602 99.017 32.1602C99.2131 32.1602 99.334 32.2864 99.334 32.5278V32.8959H98.7001V32.5278Z" fill="black"/>
<path fill-rule="evenodd" clip-rule="evenodd" d="M101.562 34.7646H102.209V32.8573C102.201 32.7672 102.213 32.6764 102.243 32.5911C102.273 32.5057 102.321 32.4276 102.383 32.3619C102.445 32.2962 102.52 32.2443 102.604 32.2096C102.687 32.175 102.777 32.1583 102.868 32.1607C102.935 32.1602 103.002 32.1731 103.065 32.1988V31.5137C102.904 31.5155 102.745 31.5501 102.598 31.6156C102.451 31.681 102.318 31.7759 102.209 31.8943V31.5517H101.563L101.562 34.7646Z" fill="black"/>
<path fill-rule="evenodd" clip-rule="evenodd" d="M51.5634 23.4987C51.5039 24.5882 51.7045 25.6763 52.1487 26.673C52.5579 27.3897 53.1575 27.9793 53.8809 28.3766C54.6044 28.7738 55.4236 28.9632 56.248 28.9238C57.0725 28.9632 57.8918 28.7739 58.6154 28.3766C59.3389 27.9794 59.9385 27.3898 60.3477 26.673C60.7921 25.6764 60.9928 24.5882 60.9331 23.4987V18.0066C60.9928 16.9169 60.7921 15.8286 60.3477 14.8318C59.9384 14.1151 59.3389 13.5255 58.6154 13.1282C57.8918 12.731 57.0724 12.5416 56.248 12.5811C55.4236 12.5417 54.6044 12.7312 53.8809 13.1284C53.1575 13.5256 52.558 14.1151 52.1487 14.8318C51.7044 15.8287 51.5039 16.9169 51.5634 18.0066V23.4987ZM54.7073 17.5119C54.7073 16.3402 55.2928 15.724 56.249 15.724C57.2053 15.724 57.7906 16.3402 57.7906 17.5119V23.9915C57.7906 25.1631 57.2048 25.7798 56.249 25.7798C55.2932 25.7798 54.7073 25.1631 54.7073 23.9915V17.5119Z" fill="#AF0D21"/>
<path fill-rule="evenodd" clip-rule="evenodd" d="M21.3485 17.5119C21.3485 16.3403 21.9343 15.7241 22.8901 15.7241C23.8459 15.7241 24.4317 16.3403 24.4317 17.5119V24.0917C24.4317 25.2629 23.8464 25.8795 22.8901 25.8795C21.9339 25.8795 21.3485 25.2629 21.3485 24.0917V17.5119ZM18.221 24.903C18.1912 25.8089 18.4231 26.7042 18.8887 27.4818C19.1629 27.9457 19.5589 28.3256 20.0337 28.5804C20.5085 28.8352 21.044 28.9551 21.5821 28.9271C22.1935 28.9237 22.7904 28.7403 23.2983 28.3998C23.8061 28.0594 24.2025 27.5769 24.438 27.0126L24.4439 27.583C24.4439 28.1953 25.1471 28.6911 25.9979 28.6911C26.8487 28.6911 27.5747 28.1818 27.5747 27.5695V18.0057C27.6339 16.9159 27.4332 15.8278 26.989 14.8309C26.5796 14.1142 25.98 13.5246 25.2565 13.1274C24.5329 12.7302 23.7137 12.5408 22.8892 12.5801C22.0647 12.5408 21.2453 12.7302 20.5217 13.1274C19.7981 13.5246 19.1984 14.1142 18.789 14.8309C18.3452 15.8279 18.1445 16.916 18.2036 18.0057V24.2059C18.2036 24.4468 18.219 24.9011 18.2195 24.9035" fill="#AF0D21"/>
<path fill-rule="evenodd" clip-rule="evenodd" d="M96.8877 17.5114C96.8877 16.3398 97.474 15.7236 98.4293 15.7236C99.3846 15.7236 99.9709 16.3398 99.9709 17.5114V19.2992H96.8877V17.5114ZM98.4467 25.7808C98.2387 25.8012 98.0288 25.7755 97.8319 25.7054C97.6351 25.6353 97.4562 25.5226 97.3079 25.3753C97.1597 25.228 97.0459 25.0498 96.9746 24.8534C96.9033 24.6569 96.8763 24.4472 96.8955 24.2391L96.8877 21.7643H102.215C102.452 21.7655 102.679 21.6726 102.848 21.5061C103.017 21.3396 103.112 21.1129 103.114 20.876V17.4488C103.114 14.7056 101.326 12.5791 98.4284 12.5791C97.6041 12.5397 96.7849 12.729 96.0616 13.1261C95.3382 13.5233 94.7387 14.1128 94.3295 14.8294C93.8847 15.8261 93.6837 16.9144 93.7432 18.0042L93.7385 23.4996C93.6856 24.5911 93.8941 25.6793 94.3465 26.6739C94.7557 27.3907 95.3553 27.9804 96.0788 28.3776C96.8024 28.7748 97.6218 28.9642 98.4462 28.9247C99.0813 28.9429 99.7132 28.829 100.302 28.5903C100.891 28.3515 101.424 27.9931 101.867 27.5377C102.7 26.6311 103.152 25.4388 103.13 24.2078C103.13 23.5815 102.426 23.0762 101.558 23.0762C100.691 23.0762 99.9864 23.5835 99.9864 24.2088C99.9243 24.8871 99.6491 25.7808 98.4447 25.7808" fill="#AF0D21"/>
<path d="M134.994 25.6155C134.68 26.5993 134.225 27.5325 133.644 28.3863C132.833 29.5738 131.99 30.7568 130.662 30.7811C129.358 30.806 128.938 30.0067 127.448 30.0067C125.958 30.0067 125.489 30.7579 124.256 30.8057C122.974 30.8538 121.999 29.5222 121.18 28.3398C119.507 25.9208 118.23 21.5043 119.946 18.5257C120.348 17.8042 120.931 17.1997 121.638 16.7715C122.344 16.3433 123.149 16.106 123.975 16.0831C125.234 16.0598 126.42 16.9291 127.191 16.9291C127.961 16.9291 129.402 15.8826 130.92 16.0359C131.623 16.061 132.31 16.2485 132.928 16.5837C133.546 16.9188 134.078 17.3926 134.483 17.9678C134.391 18.0255 132.355 19.2106 132.377 21.6751C132.38 22.5157 132.629 23.3371 133.094 24.0375C133.559 24.7379 134.219 25.2867 134.993 25.6159M129.926 14.4373C130.662 13.5755 131.027 12.457 130.94 11.3269C129.829 11.4329 128.802 11.961 128.07 12.8022C127.44 13.5322 126.887 14.6985 127.037 15.8154C128.13 15.9 129.247 15.2592 129.926 14.4373Z" fill="black"/>
<path d="M146.684 21.7819H145.86L145.41 20.3667H143.842L143.411 21.7819H142.609L144.163 16.9575H145.122L146.684 21.7819ZM145.276 19.7695L144.866 18.5113C144.822 18.3823 144.741 18.0795 144.622 17.6031H144.608C144.56 17.808 144.483 18.1107 144.378 18.5113L143.978 19.7695H145.276Z" fill="black"/>
<path d="M150.131 21.7816H149.45L149.407 21.252H149.393C149.283 21.4453 149.122 21.6044 148.927 21.7117C148.732 21.8189 148.512 21.87 148.29 21.8594C148.137 21.8665 147.985 21.8415 147.843 21.7859C147.701 21.7304 147.573 21.6456 147.466 21.5371C147.198 21.201 147.067 20.7756 147.1 20.3469V18.2962H147.87V20.2192C147.87 20.8891 148.099 21.224 148.558 21.224C148.716 21.2307 148.872 21.1851 149.002 21.0944C149.131 21.0036 149.227 20.8726 149.275 20.7218C149.31 20.6276 149.327 20.5278 149.325 20.4275V18.2962H150.096V20.7781C150.096 21.1082 150.107 21.4429 150.13 21.7823" fill="black"/>
<path d="M152.804 18.8736H151.953V20.5678C151.953 20.998 152.103 21.2132 152.403 21.2134C152.518 21.2157 152.632 21.2042 152.744 21.1793L152.766 21.7631C152.572 21.8262 152.369 21.8551 152.165 21.8485C152.032 21.8562 151.9 21.8352 151.776 21.7871C151.652 21.7389 151.54 21.6646 151.448 21.5692C151.25 21.2983 151.158 20.9642 151.19 20.6303V18.8736H150.683V18.2955H151.193V17.6581L151.954 17.4293V18.2955H152.804L152.804 18.8736Z" fill="black"/>
<path d="M156.577 20.0116C156.597 20.4928 156.433 20.9634 156.119 21.3288C155.958 21.5047 155.76 21.6432 155.54 21.7347C155.32 21.8263 155.082 21.8686 154.844 21.8587C154.615 21.8687 154.387 21.8281 154.176 21.74C153.965 21.6519 153.776 21.5184 153.622 21.349C153.313 20.9951 153.151 20.537 153.167 20.0676C153.148 19.5821 153.316 19.1078 153.637 18.7428C153.797 18.5705 153.993 18.4351 154.212 18.346C154.43 18.257 154.665 18.2165 154.9 18.2273C155.13 18.2179 155.359 18.2585 155.572 18.3463C155.785 18.434 155.976 18.5669 156.133 18.7357C156.437 19.0888 156.596 19.5446 156.576 20.0106M155.774 20.0307C155.782 19.7431 155.71 19.4588 155.566 19.2096C155.501 19.0826 155.401 18.9766 155.278 18.9035C155.155 18.8304 155.015 18.7931 154.872 18.7957C154.726 18.7915 154.583 18.8281 154.458 18.9012C154.332 18.9744 154.23 19.0812 154.162 19.2096C154.017 19.4634 153.945 19.7525 153.954 20.0447C153.946 20.3324 154.018 20.6166 154.162 20.8659C154.229 20.9931 154.331 21.0991 154.455 21.1723C154.579 21.2455 154.721 21.283 154.865 21.2807C155.009 21.2819 155.15 21.2432 155.273 21.169C155.395 21.0947 155.495 20.9877 155.561 20.8601C155.709 20.6097 155.783 20.3228 155.775 20.0321" fill="black"/>
<path d="M159.116 18.9808C159.035 18.9671 158.953 18.9603 158.871 18.9607C158.748 18.9549 158.626 18.98 158.515 19.0337C158.405 19.0874 158.309 19.1679 158.238 19.268C158.102 19.4709 158.034 19.7116 158.043 19.9556V21.7816H157.272V19.3916C157.272 18.9896 157.266 18.6237 157.253 18.2939H157.927L157.955 18.9648H157.976C158.049 18.7472 158.184 18.5555 158.364 18.413C158.525 18.2923 158.721 18.2269 158.922 18.2266C158.987 18.2259 159.052 18.2307 159.116 18.2409L159.116 18.9808Z" fill="black"/>
<path d="M160.546 17.262C160.548 17.3247 160.537 17.3872 160.514 17.4453C160.49 17.5035 160.455 17.556 160.409 17.5994C160.314 17.6869 160.188 17.7332 160.059 17.7281C159.999 17.7296 159.939 17.7185 159.883 17.6957C159.827 17.6728 159.776 17.6386 159.734 17.5953C159.69 17.5517 159.656 17.4997 159.633 17.4424C159.61 17.385 159.6 17.3237 159.602 17.262C159.6 17.2006 159.611 17.1394 159.634 17.0826C159.658 17.0258 159.693 16.9747 159.738 16.9326C159.83 16.8495 159.95 16.8035 160.074 16.8035C160.198 16.8035 160.318 16.8495 160.41 16.9326C160.455 16.9748 160.49 17.0259 160.514 17.0827C160.537 17.1395 160.548 17.2006 160.546 17.262ZM160.46 21.7823H159.688V18.2962H160.459L160.46 21.7823Z" fill="black"/>
<path d="M163.448 20.7761C163.453 20.9248 163.424 21.0727 163.362 21.208C163.3 21.3434 163.207 21.4625 163.091 21.5559C162.807 21.766 162.458 21.8698 162.106 21.8492C161.755 21.8599 161.408 21.7789 161.098 21.6143L161.263 21.0441C161.52 21.1993 161.814 21.2813 162.113 21.281C162.509 21.281 162.706 21.1357 162.707 20.845C162.709 20.786 162.698 20.7272 162.676 20.6724C162.654 20.6176 162.621 20.568 162.578 20.5268C162.443 20.4157 162.288 20.3319 162.122 20.28C161.504 20.0512 161.195 19.7175 161.195 19.2789C161.192 19.1361 161.221 18.9945 161.281 18.8646C161.34 18.7346 161.427 18.6195 161.536 18.5277C161.792 18.3186 162.115 18.2116 162.445 18.2276C162.751 18.2186 163.055 18.2902 163.325 18.4352L163.16 18.9869C162.946 18.8572 162.702 18.7885 162.452 18.7882C162.316 18.7799 162.181 18.8206 162.072 18.903C162.028 18.9381 161.993 18.9828 161.969 19.0337C161.946 19.0845 161.934 19.1402 161.935 19.1962C161.934 19.2529 161.947 19.309 161.971 19.36C161.996 19.411 162.033 19.4553 162.078 19.4895C162.221 19.5935 162.38 19.6732 162.548 19.7255C163.148 19.9542 163.447 20.3048 163.447 20.7771" fill="black"/>
<path d="M165.031 17.262C165.033 17.3247 165.022 17.3872 164.999 17.4453C164.975 17.5035 164.94 17.556 164.894 17.5994C164.799 17.687 164.673 17.7333 164.544 17.7281C164.484 17.7295 164.424 17.7185 164.368 17.6956C164.312 17.6728 164.261 17.6386 164.219 17.5953C164.175 17.5518 164.141 17.4997 164.118 17.4424C164.095 17.3851 164.084 17.3237 164.086 17.262C164.085 17.2006 164.096 17.1395 164.119 17.0827C164.143 17.0259 164.178 16.9748 164.223 16.9326C164.315 16.8495 164.435 16.8035 164.559 16.8035C164.683 16.8035 164.803 16.8495 164.895 16.9326C164.94 16.9747 164.975 17.0258 164.998 17.0826C165.022 17.1394 165.033 17.2006 165.031 17.262ZM164.944 21.7826H164.174V18.2962H164.944V21.7826Z" fill="black"/>
<path d="M168.756 19.8757C168.758 19.9936 168.748 20.1113 168.727 20.2274H166.397C166.392 20.3755 166.419 20.5229 166.478 20.6591C166.536 20.7953 166.624 20.9171 166.734 21.0158C166.951 21.1849 167.221 21.2712 167.495 21.2592C167.816 21.2634 168.135 21.2077 168.435 21.095L168.558 21.6341C168.187 21.7854 167.79 21.8588 167.39 21.8495C167.156 21.8622 166.922 21.8263 166.703 21.744C166.484 21.6617 166.285 21.5349 166.118 21.3715C165.959 21.1993 165.837 20.9973 165.758 20.7774C165.679 20.5574 165.644 20.324 165.656 20.0905C165.639 19.6156 165.791 19.1501 166.086 18.7773C166.231 18.5952 166.417 18.4498 166.629 18.3528C166.841 18.2559 167.073 18.21 167.306 18.2191C167.528 18.2067 167.75 18.2516 167.95 18.3495C168.15 18.4475 168.321 18.5951 168.448 18.7783C168.661 19.1034 168.769 19.487 168.756 19.8757ZM168.014 19.6756C168.024 19.4669 167.971 19.2598 167.863 19.0812C167.799 18.9766 167.707 18.8914 167.598 18.8346C167.489 18.7779 167.367 18.7517 167.245 18.7589C167.124 18.7567 167.004 18.7843 166.896 18.8393C166.788 18.8942 166.696 18.9748 166.626 19.074C166.494 19.2486 166.414 19.4573 166.396 19.6756H168.014Z" fill="black"/>
<path d="M171.274 18.9808C171.193 18.9671 171.111 18.9603 171.029 18.9607C170.906 18.9549 170.784 18.9799 170.673 19.0336C170.563 19.0873 170.467 19.1679 170.396 19.268C170.26 19.4709 170.192 19.7116 170.201 19.9556V21.7816H169.43V19.3916C169.43 18.9896 169.424 18.6237 169.411 18.2939H170.085L170.113 18.9648H170.134C170.207 18.7471 170.342 18.5554 170.522 18.413C170.683 18.2922 170.879 18.2268 171.08 18.2266C171.145 18.2259 171.21 18.2307 171.274 18.2409L171.274 18.9808Z" fill="black"/>
<path d="M173.753 18.8736H172.903V20.5678C172.903 20.998 173.053 21.2132 173.353 21.2134C173.467 21.2157 173.582 21.2042 173.694 21.1793L173.716 21.7631C173.522 21.8262 173.319 21.8551 173.115 21.8485C172.982 21.8562 172.85 21.8352 172.726 21.787C172.602 21.7388 172.49 21.6645 172.398 21.5692C172.2 21.2982 172.108 20.9642 172.14 20.6303V18.8736H171.63V18.2955H172.14V17.6581L172.901 17.4293V18.2955H173.751L173.753 18.8736Z" fill="black"/>
<path d="M177.218 19.8757C177.219 19.9936 177.21 20.1113 177.189 20.2274H174.859C174.854 20.3755 174.881 20.5229 174.939 20.6591C174.998 20.7953 175.085 20.9171 175.196 21.0158C175.413 21.1849 175.682 21.2712 175.957 21.2592C176.278 21.2634 176.597 21.2077 176.897 21.095L177.019 21.6341C176.649 21.7855 176.251 21.8588 175.851 21.8495C175.618 21.8623 175.384 21.8263 175.165 21.744C174.946 21.6618 174.747 21.5349 174.579 21.3715C174.421 21.1993 174.299 20.9974 174.22 20.7774C174.14 20.5575 174.105 20.324 174.117 20.0905C174.1 19.6156 174.253 19.1501 174.548 18.7773C174.693 18.595 174.879 18.4494 175.091 18.3523C175.303 18.2551 175.534 18.2091 175.767 18.218C175.99 18.2057 176.211 18.2506 176.411 18.3485C176.611 18.4464 176.783 18.5941 176.909 18.7773C177.123 19.1023 177.23 19.4857 177.216 19.8743M176.475 19.6746C176.485 19.4659 176.433 19.2589 176.324 19.0802C176.26 18.9755 176.168 18.8903 176.06 18.8335C175.951 18.7768 175.828 18.7506 175.706 18.7579C175.585 18.7558 175.465 18.7834 175.357 18.8384C175.249 18.8933 175.157 18.9739 175.087 19.073C174.955 19.2475 174.875 19.4563 174.858 19.6746H176.475Z" fill="black"/>
<path d="M179.736 18.9808C179.655 18.9671 179.573 18.9603 179.491 18.9607C179.368 18.9549 179.246 18.98 179.135 19.0337C179.024 19.0874 178.929 19.1679 178.857 19.268C178.721 19.4709 178.653 19.7116 178.663 19.9556V21.7816H177.892V19.3916C177.892 18.9896 177.886 18.6237 177.873 18.2939H178.547L178.575 18.9648H178.597C178.669 18.7472 178.804 18.5554 178.984 18.413C179.145 18.2923 179.341 18.2269 179.542 18.2266C179.607 18.2259 179.672 18.2307 179.736 18.2409V18.9808Z" fill="black"/>
<path d="M145.742 28.6673C145.748 28.8557 145.713 29.0432 145.639 29.2165C145.564 29.3898 145.453 29.5445 145.312 29.6697C144.94 29.9707 144.469 30.1216 143.992 30.0927C143.554 30.1135 143.119 30.0097 142.737 29.7933L142.917 29.1514C143.256 29.3492 143.643 29.4516 144.036 29.4478C144.279 29.4626 144.521 29.3931 144.719 29.2511C144.798 29.1886 144.861 29.1084 144.904 29.0169C144.946 28.9255 144.966 28.8253 144.963 28.7246C144.965 28.633 144.948 28.5419 144.913 28.4569C144.879 28.372 144.827 28.2951 144.762 28.2309C144.567 28.0623 144.34 27.9355 144.095 27.8584C143.248 27.5438 142.825 27.0835 142.825 26.4773C142.82 26.2915 142.858 26.1072 142.936 25.9384C143.013 25.7695 143.129 25.6207 143.273 25.5032C143.609 25.2377 144.03 25.1031 144.458 25.1242C144.836 25.1112 145.212 25.1899 145.554 25.3537L145.36 25.9853C145.077 25.8322 144.758 25.7544 144.436 25.7596C144.206 25.7458 143.979 25.8175 143.798 25.9607C143.736 26.0153 143.687 26.0826 143.654 26.1581C143.62 26.2335 143.604 26.3153 143.605 26.3978C143.603 26.4883 143.622 26.578 143.661 26.66C143.7 26.7419 143.756 26.8139 143.827 26.8703C144.04 27.031 144.278 27.1567 144.53 27.2428C144.877 27.3649 145.192 27.5659 145.448 27.8301C145.648 28.0628 145.753 28.3617 145.743 28.6679" fill="black"/>
<path d="M149.396 28.1186C149.398 28.2363 149.389 28.354 149.368 28.4699H147.037C147.032 28.6181 147.06 28.7655 147.118 28.9018C147.177 29.0381 147.264 29.1599 147.375 29.2586C147.591 29.4277 147.861 29.5141 148.136 29.5021C148.457 29.506 148.775 29.4503 149.076 29.3378L149.198 29.877C148.827 30.0284 148.43 30.1017 148.03 30.0924C147.796 30.1051 147.562 30.0692 147.344 29.9869C147.125 29.9047 146.925 29.7778 146.758 29.6144C146.6 29.4422 146.477 29.2402 146.398 29.0203C146.319 28.8004 146.284 28.5668 146.296 28.3334C146.279 27.8584 146.431 27.3929 146.726 27.0202C146.871 26.8378 147.057 26.6921 147.269 26.5949C147.481 26.4976 147.713 26.4515 147.946 26.4602C148.168 26.448 148.39 26.493 148.59 26.5911C148.79 26.6891 148.961 26.8369 149.088 27.0202C149.301 27.3452 149.409 27.7286 149.395 28.1172M148.656 27.9189C148.666 27.7101 148.613 27.5031 148.505 27.3244C148.441 27.2197 148.349 27.1343 148.24 27.0775C148.131 27.0206 148.009 26.9943 147.886 27.0014C147.765 26.9994 147.646 27.0271 147.538 27.0821C147.43 27.1372 147.338 27.2178 147.269 27.3169C147.136 27.4915 147.056 27.7002 147.038 27.9185L148.656 27.9189Z" fill="black"/>
<path d="M151.915 27.2244C151.834 27.2106 151.752 27.2039 151.67 27.2042C151.547 27.1985 151.425 27.2236 151.314 27.2773C151.204 27.3309 151.108 27.4115 151.037 27.5115C150.901 27.7144 150.833 27.9552 150.842 28.1992V30.0252H150.071V27.6351C150.071 27.2333 150.065 26.8679 150.052 26.5374H150.726L150.754 27.208H150.775C150.849 26.9907 150.983 26.7993 151.163 26.6569C151.324 26.5364 151.52 26.471 151.721 26.4705C151.786 26.47 151.851 26.4747 151.915 26.4845L151.915 27.2244Z" fill="black"/>
<path d="M155.627 26.5391L154.31 30.0251H153.559L152.285 26.5391H153.115L153.709 28.3829C153.809 28.6885 153.892 28.9826 153.96 29.2651H153.981C154.038 29.0115 154.122 28.7175 154.231 28.3829L154.818 26.5391H155.627Z" fill="black"/>
<path d="M157.014 25.5039C157.016 25.5664 157.005 25.6287 156.982 25.6866C156.958 25.7446 156.922 25.7969 156.877 25.8402C156.83 25.8837 156.775 25.9175 156.715 25.9397C156.655 25.9618 156.591 25.9719 156.527 25.9693C156.467 25.9707 156.407 25.9597 156.351 25.9369C156.295 25.9142 156.244 25.8802 156.202 25.8371C156.158 25.7935 156.124 25.7415 156.101 25.6842C156.078 25.6269 156.068 25.5655 156.069 25.5039C156.068 25.4423 156.079 25.3811 156.102 25.3242C156.126 25.2673 156.161 25.216 156.206 25.1737C156.298 25.0907 156.418 25.0447 156.542 25.0447C156.666 25.0447 156.786 25.0907 156.878 25.1737C156.923 25.216 156.958 25.2673 156.982 25.3242C157.005 25.3811 157.016 25.4423 157.014 25.5039ZM156.927 30.0255H156.157V26.5391H156.927V30.0255Z" fill="black"/>
<path d="M160.354 26.6357L160.204 27.223C159.994 27.1232 159.763 27.0735 159.531 27.0779C159.38 27.0712 159.229 27.0984 159.09 27.1574C158.95 27.2165 158.826 27.306 158.725 27.4193C158.522 27.6598 158.417 27.9673 158.428 28.2818C158.42 28.4407 158.443 28.5998 158.496 28.7497C158.55 28.8997 158.633 29.0375 158.74 29.1552C158.842 29.261 158.965 29.3444 159.101 29.3998C159.237 29.4553 159.384 29.4816 159.531 29.4771C159.771 29.4769 160.009 29.4299 160.232 29.3389L160.34 29.9152C160.037 30.0438 159.709 30.1046 159.38 30.0934C159.147 30.1047 158.913 30.0676 158.695 29.9845C158.477 29.9013 158.278 29.7739 158.111 29.6103C157.95 29.4375 157.825 29.2341 157.744 29.0122C157.663 28.7903 157.627 28.5543 157.639 28.3183C157.627 28.0699 157.667 27.8218 157.758 27.5902C157.848 27.3586 157.987 27.1487 158.164 26.9744C158.341 26.8001 158.553 26.6652 158.786 26.5786C159.02 26.4921 159.268 26.4558 159.517 26.4722C159.804 26.4647 160.09 26.5205 160.354 26.6357Z" fill="black"/>
<path d="M163.798 28.1186C163.8 28.2363 163.79 28.354 163.769 28.4699H161.439C161.434 28.6181 161.461 28.7655 161.52 28.9018C161.578 29.0381 161.666 29.1599 161.776 29.2586C161.993 29.4278 162.263 29.5141 162.537 29.5021C162.858 29.506 163.177 29.4503 163.477 29.3378L163.599 29.877C163.229 30.0284 162.831 30.1017 162.431 30.0924C162.197 30.1051 161.964 30.0692 161.745 29.9869C161.526 29.9046 161.326 29.7778 161.159 29.6144C161.001 29.4422 160.879 29.2402 160.799 29.0203C160.72 28.8003 160.685 28.5668 160.697 28.3333C160.68 27.8584 160.833 27.3929 161.127 27.0202C161.273 26.838 161.459 26.6926 161.671 26.5956C161.883 26.4985 162.114 26.4526 162.347 26.4616C162.57 26.4493 162.791 26.4944 162.991 26.5924C163.191 26.6905 163.363 26.8382 163.489 27.0216C163.703 27.3466 163.81 27.7299 163.796 28.1186M163.055 27.9188C163.065 27.7101 163.013 27.5031 162.904 27.3244C162.84 27.2197 162.748 27.1343 162.639 27.0775C162.531 27.0206 162.408 26.9943 162.286 27.0014C162.165 26.9994 162.045 27.0271 161.937 27.0821C161.83 27.1371 161.737 27.2178 161.668 27.3169C161.536 27.4915 161.456 27.7002 161.437 27.9185L163.055 27.9188Z" fill="black"/>
<path d="M169.244 26.6037C169.254 26.7991 169.223 26.9943 169.156 27.1779C169.088 27.3615 168.984 27.5296 168.851 27.6723C168.583 27.8856 168.273 28.0392 167.941 28.1229C167.609 28.2066 167.263 28.2184 166.926 28.1575V30.0255H166.156V25.2622C166.573 25.1915 166.995 25.158 167.417 25.1621C167.91 25.1262 168.4 25.2661 168.8 25.5568C168.948 25.6872 169.064 25.8489 169.141 26.0301C169.218 26.2113 169.253 26.4071 169.244 26.6037ZM168.477 26.6381C168.485 26.5158 168.464 26.3935 168.417 26.2805C168.369 26.1675 168.297 26.0668 168.204 25.9863C167.987 25.8233 167.718 25.7427 167.447 25.7589C167.272 25.7554 167.097 25.77 166.925 25.8023V27.5457C167.073 27.5784 167.224 27.5929 167.375 27.5887C167.666 27.6056 167.953 27.5162 168.183 27.3371C168.281 27.25 168.359 27.142 168.409 27.021C168.46 26.9 168.483 26.7691 168.476 26.6381" fill="black"/>
<path d="M171.805 27.2244C171.724 27.2106 171.642 27.2039 171.56 27.2042C171.437 27.1984 171.315 27.2235 171.204 27.2772C171.093 27.3309 170.998 27.4114 170.926 27.5115C170.79 27.7143 170.722 27.9551 170.732 28.1992V30.0252H169.961V27.6351C169.961 27.2333 169.954 26.8679 169.942 26.5374H170.616L170.644 27.208H170.665C170.738 26.9906 170.873 26.7991 171.053 26.6569C171.214 26.5364 171.409 26.471 171.611 26.4705C171.676 26.47 171.74 26.4747 171.804 26.4845L171.805 27.2244Z" fill="black"/>
<path d="M175.499 28.2552C175.518 28.7363 175.355 29.2068 175.041 29.5724C174.88 29.7482 174.682 29.8867 174.462 29.9782C174.242 30.0698 174.004 30.1121 173.766 30.1023C173.537 30.1125 173.31 30.0722 173.098 29.9843C172.887 29.8964 172.698 29.7632 172.544 29.5939C172.235 29.24 172.072 28.7815 172.089 28.3118C172.07 27.8263 172.238 27.3518 172.559 26.9867C172.719 26.8145 172.915 26.6792 173.134 26.5903C173.352 26.5014 173.587 26.461 173.822 26.4719C174.052 26.4624 174.281 26.5029 174.494 26.5907C174.706 26.6785 174.898 26.8114 175.054 26.9803C175.359 27.3333 175.517 27.7892 175.498 28.2552M174.695 28.2753C174.703 27.9876 174.631 27.7033 174.487 27.4542C174.421 27.3271 174.322 27.221 174.199 27.1478C174.076 27.0746 173.935 27.0373 173.792 27.04C173.647 27.036 173.504 27.0727 173.379 27.1459C173.253 27.2191 173.151 27.3258 173.083 27.4542C172.938 27.708 172.866 27.9971 172.875 28.2893C172.867 28.577 172.939 28.8612 173.083 29.1105C173.152 29.2363 173.253 29.3413 173.376 29.4142C173.5 29.4872 173.64 29.5253 173.784 29.5246C173.927 29.5239 174.067 29.4844 174.19 29.4103C174.313 29.3361 174.413 29.2302 174.48 29.1036C174.628 28.853 174.703 28.5662 174.695 28.2753Z" fill="black"/>
<path d="M178.962 26.5391L177.645 30.0251H176.894L175.621 26.5391H176.451L177.044 28.3829C177.144 28.6885 177.228 28.9826 177.295 29.2651H177.316C177.374 29.0115 177.457 28.7175 177.567 28.3829L178.154 26.5391H178.962Z" fill="black"/>
<path d="M180.278 25.5039C180.28 25.5664 180.269 25.6287 180.245 25.6866C180.222 25.7446 180.186 25.7969 180.141 25.8402C180.094 25.8837 180.039 25.9175 179.979 25.9397C179.919 25.9618 179.855 25.9719 179.791 25.9693C179.731 25.9705 179.671 25.9595 179.615 25.9367C179.559 25.914 179.508 25.8801 179.465 25.8371C179.422 25.7935 179.388 25.7414 179.365 25.6841C179.342 25.6268 179.332 25.5655 179.333 25.5039C179.332 25.4423 179.343 25.3811 179.366 25.3242C179.39 25.2673 179.425 25.216 179.47 25.1737C179.562 25.0907 179.682 25.0447 179.806 25.0447C179.93 25.0447 180.05 25.0907 180.142 25.1737C180.187 25.216 180.222 25.2673 180.245 25.3242C180.269 25.3811 180.28 25.4423 180.278 25.5039ZM180.192 30.0238H179.421V26.5391H180.191L180.192 30.0238Z" fill="black"/>
<path d="M184.165 30.0252H183.477L183.443 29.4662H183.421C183.318 29.6709 183.158 29.8406 182.959 29.9538C182.76 30.067 182.531 30.1185 182.303 30.102C182.103 30.1052 181.904 30.0624 181.723 29.9768C181.541 29.8912 181.382 29.7651 181.257 29.6083C180.968 29.245 180.821 28.7897 180.841 28.3262C180.818 27.8298 180.98 27.3426 181.296 26.9584C181.429 26.8029 181.595 26.6787 181.782 26.5945C181.969 26.5103 182.172 26.4682 182.377 26.4712C182.569 26.4519 182.763 26.4859 182.937 26.5693C183.111 26.6528 183.259 26.7826 183.364 26.9444V24.9409H184.135V29.0872C184.135 29.4266 184.145 29.7398 184.166 30.0269M183.364 28.5587V27.9776C183.366 27.8961 183.359 27.8148 183.343 27.7348C183.302 27.5531 183.204 27.3893 183.063 27.2674C182.921 27.1417 182.736 27.0742 182.547 27.0782C182.414 27.0738 182.282 27.1028 182.164 27.1624C182.045 27.2221 181.944 27.3105 181.868 27.4197C181.695 27.6784 181.608 27.9858 181.622 28.2972C181.608 28.5938 181.691 28.8868 181.858 29.1323C181.933 29.2407 182.034 29.3287 182.152 29.3883C182.27 29.448 182.4 29.4773 182.532 29.4737C182.649 29.4775 182.765 29.4538 182.87 29.4044C182.976 29.355 183.069 29.2815 183.141 29.1897C183.29 29.0121 183.369 28.7861 183.363 28.5543" fill="black"/>
<path d="M187.936 28.1186C187.938 28.2363 187.929 28.354 187.908 28.4699H185.577C185.572 28.6181 185.6 28.7655 185.658 28.9018C185.716 29.0381 185.804 29.1599 185.914 29.2586C186.131 29.4278 186.401 29.5141 186.676 29.5021C186.996 29.506 187.315 29.4503 187.616 29.3379L187.739 29.876C187.369 30.0274 186.971 30.1007 186.571 30.0914C186.338 30.1041 186.104 30.0682 185.885 29.9859C185.666 29.9036 185.467 29.7768 185.299 29.6134C185.141 29.4411 185.019 29.2392 184.94 29.0193C184.86 28.7993 184.825 28.5658 184.837 28.3323C184.82 27.8574 184.973 27.3919 185.267 27.0192C185.413 26.8367 185.599 26.691 185.811 26.5937C186.023 26.4964 186.255 26.4504 186.488 26.4592C186.71 26.447 186.932 26.4921 187.132 26.5901C187.332 26.6882 187.503 26.8359 187.63 27.0192C187.843 27.3442 187.95 27.7275 187.937 28.1162M187.196 27.9165C187.206 27.7077 187.153 27.5007 187.045 27.322C186.98 27.2173 186.889 27.132 186.78 27.0751C186.671 27.0182 186.549 26.9919 186.426 26.999C186.305 26.9971 186.185 27.0248 186.077 27.0798C185.97 27.1348 185.877 27.2154 185.808 27.3145C185.675 27.4891 185.596 27.6978 185.578 27.9161L187.196 27.9165Z" fill="black"/>
<path d="M190.454 27.2244C190.373 27.2106 190.291 27.2039 190.209 27.2042C190.086 27.1985 189.964 27.2236 189.853 27.2773C189.742 27.3309 189.647 27.4115 189.575 27.5115C189.439 27.7144 189.371 27.9552 189.381 28.1992V30.0252H188.61V27.6351C188.61 27.2333 188.604 26.8679 188.591 26.5374H189.265L189.293 27.208H189.315C189.388 26.9907 189.522 26.7992 189.702 26.6569C189.863 26.5365 190.059 26.4711 190.26 26.4705C190.325 26.47 190.39 26.4747 190.454 26.4845V27.2244Z" fill="black"/>
<path d="M222.319 25.616C222.005 26.5996 221.551 27.5329 220.97 28.3869C220.158 29.5745 219.317 30.757 217.988 30.7815C216.684 30.806 216.264 30.0073 214.774 30.0073C213.283 30.0073 212.815 30.7576 211.581 30.8055C210.299 30.8539 209.323 29.5221 208.502 28.3396C206.829 25.921 205.553 21.504 207.268 18.5255C207.671 17.8039 208.254 17.1993 208.96 16.771C209.667 16.3428 210.473 16.1057 211.299 16.083C212.558 16.0596 213.744 16.9291 214.514 16.9291C215.285 16.9291 216.726 15.8823 218.243 16.0363C218.946 16.0612 219.633 16.2486 220.252 16.5837C220.87 16.9189 221.402 17.3926 221.807 17.9679C221.171 18.3574 220.644 18.9015 220.276 19.5496C219.908 20.1977 219.71 20.9286 219.7 21.6739C219.703 22.5147 219.953 23.3362 220.418 24.0367C220.883 24.7372 221.543 25.2859 222.317 25.6148M217.249 14.4364C217.985 13.5749 218.35 12.4567 218.263 11.3268C217.153 11.4323 216.125 11.9603 215.393 12.8018C215.028 13.2089 214.748 13.6854 214.57 14.203C214.393 14.7206 214.321 15.2687 214.36 15.8145C214.915 15.8223 215.465 15.7021 215.966 15.4632C216.467 15.2243 216.905 14.8726 217.249 14.4364Z" fill="black"/>
<path d="M233.973 21.7636H233.158L232.71 20.3588H231.156L230.73 21.7636H229.936L231.475 16.9823H232.425L233.973 21.7636ZM232.575 19.7681L232.171 18.52C232.128 18.3923 232.048 18.0918 231.93 17.6186H231.915C231.868 17.822 231.792 18.1224 231.687 18.52L231.288 19.7681H232.575Z" fill="black"/>
<path d="M237.349 21.7636H236.675L236.633 21.2379H236.619C236.51 21.4298 236.351 21.5879 236.158 21.6944C235.965 21.8009 235.746 21.8517 235.526 21.8411C235.375 21.848 235.225 21.8232 235.084 21.7682C234.944 21.7132 234.816 21.6293 234.71 21.5219C234.445 21.189 234.316 20.7681 234.349 20.3439V18.3148H235.115V20.2162C235.115 20.8783 235.343 21.2092 235.799 21.2088C235.955 21.2152 236.109 21.17 236.237 21.0803C236.365 20.9906 236.46 20.8613 236.508 20.7122C236.542 20.6192 236.559 20.5206 236.557 20.4215V18.3119H237.324V20.7664C237.321 21.0971 237.331 21.4272 237.349 21.7636Z" fill="black"/>
<path d="M239.982 18.8901H239.137V20.5646C239.137 20.9899 239.286 21.2026 239.584 21.2026C239.699 21.2053 239.814 21.1936 239.926 21.1678L239.947 21.7482C239.755 21.8118 239.554 21.8409 239.352 21.8343C239.22 21.8417 239.089 21.8208 238.967 21.773C238.844 21.7251 238.733 21.6516 238.642 21.5572C238.446 21.2892 238.355 20.9588 238.386 20.6284V18.8901H237.883V18.3159H238.386V17.6847L239.138 17.4567V18.3119H239.983L239.982 18.8901Z" fill="black"/>
<path d="M243.692 20.0115C243.71 20.4886 243.547 20.9549 243.236 21.3166C243.076 21.4908 242.88 21.6279 242.662 21.7186C242.444 21.8092 242.209 21.851 241.973 21.8411C241.747 21.8512 241.521 21.8113 241.312 21.7242C241.103 21.6371 240.916 21.5049 240.764 21.3371C240.458 20.9868 240.297 20.533 240.313 20.068C240.294 19.5873 240.46 19.1178 240.778 18.7566C240.937 18.5848 241.132 18.4499 241.349 18.3612C241.565 18.2726 241.799 18.2324 242.032 18.2435C242.26 18.2343 242.487 18.2745 242.698 18.3616C242.909 18.4486 243.098 18.5802 243.253 18.7475C243.555 19.0979 243.711 19.5498 243.692 20.0115ZM242.897 20.0286C242.905 19.7439 242.834 19.4626 242.691 19.2162C242.626 19.0902 242.528 18.985 242.406 18.9124C242.285 18.8398 242.145 18.8028 242.003 18.8057C241.86 18.8013 241.718 18.8375 241.593 18.9101C241.469 18.9827 241.368 19.0888 241.301 19.2162C241.157 19.4677 241.086 19.754 241.095 20.0435C241.087 20.3283 241.159 20.6097 241.301 20.8565C241.368 20.9822 241.468 21.0871 241.591 21.1594C241.714 21.2317 241.854 21.2688 241.997 21.2664C242.139 21.2675 242.278 21.2291 242.399 21.1555C242.521 21.0819 242.619 20.976 242.684 20.8497C242.831 20.6014 242.904 20.3169 242.897 20.0286Z" fill="black"/>
<path d="M246.146 18.9898C246.067 18.9753 245.986 18.9683 245.905 18.9687C245.783 18.9629 245.662 18.9878 245.552 19.0411C245.443 19.0944 245.348 19.1744 245.278 19.2738C245.144 19.475 245.077 19.7132 245.087 19.9545V21.7642H244.321V19.4015C244.321 19.0043 244.314 18.6432 244.299 18.3182H244.966L244.994 18.9784H245.016C245.088 18.7633 245.221 18.5737 245.399 18.4322C245.558 18.3126 245.753 18.2476 245.952 18.2469C246.017 18.2465 246.081 18.2513 246.144 18.2612L246.146 18.9898Z" fill="black"/>
<path d="M247.559 17.2868C247.561 17.3489 247.55 17.4108 247.527 17.4683C247.504 17.5259 247.468 17.5779 247.423 17.6209C247.329 17.7077 247.204 17.7536 247.076 17.7486C247.016 17.7502 246.957 17.7393 246.901 17.7167C246.845 17.694 246.795 17.66 246.753 17.6169C246.71 17.5738 246.676 17.5223 246.654 17.4657C246.631 17.409 246.621 17.3483 246.622 17.2874C246.62 17.2266 246.631 17.1662 246.655 17.11C246.678 17.0538 246.712 17.0031 246.756 16.9612C246.847 16.8762 246.967 16.8302 247.09 16.8335C247.214 16.8303 247.334 16.8762 247.423 16.9612C247.468 17.0029 247.503 17.0534 247.526 17.1096C247.549 17.1657 247.56 17.2261 247.559 17.2868ZM247.473 21.7636H246.707V18.3153H247.473V21.7636Z" fill="black"/>
<path d="M250.444 20.7704C250.449 20.9181 250.42 21.0649 250.358 21.1992C250.297 21.3335 250.205 21.4516 250.089 21.5441C249.807 21.7524 249.461 21.8553 249.111 21.8349C248.763 21.8456 248.418 21.765 248.11 21.6011L248.273 21.0338C248.527 21.1909 248.819 21.2742 249.118 21.2744C249.51 21.2744 249.706 21.1305 249.706 20.8428C249.708 20.784 249.698 20.7255 249.676 20.6709C249.654 20.6164 249.621 20.5671 249.579 20.5264C249.445 20.4166 249.291 20.3336 249.126 20.2818C248.51 20.0537 248.203 19.7226 248.203 19.2886C248.201 19.1467 248.23 19.0062 248.289 18.8772C248.348 18.7483 248.436 18.6342 248.545 18.5434C248.798 18.3357 249.119 18.2296 249.446 18.2458C249.75 18.237 250.05 18.308 250.317 18.4516L250.156 18.9984C249.944 18.8688 249.701 18.8 249.452 18.7994C249.318 18.7913 249.184 18.8317 249.077 18.9134C249.033 18.9483 248.999 18.9927 248.976 19.0431C248.952 19.0935 248.941 19.1486 248.942 19.2042C248.941 19.2605 248.954 19.3162 248.978 19.3669C249.003 19.4175 249.039 19.4616 249.084 19.4955C249.226 19.5981 249.385 19.6769 249.552 19.7287C250.147 19.9545 250.444 20.3017 250.444 20.7704Z" fill="black"/>
<path d="M251.942 17.2868C251.944 17.3488 251.933 17.4106 251.91 17.4682C251.887 17.5258 251.852 17.5778 251.807 17.6209C251.713 17.7076 251.588 17.7535 251.459 17.7486C251.399 17.7502 251.34 17.7393 251.284 17.7166C251.228 17.6939 251.178 17.66 251.136 17.6169C251.093 17.5738 251.059 17.5224 251.037 17.4657C251.014 17.409 251.003 17.3483 251.005 17.2874C251.003 17.2266 251.014 17.1661 251.037 17.1099C251.061 17.0537 251.095 17.003 251.14 16.9612C251.184 16.9191 251.236 16.8862 251.293 16.8643C251.351 16.8423 251.411 16.8319 251.473 16.8335C251.596 16.8303 251.716 16.8762 251.807 16.9612C251.851 17.003 251.886 17.0536 251.909 17.1097C251.932 17.1657 251.943 17.2261 251.942 17.2868ZM251.856 21.7636H251.091V18.3153H251.857L251.856 21.7636Z" fill="black"/>
<path d="M255.56 19.877C255.562 19.9934 255.552 20.1097 255.531 20.2242H253.233C253.228 20.3708 253.255 20.5167 253.313 20.6515C253.371 20.7864 253.458 20.9069 253.567 21.0047C253.781 21.1721 254.047 21.2574 254.318 21.2453C254.635 21.2498 254.95 21.1945 255.247 21.0823L255.368 21.6148C255.002 21.7643 254.608 21.8367 254.212 21.8275C253.981 21.8403 253.75 21.8049 253.533 21.7236C253.316 21.6424 253.118 21.517 252.953 21.3554C252.796 21.1853 252.676 20.9857 252.597 20.7684C252.519 20.5511 252.485 20.3204 252.497 20.0897C252.48 19.6199 252.631 19.1595 252.922 18.7908C253.066 18.6107 253.25 18.4669 253.46 18.3709C253.669 18.275 253.898 18.2296 254.128 18.2384C254.348 18.2263 254.567 18.2707 254.765 18.3674C254.962 18.4641 255.132 18.6099 255.257 18.7908C255.468 19.1127 255.574 19.4923 255.56 19.877ZM254.829 19.6786C254.839 19.4718 254.788 19.2667 254.68 19.0896C254.617 18.9861 254.527 18.9017 254.419 18.8455C254.312 18.7893 254.191 18.7633 254.07 18.7703C253.951 18.7685 253.833 18.7958 253.726 18.8501C253.62 18.9044 253.529 18.9839 253.46 19.0816C253.329 19.2548 253.25 19.4619 253.232 19.6786H254.829Z" fill="black"/>
<path d="M258 18.9898C257.921 18.9754 257.84 18.9683 257.759 18.9687C257.637 18.9629 257.516 18.9878 257.407 19.0411C257.297 19.0944 257.202 19.1744 257.132 19.2738C256.998 19.4749 256.931 19.7131 256.94 19.9545V21.7642H256.175V19.4015C256.175 19.0043 256.167 18.6432 256.153 18.3182H256.819L256.848 18.9784H256.869C256.942 18.7635 257.074 18.5739 257.252 18.4322C257.412 18.3126 257.606 18.2476 257.806 18.2469C257.87 18.2465 257.934 18.2513 257.997 18.2612L258 18.9898Z" fill="black"/>
<path d="M260.532 18.8901H259.688V20.5646C259.688 20.9899 259.837 21.2026 260.135 21.2026C260.25 21.2053 260.365 21.1936 260.477 21.1678L260.499 21.7482C260.306 21.812 260.104 21.8411 259.902 21.8343C259.771 21.8419 259.64 21.821 259.518 21.7732C259.395 21.7254 259.285 21.6517 259.194 21.5572C258.997 21.2894 258.907 20.9589 258.938 20.6284V18.8901H258.435V18.3159H258.938V17.6847L259.691 17.4567V18.3119H260.535L260.532 18.8901Z" fill="black"/>
<path d="M263.931 19.877C263.933 19.9933 263.923 20.1096 263.903 20.2242H261.604C261.599 20.3708 261.626 20.5166 261.684 20.6514C261.742 20.7862 261.828 20.9068 261.937 21.0047C262.151 21.1718 262.417 21.2571 262.689 21.2453C263.006 21.2498 263.321 21.1945 263.617 21.0823L263.738 21.6148C263.372 21.7643 262.978 21.8367 262.583 21.8275C262.351 21.8402 262.12 21.8049 261.903 21.7236C261.686 21.6423 261.488 21.517 261.323 21.3554C261.166 21.1852 261.046 20.9857 260.967 20.7684C260.889 20.5511 260.855 20.3203 260.866 20.0897C260.85 19.6198 261.001 19.1595 261.293 18.7908C261.436 18.6107 261.62 18.4669 261.83 18.3709C262.039 18.275 262.268 18.2296 262.498 18.2384C262.718 18.2263 262.937 18.2707 263.134 18.3674C263.332 18.4641 263.501 18.6099 263.626 18.7908C263.838 19.1127 263.944 19.4922 263.931 19.877ZM263.199 19.6786C263.21 19.4718 263.158 19.2666 263.051 19.0896C262.988 18.9861 262.898 18.9017 262.79 18.8455C262.683 18.7892 262.562 18.7633 262.441 18.7703C262.322 18.7684 262.204 18.7958 262.098 18.85C261.991 18.9043 261.9 18.9838 261.832 19.0816C261.7 19.2549 261.621 19.462 261.604 19.6786H263.199Z" fill="black"/>
<path d="M266.434 18.9898C266.355 18.9754 266.275 18.9683 266.194 18.9687C266.073 18.9628 265.951 18.9876 265.842 19.0409C265.732 19.0942 265.638 19.1743 265.567 19.2738C265.433 19.4749 265.366 19.7131 265.376 19.9545V21.7642H264.609V19.4015C264.609 19.0043 264.602 18.6432 264.589 18.3182H265.255L265.284 18.9784H265.304C265.377 18.7634 265.51 18.5738 265.687 18.4322C265.847 18.3127 266.041 18.2478 266.241 18.2469C266.305 18.2465 266.369 18.2513 266.432 18.2612L266.434 18.9898Z" fill="black"/>
<path d="M233.887 29.8672H233.122V27.7103H231.05V29.8672H230.283V25.0859H231.05V27.0364H233.122V25.0859H233.887V29.8672Z" fill="black"/>
<path d="M237.428 29.8666H236.74L236.683 29.4675H236.661C236.545 29.6235 236.393 29.7485 236.217 29.8315C236.042 29.9144 235.848 29.9527 235.654 29.943C235.508 29.9493 235.363 29.9247 235.227 29.8708C235.092 29.817 234.969 29.7351 234.867 29.6306C234.778 29.5371 234.708 29.427 234.662 29.3066C234.615 29.1862 234.593 29.0577 234.597 28.9287C234.59 28.735 234.635 28.543 234.728 28.373C234.822 28.2031 234.959 28.0615 235.126 27.9635C235.581 27.7173 236.096 27.6042 236.612 27.6373V27.5735C236.612 27.1173 236.373 26.8893 235.895 26.8893C235.576 26.8833 235.263 26.9724 234.994 27.1453L234.838 26.6413C235.198 26.4329 235.608 26.3298 236.023 26.3437C236.927 26.3437 237.378 26.8188 237.378 27.769V29.0399C237.373 29.3163 237.39 29.5928 237.428 29.8666ZM235.818 25.5454C235.82 25.5979 235.811 25.6503 235.792 25.6992C235.773 25.7482 235.744 25.7929 235.707 25.8305C235.672 25.8676 235.63 25.8969 235.583 25.9165C235.536 25.9361 235.485 25.9457 235.434 25.9445C235.383 25.9454 235.331 25.9354 235.284 25.9153C235.236 25.8951 235.193 25.8653 235.158 25.8277C235.121 25.7909 235.092 25.7472 235.072 25.699C235.053 25.6508 235.043 25.5992 235.044 25.5471C235.043 25.4953 235.052 25.4438 235.072 25.3958C235.092 25.3478 235.121 25.3042 235.158 25.2678C235.194 25.2302 235.237 25.2004 235.286 25.1803C235.334 25.1602 235.385 25.1502 235.438 25.1509C235.488 25.1494 235.539 25.1591 235.586 25.1793C235.633 25.1995 235.674 25.2297 235.708 25.2678C235.779 25.3427 235.819 25.4422 235.818 25.5454ZM236.633 28.6813V28.1487C235.782 28.1354 235.357 28.3673 235.357 28.8443C235.351 28.9184 235.361 28.9929 235.387 29.0627C235.412 29.1325 235.453 29.196 235.505 29.2486C235.609 29.34 235.744 29.3881 235.882 29.3831C236.052 29.3831 236.218 29.327 236.353 29.2235C236.492 29.1272 236.587 28.9811 236.62 28.8158C236.629 28.7718 236.634 28.7263 236.633 28.6813ZM237.152 25.5454C237.153 25.5979 237.144 25.6502 237.125 25.6991C237.106 25.7481 237.078 25.7928 237.041 25.8305C237.005 25.8679 236.961 25.8973 236.913 25.917C236.865 25.9366 236.813 25.946 236.761 25.9445C236.71 25.9457 236.659 25.9358 236.612 25.9157C236.565 25.8955 236.522 25.8655 236.488 25.8277C236.452 25.7904 236.424 25.7465 236.405 25.6984C236.386 25.6502 236.377 25.5988 236.378 25.5471C236.377 25.4953 236.387 25.4439 236.406 25.3959C236.426 25.3479 236.455 25.3043 236.492 25.2678C236.528 25.2292 236.573 25.1988 236.622 25.1787C236.671 25.1585 236.724 25.149 236.777 25.1509C236.828 25.1493 236.878 25.1589 236.924 25.1791C236.971 25.1994 237.012 25.2296 237.045 25.2678C237.115 25.3432 237.153 25.4427 237.152 25.5454Z" fill="black"/>
<path d="M241.217 29.8666H240.45V27.8876C240.45 27.2772 240.219 26.972 239.755 26.972C239.65 26.9689 239.545 26.9899 239.449 27.0335C239.353 27.0771 239.269 27.142 239.202 27.2234C239.061 27.3886 238.986 27.5994 238.989 27.8164V29.8689H238.223V27.4076C238.223 27.1035 238.214 26.7745 238.195 26.4206H238.866L238.902 26.9531H238.922C239.017 26.783 239.154 26.6408 239.321 26.5409C239.53 26.4129 239.771 26.3465 240.016 26.3494C240.164 26.3448 240.311 26.3701 240.449 26.4238C240.586 26.4775 240.712 26.5584 240.818 26.6618C240.959 26.8143 241.067 26.9943 241.136 27.1904C241.204 27.3866 241.232 27.5948 241.217 27.8021V29.8666Z" fill="black"/>
<path d="M245.124 29.8666H244.444L244.408 29.313H244.386C244.285 29.516 244.126 29.6844 243.929 29.7969C243.732 29.9094 243.506 29.9608 243.28 29.9447C243.081 29.948 242.885 29.9056 242.705 29.8208C242.526 29.7359 242.368 29.611 242.244 29.4555C241.959 29.0952 241.813 28.644 241.833 28.1847C241.81 27.693 241.97 27.2104 242.282 26.8294C242.414 26.6756 242.579 26.5527 242.764 26.4694C242.949 26.3861 243.15 26.3443 243.352 26.3471C243.543 26.328 243.735 26.3616 243.907 26.4443C244.079 26.527 244.226 26.6555 244.33 26.8157V24.8362H245.095V28.9367C245.095 29.2731 245.106 29.5832 245.124 29.8666ZM244.33 28.4122V27.8369C244.332 27.7563 244.324 27.6758 244.309 27.5968C244.268 27.4159 244.171 27.2527 244.03 27.1316C243.889 27.0066 243.706 26.9395 243.517 26.9435C243.385 26.9393 243.254 26.9685 243.137 27.0283C243.019 27.0881 242.918 27.1765 242.843 27.2855C242.671 27.5428 242.585 27.8484 242.598 28.1579C242.585 28.4528 242.667 28.744 242.834 28.988C242.908 29.0962 243.008 29.1842 243.125 29.2439C243.242 29.3037 243.372 29.3333 243.503 29.3301C243.619 29.3334 243.735 29.3093 243.84 29.2598C243.945 29.2103 244.037 29.1367 244.109 29.045C244.256 28.868 244.335 28.6428 244.33 28.4122Z" fill="black"/>
<path d="M246.721 29.8666H245.955V24.8367H246.721V29.8666Z" fill="black"/>
<path d="M250.424 27.98C250.426 28.0964 250.416 28.2126 250.396 28.3272H248.097C248.092 28.4738 248.119 28.6197 248.177 28.7545C248.235 28.8894 248.321 29.0099 248.431 29.1077C248.644 29.2747 248.911 29.36 249.182 29.3483C249.499 29.3528 249.814 29.2975 250.111 29.1853L250.233 29.7178C249.866 29.8672 249.472 29.9396 249.076 29.9305C248.844 29.9432 248.613 29.9078 248.396 29.8265C248.18 29.7453 247.982 29.6199 247.816 29.4584C247.66 29.2882 247.539 29.0887 247.461 28.8713C247.383 28.654 247.348 28.4233 247.36 28.1926C247.343 27.7229 247.494 27.2625 247.786 26.8938C247.93 26.7138 248.114 26.57 248.323 26.474C248.533 26.3781 248.762 26.3326 248.992 26.3414C249.211 26.3292 249.43 26.3736 249.628 26.4703C249.825 26.5671 249.995 26.7129 250.12 26.8938C250.331 27.2156 250.438 27.5951 250.424 27.98ZM249.693 27.781C249.703 27.5744 249.651 27.3696 249.544 27.1926C249.481 27.0891 249.391 27.0047 249.283 26.9484C249.176 26.8922 249.055 26.8662 248.934 26.8733C248.815 26.8713 248.697 26.8986 248.59 26.9529C248.484 27.0072 248.392 27.0867 248.324 27.1846C248.192 27.3577 248.113 27.5646 248.096 27.781H249.693Z" fill="black"/>
<path d="M252.864 27.0957C252.785 27.0812 252.704 27.0741 252.624 27.0746C252.502 27.0687 252.381 27.0935 252.271 27.1468C252.161 27.2001 252.067 27.2802 251.997 27.3796C251.863 27.5807 251.796 27.819 251.805 28.0604V29.87H251.039V27.5073C251.039 27.1082 251.031 26.7484 251.018 26.424H251.685L251.713 27.0843H251.734C251.807 26.8692 251.94 26.6796 252.117 26.5381C252.277 26.4184 252.471 26.3535 252.67 26.3528C252.735 26.3523 252.799 26.3571 252.863 26.367L252.864 27.0957Z" fill="black"/>
</svg>
