<svg width="362" height="54" viewBox="0 0 362 54" fill="none" xmlns="http://www.w3.org/2000/svg">
<path d="M4.02948 35.3367C4.02948 36.1393 3.12744 36.787 2.01482 36.787C0.902192 36.787 0 36.1375 0 35.3367V17.5118C0 16.7091 0.904589 16.062 2.01783 16.062C3.13108 16.062 4.03009 16.711 4.03009 17.5118V18.3404H4.10968C4.48632 17.6692 5.03794 17.1127 5.70574 16.7301C6.37353 16.3475 7.13255 16.1531 7.90205 16.1676C8.62052 16.1832 9.32408 16.3751 9.95093 16.7266C10.5778 17.078 11.1087 17.5781 11.4968 18.1829C11.9834 17.5374 12.6175 17.0176 13.3459 16.6671C14.0744 16.3165 14.8761 16.1452 15.6843 16.1676C17.6996 16.1676 20.0681 17.4717 20.0681 21.067V35.336C20.0681 36.1387 19.1666 36.7864 18.0533 36.7864C16.9401 36.7864 16.0386 36.1369 16.0386 35.336V22.5674C16.0386 21.1059 15.3274 20.1964 14.0629 20.1964C12.5613 20.1964 12.0482 21.1843 12.0482 22.9626V35.3354C12.0482 36.1381 11.1466 36.7858 10.0334 36.7858C8.92014 36.7858 8.01751 36.1362 8.01751 35.3354V22.5668C8.01751 21.1053 7.30687 20.1958 6.04174 20.1958C4.54013 20.1958 4.02632 21.1837 4.02632 22.9619L4.02948 35.3367Z" fill="#AF0D21"/>
<path d="M41.1795 22.4896C41.1795 20.988 41.9298 20.1983 43.1554 20.1983C44.381 20.1983 45.1312 20.9497 45.1312 22.5699C45.1312 23.5744 46.0326 24.0202 47.1458 24.0202C48.2591 24.0202 49.1593 23.3694 49.1593 22.568C49.1593 18.8547 46.8685 16.1682 43.154 16.1682C42.0975 16.1177 41.0477 16.3603 40.1205 16.8693C39.1933 17.3783 38.4249 18.1338 37.9004 19.0523C37.3308 20.3298 37.0734 21.7246 37.1495 23.1212V30.1187C37.0734 31.5151 37.3308 32.9097 37.9004 34.187C38.4249 35.1055 39.1933 35.8609 40.1205 36.3699C41.0477 36.8789 42.0975 37.1216 43.154 37.071C46.8679 37.071 49.1593 34.3852 49.1593 30.6713C49.1593 29.8686 48.2584 29.2191 47.1458 29.2191C46.0332 29.2191 45.1312 29.6642 45.1312 30.6694C45.1312 32.2896 44.3785 33.041 43.1554 33.041C41.9322 33.041 41.1795 32.2513 41.1795 30.7497V22.4896Z" fill="#AF0D21"/>
<path d="M84.8585 16.1114V13.1879C84.8585 12.3185 85.2906 11.8054 86.0433 11.8054L86.7169 11.8098C87.4739 11.8098 88.0895 10.9706 88.0895 9.9179C88.0895 8.86517 87.4721 8.01188 86.7169 8.01188H86.0032C83.3964 8.01188 80.8278 9.51227 80.8278 13.3836V16.1096H78.5494C77.9215 16.1096 77.4115 16.8228 77.4115 17.6958C77.4115 18.5689 77.9209 19.2734 78.5494 19.2734H80.8278V35.3391C80.8278 36.1418 81.73 36.7895 82.8426 36.7895C83.9552 36.7895 84.8572 36.1399 84.8572 35.3391V19.2734H89.7627V35.3391C89.7627 36.1418 90.6655 36.7895 91.7781 36.7895C92.8907 36.7895 93.7922 36.1399 93.7922 35.3391V19.2734L96.2428 19.2696C96.8707 19.2696 97.3801 18.5621 97.3801 17.689C97.3801 16.8159 96.8707 16.1121 96.2422 16.1121H93.7928V13.1885C93.7928 12.3191 94.2249 11.8061 94.9782 11.8061L95.6519 11.8104C96.4101 11.8104 97.0245 10.9713 97.0245 9.91854C97.0245 8.86581 96.407 8.01249 95.6519 8.01249H94.9387C92.3307 8.01249 89.7627 9.51287 89.7627 13.3842V16.1102L84.8585 16.1114Z" fill="#AF0D21"/>
<path d="M102.975 17.5729C102.975 16.7703 102.072 16.1226 100.96 16.1226C99.848 16.1226 98.9453 16.7721 98.9453 17.5729V35.3366C98.9453 36.1393 99.8474 36.787 100.96 36.787C102.073 36.787 102.975 36.1381 102.975 35.3366V17.5729Z" fill="#AF0D21"/>
<path d="M102.977 9.43383C102.977 8.63116 102.075 7.98346 100.963 7.98346C99.8505 7.98346 98.9497 8.63303 98.9497 9.43447V10.3211C98.9497 11.1238 99.8517 11.7715 100.964 11.7715C102.077 11.7715 102.979 11.1225 102.979 10.3211L102.977 9.43383Z" fill="#AF0D21"/>
<path d="M109.627 22.4439C109.627 20.9423 110.378 20.1526 111.603 20.1526C112.828 20.1526 113.579 20.9046 113.579 22.5242C113.579 23.5293 114.48 23.9745 115.593 23.9745C116.707 23.9745 117.607 23.3244 117.607 22.5229C117.607 18.8103 115.315 16.1226 111.602 16.1226C110.545 16.0721 109.495 16.3149 108.568 16.824C107.641 17.3331 106.872 18.0887 106.348 19.0072C105.778 20.2847 105.521 21.6795 105.597 23.0762V30.1193C105.521 31.5158 105.778 32.9103 106.348 34.1876C106.872 35.106 107.641 35.8615 108.568 36.3705C109.495 36.8795 110.545 37.1221 111.602 37.0717C115.315 37.0717 117.607 34.3858 117.607 30.6719C117.607 29.8692 116.707 29.2197 115.593 29.2197C114.48 29.2197 113.579 29.6661 113.579 30.6701C113.579 32.2902 112.827 33.0416 111.603 33.0416C110.379 33.0416 109.627 32.2519 109.627 30.7503V22.4439Z" fill="#AF0D21"/>
<path d="M45.9395 54C52.2447 48.4375 56.3556 38.8036 56.3556 27.8014C56.3556 15.6768 51.3074 5.17414 43.9025 0C53.9217 5.17785 60.117 15.6082 60.117 27.7415C60.1271 32.9527 58.8355 38.0839 56.3598 42.6694C53.8841 47.2549 50.3019 51.1496 45.9395 54Z" fill="black"/>
<path d="M65.3479 44.5556H66.1759V41.7864C66.1759 41.4203 66.2816 41.2184 66.5909 41.2184C66.8509 41.2184 66.9966 41.4036 66.9966 41.7049V44.5556H67.8258V41.7864C67.8258 41.4203 67.9313 41.2184 68.2394 41.2184C68.5 41.2184 68.6457 41.4036 68.6457 41.7049V44.5556H69.4737V41.3962C69.4891 41.2692 69.4771 41.1404 69.4388 41.0183C69.4004 40.8963 69.3364 40.7838 69.2511 40.6885C69.1657 40.5932 69.0611 40.5172 68.944 40.4655C68.827 40.4139 68.7002 40.3879 68.5723 40.3892C68.406 40.3845 68.241 40.4197 68.0911 40.4919C67.9413 40.5641 67.8109 40.6711 67.7109 40.8041C67.631 40.6794 67.5215 40.5764 67.3923 40.504C67.2631 40.4316 67.1181 40.3922 66.97 40.3892C66.8117 40.3863 66.6556 40.4264 66.5183 40.5052C66.3809 40.5841 66.2675 40.6986 66.1901 40.8368H66.1735V40.4379H65.3455L65.3479 44.5556Z" fill="black"/>
<path fill-rule="evenodd" clip-rule="evenodd" d="M73.1451 44.5556H73.9736V41.6895C73.9899 41.5197 73.9695 41.3483 73.9137 41.187C73.8579 41.0258 73.768 40.8785 73.6501 40.7552C73.5322 40.6318 73.3891 40.5353 73.2305 40.4723C73.072 40.4092 72.9017 40.3811 72.7313 40.3898C72.5653 40.3848 72.4 40.4132 72.2451 40.4732C72.0903 40.5332 71.9491 40.6237 71.8298 40.7393C71.6001 40.9813 71.467 41.2991 71.4557 41.6327H72.2584C72.2745 41.5187 72.3307 41.4143 72.4171 41.3383C72.5036 41.2623 72.6144 41.2198 72.7295 41.2184C73.0382 41.2184 73.1431 41.4289 73.1431 41.7055V42.1377C72.9727 42.1291 72.8585 42.1137 72.7455 42.1137C71.7057 42.1137 71.4372 42.5681 71.4372 43.5103C71.4372 44.4198 71.9496 44.6069 72.3312 44.6069C72.4945 44.6098 72.6554 44.5673 72.796 44.4841C72.9365 44.4009 73.0512 44.2803 73.1271 44.1358H73.1431L73.1451 44.5556ZM73.1451 43.3461C73.1451 43.6789 72.9746 43.874 72.6986 43.874C72.4226 43.874 72.2664 43.6622 72.2664 43.3461C72.2664 42.9071 72.5591 42.7613 72.9159 42.7613C72.9923 42.7622 73.0684 42.7705 73.1431 42.7861L73.1451 43.3461Z" fill="black"/>
<path d="M76.8774 41.6888C76.8774 41.3801 77.0317 41.2177 77.2842 41.2177C77.5368 41.2177 77.6899 41.3721 77.6899 41.7049H78.5185C78.5338 41.5352 78.513 41.3642 78.4575 41.203C78.4019 41.0419 78.313 40.8944 78.1964 40.7701C78.0797 40.6459 77.9381 40.5478 77.7808 40.4822C77.6235 40.4167 77.454 40.3851 77.2836 40.3897C77.0664 40.3792 76.8504 40.429 76.6597 40.5337C76.469 40.6383 76.311 40.7936 76.2031 40.9825C76.086 41.2452 76.0331 41.5319 76.0488 41.8191V43.1775C76.0332 43.4649 76.0861 43.7518 76.2031 44.0148C76.311 44.2036 76.469 44.359 76.6597 44.4636C76.8504 44.5682 77.0664 44.618 77.2836 44.6075C77.4509 44.6122 77.6174 44.5822 77.7725 44.5193C77.9276 44.4564 78.0678 44.3619 78.1845 44.242C78.4039 44.0028 78.523 43.6885 78.5173 43.364H77.6887C77.6726 43.543 77.5992 43.7795 77.283 43.7795C77.2282 43.7852 77.1729 43.7786 77.121 43.7602C77.0691 43.7418 77.0219 43.7121 76.9829 43.6732C76.9439 43.6343 76.9141 43.5872 76.8956 43.5353C76.8772 43.4834 76.8706 43.428 76.8762 43.3732L76.8774 41.6888Z" fill="black"/>
<path d="M82.7074 41.5913C82.7127 41.4345 82.6863 41.2782 82.6296 41.1318C82.5729 40.9854 82.487 40.8521 82.3774 40.7398C82.2678 40.6274 82.1366 40.5384 81.9917 40.4782C81.8467 40.4179 81.6911 40.3877 81.5342 40.3892C81.3746 40.3858 81.2159 40.4144 81.0676 40.4734C80.9193 40.5324 80.7843 40.6206 80.6707 40.7327C80.5571 40.8448 80.467 40.9785 80.406 41.126C80.345 41.2735 80.3142 41.4317 80.3154 41.5913C80.3125 41.8461 80.3926 42.0949 80.5436 42.3001C80.6947 42.5053 80.9085 42.6557 81.1526 42.7286L81.5503 42.875C81.867 42.9985 81.9651 43.151 81.9651 43.3782C81.9648 43.4382 81.9525 43.4975 81.9289 43.5526C81.9054 43.6078 81.8711 43.6577 81.8279 43.6993C81.7848 43.741 81.7336 43.7736 81.6777 43.7952C81.6217 43.8168 81.562 43.827 81.502 43.8252C81.1933 43.8252 81.0878 43.59 81.0551 43.3615H80.2753C80.2692 43.5257 80.2969 43.6894 80.3567 43.8425C80.4165 43.9955 80.5071 44.1347 80.6229 44.2513C80.7387 44.3678 80.8771 44.4594 81.0298 44.5203C81.1824 44.5811 81.3459 44.61 81.5102 44.605C81.6736 44.6071 81.8358 44.5762 81.9871 44.5143C82.1384 44.4524 82.2758 44.3608 82.391 44.2448C82.5062 44.1288 82.5968 43.9908 82.6576 43.8391C82.7185 43.6874 82.7482 43.525 82.7451 43.3615C82.7593 43.1051 82.6872 42.8514 82.5401 42.6409C82.3929 42.4304 82.1795 42.2754 81.9338 42.2007L81.446 42.0063C81.1372 41.8828 81.097 41.7383 81.097 41.5845C81.0947 41.5301 81.1036 41.4759 81.1231 41.4251C81.1426 41.3743 81.1723 41.328 81.2104 41.2891C81.2484 41.2503 81.2941 41.2196 81.3445 41.199C81.3949 41.1785 81.449 41.1685 81.5034 41.1696C81.5594 41.1677 81.615 41.1773 81.6671 41.1979C81.7192 41.2185 81.7666 41.2495 81.8062 41.2891C81.8458 41.3287 81.8769 41.376 81.8974 41.4281C81.918 41.4802 81.9275 41.536 81.9256 41.5919L82.7074 41.5913Z" fill="black"/>
<path d="M91.6354 40.4385H90.7587L90.2647 42.9972H90.2493L89.8104 40.4385H89.1608L88.6977 42.9972H88.6816L88.1778 40.4385H87.301L88.2754 44.5569H89.0071L89.462 42.1118H89.4787L89.9338 44.5569H90.6648L91.6354 40.4385Z" fill="black"/>
<path fill-rule="evenodd" clip-rule="evenodd" d="M93.2816 43.1751C93.2659 43.4624 93.3186 43.7493 93.4353 44.0123C93.5434 44.2011 93.7016 44.3564 93.8924 44.461C94.0832 44.5656 94.2991 44.6155 94.5164 44.605C94.7336 44.6153 94.9494 44.5654 95.1399 44.4608C95.3305 44.3562 95.4884 44.201 95.5964 44.0123C95.7132 43.7493 95.7661 43.4624 95.7507 43.1751V41.8167C95.7661 41.5295 95.7132 41.2428 95.5964 40.98C95.4884 40.7913 95.3305 40.6362 95.1399 40.5316C94.9494 40.427 94.7336 40.377 94.5164 40.3873C94.2991 40.3769 94.0832 40.4267 93.8924 40.5313C93.7016 40.6359 93.5434 40.7912 93.4353 40.98C93.3186 41.2428 93.2659 41.5296 93.2816 41.8167V43.1751ZM94.1102 41.6889C94.1102 41.3801 94.2639 41.2178 94.5164 41.2178C94.769 41.2178 94.9221 41.3795 94.9221 41.6889V43.3059C94.9221 43.6147 94.7677 43.777 94.5164 43.777C94.2651 43.777 94.1102 43.614 94.1102 43.3059V41.6889Z" fill="black"/>
<path fill-rule="evenodd" clip-rule="evenodd" d="M97.7759 44.5556H98.6051V42.1112C98.5957 41.9957 98.6108 41.8794 98.6493 41.7701C98.6877 41.6607 98.7487 41.5607 98.8283 41.4765C98.908 41.3923 99.0045 41.3258 99.1116 41.2813C99.2186 41.2369 99.3338 41.2154 99.4497 41.2184C99.5361 41.2178 99.6218 41.2344 99.7017 41.2672V40.3892C99.4954 40.3914 99.2916 40.4358 99.103 40.5197C98.9144 40.6036 98.7449 40.7251 98.6051 40.8769V40.4379H97.7759V44.5556Z" fill="black"/>
<path d="M101.455 44.5556H102.285V43.4029L102.683 42.7774L103.43 44.5556H104.331L103.145 42.1112L104.128 40.4373H103.3L102.301 42.2322H102.285V38.7746H101.455V44.5556Z" fill="black"/>
<path fill-rule="evenodd" clip-rule="evenodd" d="M111.359 42.8095V41.6722C111.37 41.5049 111.347 41.337 111.289 41.1794C111.232 41.0218 111.142 40.878 111.026 40.7571C110.909 40.6363 110.769 40.5411 110.614 40.4777C110.459 40.4144 110.292 40.3842 110.124 40.3891C109.907 40.3788 109.691 40.4286 109.5 40.5332C109.31 40.6378 109.152 40.7931 109.044 40.9819C108.927 41.2446 108.874 41.5314 108.889 41.8185V43.1769C108.874 43.4643 108.927 43.7512 109.044 44.0141C109.152 44.2029 109.31 44.3582 109.5 44.4628C109.691 44.5674 109.907 44.6173 110.124 44.6069C110.291 44.6117 110.458 44.5817 110.613 44.5188C110.768 44.4558 110.908 44.3614 111.025 44.2414C111.245 44.0025 111.364 43.688 111.358 43.3634H110.53C110.514 43.5424 110.441 43.7789 110.124 43.7789C110.069 43.7845 110.014 43.7778 109.962 43.7594C109.91 43.741 109.863 43.7112 109.824 43.6723C109.785 43.6334 109.756 43.5863 109.737 43.5345C109.719 43.4827 109.712 43.4273 109.718 43.3726V42.812L111.359 42.8095ZM109.719 41.6888C109.719 41.3801 109.873 41.2177 110.125 41.2177C110.377 41.2177 110.531 41.3795 110.531 41.6888V42.1606H109.719V41.6888Z" fill="black"/>
<path fill-rule="evenodd" clip-rule="evenodd" d="M114.955 44.5556H115.783V41.6895C115.8 41.5196 115.779 41.3482 115.723 41.187C115.667 41.0258 115.577 40.8785 115.46 40.7551C115.342 40.6318 115.198 40.5353 115.04 40.4723C114.881 40.4092 114.711 40.3811 114.541 40.3898C114.375 40.3849 114.209 40.4133 114.054 40.4733C113.9 40.5334 113.759 40.6238 113.639 40.7392C113.411 40.9817 113.279 41.2996 113.269 41.6327H114.071C114.087 41.5187 114.144 41.4142 114.23 41.3381C114.317 41.2621 114.427 41.2196 114.542 41.2184C114.851 41.2184 114.957 41.4289 114.957 41.7055V42.1377C114.787 42.1291 114.673 42.1137 114.559 42.1137C113.518 42.1137 113.251 42.5681 113.251 43.5103C113.251 44.4198 113.762 44.6069 114.144 44.6069C114.307 44.6098 114.468 44.5673 114.609 44.4841C114.749 44.401 114.864 44.2803 114.94 44.1358H114.956L114.955 44.5556ZM114.955 43.3461C114.955 43.6789 114.785 43.874 114.509 43.874C114.233 43.874 114.077 43.6622 114.077 43.3461C114.077 42.9071 114.37 42.7613 114.727 42.7613C114.803 42.7622 114.879 42.7705 114.954 42.7861L114.955 43.3461Z" fill="black"/>
<path d="M120.093 41.5913C120.098 41.4345 120.072 41.2782 120.015 41.1319C119.958 40.9856 119.873 40.8523 119.763 40.7399C119.654 40.6276 119.522 40.5387 119.377 40.4784C119.233 40.4181 119.077 40.3878 118.92 40.3892C118.761 40.3858 118.602 40.4145 118.454 40.4735C118.305 40.5325 118.171 40.6206 118.057 40.7327C117.944 40.8449 117.854 40.9786 117.793 41.1261C117.732 41.2736 117.701 41.4318 117.703 41.5913C117.7 41.846 117.779 42.0946 117.93 42.2998C118.081 42.505 118.295 42.6555 118.539 42.7286L118.937 42.875C119.253 42.9985 119.35 43.151 119.35 43.3782C119.35 43.4382 119.338 43.4976 119.314 43.5528C119.291 43.6079 119.256 43.6578 119.213 43.6995C119.17 43.7412 119.119 43.7738 119.063 43.7954C119.007 43.817 118.947 43.8271 118.887 43.8252C118.579 43.8252 118.474 43.59 118.441 43.3615H117.665C117.659 43.5258 117.687 43.6895 117.747 43.8426C117.806 43.9956 117.897 44.1348 118.013 44.2514C118.129 44.3681 118.267 44.4596 118.42 44.5204C118.572 44.5813 118.736 44.6101 118.9 44.605C119.064 44.6071 119.226 44.5762 119.377 44.5143C119.529 44.4525 119.666 44.3608 119.781 44.2448C119.896 44.1288 119.987 43.9908 120.048 43.8391C120.109 43.6874 120.138 43.525 120.135 43.3615C120.149 43.1051 120.077 42.8513 119.93 42.6408C119.783 42.4304 119.569 42.2754 119.323 42.2007L118.835 42.0063C118.527 41.8828 118.486 41.7383 118.486 41.5845C118.484 41.5302 118.493 41.476 118.512 41.4253C118.531 41.3745 118.561 41.3282 118.599 41.2894C118.637 41.2505 118.683 41.2198 118.733 41.1992C118.783 41.1786 118.837 41.1685 118.892 41.1696C118.948 41.1677 119.003 41.1773 119.055 41.1979C119.108 41.2185 119.155 41.2495 119.194 41.2891C119.234 41.3287 119.265 41.376 119.286 41.4281C119.306 41.4802 119.316 41.536 119.314 41.5919L120.093 41.5913Z" fill="black"/>
<path fill-rule="evenodd" clip-rule="evenodd" d="M122.088 44.5556H122.917V40.4379H122.088V44.5556ZM122.088 39.6013H122.917V38.7727H122.088V39.6013Z" fill="black"/>
<path fill-rule="evenodd" clip-rule="evenodd" d="M127.414 42.8095V41.6722C127.425 41.5049 127.401 41.337 127.344 41.1794C127.286 41.0218 127.197 40.878 127.08 40.7572C126.964 40.6363 126.824 40.5411 126.669 40.4778C126.513 40.4144 126.346 40.3842 126.179 40.3892C125.962 40.3788 125.746 40.4286 125.555 40.5332C125.365 40.6378 125.207 40.7931 125.099 40.9819C124.982 41.2447 124.929 41.5314 124.944 41.8185V43.1769C124.929 43.4643 124.982 43.7511 125.099 44.0141C125.207 44.2029 125.365 44.3582 125.555 44.4628C125.746 44.5674 125.962 44.6173 126.179 44.6069C126.346 44.6117 126.513 44.5817 126.668 44.5188C126.824 44.4559 126.964 44.3614 127.081 44.2414C127.3 44.0022 127.419 43.6879 127.414 43.3634H126.585C126.569 43.5424 126.496 43.7789 126.179 43.7789C126.124 43.7845 126.069 43.7778 126.017 43.7594C125.965 43.741 125.918 43.7112 125.879 43.6723C125.84 43.6334 125.81 43.5863 125.792 43.5345C125.774 43.4827 125.767 43.4273 125.773 43.3726V42.812L127.414 42.8095ZM125.773 41.6889C125.773 41.3801 125.927 41.2177 126.179 41.2177C126.43 41.2177 126.585 41.3795 126.585 41.6889V42.1606H125.773V41.6889Z" fill="black"/>
<path fill-rule="evenodd" clip-rule="evenodd" d="M129.441 44.5556H130.269V42.1112C130.26 41.9956 130.275 41.8794 130.313 41.77C130.352 41.6606 130.413 41.5605 130.492 41.4763C130.572 41.392 130.669 41.3255 130.776 41.2811C130.883 41.2367 130.998 41.2153 131.114 41.2184C131.201 41.2177 131.286 41.2343 131.366 41.2672V40.3892C131.16 40.3914 130.956 40.4359 130.768 40.5197C130.579 40.6036 130.41 40.7252 130.27 40.8769V40.4379H129.441L129.441 44.5556Z" fill="black"/>
<path fill-rule="evenodd" clip-rule="evenodd" d="M65.3604 30.1168C65.2841 31.5132 65.5412 32.9078 66.1105 34.1851C66.6349 35.1038 67.4034 35.8594 68.3306 36.3685C69.2578 36.8776 70.3077 37.1204 71.3643 37.0698C72.421 37.1204 73.4711 36.8777 74.3984 36.3686C75.3257 35.8595 76.0941 35.1038 76.6187 34.1851C77.1882 32.9078 77.4454 31.5132 77.3689 30.1168V23.078C77.4455 21.6814 77.1882 20.2866 76.6187 19.0091C76.0941 18.0904 75.3257 17.3348 74.3984 16.8257C73.4711 16.3166 72.4209 16.0739 71.3643 16.1244C70.3077 16.074 69.2578 16.3168 68.3306 16.8259C67.4034 17.335 66.635 18.0905 66.1105 19.0091C65.5411 20.2866 65.2841 21.6814 65.3604 23.078V30.1168ZM69.3897 22.4439C69.3897 20.9423 70.14 20.1526 71.3656 20.1526C72.5912 20.1526 73.3414 20.9423 73.3414 22.4439V30.7484C73.3414 32.2501 72.5906 33.0404 71.3656 33.0404C70.1406 33.0404 69.3897 32.2501 69.3897 30.7484V22.4439Z" fill="#AF0D21"/>
<path fill-rule="evenodd" clip-rule="evenodd" d="M26.6358 22.4439C26.6358 20.9423 27.3866 20.1526 28.6116 20.1526C29.8366 20.1526 30.5874 20.9423 30.5874 22.4439V30.8769C30.5874 32.3779 29.8372 33.1682 28.6116 33.1682C27.386 33.1682 26.6358 32.3779 26.6358 30.8769V22.4439ZM22.6274 31.9167C22.5893 33.0777 22.8864 34.2252 23.4832 35.2218C23.8347 35.8163 24.3421 36.3032 24.9507 36.6297C25.5592 36.9563 26.2455 37.1099 26.9352 37.0741C27.7188 37.0697 28.4838 36.8347 29.1347 36.3983C29.7856 35.962 30.2936 35.3436 30.5953 34.6204L30.6029 35.3515C30.6029 36.1362 31.5042 36.7716 32.5946 36.7716C33.685 36.7716 34.6155 36.1189 34.6155 35.3342V23.0768C34.6914 21.6801 34.4341 20.2855 33.8648 19.0079C33.3401 18.0893 32.5717 17.3337 31.6444 16.8246C30.7171 16.3155 29.667 16.0728 28.6104 16.1232C27.5536 16.0728 26.5035 16.3155 25.5761 16.8246C24.6487 17.3337 23.8802 18.0893 23.3554 19.0079C22.7866 20.2856 22.5294 21.6802 22.6051 23.0768V31.0232C22.6051 31.3319 22.6248 31.9142 22.6255 31.9173" fill="#AF0D21"/>
<path fill-rule="evenodd" clip-rule="evenodd" d="M123.45 22.4433C123.45 20.9417 124.201 20.152 125.425 20.152C126.65 20.152 127.401 20.9417 127.401 22.4433V24.7346H123.45V22.4433ZM125.448 33.0416C125.181 33.0679 124.912 33.0349 124.66 32.945C124.408 32.8552 124.178 32.7107 123.988 32.522C123.798 32.3332 123.652 32.1048 123.561 31.853C123.47 31.6013 123.435 31.3325 123.46 31.0658L123.45 27.894H130.277C130.581 27.8955 130.872 27.7765 131.089 27.5631C131.305 27.3496 131.427 27.0592 131.43 26.7555V22.363C131.43 18.8473 129.138 16.1219 125.424 16.1219C124.368 16.0714 123.318 16.314 122.391 16.823C121.464 17.332 120.695 18.0875 120.171 19.006C119.601 20.2834 119.343 21.6782 119.42 23.0749L119.414 30.1181C119.346 31.5169 119.613 32.9116 120.193 34.1864C120.717 35.1051 121.486 35.8607 122.413 36.3698C123.34 36.8789 124.39 37.1216 125.447 37.071C126.261 37.0944 127.071 36.9484 127.826 36.6424C128.58 36.3365 129.263 35.8771 129.831 35.2934C130.898 34.1314 131.478 32.6034 131.45 31.0257C131.45 30.223 130.548 29.5753 129.436 29.5753C128.324 29.5753 127.421 30.2255 127.421 31.0269C127.341 31.8963 126.989 33.0416 125.445 33.0416" fill="#AF0D21"/>
<path d="M182.782 32.8298C182.379 34.0907 181.797 35.2868 181.052 36.3809C180.012 37.9029 178.932 39.4191 177.23 39.4502C175.559 39.4822 175.021 38.4577 173.111 38.4577C171.202 38.4577 170.6 39.4205 169.02 39.4817C167.377 39.5434 166.127 37.8368 165.077 36.3214C162.933 33.2211 161.296 27.5608 163.496 23.7432C164.011 22.8186 164.758 22.0438 165.664 21.495C166.569 20.9462 167.601 20.6421 168.66 20.6127C170.273 20.5829 171.794 21.697 172.781 21.697C173.768 21.697 175.615 20.3558 177.56 20.5523C178.461 20.5844 179.342 20.8247 180.134 21.2543C180.926 21.6838 181.608 22.291 182.127 23.0282C182.009 23.1021 179.399 24.621 179.428 27.7796C179.432 28.857 179.751 29.9097 180.347 30.8074C180.943 31.7051 181.789 32.4084 182.78 32.8303M176.286 18.5035C177.23 17.3989 177.697 15.9654 177.586 14.517C176.163 14.6528 174.846 15.3297 173.908 16.4078C173.101 17.3434 172.391 18.8382 172.584 20.2696C173.985 20.3781 175.416 19.5568 176.286 18.5035Z" fill="black"/>
<path d="M197.764 27.9165H196.708L196.131 26.1027H194.121L193.57 27.9165H192.542L194.533 21.7333H195.762L197.764 27.9165ZM195.959 25.3374L195.434 23.7248C195.378 23.5594 195.274 23.1714 195.122 22.5608H195.103C195.042 22.8234 194.944 23.2114 194.809 23.7248L194.296 25.3374H195.959Z" fill="black"/>
<path d="M202.182 27.9161H201.31L201.254 27.2374H201.236C201.095 27.4852 200.889 27.6891 200.639 27.8265C200.389 27.9639 200.107 28.0295 199.822 28.0159C199.627 28.0249 199.432 27.9928 199.25 27.9217C199.068 27.8505 198.903 27.7419 198.766 27.6028C198.422 27.172 198.255 26.6268 198.298 26.0773V23.4492H199.285V25.9137C199.285 26.7722 199.578 27.2015 200.166 27.2015C200.369 27.2101 200.568 27.1517 200.734 27.0353C200.901 26.919 201.024 26.7512 201.085 26.5578C201.13 26.4372 201.151 26.3093 201.149 26.1806V23.4492H202.137V26.63C202.137 27.053 202.151 27.482 202.181 27.917" fill="black"/>
<path d="M205.607 24.1891H204.517V26.3605C204.517 26.9118 204.709 27.1877 205.094 27.188C205.241 27.1909 205.388 27.1762 205.531 27.1442L205.559 27.8925C205.311 27.9733 205.05 28.0103 204.789 28.0019C204.619 28.0118 204.449 27.9849 204.29 27.9231C204.132 27.8613 203.988 27.7661 203.87 27.6439C203.616 27.2967 203.499 26.8686 203.539 26.4405V24.1891H202.889V23.4483H203.543V22.6313L204.519 22.3381V23.4483H205.608L205.607 24.1891Z" fill="black"/>
<path d="M210.444 25.6476C210.469 26.2643 210.259 26.8675 209.857 27.3359C209.65 27.5612 209.397 27.7388 209.114 27.8561C208.832 27.9734 208.527 28.0276 208.222 28.015C207.929 28.0277 207.637 27.9758 207.367 27.8628C207.096 27.7499 206.854 27.5788 206.657 27.3617C206.261 26.9081 206.052 26.321 206.073 25.7194C206.049 25.0972 206.264 24.4893 206.675 24.0215C206.881 23.8006 207.132 23.6271 207.412 23.513C207.692 23.3989 207.993 23.347 208.294 23.3608C208.589 23.3488 208.883 23.4008 209.156 23.5133C209.428 23.6258 209.673 23.796 209.874 24.0123C210.264 24.465 210.468 25.0492 210.443 25.6463M209.414 25.6721C209.425 25.3035 209.333 24.9392 209.148 24.6197C209.064 24.4571 208.936 24.3212 208.779 24.2275C208.621 24.1338 208.441 24.0859 208.258 24.0894C208.072 24.084 207.888 24.1308 207.727 24.2245C207.566 24.3183 207.435 24.4552 207.348 24.6197C207.162 24.9451 207.07 25.3156 207.082 25.6901C207.072 26.0587 207.164 26.4231 207.348 26.7425C207.435 26.9055 207.565 27.0415 207.724 27.1353C207.883 27.2291 208.065 27.2772 208.25 27.2742C208.434 27.2757 208.614 27.2262 208.772 27.131C208.929 27.0358 209.057 26.8987 209.141 26.735C209.331 26.4142 209.426 26.0464 209.416 25.6739" fill="black"/>
<path d="M213.698 24.3265C213.594 24.3089 213.489 24.3003 213.384 24.3007C213.226 24.2933 213.07 24.3255 212.928 24.3943C212.786 24.4631 212.663 24.5663 212.572 24.6945C212.398 24.9546 212.31 25.2631 212.323 25.5759V27.9161H211.335V24.853C211.335 24.3378 211.326 23.8688 211.31 23.4461H212.173L212.21 24.306H212.237C212.331 24.0271 212.503 23.7815 212.734 23.5988C212.94 23.444 213.191 23.3602 213.449 23.3599C213.532 23.359 213.615 23.3652 213.697 23.3783L213.698 24.3265Z" fill="black"/>
<path d="M215.53 22.1237C215.533 22.204 215.519 22.2841 215.489 22.3586C215.459 22.4331 215.413 22.5004 215.355 22.556C215.233 22.6682 215.072 22.7275 214.906 22.721C214.829 22.7229 214.752 22.7087 214.68 22.6794C214.608 22.6501 214.543 22.6063 214.489 22.5508C214.433 22.495 214.389 22.4282 214.36 22.3548C214.331 22.2813 214.317 22.2027 214.32 22.1237C214.317 22.0449 214.332 21.9665 214.362 21.8937C214.392 21.8209 214.437 21.7554 214.495 21.7014C214.613 21.5949 214.766 21.536 214.925 21.536C215.085 21.536 215.238 21.5949 215.356 21.7014C215.413 21.7555 215.459 21.8211 215.489 21.8938C215.519 21.9666 215.532 22.0449 215.53 22.1237ZM215.42 27.917H214.431V23.4492H215.418L215.42 27.917Z" fill="black"/>
<path d="M219.25 26.6274C219.256 26.818 219.218 27.0076 219.139 27.181C219.06 27.3545 218.941 27.5071 218.793 27.6269C218.428 27.8961 217.981 28.0291 217.529 28.0028C217.08 28.0165 216.635 27.9127 216.238 27.7017L216.45 26.9709C216.778 27.1699 217.155 27.2749 217.539 27.2746C218.046 27.2746 218.299 27.0883 218.3 26.7158C218.302 26.6401 218.289 26.5647 218.26 26.4945C218.232 26.4243 218.189 26.3608 218.135 26.308C217.962 26.1656 217.763 26.0581 217.55 25.9916C216.758 25.6984 216.362 25.2707 216.362 24.7085C216.359 24.5256 216.396 24.3441 216.472 24.1776C216.547 24.011 216.659 23.8634 216.8 23.7458C217.127 23.4778 217.542 23.3407 217.964 23.3612C218.357 23.3496 218.745 23.4414 219.091 23.6273L218.88 24.3344C218.607 24.1681 218.293 24.08 217.973 24.0797C217.799 24.0691 217.626 24.1212 217.486 24.2268C217.43 24.2718 217.385 24.3291 217.355 24.3943C217.324 24.4595 217.309 24.5308 217.311 24.6026C217.31 24.6753 217.325 24.7472 217.357 24.8125C217.389 24.8778 217.436 24.9347 217.494 24.9785C217.677 25.1117 217.88 25.2139 218.097 25.2809C218.865 25.5741 219.248 26.0234 219.248 26.6287" fill="black"/>
<path d="M221.278 22.1237C221.282 22.204 221.267 22.2841 221.237 22.3586C221.207 22.4331 221.162 22.5004 221.103 22.556C220.982 22.6683 220.82 22.7276 220.654 22.721C220.577 22.7228 220.5 22.7087 220.428 22.6794C220.357 22.6501 220.292 22.6063 220.238 22.5508C220.182 22.495 220.138 22.4283 220.108 22.3549C220.079 22.2814 220.065 22.2027 220.068 22.1237C220.065 22.0449 220.08 21.9666 220.11 21.8938C220.14 21.8211 220.185 21.7555 220.243 21.7014C220.361 21.5949 220.514 21.536 220.673 21.536C220.832 21.536 220.986 21.5949 221.104 21.7014C221.161 21.7554 221.207 21.8209 221.237 21.8937C221.267 21.9665 221.281 22.0449 221.278 22.1237ZM221.167 27.9174H220.18V23.4492H221.167V27.9174Z" fill="black"/>
<path d="M226.052 25.4735C226.055 25.6245 226.042 25.7755 226.016 25.9242H223.029C223.022 26.114 223.058 26.3029 223.133 26.4775C223.207 26.6521 223.32 26.8081 223.461 26.9346C223.739 27.1513 224.085 27.2619 224.437 27.2466C224.848 27.2519 225.256 27.1805 225.641 27.0361L225.798 27.7271C225.324 27.9211 224.814 28.0151 224.301 28.0032C224.002 28.0195 223.703 27.9734 223.422 27.868C223.141 27.7625 222.885 27.6 222.671 27.3906C222.468 27.1698 222.312 26.9109 222.21 26.6291C222.108 26.3472 222.064 26.048 222.079 25.7487C222.057 25.14 222.252 24.5435 222.63 24.0657C222.817 23.8323 223.055 23.6459 223.327 23.5217C223.599 23.3974 223.896 23.3387 224.194 23.3503C224.479 23.3344 224.763 23.392 225.019 23.5175C225.276 23.643 225.495 23.8322 225.657 24.067C225.931 24.4836 226.07 24.9753 226.052 25.4735ZM225.101 25.217C225.114 24.9495 225.047 24.6841 224.908 24.4552C224.825 24.3211 224.708 24.2119 224.569 24.1392C224.429 24.0664 224.273 24.0329 224.115 24.0421C223.96 24.0393 223.807 24.0747 223.669 24.1452C223.531 24.2156 223.412 24.3189 223.323 24.446C223.153 24.6698 223.051 24.9372 223.028 25.217H225.101Z" fill="black"/>
<path d="M229.28 24.3265C229.176 24.3089 229.071 24.3003 228.966 24.3007C228.809 24.2933 228.652 24.3254 228.51 24.3942C228.368 24.463 228.246 24.5663 228.154 24.6945C227.98 24.9546 227.893 25.2631 227.905 25.5759V27.9161H226.917V24.853C226.917 24.3378 226.909 23.8688 226.892 23.4461H227.756L227.792 24.306H227.819C227.913 24.027 228.085 23.7813 228.316 23.5988C228.522 23.444 228.773 23.3601 229.031 23.3599C229.114 23.359 229.197 23.3652 229.279 23.3783L229.28 24.3265Z" fill="black"/>
<path d="M232.456 24.1891H231.367V26.3605C231.367 26.9118 231.559 27.1877 231.944 27.188C232.091 27.1909 232.238 27.1762 232.382 27.1442L232.41 27.8925C232.161 27.9733 231.9 28.0103 231.639 28.0019C231.469 28.0117 231.299 27.9848 231.14 27.923C230.982 27.8613 230.838 27.7661 230.72 27.6439C230.467 27.2966 230.349 26.8686 230.39 26.4405V24.1891H229.735V23.4483H230.39V22.6313L231.365 22.3381V23.4483H232.454L232.456 24.1891Z" fill="black"/>
<path d="M236.897 25.4735C236.9 25.6245 236.887 25.7755 236.861 25.9242H233.874C233.867 26.114 233.903 26.3029 233.977 26.4775C234.052 26.6521 234.164 26.8081 234.306 26.9346C234.584 27.1514 234.93 27.262 235.281 27.2466C235.693 27.252 236.102 27.1806 236.487 27.0361L236.643 27.7271C236.168 27.9211 235.659 28.0151 235.146 28.0032C234.847 28.0195 234.547 27.9735 234.267 27.868C233.986 27.7625 233.73 27.6 233.516 27.3906C233.313 27.1699 233.156 26.911 233.055 26.6291C232.953 26.3473 232.909 26.048 232.924 25.7487C232.902 25.14 233.097 24.5435 233.475 24.0657C233.661 23.8321 233.9 23.6455 234.171 23.521C234.443 23.3964 234.74 23.3375 235.039 23.3489C235.324 23.3331 235.608 23.3906 235.864 23.5162C236.12 23.6417 236.34 23.8309 236.502 24.0657C236.776 24.4823 236.913 24.9736 236.896 25.4717M235.946 25.2157C235.959 24.9482 235.891 24.6829 235.752 24.4539C235.67 24.3198 235.553 24.2105 235.413 24.1378C235.273 24.0651 235.117 24.0315 234.959 24.0408C234.804 24.0381 234.651 24.0736 234.513 24.144C234.375 24.2144 234.256 24.3177 234.167 24.4447C233.997 24.6684 233.895 24.9359 233.872 25.2157H235.946Z" fill="black"/>
<path d="M240.124 24.3265C240.021 24.3089 239.916 24.3003 239.811 24.3007C239.653 24.2933 239.496 24.3255 239.354 24.3943C239.213 24.4631 239.09 24.5663 238.998 24.6945C238.824 24.9546 238.737 25.2631 238.749 25.5759V27.9161H237.762V24.853C237.762 24.3378 237.754 23.8688 237.737 23.4461H238.601L238.637 24.306H238.665C238.758 24.0271 238.93 23.7814 239.161 23.5988C239.367 23.4441 239.618 23.3603 239.876 23.3599C239.959 23.359 240.042 23.3652 240.124 23.3783V24.3265Z" fill="black"/>
<path d="M196.557 36.7411C196.565 36.9826 196.52 37.2229 196.424 37.445C196.329 37.667 196.186 37.8654 196.005 38.0258C195.529 38.4116 194.926 38.605 194.314 38.568C193.753 38.5947 193.195 38.4616 192.706 38.1843L192.936 37.3616C193.371 37.615 193.867 37.7463 194.37 37.7414C194.682 37.7604 194.991 37.6714 195.246 37.4894C195.347 37.4092 195.428 37.3064 195.482 37.1892C195.537 37.072 195.562 36.9437 195.558 36.8146C195.561 36.6971 195.539 36.5803 195.495 36.4715C195.45 36.3627 195.384 36.2641 195.3 36.1818C195.051 35.9657 194.76 35.8032 194.446 35.7044C193.361 35.3012 192.818 34.7112 192.818 33.9343C192.812 33.6962 192.861 33.46 192.96 33.2436C193.06 33.0272 193.207 32.8364 193.392 32.6859C193.823 32.3456 194.363 32.173 194.911 32.2002C195.396 32.1835 195.878 32.2844 196.316 32.4942L196.068 33.3038C195.704 33.1075 195.296 33.0079 194.883 33.0145C194.588 32.9969 194.297 33.0886 194.066 33.2723C193.987 33.3422 193.923 33.4285 193.881 33.5252C193.838 33.6219 193.816 33.7267 193.818 33.8324C193.816 33.9485 193.84 34.0634 193.89 34.1685C193.939 34.2735 194.012 34.3657 194.103 34.438C194.376 34.644 194.68 34.8051 195.004 34.9154C195.449 35.0719 195.852 35.3296 196.181 35.6681C196.436 35.9664 196.571 36.3495 196.558 36.7419" fill="black"/>
<path d="M201.241 36.0379C201.243 36.1888 201.231 36.3396 201.204 36.4881H198.217C198.211 36.678 198.246 36.867 198.321 37.0416C198.396 37.2163 198.508 37.3724 198.65 37.499C198.927 37.7157 199.273 37.8263 199.625 37.811C200.036 37.816 200.445 37.7446 200.83 37.6005L200.986 38.2915C200.511 38.4855 200.002 38.5795 199.489 38.5676C199.19 38.5839 198.89 38.5379 198.61 38.4324C198.329 38.3269 198.073 38.1644 197.859 37.955C197.656 37.7342 197.5 37.4754 197.398 37.1935C197.296 36.9116 197.252 36.6124 197.267 36.3131C197.245 35.7044 197.44 35.1078 197.818 34.6301C198.004 34.3964 198.243 34.2097 198.514 34.085C198.786 33.9604 199.083 33.9013 199.382 33.9125C199.667 33.8967 199.951 33.9545 200.207 34.0801C200.463 34.2058 200.683 34.3952 200.845 34.6301C201.119 35.0467 201.256 35.538 201.239 36.0361M200.291 35.7819C200.304 35.5143 200.237 35.249 200.098 35.02C200.016 34.8858 199.898 34.7764 199.759 34.7035C199.619 34.6306 199.462 34.5969 199.305 34.606C199.15 34.6035 198.997 34.639 198.859 34.7095C198.721 34.78 198.602 34.8833 198.514 35.0104C198.344 35.2342 198.241 35.5016 198.218 35.7814L200.291 35.7819Z" fill="black"/>
<path d="M204.469 34.8918C204.365 34.8742 204.26 34.8655 204.155 34.866C203.997 34.8586 203.841 34.8908 203.699 34.9596C203.557 35.0284 203.435 35.1316 203.343 35.2598C203.169 35.5198 203.081 35.8284 203.094 36.1411V38.4814H202.106V35.4182C202.106 34.9032 202.098 34.4349 202.081 34.0114H202.945L202.981 34.8708H203.008C203.102 34.5923 203.274 34.347 203.505 34.1645C203.711 34.01 203.962 33.9262 204.22 33.9256C204.303 33.925 204.386 33.931 204.468 33.9435L204.469 34.8918Z" fill="black"/>
<path d="M209.225 34.0135L207.538 38.4814H206.575L204.943 34.0135H206.006L206.768 36.3766C206.896 36.7683 207.003 37.1453 207.089 37.5073H207.116C207.19 37.1823 207.297 36.8054 207.437 36.3766L208.19 34.0135H209.225Z" fill="black"/>
<path d="M211.003 32.6868C211.006 32.7669 210.992 32.8467 210.962 32.921C210.932 32.9953 210.886 33.0623 210.828 33.1178C210.768 33.1736 210.697 33.2169 210.62 33.2453C210.543 33.2737 210.461 33.2866 210.379 33.2832C210.302 33.285 210.225 33.2709 210.153 33.2418C210.082 33.2127 210.017 33.1691 209.962 33.1138C209.906 33.058 209.863 32.9913 209.833 32.9178C209.804 32.8444 209.791 32.7657 209.793 32.6868C209.791 32.6079 209.805 32.5294 209.835 32.4565C209.865 32.3835 209.911 32.3178 209.968 32.2636C210.086 32.1571 210.24 32.0982 210.399 32.0982C210.558 32.0982 210.711 32.1571 210.829 32.2636C210.887 32.3178 210.932 32.3835 210.962 32.4565C210.992 32.5294 211.006 32.6079 211.003 32.6868ZM210.892 38.4818H209.905V34.0135H210.892V38.4818Z" fill="black"/>
<path d="M215.284 34.1374L215.092 34.89C214.823 34.7621 214.527 34.6985 214.229 34.7041C214.035 34.6955 213.842 34.7303 213.664 34.806C213.485 34.8817 213.326 34.9964 213.197 35.1417C212.937 35.4498 212.801 35.844 212.816 36.247C212.805 36.4507 212.835 36.6546 212.904 36.8467C212.972 37.0389 213.078 37.2155 213.215 37.3664C213.346 37.5021 213.504 37.6089 213.678 37.6799C213.853 37.751 214.04 37.7848 214.229 37.779C214.537 37.7787 214.843 37.7185 215.128 37.6018L215.266 38.3405C214.877 38.5053 214.458 38.5832 214.036 38.5689C213.737 38.5833 213.438 38.5358 213.158 38.4292C212.878 38.3227 212.623 38.1594 212.41 37.9497C212.203 37.7282 212.043 37.4675 211.939 37.1831C211.835 36.8987 211.789 36.5963 211.804 36.2938C211.789 35.9755 211.84 35.6575 211.956 35.3607C212.073 35.0638 212.25 34.7948 212.477 34.5714C212.705 34.348 212.976 34.1751 213.275 34.0642C213.574 33.9533 213.893 33.9068 214.211 33.9278C214.58 33.9181 214.946 33.9897 215.284 34.1374Z" fill="black"/>
<path d="M219.698 36.0379C219.7 36.1888 219.688 36.3396 219.662 36.4881H216.675C216.668 36.678 216.704 36.867 216.778 37.0416C216.853 37.2163 216.965 37.3724 217.107 37.499C217.385 37.7158 217.73 37.8264 218.082 37.811C218.493 37.816 218.902 37.7446 219.287 37.6005L219.443 38.2915C218.969 38.4855 218.459 38.5795 217.946 38.5676C217.647 38.5839 217.347 38.5379 217.067 38.4324C216.786 38.3269 216.531 38.1644 216.316 37.955C216.114 37.7342 215.957 37.4754 215.855 37.1935C215.754 36.9116 215.709 36.6124 215.724 36.3131C215.702 35.7044 215.898 35.1078 216.275 34.6301C216.462 34.3967 216.7 34.2102 216.972 34.0859C217.244 33.9615 217.541 33.9027 217.839 33.9142C218.124 33.8985 218.408 33.9562 218.664 34.0819C218.921 34.2075 219.14 34.3969 219.302 34.6319C219.576 35.0484 219.714 35.5397 219.696 36.0379M218.746 35.7819C218.759 35.5143 218.692 35.249 218.553 35.02C218.47 34.8858 218.353 34.7764 218.213 34.7035C218.074 34.6306 217.917 34.5969 217.76 34.606C217.605 34.6035 217.452 34.639 217.314 34.7095C217.176 34.78 217.057 34.8833 216.968 35.0104C216.799 35.2342 216.696 35.5016 216.673 35.7814L218.746 35.7819Z" fill="black"/>
<path d="M226.678 34.0962C226.69 34.3467 226.652 34.597 226.565 34.8322C226.478 35.0675 226.345 35.283 226.174 35.4659C225.831 35.7392 225.433 35.9361 225.008 36.0434C224.583 36.1506 224.139 36.1657 223.708 36.0877V38.4818H222.721V32.3769C223.255 32.2864 223.795 32.2434 224.337 32.2487C224.969 32.2027 225.597 32.3819 226.109 32.7546C226.298 32.9217 226.447 33.129 226.546 33.3612C226.644 33.5934 226.69 33.8443 226.678 34.0962ZM225.696 34.1404C225.705 33.9837 225.678 33.8269 225.618 33.682C225.557 33.5372 225.464 33.4083 225.345 33.3051C225.067 33.0961 224.722 32.9928 224.374 33.0136C224.15 33.0091 223.926 33.0277 223.706 33.0692V35.3036C223.895 35.3455 224.089 35.3641 224.283 35.3587C224.656 35.3804 225.024 35.2658 225.318 35.0362C225.444 34.9246 225.543 34.7862 225.608 34.6311C225.673 34.4761 225.702 34.3084 225.694 34.1404" fill="black"/>
<path d="M229.96 34.8918C229.856 34.8742 229.751 34.8655 229.646 34.866C229.489 34.8585 229.332 34.8907 229.19 34.9595C229.048 35.0283 228.926 35.1315 228.834 35.2598C228.66 35.5197 228.572 35.8284 228.585 36.1411V38.4814H227.597V35.4182C227.597 34.9032 227.588 34.4349 227.572 34.0114H228.436L228.472 34.8708H228.499C228.593 34.5922 228.765 34.3468 228.996 34.1645C229.202 34.01 229.453 33.9262 229.711 33.9256C229.794 33.925 229.877 33.931 229.959 33.9435L229.96 34.8918Z" fill="black"/>
<path d="M234.695 36.2129C234.719 36.8296 234.51 37.4326 234.108 37.9011C233.901 38.1264 233.648 38.304 233.366 38.4213C233.083 38.5386 232.779 38.5928 232.473 38.5803C232.181 38.5933 231.889 38.5416 231.618 38.429C231.347 38.3164 231.105 38.1456 230.908 37.9287C230.511 37.4751 230.303 36.8875 230.324 36.2855C230.299 35.6632 230.515 35.0551 230.926 34.5872C231.132 34.3664 231.383 34.1931 231.663 34.0791C231.943 33.9652 232.244 33.9134 232.545 33.9273C232.84 33.9152 233.134 33.9672 233.406 34.0797C233.679 34.1922 233.924 34.3625 234.124 34.5789C234.515 35.0313 234.718 35.6157 234.693 36.2129M233.665 36.2387C233.675 35.87 233.582 35.5057 233.398 35.1863C233.314 35.0235 233.186 34.8875 233.028 34.7937C232.871 34.6999 232.69 34.652 232.507 34.6555C232.321 34.6504 232.138 34.6974 231.977 34.7912C231.816 34.885 231.685 35.0218 231.598 35.1863C231.412 35.5117 231.32 35.8821 231.332 36.2566C231.322 36.6253 231.414 36.9896 231.598 37.3091C231.686 37.4704 231.816 37.6049 231.974 37.6984C232.132 37.7919 232.313 37.8407 232.496 37.8398C232.68 37.8389 232.86 37.7883 233.017 37.6933C233.174 37.5983 233.303 37.4625 233.389 37.3003C233.578 36.9791 233.674 36.6115 233.665 36.2387Z" fill="black"/>
<path d="M239.133 34.0135L237.445 38.4814H236.483L234.851 34.0135H235.915L236.675 36.3766C236.804 36.7683 236.911 37.1453 236.997 37.5073H237.024C237.098 37.1823 237.205 36.8054 237.345 36.3766L238.097 34.0135H239.133Z" fill="black"/>
<path d="M240.819 32.6868C240.822 32.7669 240.808 32.8467 240.778 32.921C240.748 32.9953 240.702 33.0623 240.644 33.1178C240.584 33.1736 240.513 33.2169 240.436 33.2453C240.359 33.2737 240.277 33.2866 240.195 33.2832C240.118 33.2848 240.041 33.2706 239.969 33.2415C239.898 33.2124 239.833 33.169 239.778 33.1138C239.722 33.0579 239.679 32.9912 239.65 32.9178C239.62 32.8443 239.607 32.7657 239.609 32.6868C239.607 32.6079 239.621 32.5294 239.651 32.4565C239.681 32.3835 239.727 32.3178 239.784 32.2636C239.902 32.1571 240.055 32.0982 240.214 32.0982C240.374 32.0982 240.527 32.1571 240.645 32.2636C240.702 32.3178 240.748 32.3835 240.778 32.4565C240.808 32.5294 240.822 32.6079 240.819 32.6868ZM240.709 38.4796H239.721V34.0135H240.708L240.709 38.4796Z" fill="black"/>
<path d="M245.801 38.4814H244.919L244.876 37.765H244.848C244.716 38.0274 244.51 38.2449 244.255 38.3899C244 38.535 243.708 38.6011 243.415 38.5798C243.158 38.584 242.904 38.5291 242.671 38.4194C242.439 38.3097 242.234 38.1481 242.074 37.9471C241.704 37.4815 241.515 36.898 241.541 36.3039C241.512 35.6677 241.72 35.0433 242.124 34.5509C242.295 34.3517 242.508 34.1925 242.747 34.0846C242.987 33.9767 243.247 33.9227 243.51 33.9265C243.756 33.9018 244.004 33.9453 244.228 34.0523C244.451 34.1592 244.64 34.3255 244.775 34.533V31.9652H245.762V37.2793C245.762 37.7143 245.776 38.1157 245.803 38.4836M244.775 36.6019V35.8571C244.777 35.7527 244.768 35.6484 244.748 35.546C244.695 35.3131 244.57 35.1031 244.389 34.9469C244.207 34.7859 243.97 34.6993 243.727 34.7045C243.557 34.6988 243.389 34.7359 243.237 34.8124C243.085 34.8889 242.955 35.0022 242.858 35.1421C242.636 35.4737 242.525 35.8677 242.542 36.2667C242.524 36.6469 242.631 37.0224 242.845 37.3371C242.941 37.476 243.071 37.5888 243.221 37.6652C243.372 37.7416 243.54 37.7792 243.709 37.7747C243.858 37.7795 244.007 37.749 244.142 37.6858C244.278 37.6225 244.396 37.5283 244.488 37.4106C244.68 37.1829 244.781 36.8934 244.774 36.5962" fill="black"/>
<path d="M250.634 36.0379C250.637 36.1888 250.625 36.3396 250.598 36.4881H247.611C247.605 36.678 247.64 36.867 247.715 37.0416C247.79 37.2163 247.902 37.3724 248.043 37.499C248.321 37.7158 248.667 37.8264 249.019 37.811C249.43 37.8161 249.839 37.7447 250.224 37.6005L250.382 38.2901C249.907 38.4842 249.398 38.5782 248.885 38.5663C248.586 38.5826 248.286 38.5365 248.006 38.4311C247.725 38.3256 247.469 38.163 247.255 37.9536C247.052 37.7329 246.896 37.474 246.794 37.1922C246.692 36.9103 246.648 36.611 246.663 36.3118C246.641 35.7031 246.836 35.1065 247.214 34.6288C247.4 34.395 247.639 34.2082 247.911 34.0835C248.182 33.9588 248.48 33.8998 248.778 33.9111C249.063 33.8955 249.347 33.9533 249.604 34.0789C249.86 34.2046 250.079 34.3939 250.242 34.6288C250.515 35.0454 250.653 35.5367 250.635 36.0348M249.685 35.7788C249.698 35.5113 249.631 35.246 249.492 35.0169C249.41 34.8827 249.292 34.7733 249.153 34.7004C249.013 34.6275 248.856 34.5939 248.699 34.603C248.544 34.6005 248.391 34.636 248.252 34.7065C248.114 34.777 247.995 34.8803 247.907 35.0073C247.737 35.231 247.635 35.4985 247.612 35.7784L249.685 35.7788Z" fill="black"/>
<path d="M253.861 34.8918C253.758 34.8742 253.653 34.8655 253.548 34.866C253.39 34.8586 253.233 34.8908 253.091 34.9596C252.949 35.0284 252.827 35.1316 252.735 35.2598C252.561 35.5198 252.474 35.8284 252.486 36.1411V38.4814H251.499V35.4182C251.499 34.9032 251.491 34.4349 251.474 34.0114H252.338L252.374 34.8708H252.402C252.495 34.5923 252.667 34.3469 252.898 34.1645C253.104 34.0101 253.355 33.9263 253.613 33.9256C253.696 33.925 253.779 33.931 253.861 33.9435V34.8918Z" fill="black"/>
<path d="M305.195 32.8304C304.792 34.0911 304.21 35.2872 303.466 36.3817C302.425 37.9038 301.347 39.4193 299.644 39.4508C297.972 39.4822 297.434 38.4584 295.524 38.4584C293.614 38.4584 293.014 39.4201 291.432 39.4815C289.79 39.5436 288.539 37.8366 287.486 36.3211C285.342 33.2213 283.706 27.5604 285.905 23.743C286.421 22.8181 287.168 22.0432 288.074 21.4944C288.979 20.9456 290.012 20.6417 291.07 20.6126C292.685 20.5826 294.205 21.697 295.192 21.697C296.179 21.697 298.026 20.3554 299.971 20.5527C300.872 20.5846 301.753 20.8248 302.545 21.2543C303.337 21.6838 304.02 22.2911 304.538 23.0284C303.723 23.5275 303.048 24.2249 302.576 25.0555C302.104 25.8861 301.85 26.8228 301.839 27.7781C301.842 28.8557 302.162 29.9086 302.758 30.8064C303.354 31.7041 304.2 32.4074 305.192 32.8289M298.696 18.5023C299.64 17.3981 300.107 15.965 299.996 14.5169C298.573 14.6521 297.257 15.3288 296.319 16.4073C295.85 16.929 295.491 17.5398 295.264 18.2031C295.036 18.8665 294.945 19.5689 294.995 20.2684C295.706 20.2784 296.41 20.1244 297.052 19.8182C297.694 19.512 298.257 19.062 298.697 18.503" fill="black"/>
<path d="M320.13 27.893H319.086L318.512 26.0925H316.521L315.974 27.893H314.956L316.929 21.7651H318.147L320.13 27.893ZM318.339 25.3354L317.821 23.7359C317.767 23.5722 317.664 23.1871 317.512 22.5806H317.493C317.433 22.8412 317.336 23.2263 317.201 23.7359L316.689 25.3354H318.339Z" fill="black"/>
<path d="M324.457 27.893H323.594L323.54 27.2192H323.522C323.383 27.4652 323.178 27.6677 322.931 27.8042C322.683 27.9408 322.403 28.0059 322.121 27.9924C321.928 28.0012 321.735 27.9693 321.555 27.8988C321.374 27.8283 321.211 27.7208 321.075 27.5831C320.736 27.1566 320.57 26.6171 320.613 26.0735V23.4728H321.594V25.9098C321.594 26.7584 321.886 27.1825 322.471 27.182C322.671 27.1901 322.869 27.1322 323.033 27.0172C323.197 26.9022 323.319 26.7365 323.379 26.5455C323.423 26.4263 323.445 26.2999 323.443 26.1728V23.4691H324.425V26.6149C324.421 27.0387 324.434 27.4619 324.457 27.893Z" fill="black"/>
<path d="M327.832 24.2101H326.749V26.3562C326.749 26.9014 326.94 27.1739 327.322 27.1739C327.469 27.1774 327.616 27.1624 327.76 27.1294L327.788 27.8732C327.542 27.9547 327.283 27.9921 327.024 27.9836C326.856 27.993 326.688 27.9662 326.531 27.9049C326.374 27.8437 326.232 27.7494 326.115 27.6284C325.864 27.2849 325.747 26.8615 325.787 26.4381V24.2101H325.142V23.4743H325.787V22.6653L326.751 22.3731V23.4691H327.833L327.832 24.2101Z" fill="black"/>
<path d="M332.586 25.6474C332.61 26.2588 332.401 26.8565 332.002 27.3201C331.798 27.5433 331.547 27.7191 331.267 27.8352C330.988 27.9514 330.686 28.005 330.384 27.9923C330.094 28.0053 329.805 27.9541 329.537 27.8425C329.269 27.7308 329.029 27.5614 328.834 27.3464C328.442 26.8973 328.235 26.3157 328.256 25.7198C328.232 25.1038 328.445 24.502 328.852 24.0391C329.056 23.8189 329.306 23.646 329.583 23.5323C329.861 23.4187 330.16 23.3672 330.46 23.3814C330.752 23.3696 331.043 23.4213 331.313 23.5328C331.583 23.6443 331.826 23.813 332.025 24.0274C332.411 24.4765 332.612 25.0557 332.586 25.6474ZM331.569 25.6694C331.579 25.3044 331.487 24.9439 331.304 24.6281C331.221 24.4667 331.095 24.3318 330.939 24.2387C330.783 24.1457 330.604 24.0983 330.423 24.102C330.238 24.0964 330.056 24.1427 329.897 24.2358C329.738 24.3288 329.608 24.4648 329.522 24.6281C329.338 24.9504 329.247 25.3174 329.259 25.6884C329.249 26.0534 329.34 26.414 329.522 26.7304C329.608 26.8915 329.737 27.0259 329.894 27.1186C330.052 27.2113 330.231 27.2588 330.414 27.2558C330.596 27.2571 330.775 27.2079 330.93 27.1136C331.086 27.0192 331.212 26.8835 331.295 26.7216C331.483 26.4034 331.578 26.0388 331.569 25.6694Z" fill="black"/>
<path d="M335.732 24.338C335.63 24.3194 335.527 24.3103 335.423 24.3109C335.267 24.3035 335.112 24.3354 334.971 24.4037C334.831 24.472 334.71 24.5746 334.619 24.7019C334.448 24.9598 334.363 25.2651 334.375 25.5744V27.8937H333.393V24.8656C333.393 24.3565 333.384 23.8937 333.365 23.4772H334.22L334.255 24.3234H334.283C334.376 24.0477 334.547 23.8047 334.774 23.6233C334.979 23.47 335.228 23.3867 335.484 23.3858C335.566 23.3854 335.648 23.3915 335.729 23.4041L335.732 24.338Z" fill="black"/>
<path d="M337.542 22.1553C337.546 22.2349 337.532 22.3142 337.502 22.388C337.472 22.4618 337.427 22.5285 337.369 22.5835C337.248 22.6947 337.088 22.7535 336.924 22.7472C336.847 22.7493 336.771 22.7353 336.7 22.7063C336.628 22.6772 336.564 22.6337 336.511 22.5784C336.455 22.5232 336.412 22.4572 336.383 22.3846C336.354 22.3119 336.34 22.2342 336.343 22.156C336.34 22.0782 336.354 22.0007 336.384 21.9287C336.413 21.8567 336.458 21.7917 336.514 21.7381C336.63 21.629 336.784 21.5702 336.942 21.5744C337.101 21.5703 337.254 21.6291 337.369 21.7381C337.426 21.7915 337.471 21.8562 337.501 21.9282C337.53 22.0001 337.545 22.0775 337.542 22.1553ZM337.433 27.893H336.451V23.4735H337.433V27.893Z" fill="black"/>
<path d="M341.24 26.62C341.247 26.8093 341.209 26.9975 341.131 27.1696C341.052 27.3418 340.934 27.4931 340.786 27.6116C340.425 27.8787 339.981 28.0105 339.532 27.9843C339.086 27.9981 338.644 27.8948 338.25 27.6847L338.459 26.9576C338.784 27.1589 339.158 27.2657 339.541 27.266C340.044 27.266 340.295 27.0816 340.295 26.7129C340.298 26.6375 340.285 26.5625 340.256 26.4926C340.228 26.4227 340.186 26.3595 340.131 26.3073C339.96 26.1666 339.763 26.0602 339.551 25.9938C338.762 25.7015 338.368 25.2772 338.368 24.7209C338.365 24.5391 338.403 24.3589 338.479 24.1937C338.555 24.0284 338.667 23.8822 338.807 23.7658C339.131 23.4997 339.543 23.3637 339.962 23.3844C340.351 23.3731 340.736 23.4641 341.078 23.6482L340.871 24.3489C340.6 24.1829 340.288 24.0947 339.97 24.0939C339.797 24.0835 339.626 24.1354 339.488 24.2401C339.433 24.2848 339.388 24.3416 339.358 24.4062C339.329 24.4709 339.314 24.5415 339.316 24.6127C339.315 24.6849 339.33 24.7563 339.362 24.8212C339.394 24.8861 339.44 24.9426 339.498 24.9861C339.68 25.1176 339.883 25.2186 340.098 25.285C340.86 25.5744 341.24 26.0194 341.24 26.62Z" fill="black"/>
<path d="M343.16 22.1553C343.163 22.2348 343.149 22.314 343.12 22.3878C343.09 22.4616 343.045 22.5283 342.988 22.5835C342.866 22.6946 342.706 22.7534 342.542 22.7472C342.465 22.7492 342.389 22.7352 342.317 22.7062C342.246 22.6771 342.181 22.6336 342.128 22.5784C342.072 22.5232 342.029 22.4572 342 22.3846C341.971 22.312 341.957 22.2342 341.96 22.156C341.957 22.0781 341.971 22.0006 342.001 21.9286C342.031 21.8565 342.075 21.7916 342.132 21.7381C342.189 21.6841 342.256 21.6419 342.329 21.6138C342.402 21.5857 342.48 21.5723 342.559 21.5744C342.718 21.5703 342.871 21.6291 342.987 21.7381C343.043 21.7916 343.088 21.8564 343.118 21.9283C343.148 22.0002 343.162 22.0775 343.16 22.1553ZM343.051 27.893H342.069V23.4735H343.051L343.051 27.893Z" fill="black"/>
<path d="M347.797 25.475C347.8 25.6242 347.787 25.7732 347.761 25.92H344.814C344.809 26.1079 344.844 26.2948 344.918 26.4677C344.992 26.6405 345.103 26.795 345.243 26.9204C345.517 27.1348 345.858 27.2442 346.206 27.2287C346.612 27.2345 347.016 27.1636 347.396 27.0198L347.552 27.7023C347.082 27.8939 346.577 27.9867 346.07 27.9748C345.774 27.9912 345.477 27.9459 345.199 27.8417C344.921 27.7376 344.668 27.5769 344.456 27.3698C344.255 27.1517 344.101 26.896 344 26.6174C343.9 26.3389 343.856 26.0432 343.871 25.7476C343.85 25.1455 344.043 24.5554 344.417 24.083C344.601 23.8521 344.837 23.6678 345.105 23.5448C345.374 23.4218 345.667 23.3636 345.962 23.3749C346.244 23.3594 346.525 23.4163 346.778 23.5403C347.031 23.6642 347.248 23.8511 347.409 24.083C347.679 24.4955 347.815 24.9819 347.797 25.475ZM346.861 25.2207C346.874 24.9557 346.807 24.6928 346.67 24.4659C346.589 24.3332 346.473 24.2251 346.336 24.153C346.198 24.0809 346.043 24.0476 345.888 24.0567C345.735 24.0543 345.584 24.0893 345.447 24.1589C345.311 24.2284 345.194 24.3303 345.106 24.4556C344.938 24.6776 344.836 24.943 344.814 25.2207H346.861Z" fill="black"/>
<path d="M350.925 24.338C350.823 24.3194 350.719 24.3104 350.616 24.3109C350.46 24.3035 350.304 24.3354 350.164 24.4037C350.023 24.472 349.902 24.5746 349.812 24.7019C349.64 24.9596 349.554 25.265 349.566 25.5744V27.8937H348.585V24.8656C348.585 24.3565 348.576 23.8937 348.557 23.4772H349.411L349.448 24.3234H349.475C349.568 24.0479 349.738 23.8049 349.965 23.6233C350.17 23.47 350.42 23.3867 350.676 23.3858C350.758 23.3854 350.84 23.3915 350.921 23.4041L350.925 24.338Z" fill="black"/>
<path d="M354.17 24.2101H353.088V26.3562C353.088 26.9014 353.279 27.1739 353.661 27.1739C353.809 27.1774 353.956 27.1624 354.1 27.1294L354.127 27.8733C353.881 27.955 353.622 27.9923 353.362 27.9836C353.194 27.9933 353.026 27.9665 352.87 27.9053C352.713 27.844 352.571 27.7495 352.454 27.6284C352.203 27.2852 352.086 26.8616 352.127 26.4381V24.2101H351.482V23.4743H352.127V22.6653L353.091 22.3731V23.4691H354.173L354.17 24.2101Z" fill="black"/>
<path d="M358.526 25.475C358.528 25.6241 358.516 25.7731 358.49 25.92H355.543C355.537 26.1078 355.572 26.2947 355.646 26.4675C355.72 26.6403 355.831 26.7949 355.971 26.9204C356.245 27.1345 356.586 27.2438 356.934 27.2287C357.34 27.2344 357.744 27.1636 358.124 27.0198L358.279 27.7023C357.809 27.8938 357.305 27.9866 356.798 27.9748C356.501 27.9912 356.205 27.9458 355.927 27.8417C355.649 27.7376 355.395 27.5769 355.183 27.3698C354.983 27.1517 354.828 26.8959 354.727 26.6174C354.627 26.3389 354.583 26.0432 354.598 25.7476C354.577 25.1454 354.771 24.5554 355.145 24.083C355.329 23.8521 355.565 23.6678 355.833 23.5448C356.101 23.4218 356.395 23.3636 356.69 23.3749C356.971 23.3594 357.252 23.4163 357.505 23.5403C357.758 23.6642 357.975 23.8511 358.136 24.083C358.407 24.4954 358.543 24.9818 358.526 25.475ZM357.588 25.2207C357.602 24.9557 357.535 24.6928 357.398 24.4659C357.317 24.3332 357.201 24.2251 357.064 24.153C356.926 24.0809 356.772 24.0476 356.617 24.0567C356.464 24.0542 356.312 24.0893 356.176 24.1588C356.04 24.2284 355.923 24.3303 355.835 24.4556C355.667 24.6777 355.566 24.9431 355.543 25.2207H357.588Z" fill="black"/>
<path d="M361.734 24.338C361.633 24.3195 361.53 24.3104 361.427 24.3109C361.271 24.3033 361.115 24.3351 360.975 24.4035C360.834 24.4718 360.713 24.5744 360.623 24.7019C360.451 24.9596 360.366 25.265 360.378 25.5744V27.8937H359.395V24.8656C359.395 24.3565 359.387 23.8937 359.369 23.4772H360.223L360.26 24.3234H360.286C360.379 24.0478 360.549 23.8047 360.776 23.6233C360.981 23.4702 361.23 23.3869 361.486 23.3858C361.568 23.3854 361.65 23.3915 361.732 23.4041L361.734 24.338Z" fill="black"/>
<path d="M320.021 38.2788H319.04V35.5145H316.384V38.2788H315.402V32.1509H316.384V34.6507H319.04V32.1509H320.021V38.2788Z" fill="black"/>
<path d="M324.559 38.2781H323.678L323.604 37.7666H323.576C323.427 37.9665 323.232 38.1267 323.007 38.233C322.782 38.3393 322.534 38.3885 322.285 38.376C322.099 38.384 321.912 38.3525 321.738 38.2835C321.564 38.2145 321.407 38.1096 321.276 37.9756C321.162 37.8558 321.073 37.7147 321.013 37.5603C320.954 37.406 320.926 37.2414 320.93 37.076C320.921 36.8277 320.979 36.5816 321.099 36.3638C321.218 36.146 321.394 35.9646 321.609 35.8389C322.192 35.5234 322.852 35.3785 323.513 35.4209V35.3391C323.513 34.7545 323.207 34.4622 322.594 34.4622C322.185 34.4546 321.783 34.5688 321.439 34.7903L321.24 34.1444C321.7 33.8774 322.226 33.7452 322.758 33.7629C323.916 33.7629 324.495 34.3719 324.494 35.5897V37.2185C324.488 37.5728 324.51 37.9271 324.559 38.2781ZM322.495 32.7399C322.497 32.8072 322.486 32.8742 322.462 32.937C322.437 32.9998 322.4 33.057 322.353 33.1052C322.309 33.1527 322.254 33.1903 322.194 33.2155C322.134 33.2406 322.069 33.2529 322.003 33.2514C321.937 33.2524 321.871 33.2397 321.81 33.2139C321.749 33.1881 321.694 33.1498 321.649 33.1016C321.602 33.0545 321.565 32.9984 321.539 32.9367C321.514 32.8749 321.502 32.8087 321.503 32.7421C321.502 32.6756 321.514 32.6096 321.539 32.5481C321.564 32.4865 321.602 32.4307 321.649 32.384C321.695 32.3358 321.751 32.2977 321.813 32.2719C321.875 32.2461 321.941 32.2333 322.008 32.2342C322.073 32.2323 322.138 32.2447 322.198 32.2706C322.258 32.2965 322.311 32.3352 322.354 32.384C322.445 32.48 322.496 32.6076 322.495 32.7399ZM323.54 36.7589V36.0764C322.449 36.0593 321.904 36.3565 321.905 36.9679C321.897 37.0628 321.91 37.1584 321.943 37.2478C321.976 37.3373 322.027 37.4185 322.095 37.486C322.228 37.6031 322.4 37.6648 322.577 37.6584C322.795 37.6583 323.008 37.5864 323.181 37.4538C323.359 37.3304 323.481 37.1432 323.523 36.9314C323.535 36.8749 323.541 36.8166 323.54 36.7589ZM324.204 32.7399C324.206 32.8071 324.195 32.8741 324.171 32.9369C324.147 32.9996 324.11 33.0569 324.063 33.1052C324.017 33.1532 323.961 33.1909 323.899 33.2161C323.837 33.2412 323.771 33.2533 323.704 33.2514C323.638 33.2528 323.573 33.2402 323.513 33.2144C323.452 33.1885 323.398 33.1501 323.354 33.1016C323.308 33.0539 323.272 32.9976 323.247 32.9359C323.223 32.8742 323.212 32.8083 323.213 32.7421C323.212 32.6757 323.224 32.6097 323.249 32.5482C323.274 32.4867 323.312 32.4308 323.359 32.384C323.406 32.3346 323.463 32.2956 323.526 32.2698C323.589 32.244 323.656 32.2319 323.724 32.2342C323.789 32.2322 323.854 32.2445 323.913 32.2704C323.973 32.2963 324.026 32.3351 324.068 32.384C324.158 32.4807 324.207 32.6082 324.204 32.7399Z" fill="black"/>
<path d="M329.414 38.2781H328.432V35.7417C328.432 34.9594 328.135 34.5682 327.542 34.5682C327.407 34.5642 327.272 34.5912 327.149 34.6471C327.026 34.7029 326.918 34.7862 326.832 34.8904C326.652 35.1022 326.555 35.3724 326.56 35.6504V38.281H325.578V35.1264C325.578 34.7367 325.566 34.3151 325.542 33.8616H326.402L326.448 34.5441H326.474C326.595 34.326 326.771 34.1437 326.986 34.0158C327.253 33.8517 327.562 33.7666 327.876 33.7702C328.066 33.7643 328.254 33.7968 328.43 33.8656C328.607 33.9344 328.768 34.0382 328.903 34.1707C329.084 34.3662 329.223 34.5968 329.311 34.8482C329.399 35.0996 329.434 35.3665 329.414 35.6321V38.2781Z" fill="black"/>
<path d="M334.422 38.2781H333.55L333.505 37.5686H333.476C333.347 37.8287 333.143 38.0446 332.891 38.1887C332.638 38.3329 332.349 38.3988 332.059 38.3782C331.804 38.3824 331.552 38.328 331.322 38.2193C331.092 38.1106 330.89 37.9505 330.731 37.7512C330.365 37.2895 330.178 36.7111 330.204 36.1224C330.175 35.4924 330.38 34.8737 330.779 34.3855C330.949 34.1884 331.16 34.0309 331.397 33.9241C331.634 33.8173 331.892 33.7637 332.152 33.7673C332.395 33.7428 332.641 33.786 332.862 33.8919C333.083 33.9978 333.271 34.1626 333.404 34.368V31.8309H334.386V37.0863C334.386 37.5174 334.399 37.9149 334.422 38.2781ZM333.404 36.414V35.6767C333.407 35.5735 333.397 35.4703 333.377 35.369C333.325 35.1371 333.201 34.928 333.021 34.7728C332.84 34.6126 332.605 34.5266 332.363 34.5316C332.194 34.5263 332.026 34.5637 331.875 34.6404C331.724 34.717 331.595 34.8304 331.499 34.9701C331.278 35.2998 331.168 35.6915 331.185 36.0881C331.168 36.466 331.274 36.8393 331.487 37.152C331.582 37.2907 331.71 37.4035 331.86 37.48C332.01 37.5566 332.177 37.5946 332.345 37.5905C332.494 37.5947 332.641 37.5638 332.776 37.5004C332.911 37.4369 333.029 37.3426 333.121 37.2251C333.31 36.9982 333.411 36.7095 333.404 36.414Z" fill="black"/>
<path d="M336.469 38.2781H335.488V31.8316H336.469V38.2781Z" fill="black"/>
<path d="M341.215 35.8601C341.217 36.0093 341.205 36.1583 341.178 36.3051H338.232C338.226 36.493 338.261 36.68 338.335 36.8528C338.409 37.0256 338.52 37.1801 338.66 37.3055C338.934 37.5194 339.275 37.6288 339.623 37.6139C340.029 37.6195 340.433 37.5486 340.814 37.4049L340.969 38.0874C340.499 38.2789 339.994 38.3716 339.487 38.3599C339.191 38.3762 338.894 38.3309 338.616 38.2267C338.338 38.1226 338.085 37.9619 337.873 37.7549C337.672 37.5368 337.518 37.281 337.417 37.0025C337.317 36.724 337.273 36.4283 337.288 36.1327C337.267 35.5306 337.46 34.9406 337.834 34.4681C338.018 34.2373 338.254 34.053 338.522 33.93C338.791 33.8071 339.084 33.7488 339.379 33.76C339.661 33.7444 339.941 33.8013 340.195 33.9253C340.448 34.0493 340.665 34.2362 340.825 34.4681C341.096 34.8805 341.232 35.3669 341.215 35.8601ZM340.278 35.6051C340.291 35.3404 340.225 35.0778 340.087 34.851C340.007 34.7183 339.891 34.6101 339.753 34.538C339.615 34.4659 339.461 34.4327 339.306 34.4418C339.152 34.4392 339.001 34.4742 338.865 34.5437C338.728 34.6133 338.611 34.7153 338.523 34.8408C338.355 35.0626 338.254 35.3277 338.231 35.6051H340.278Z" fill="black"/>
<path d="M344.342 34.7267C344.241 34.7082 344.137 34.6991 344.034 34.6997C343.878 34.6921 343.723 34.724 343.582 34.7923C343.442 34.8606 343.321 34.9632 343.23 35.0907C343.059 35.3484 342.973 35.6537 342.985 35.9632V38.2825H342.003V35.2543C342.003 34.7428 341.993 34.2817 341.976 33.8659H342.831L342.867 34.7121H342.894C342.987 34.4365 343.158 34.1936 343.385 34.0121C343.59 33.8588 343.838 33.7755 344.094 33.7746C344.176 33.7741 344.259 33.7802 344.34 33.7929L344.342 34.7267Z" fill="black"/>
</svg>
