<svg xmlns="http://www.w3.org/2000/svg" width="105.195" height="34.166" viewBox="0 0 105.195 34.166"><g transform="translate(0 0)"><g transform="translate(0)"><path d="M2124.884-492.535a18.837,18.837,0,0,1-2.366,4.86c-1.424,2.083-2.9,4.157-5.231,4.2-2.287.043-3.023-1.358-5.637-1.358s-3.436,1.316-5.6,1.4c-2.248.085-3.96-2.251-5.4-4.325-2.934-4.242-5.173-11.989-2.164-17.213a8.356,8.356,0,0,1,7.069-4.284c2.209-.041,4.289,1.484,5.64,1.484s3.879-1.836,6.54-1.566a7.986,7.986,0,0,1,6.25,3.388,7.736,7.736,0,0,0-3.694,6.5,7.538,7.538,0,0,0,4.589,6.912m-8.889-19.606a7.511,7.511,0,0,0,1.779-5.454,7.627,7.627,0,0,0-5.033,2.587,7.147,7.147,0,0,0-1.812,5.284,6.335,6.335,0,0,0,5.067-2.416" transform="translate(-2097.063 517.595)"/><g transform="translate(41.18 9.655)"><g transform="translate(0 0.262)"><path d="M2137.255-501.234h-1.43l-.785-2.464h-2.725l-.748,2.464h-1.393l2.7-8.386h1.667Zm-2.451-3.5-.71-2.189q-.111-.336-.422-1.581h-.026q-.123.535-.4,1.581l-.7,2.189Z" transform="translate(-2130.175 509.62)"/><path d="M2141.66-501.692h-1.181l-.074-.922h-.025a2.087,2.087,0,0,1-1.917,1.058,1.89,1.89,0,0,1-1.431-.56,2.949,2.949,0,0,1-.633-2.066v-3.559h1.343v3.335q0,1.742,1.2,1.741a1.251,1.251,0,0,0,1.243-.871,1.409,1.409,0,0,0,.087-.51v-3.7h1.344v4.305C2141.611-502.861,2141.629-502.282,2141.66-501.692Z" transform="translate(-2128.659 510.078)"/></g><g transform="translate(13.936)"><path d="M2145.064-506.438h-1.481v2.937q0,1.119.783,1.119a2.42,2.42,0,0,0,.6-.061l.038,1.018a3.011,3.011,0,0,1-1.045.151,1.609,1.609,0,0,1-1.245-.486,2.385,2.385,0,0,1-.448-1.629v-3.049h-.883v-1.007h.883v-1.107l1.319-.4v1.5h1.481Z" transform="translate(-2141.381 510.046)"/><path d="M2150.735-504.741a3.311,3.311,0,0,1-.8,2.289,2.841,2.841,0,0,1-2.214.92,2.7,2.7,0,0,1-2.121-.884,3.211,3.211,0,0,1-.791-2.226,3.285,3.285,0,0,1,.816-2.3,2.816,2.816,0,0,1,2.2-.9,2.766,2.766,0,0,1,2.141.884A3.192,3.192,0,0,1,2150.735-504.741Zm-1.393.03a2.689,2.689,0,0,0-.362-1.425,1.326,1.326,0,0,0-1.206-.72,1.345,1.345,0,0,0-1.232.72,2.752,2.752,0,0,0-.361,1.451,2.707,2.707,0,0,0,.361,1.426,1.357,1.357,0,0,0,1.22.719,1.344,1.344,0,0,0,1.206-.731A2.7,2.7,0,0,0,2149.343-504.711Z" transform="translate(-2140.545 510.316)"/><path d="M2153.67-506.533a2.286,2.286,0,0,0-.423-.037,1.275,1.275,0,0,0-1.1.535,2.018,2.018,0,0,0-.335,1.194v3.174h-1.343v-4.144q0-1.045-.038-1.9h1.169l.049,1.158h.038a2.073,2.073,0,0,1,.672-.958,1.63,1.63,0,0,1,.971-.325,2.1,2.1,0,0,1,.336.025Z" transform="translate(-2139.175 510.316)"/><path d="M2155.35-509.035a.77.77,0,0,1-.237.586.851.851,0,0,1-.609.224.759.759,0,0,1-.566-.231.785.785,0,0,1-.23-.578.757.757,0,0,1,.235-.572.822.822,0,0,1,.586-.224.818.818,0,0,1,.584.224A.755.755,0,0,1,2155.35-509.035Zm-.15,7.852h-1.343v-6.048h1.343Z" transform="translate(-2138.378 509.831)"/><path d="M2159.9-503.41a1.665,1.665,0,0,1-.622,1.357,2.63,2.63,0,0,1-1.716.51,3.5,3.5,0,0,1-1.755-.41l.286-.995a2.817,2.817,0,0,0,1.481.422q1.032,0,1.032-.757a.732.732,0,0,0-.224-.555,2.373,2.373,0,0,0-.794-.429q-1.619-.6-1.619-1.742a1.668,1.668,0,0,1,.6-1.307,2.313,2.313,0,0,1,1.581-.522,3.043,3.043,0,0,1,1.528.361l-.284.959a2.373,2.373,0,0,0-1.233-.349.991.991,0,0,0-.659.2.634.634,0,0,0-.236.51.627.627,0,0,0,.249.511,2.837,2.837,0,0,0,.821.409Q2159.9-504.643,2159.9-503.41Z" transform="translate(-2137.867 510.316)"/><path d="M2161.532-509.035a.773.773,0,0,1-.236.586.855.855,0,0,1-.61.224.763.763,0,0,1-.567-.231.784.784,0,0,1-.23-.578.755.755,0,0,1,.236-.572.817.817,0,0,1,.584-.224.823.823,0,0,1,.586.224A.76.76,0,0,1,2161.532-509.035Zm-.15,7.852h-1.343v-6.048h1.344Z" transform="translate(-2136.872 509.831)"/><path d="M2167.366-504.975a3.135,3.135,0,0,1-.05.609h-4.032a1.762,1.762,0,0,0,.586,1.369,1.994,1.994,0,0,0,1.318.422,4.427,4.427,0,0,0,1.629-.286l.213.934a5.059,5.059,0,0,1-2.028.373,2.933,2.933,0,0,1-2.209-.828,3.052,3.052,0,0,1-.8-2.22,3.471,3.471,0,0,1,.747-2.278,2.579,2.579,0,0,1,2.115-.969,2.255,2.255,0,0,1,1.979.969A3.259,3.259,0,0,1,2167.366-504.975Zm-1.282-.348a1.818,1.818,0,0,0-.261-1.033,1.174,1.174,0,0,0-1.07-.56,1.282,1.282,0,0,0-1.07.546,2,2,0,0,0-.4,1.047Z" transform="translate(-2136.36 510.314)"/><path d="M2170.388-506.533a2.294,2.294,0,0,0-.423-.037,1.275,1.275,0,0,0-1.1.535,2.013,2.013,0,0,0-.336,1.194v3.174h-1.343v-4.144q0-1.045-.038-1.9h1.169l.05,1.158h.037a2.077,2.077,0,0,1,.671-.958,1.632,1.632,0,0,1,.972-.325,2.107,2.107,0,0,1,.336.025Z" transform="translate(-2135.102 510.316)"/><path d="M2174.047-506.438h-1.48v2.937c0,.746.26,1.119.784,1.119a2.422,2.422,0,0,0,.6-.061l.037,1.018a3,3,0,0,1-1.046.151,1.6,1.6,0,0,1-1.243-.486,2.375,2.375,0,0,1-.448-1.629v-3.049h-.883v-1.007h.883v-1.107l1.32-.4v1.5h1.48Z" transform="translate(-2134.32 510.046)"/><path d="M2179.172-504.975a3.239,3.239,0,0,1-.049.609h-4.033a1.764,1.764,0,0,0,.585,1.369,2,2,0,0,0,1.318.422,4.429,4.429,0,0,0,1.629-.286l.212.934a5.058,5.058,0,0,1-2.027.373,2.936,2.936,0,0,1-2.21-.828,3.053,3.053,0,0,1-.8-2.22,3.474,3.474,0,0,1,.748-2.278,2.577,2.577,0,0,1,2.114-.969,2.255,2.255,0,0,1,1.979.969A3.263,3.263,0,0,1,2179.172-504.975Zm-1.283-.348a1.816,1.816,0,0,0-.261-1.033,1.172,1.172,0,0,0-1.069-.56,1.279,1.279,0,0,0-1.069.546,2.006,2.006,0,0,0-.4,1.047Z" transform="translate(-2133.484 510.314)"/><path d="M2182.283-506.533a2.282,2.282,0,0,0-.421-.037,1.272,1.272,0,0,0-1.1.535,2.014,2.014,0,0,0-.336,1.194v3.174h-1.344v-4.144q0-1.045-.036-1.9h1.169l.05,1.158h.036a2.071,2.071,0,0,1,.671-.958,1.634,1.634,0,0,1,.971-.325,2.1,2.1,0,0,1,.336.025Z" transform="translate(-2132.204 510.316)"/></g><g transform="translate(0.609 14.475)"><path d="M2136.986-489.806h-1.343v-3.783h-3.634v3.783h-1.344v-8.386h1.344v3.421h3.634v-3.421h1.343Z" transform="translate(-2130.665 498.192)"/></g><g transform="translate(8.174 14.038)"><path d="M2141.714-489.828h-1.206l-.1-.7h-.039a2.07,2.07,0,0,1-1.766.834,1.819,1.819,0,0,1-1.381-.548,1.719,1.719,0,0,1-.474-1.231,1.883,1.883,0,0,1,.929-1.693,4.825,4.825,0,0,1,2.606-.572v-.112q0-1.2-1.257-1.2a2.823,2.823,0,0,0-1.581.449l-.273-.884a3.884,3.884,0,0,1,2.078-.522q2.377,0,2.376,2.5v2.229A9.34,9.34,0,0,0,2141.714-489.828Zm-2.824-7.579a.685.685,0,0,1-.194.5.639.639,0,0,1-.479.2.652.652,0,0,1-.485-.205.681.681,0,0,1-.2-.492.673.673,0,0,1,.2-.49.669.669,0,0,1,.491-.205.609.609,0,0,1,.474.205A.7.7,0,0,1,2138.889-497.407Zm1.43,5.5v-.934q-2.239-.035-2.238,1.22a.9.9,0,0,0,.26.709.946.946,0,0,0,.66.236,1.363,1.363,0,0,0,.827-.28,1.143,1.143,0,0,0,.468-.715A1.1,1.1,0,0,0,2140.32-491.906Zm.909-5.5a.688.688,0,0,1-.193.5.66.66,0,0,1-.492.2.63.63,0,0,1-.479-.205.69.69,0,0,1-.193-.492.677.677,0,0,1,.2-.49.657.657,0,0,1,.5-.205.6.6,0,0,1,.471.205A.7.7,0,0,1,2141.229-497.407Z" transform="translate(-2136.748 498.65)"/><path d="M2147.123-490.24h-1.344v-3.471q0-1.606-1.219-1.606a1.212,1.212,0,0,0-.971.441,1.566,1.566,0,0,0-.373,1.04v3.6h-1.343v-4.317q0-.8-.05-1.731H2143l.063.934h.036a1.938,1.938,0,0,1,.7-.723,2.283,2.283,0,0,1,1.219-.336,1.923,1.923,0,0,1,1.405.548,2.657,2.657,0,0,1,.7,2Z" transform="translate(-2135.512 499.062)"/><path d="M2152.726-489.721h-1.193l-.062-.971h-.039a2.008,2.008,0,0,1-1.94,1.108,2.274,2.274,0,0,1-1.817-.858,3.348,3.348,0,0,1-.721-2.229,3.5,3.5,0,0,1,.787-2.377,2.434,2.434,0,0,1,1.878-.846,1.827,1.827,0,0,1,1.714.822v-3.472h1.343v7.192C2152.676-490.762,2152.694-490.218,2152.726-489.721Zm-1.393-2.551v-1.009a1.923,1.923,0,0,0-.037-.421,1.512,1.512,0,0,0-.488-.816,1.317,1.317,0,0,0-.9-.33,1.38,1.38,0,0,0-1.182.6,2.55,2.55,0,0,0-.43,1.53,2.394,2.394,0,0,0,.413,1.456,1.383,1.383,0,0,0,1.174.6,1.3,1.3,0,0,0,1.062-.5A1.671,1.671,0,0,0,2151.333-492.271Z" transform="translate(-2134.262 498.543)"/><path d="M2154.11-489.721h-1.343v-8.822h1.343Z" transform="translate(-2132.845 498.543)"/><path d="M2160.123-493.547a3.232,3.232,0,0,1-.05.609h-4.032a1.761,1.761,0,0,0,.586,1.369,2,2,0,0,0,1.317.422,4.435,4.435,0,0,0,1.63-.286l.213.934a5.07,5.07,0,0,1-2.029.373,2.935,2.935,0,0,1-2.209-.828,3.054,3.054,0,0,1-.8-2.22,3.474,3.474,0,0,1,.747-2.278,2.581,2.581,0,0,1,2.115-.969,2.252,2.252,0,0,1,1.978.969A3.26,3.26,0,0,1,2160.123-493.547Zm-1.282-.349a1.826,1.826,0,0,0-.261-1.032,1.173,1.173,0,0,0-1.07-.56,1.281,1.281,0,0,0-1.071.546,2.006,2.006,0,0,0-.4,1.046Z" transform="translate(-2132.363 499.06)"/><path d="M2163.145-495.1a2.279,2.279,0,0,0-.422-.037,1.273,1.273,0,0,0-1.1.535,2.014,2.014,0,0,0-.336,1.194v3.174h-1.343v-4.144c0-.7-.014-1.331-.037-1.9h1.169l.05,1.158h.037a2.077,2.077,0,0,1,.672-.958,1.627,1.627,0,0,1,.97-.325,2.1,2.1,0,0,1,.337.025Z" transform="translate(-2131.105 499.062)"/></g></g></g></g></svg>