<svg xmlns="http://www.w3.org/2000/svg" width="194.565" height="63.191" viewBox="0 0 194.565 63.191"><g transform="translate(-1322 -1826.264)"><g transform="translate(1322 1826.264)"><path d="M2148.521-471.244a34.9,34.9,0,0,1-4.377,8.989c-2.634,3.853-5.369,7.689-9.674,7.768-4.23.081-5.591-2.512-10.427-2.512s-6.355,2.434-10.355,2.592c-4.159.156-7.326-4.163-9.98-8-5.426-7.846-9.569-22.174-4-31.837a15.454,15.454,0,0,1,13.074-7.924c4.085-.076,7.933,2.744,10.432,2.744s7.174-3.4,12.1-2.9a14.77,14.77,0,0,1,11.559,6.266c-.3.189-6.9,4.032-6.833,12.025a13.942,13.942,0,0,0,8.488,12.784m-16.442-36.262a13.9,13.9,0,0,0,3.29-10.089,14.11,14.11,0,0,0-9.31,4.784c-2.042,2.367-3.839,6.151-3.351,9.773,3.542.276,7.167-1.8,9.371-4.469" transform="translate(-2097.062 517.595)" fill="#fff"/><g transform="translate(76.165 17.858)"><g transform="translate(0 0.485)"><path d="M2143.27-494.11h-2.646l-1.451-4.557h-5.041l-1.382,4.557h-2.576l4.994-15.51h3.083Zm-4.534-6.468-1.313-4.048c-.136-.414-.4-1.389-.78-2.923h-.048q-.229.99-.736,2.923l-1.288,4.048Z" transform="translate(-2130.175 509.62)" fill="#fff"/><path d="M2146.13-496.554h-2.185l-.137-1.7h-.046a3.859,3.859,0,0,1-3.544,1.957,3.5,3.5,0,0,1-2.648-1.035,5.455,5.455,0,0,1-1.171-3.821v-6.583h2.484v6.169q0,3.223,2.21,3.22a2.315,2.315,0,0,0,2.3-1.61,2.625,2.625,0,0,0,.161-.943v-6.836h2.484v7.963C2146.039-498.716,2146.071-497.645,2146.13-496.554Z" transform="translate(-2122.083 512.064)" fill="#fff"/></g><g transform="translate(25.776)"><path d="M2148.194-504.3h-2.739v5.433q0,2.07,1.449,2.07a4.474,4.474,0,0,0,1.1-.113l.071,1.884a5.575,5.575,0,0,1-1.935.278,2.976,2.976,0,0,1-2.3-.9,4.409,4.409,0,0,1-.828-3.013v-5.64h-1.633v-1.863h1.633v-2.047l2.44-.736v2.783h2.739Z" transform="translate(-2141.381 510.976)" fill="#fff"/><path d="M2155.767-502.108a6.128,6.128,0,0,1-1.474,4.235,5.258,5.258,0,0,1-4.1,1.7,5,5,0,0,1-3.922-1.635,5.94,5.94,0,0,1-1.463-4.117,6.076,6.076,0,0,1,1.509-4.258,5.21,5.21,0,0,1,4.062-1.658,5.111,5.111,0,0,1,3.959,1.636A5.9,5.9,0,0,1,2155.767-502.108Zm-2.575.055a4.974,4.974,0,0,0-.67-2.636,2.455,2.455,0,0,0-2.231-1.332,2.49,2.49,0,0,0-2.28,1.332,5.093,5.093,0,0,0-.666,2.684,5.01,5.01,0,0,0,.666,2.638,2.511,2.511,0,0,0,2.257,1.329,2.485,2.485,0,0,0,2.231-1.352A4.989,4.989,0,0,0,2153.191-502.053Z" transform="translate(-2136.92 512.42)" fill="#fff"/><path d="M2156.418-505.422a4.241,4.241,0,0,0-.782-.069,2.359,2.359,0,0,0-2.027.989,3.726,3.726,0,0,0-.621,2.208v5.87H2150.5v-7.664q0-1.932-.069-3.521h2.162l.092,2.141h.069A3.833,3.833,0,0,1,2154-507.24a3.013,3.013,0,0,1,1.8-.6,3.9,3.9,0,0,1,.621.046Z" transform="translate(-2129.608 512.42)" fill="#fff"/><path d="M2156.746-508.359a1.421,1.421,0,0,1-.44,1.083,1.57,1.57,0,0,1-1.127.414,1.405,1.405,0,0,1-1.047-.428,1.452,1.452,0,0,1-.425-1.07,1.4,1.4,0,0,1,.435-1.058,1.519,1.519,0,0,1,1.083-.414,1.509,1.509,0,0,1,1.081.414A1.392,1.392,0,0,1,2156.746-508.359Zm-.279,14.523h-2.484v-11.186h2.484Z" transform="translate(-2125.355 509.831)" fill="#fff"/><path d="M2163.376-499.647a3.078,3.078,0,0,1-1.15,2.51,4.866,4.866,0,0,1-3.174.943,6.475,6.475,0,0,1-3.246-.759l.53-1.84a5.207,5.207,0,0,0,2.739.78q1.908,0,1.909-1.4a1.357,1.357,0,0,0-.414-1.026,4.393,4.393,0,0,0-1.469-.794q-2.995-1.108-2.995-3.223a3.085,3.085,0,0,1,1.106-2.417,4.277,4.277,0,0,1,2.923-.966,5.631,5.631,0,0,1,2.827.667l-.527,1.773a4.388,4.388,0,0,0-2.279-.646,1.829,1.829,0,0,0-1.219.37,1.172,1.172,0,0,0-.437.943,1.162,1.162,0,0,0,.46.945,5.25,5.25,0,0,0,1.518.757Q2163.38-501.926,2163.376-499.647Z" transform="translate(-2122.625 512.42)" fill="#fff"/><path d="M2162.928-508.359a1.431,1.431,0,0,1-.437,1.083,1.582,1.582,0,0,1-1.128.414,1.413,1.413,0,0,1-1.049-.428,1.452,1.452,0,0,1-.425-1.07,1.394,1.394,0,0,1,.438-1.058,1.509,1.509,0,0,1,1.081-.414,1.521,1.521,0,0,1,1.084.414A1.406,1.406,0,0,1,2162.928-508.359Zm-.278,14.523h-2.485v-11.186h2.487Z" transform="translate(-2117.316 509.831)" fill="#fff"/><path d="M2171.932-502.533a5.752,5.752,0,0,1-.092,1.127h-7.457a3.259,3.259,0,0,0,1.083,2.533,3.688,3.688,0,0,0,2.438.78,8.186,8.186,0,0,0,3.013-.529l.394,1.727a9.359,9.359,0,0,1-3.751.69,5.425,5.425,0,0,1-4.085-1.532,5.644,5.644,0,0,1-1.483-4.106,6.422,6.422,0,0,1,1.38-4.214,4.774,4.774,0,0,1,3.912-1.792,4.172,4.172,0,0,1,3.66,1.792A6.038,6.038,0,0,1,2171.932-502.533Zm-2.371-.644a3.359,3.359,0,0,0-.483-1.911,2.171,2.171,0,0,0-1.978-1.035,2.371,2.371,0,0,0-1.98,1.01,3.7,3.7,0,0,0-.736,1.937Z" transform="translate(-2114.585 512.408)" fill="#fff"/><path d="M2173.135-505.422a4.228,4.228,0,0,0-.781-.069,2.36,2.36,0,0,0-2.027.989,3.728,3.728,0,0,0-.621,2.208v5.87h-2.484v-7.664q0-1.932-.069-3.521h2.162l.092,2.141h.07a3.828,3.828,0,0,1,1.241-1.771,3.017,3.017,0,0,1,1.8-.6,3.894,3.894,0,0,1,.621.046Z" transform="translate(-2107.873 512.42)" fill="#fff"/><path d="M2177.176-504.3h-2.737v5.433c0,1.38.481,2.07,1.449,2.07a4.478,4.478,0,0,0,1.1-.113l.069,1.884a5.559,5.559,0,0,1-1.934.278,2.97,2.97,0,0,1-2.3-.9,4.4,4.4,0,0,1-.829-3.013v-5.64h-1.633v-1.863H2172v-2.047l2.441-.736v2.783h2.737Z" transform="translate(-2103.697 510.976)" fill="#fff"/><path d="M2183.739-502.533a6.015,6.015,0,0,1-.091,1.127h-7.46a3.263,3.263,0,0,0,1.083,2.533,3.7,3.7,0,0,0,2.438.78,8.189,8.189,0,0,0,3.014-.529l.393,1.727a9.358,9.358,0,0,1-3.75.69,5.428,5.428,0,0,1-4.087-1.532,5.645,5.645,0,0,1-1.484-4.106,6.427,6.427,0,0,1,1.383-4.214,4.765,4.765,0,0,1,3.91-1.792,4.168,4.168,0,0,1,3.66,1.792A6.031,6.031,0,0,1,2183.739-502.533Zm-2.374-.644a3.364,3.364,0,0,0-.483-1.911,2.167,2.167,0,0,0-1.978-1.035,2.368,2.368,0,0,0-1.978,1.01,3.715,3.715,0,0,0-.738,1.937Z" transform="translate(-2099.236 512.408)" fill="#fff"/><path d="M2185.03-505.422a4.226,4.226,0,0,0-.779-.069,2.356,2.356,0,0,0-2.027.989,3.729,3.729,0,0,0-.621,2.208v5.87h-2.486v-7.664q0-1.932-.067-3.521h2.162l.092,2.141h.067a3.838,3.838,0,0,1,1.242-1.771,3.022,3.022,0,0,1,1.8-.6,3.9,3.9,0,0,1,.621.046Z" transform="translate(-2092.405 512.42)" fill="#fff"/></g><g transform="translate(1.127 26.772)"><path d="M2142.357-482.682h-2.485v-7h-6.721v7h-2.487v-15.51h2.487v6.328h6.721v-6.328h2.485Z" transform="translate(-2130.665 498.192)" fill="#fff"/></g><g transform="translate(15.119 25.964)"><path d="M2145.932-482.8H2143.7l-.184-1.29h-.071a3.827,3.827,0,0,1-3.266,1.543,3.369,3.369,0,0,1-2.556-1.014,3.18,3.18,0,0,1-.875-2.277,3.481,3.481,0,0,1,1.718-3.131,8.926,8.926,0,0,1,4.821-1.058v-.207c0-1.474-.778-2.21-2.325-2.21a5.223,5.223,0,0,0-2.924.83l-.506-1.635a7.184,7.184,0,0,1,3.843-.966q4.4,0,4.4,4.625v4.122A17.38,17.38,0,0,0,2145.932-482.8Zm-5.224-14.017a1.267,1.267,0,0,1-.359.922,1.181,1.181,0,0,1-.885.368,1.2,1.2,0,0,1-.9-.38,1.254,1.254,0,0,1-.367-.911,1.243,1.243,0,0,1,.378-.906,1.236,1.236,0,0,1,.908-.379,1.126,1.126,0,0,1,.877.379A1.3,1.3,0,0,1,2140.708-496.816Zm2.646,10.174v-1.727q-4.141-.066-4.141,2.256a1.677,1.677,0,0,0,.481,1.311,1.751,1.751,0,0,0,1.222.437,2.521,2.521,0,0,0,1.53-.518,2.112,2.112,0,0,0,.865-1.323A2,2,0,0,0,2143.354-486.643Zm1.681-10.174a1.277,1.277,0,0,1-.357.922,1.221,1.221,0,0,1-.911.368,1.166,1.166,0,0,1-.886-.38,1.277,1.277,0,0,1-.356-.911,1.254,1.254,0,0,1,.37-.906,1.215,1.215,0,0,1,.92-.379,1.115,1.115,0,0,1,.872.379A1.291,1.291,0,0,1,2145.035-496.816Z" transform="translate(-2136.748 499.116)" fill="#fff"/><path d="M2151.625-485h-2.487v-6.42q0-2.971-2.253-2.969a2.241,2.241,0,0,0-1.8.817,2.9,2.9,0,0,0-.69,1.923V-485h-2.484v-7.984q0-1.477-.092-3.2h2.185l.117,1.727h.067a3.581,3.581,0,0,1,1.291-1.336,4.222,4.222,0,0,1,2.254-.621,3.556,3.556,0,0,1,2.6,1.014,4.913,4.913,0,0,1,1.291,3.7Z" transform="translate(-2130.151 501.314)" fill="#fff"/><path d="M2157.629-482.226h-2.206l-.115-1.8h-.071a3.712,3.712,0,0,1-3.588,2.05,4.2,4.2,0,0,1-3.361-1.587,6.193,6.193,0,0,1-1.334-4.122,6.472,6.472,0,0,1,1.456-4.4,4.5,4.5,0,0,1,3.473-1.564,3.38,3.38,0,0,1,3.17,1.52v-6.422h2.484v13.3C2157.537-484.151,2157.569-483.146,2157.629-482.226Zm-2.576-4.718v-1.865a3.6,3.6,0,0,0-.069-.78,2.806,2.806,0,0,0-.9-1.509,2.436,2.436,0,0,0-1.663-.61,2.552,2.552,0,0,0-2.186,1.1,4.714,4.714,0,0,0-.8,2.829,4.431,4.431,0,0,0,.763,2.693,2.558,2.558,0,0,0,2.172,1.106,2.4,2.4,0,0,0,1.964-.92A3.092,3.092,0,0,0,2155.053-486.943Z" transform="translate(-2123.478 498.543)" fill="#fff"/><path d="M2155.25-482.226h-2.483v-16.317h2.483Z" transform="translate(-2115.921 498.543)" fill="#fff"/><path d="M2164.69-491.105a6.073,6.073,0,0,1-.092,1.127h-7.458a3.26,3.26,0,0,0,1.083,2.532,3.694,3.694,0,0,0,2.436.78,8.2,8.2,0,0,0,3.015-.529l.394,1.727a9.369,9.369,0,0,1-3.752.69,5.43,5.43,0,0,1-4.087-1.532,5.652,5.652,0,0,1-1.484-4.106,6.429,6.429,0,0,1,1.382-4.214,4.774,4.774,0,0,1,3.911-1.792,4.166,4.166,0,0,1,3.659,1.792A6.032,6.032,0,0,1,2164.69-491.105Zm-2.371-.646a3.383,3.383,0,0,0-.483-1.909,2.17,2.17,0,0,0-1.978-1.035,2.369,2.369,0,0,0-1.981,1.01,3.71,3.71,0,0,0-.736,1.934Z" transform="translate(-2113.345 501.302)" fill="#fff"/><path d="M2165.894-493.994a4.232,4.232,0,0,0-.782-.069,2.353,2.353,0,0,0-2.027.989,3.731,3.731,0,0,0-.621,2.208V-485h-2.484v-7.664q0-1.932-.069-3.522h2.163l.092,2.142h.069a3.839,3.839,0,0,1,1.242-1.771,3.009,3.009,0,0,1,1.794-.6,3.889,3.889,0,0,1,.624.046Z" transform="translate(-2106.633 501.314)" fill="#fff"/></g></g></g></g></svg>