<svg xmlns="http://www.w3.org/2000/svg" width="74.65" height="24.245" viewBox="0 0 74.65 24.245"><g transform="translate(0 0)"><g transform="translate(0)"><path d="M2116.806-499.811a13.372,13.372,0,0,1-1.679,3.449c-1.01,1.478-2.06,2.95-3.712,2.98-1.623.031-2.146-.964-4-.964s-2.438.934-3.973.995c-1.6.06-2.811-1.6-3.829-3.069-2.082-3.01-3.671-8.508-1.536-12.215a5.93,5.93,0,0,1,5.016-3.04c1.567-.029,3.043,1.053,4,1.053s2.752-1.3,4.641-1.111a5.667,5.667,0,0,1,4.435,2.4,5.49,5.49,0,0,0-2.621,4.614,5.349,5.349,0,0,0,3.257,4.905m-6.308-13.913a5.33,5.33,0,0,0,1.262-3.871,5.412,5.412,0,0,0-3.572,1.836,5.073,5.073,0,0,0-1.286,3.75,4.5,4.5,0,0,0,3.6-1.715" transform="translate(-2097.063 517.595)" fill="#d6d6d6"/><g transform="translate(29.223 6.852)"><g transform="translate(0 0.186)"><path d="M2135.2-503.669h-1.015l-.557-1.748h-1.933l-.531,1.748h-.988l1.916-5.951h1.183Zm-1.74-2.482-.5-1.553c-.052-.159-.153-.533-.3-1.122h-.019q-.087.38-.282,1.122l-.495,1.553Z" transform="translate(-2130.175 509.62)" fill="#d6d6d6"/><path d="M2140.133-503.448h-.838l-.053-.654h-.018a1.481,1.481,0,0,1-1.36.751,1.341,1.341,0,0,1-1.016-.4,2.093,2.093,0,0,1-.449-1.466v-2.526h.953v2.367q0,1.236.848,1.236a.887.887,0,0,0,.882-.618,1,1,0,0,0,.062-.362v-2.623h.953v3.055C2140.1-504.278,2140.11-503.867,2140.133-503.448Z" transform="translate(-2130.906 509.399)" fill="#d6d6d6"/></g><g transform="translate(9.89)"><path d="M2143.995-507.167h-1.051v2.085q0,.794.556.794a1.718,1.718,0,0,0,.424-.043l.027.723a2.138,2.138,0,0,1-.742.107,1.142,1.142,0,0,1-.884-.345,1.692,1.692,0,0,1-.318-1.156v-2.164h-.627v-.715h.627v-.785l.936-.282v1.068h1.051Z" transform="translate(-2141.381 509.728)" fill="#d6d6d6"/><path d="M2149.016-505.641a2.35,2.35,0,0,1-.566,1.625,2.016,2.016,0,0,1-1.571.653,1.917,1.917,0,0,1-1.5-.627,2.277,2.277,0,0,1-.562-1.58,2.331,2.331,0,0,1,.579-1.634,2,2,0,0,1,1.558-.636,1.963,1.963,0,0,1,1.52.627A2.265,2.265,0,0,1,2149.016-505.641Zm-.988.021a1.906,1.906,0,0,0-.257-1.011.941.941,0,0,0-.856-.511.955.955,0,0,0-.875.511,1.952,1.952,0,0,0-.256,1.03,1.92,1.92,0,0,0,.256,1.012.963.963,0,0,0,.866.51.954.954,0,0,0,.856-.519A1.914,1.914,0,0,0,2148.027-505.62Z" transform="translate(-2141.784 509.597)" fill="#d6d6d6"/><path d="M2152.731-506.912a1.619,1.619,0,0,0-.3-.026.9.9,0,0,0-.777.379,1.431,1.431,0,0,0-.238.847v2.252h-.953V-506.4q0-.741-.027-1.351h.83l.035.822h.027a1.472,1.472,0,0,1,.477-.68,1.157,1.157,0,0,1,.689-.23,1.485,1.485,0,0,1,.238.018Z" transform="translate(-2142.445 509.597)" fill="#d6d6d6"/><path d="M2154.873-509.266a.547.547,0,0,1-.168.416.6.6,0,0,1-.433.159.539.539,0,0,1-.4-.164.557.557,0,0,1-.163-.41.537.537,0,0,1,.167-.406.583.583,0,0,1,.416-.159.581.581,0,0,1,.415.159A.536.536,0,0,1,2154.873-509.266Zm-.107,5.572h-.953v-4.292h.953Z" transform="translate(-2142.829 509.831)" fill="#d6d6d6"/><path d="M2158.712-504.7a1.181,1.181,0,0,1-.442.963,1.866,1.866,0,0,1-1.217.362,2.484,2.484,0,0,1-1.246-.291l.2-.706a2,2,0,0,0,1.051.3q.732,0,.732-.537a.519.519,0,0,0-.159-.394,1.68,1.68,0,0,0-.564-.3q-1.148-.425-1.149-1.236a1.184,1.184,0,0,1,.425-.928,1.642,1.642,0,0,1,1.122-.371,2.159,2.159,0,0,1,1.084.256l-.2.68a1.684,1.684,0,0,0-.875-.248.7.7,0,0,0-.468.142.45.45,0,0,0-.167.362.445.445,0,0,0,.176.363,2.016,2.016,0,0,0,.583.29Q2158.713-505.571,2158.712-504.7Z" transform="translate(-2143.076 509.597)" fill="#d6d6d6"/><path d="M2161.056-509.266a.549.549,0,0,1-.167.416.607.607,0,0,1-.433.159.541.541,0,0,1-.4-.164.555.555,0,0,1-.163-.41.536.536,0,0,1,.168-.406.579.579,0,0,1,.415-.159.585.585,0,0,1,.416.159A.539.539,0,0,1,2161.056-509.266Zm-.107,5.572H2160v-4.292h.954Z" transform="translate(-2143.556 509.831)" fill="#d6d6d6"/><path d="M2165.805-505.81a2.25,2.25,0,0,1-.035.432h-2.861a1.251,1.251,0,0,0,.416.972,1.415,1.415,0,0,0,.936.3,3.142,3.142,0,0,0,1.156-.2l.151.663a3.591,3.591,0,0,1-1.439.265,2.082,2.082,0,0,1-1.567-.588,2.166,2.166,0,0,1-.569-1.575,2.463,2.463,0,0,1,.53-1.617,1.83,1.83,0,0,1,1.5-.687,1.6,1.6,0,0,1,1.4.687A2.312,2.312,0,0,1,2165.805-505.81Zm-.91-.247a1.288,1.288,0,0,0-.185-.733.833.833,0,0,0-.759-.4.91.91,0,0,0-.76.387,1.423,1.423,0,0,0-.282.743Z" transform="translate(-2143.802 509.598)" fill="#d6d6d6"/><path d="M2169.448-506.912a1.628,1.628,0,0,0-.3-.026.9.9,0,0,0-.778.379,1.429,1.429,0,0,0-.239.847v2.252h-.953V-506.4q0-.741-.027-1.351h.83l.035.822h.027a1.475,1.475,0,0,1,.476-.68,1.158,1.158,0,0,1,.689-.23,1.5,1.5,0,0,1,.239.018Z" transform="translate(-2144.409 509.597)" fill="#d6d6d6"/><path d="M2172.978-507.167h-1.05v2.085c0,.53.184.794.556.794a1.72,1.72,0,0,0,.424-.043l.026.723a2.132,2.132,0,0,1-.742.107,1.139,1.139,0,0,1-.882-.345,1.686,1.686,0,0,1-.318-1.156v-2.164h-.626v-.715h.626v-.785l.937-.282v1.068h1.05Z" transform="translate(-2144.786 509.728)" fill="#d6d6d6"/><path d="M2177.611-505.81a2.292,2.292,0,0,1-.035.432h-2.862a1.251,1.251,0,0,0,.416.972,1.417,1.417,0,0,0,.936.3,3.144,3.144,0,0,0,1.156-.2l.151.663a3.589,3.589,0,0,1-1.438.265,2.083,2.083,0,0,1-1.569-.588,2.167,2.167,0,0,1-.569-1.575,2.466,2.466,0,0,1,.531-1.617,1.829,1.829,0,0,1,1.5-.687,1.6,1.6,0,0,1,1.4.687A2.315,2.315,0,0,1,2177.611-505.81Zm-.911-.247a1.288,1.288,0,0,0-.185-.733.832.832,0,0,0-.759-.4.908.908,0,0,0-.759.387,1.424,1.424,0,0,0-.283.743Z" transform="translate(-2145.189 509.598)" fill="#d6d6d6"/><path d="M2181.344-506.912a1.618,1.618,0,0,0-.3-.026.9.9,0,0,0-.777.379,1.429,1.429,0,0,0-.238.847v2.252h-.954V-506.4q0-.741-.025-1.351h.83l.035.822h.026a1.47,1.47,0,0,1,.476-.68,1.16,1.16,0,0,1,.689-.23,1.488,1.488,0,0,1,.238.018Z" transform="translate(-2145.806 509.597)" fill="#d6d6d6"/></g><g transform="translate(0.432 10.272)"><path d="M2135.151-492.241h-.953v-2.685h-2.579v2.685h-.954v-5.951h.954v2.428h2.579v-2.428h.953Z" transform="translate(-2130.665 498.192)" fill="#d6d6d6"/></g><g transform="translate(5.801 9.962)"><path d="M2140.272-492.231h-.856l-.071-.5h-.027a1.468,1.468,0,0,1-1.253.592,1.291,1.291,0,0,1-.98-.389,1.22,1.22,0,0,1-.336-.874,1.336,1.336,0,0,1,.659-1.2,3.425,3.425,0,0,1,1.85-.406v-.079c0-.566-.3-.848-.892-.848a2,2,0,0,0-1.122.319l-.194-.627a2.756,2.756,0,0,1,1.474-.371q1.686,0,1.686,1.775v1.581A6.639,6.639,0,0,0,2140.272-492.231Zm-2-5.378a.487.487,0,0,1-.138.354.453.453,0,0,1-.34.141.463.463,0,0,1-.344-.146.483.483,0,0,1-.14-.349.478.478,0,0,1,.145-.348.475.475,0,0,1,.349-.146.432.432,0,0,1,.336.146A.5.5,0,0,1,2138.268-497.609Zm1.015,3.9v-.663q-1.589-.025-1.588.866a.642.642,0,0,0,.184.5.672.672,0,0,0,.469.168.966.966,0,0,0,.587-.2.81.81,0,0,0,.332-.507A.775.775,0,0,0,2139.283-493.705Zm.645-3.9a.488.488,0,0,1-.137.354.468.468,0,0,1-.349.141.448.448,0,0,1-.34-.146.49.49,0,0,1-.137-.349.48.48,0,0,1,.142-.348.466.466,0,0,1,.353-.146.427.427,0,0,1,.334.146A.493.493,0,0,1,2139.928-497.609Z" transform="translate(-2136.748 498.491)" fill="#d6d6d6"/><path d="M2145.583-492.032h-.954V-494.5q0-1.14-.865-1.139a.861.861,0,0,0-.689.313,1.111,1.111,0,0,0-.265.738v2.551h-.953V-495.1q0-.567-.035-1.228h.838l.045.663h.026a1.375,1.375,0,0,1,.5-.513,1.619,1.619,0,0,1,.865-.238,1.364,1.364,0,0,1,1,.389,1.885,1.885,0,0,1,.5,1.421Z" transform="translate(-2137.344 498.293)" fill="#d6d6d6"/><path d="M2151.05-492.282h-.846l-.044-.689h-.027a1.425,1.425,0,0,1-1.377.786,1.614,1.614,0,0,1-1.29-.609,2.377,2.377,0,0,1-.512-1.581,2.483,2.483,0,0,1,.559-1.686,1.727,1.727,0,0,1,1.333-.6,1.3,1.3,0,0,1,1.216.583v-2.464h.953v5.1C2151.014-493.021,2151.027-492.635,2151.05-492.282Zm-.988-1.81v-.716a1.371,1.371,0,0,0-.026-.3,1.074,1.074,0,0,0-.346-.579.934.934,0,0,0-.638-.234.979.979,0,0,0-.839.424,1.809,1.809,0,0,0-.305,1.086,1.7,1.7,0,0,0,.293,1.033.981.981,0,0,0,.833.424.92.92,0,0,0,.754-.353A1.186,1.186,0,0,0,2150.062-494.092Z" transform="translate(-2137.947 498.543)" fill="#d6d6d6"/><path d="M2153.72-492.282h-.953v-6.261h.953Z" transform="translate(-2138.63 498.543)" fill="#d6d6d6"/><path d="M2158.562-494.382a2.288,2.288,0,0,1-.035.432h-2.861a1.25,1.25,0,0,0,.416.972,1.418,1.418,0,0,0,.935.3,3.147,3.147,0,0,0,1.157-.2l.151.663a3.6,3.6,0,0,1-1.44.265,2.083,2.083,0,0,1-1.568-.588,2.168,2.168,0,0,1-.569-1.575,2.466,2.466,0,0,1,.53-1.617,1.831,1.831,0,0,1,1.5-.687,1.6,1.6,0,0,1,1.4.687A2.314,2.314,0,0,1,2158.562-494.382Zm-.91-.248a1.3,1.3,0,0,0-.186-.733.833.833,0,0,0-.759-.4.91.91,0,0,0-.76.387,1.427,1.427,0,0,0-.282.742Z" transform="translate(-2138.863 498.294)" fill="#d6d6d6"/><path d="M2162.206-495.484a1.614,1.614,0,0,0-.3-.026.9.9,0,0,0-.778.38,1.429,1.429,0,0,0-.238.847v2.252h-.953v-2.94c0-.494-.01-.944-.027-1.351h.83l.035.822h.026a1.472,1.472,0,0,1,.477-.68,1.154,1.154,0,0,1,.688-.23,1.493,1.493,0,0,1,.239.018Z" transform="translate(-2139.469 498.293)" fill="#d6d6d6"/></g></g></g></g></svg>