<svg xmlns="http://www.w3.org/2000/svg" width="300.137" height="123.294" viewBox="0 0 300.137 123.294"><g transform="translate(-439 -2429)"><path d="M2294.143-946.317c0,1.829-2.06,3.312-4.6,3.312s-4.6-1.482-4.6-3.312v-40.7c0-1.828,2.065-3.309,4.607-3.309s4.594,1.481,4.594,3.311v1.892h.181c1.894-2.885,4.42-4.961,8.658-4.961a10.012,10.012,0,0,1,8.208,4.6c2.255-2.525,4.691-4.6,9.561-4.6,4.6,0,10.013,2.978,10.013,11.186v32.58c0,1.829-2.059,3.312-4.6,3.312s-4.6-1.482-4.6-3.312V-975.47c0-3.336-1.625-5.413-4.511-5.413-3.428,0-4.6,2.255-4.6,6.315v28.251c0,1.829-2.059,3.312-4.6,3.312s-4.6-1.482-4.6-3.312V-975.47c0-3.336-1.623-5.413-4.509-5.413-3.428,0-4.6,2.255-4.6,6.315Z" transform="translate(-1845.941 3456)" fill="#af0d21"/><path d="M2366.242-975.686c0-3.428,1.713-5.232,4.509-5.232s4.514,1.716,4.514,5.415c0,2.294,2.059,3.312,4.6,3.312s4.6-1.486,4.6-3.315c0-8.478-5.231-14.612-13.711-14.612-5.593,0-9.832,2.615-12,6.585-1.263,2.345-1.714,5.592-1.714,9.291v15.977c0,3.7.451,6.945,1.714,9.289,2.164,3.969,6.4,6.585,12,6.585,8.48,0,13.711-6.133,13.711-14.612,0-1.829-2.057-3.315-4.6-3.315s-4.6,1.016-4.6,3.312c0,3.7-1.718,5.415-4.514,5.415s-4.509-1.8-4.509-5.232Z" transform="translate(-1833.217 3456.037)" fill="#af0d21"/><path d="M2452.181-987.455v-6.675c0-1.985.991-3.156,2.705-3.156l1.538.01c1.729,0,3.134-1.917,3.134-4.32s-1.4-4.352-3.134-4.352l-1.629,0c-5.953,0-11.816,3.426-11.816,12.266v6.225l-5.2,0c-1.434,0-2.6,1.628-2.6,3.621s1.163,3.6,2.6,3.6l5.2,0v36.682c0,1.828,2.059,3.312,4.6,3.312s4.6-1.483,4.6-3.312v-36.682h11.2v36.682c0,1.828,2.061,3.312,4.6,3.312s4.6-1.483,4.6-3.312v-36.682l5.594-.008c1.434,0,2.6-1.615,2.6-3.609s-1.163-3.6-2.6-3.6l-5.592,0v-6.675c0-1.985.993-3.156,2.706-3.156l1.539.01c1.73,0,3.133-1.917,3.133-4.32s-1.4-4.352-3.133-4.352l-1.628,0c-5.955,0-11.818,3.426-11.818,12.266v6.225Z" transform="translate(-1819.429 3453.243)" fill="#af0d21"/><path d="M2486.169-986.9c0-1.829-2.061-3.312-4.6-3.312s-4.6,1.483-4.6,3.312l0,40.558c0,1.83,2.06,3.312,4.6,3.312s4.6-1.482,4.6-3.312Z" transform="translate(-1812.054 3456.021)" fill="#af0d21"/><path d="M2486.168-1002.692c0-1.828-2.061-3.312-4.6-3.312s-4.6,1.484-4.6,3.313v2.024c0,1.829,2.06,3.312,4.6,3.312s4.6-1.482,4.6-3.312Z" transform="translate(-1812.054 3453.233)" fill="#af0d21"/><path d="M2499.081-975.775c0-3.428,1.715-5.232,4.509-5.232s4.514,1.717,4.514,5.414c0,2.3,2.059,3.312,4.6,3.312s4.6-1.485,4.6-3.314c0-8.477-5.231-14.613-13.711-14.613-5.592,0-9.83,2.616-12,6.586-1.263,2.345-1.714,5.592-1.714,9.291v16.081c0,3.7.451,6.945,1.714,9.289,2.165,3.969,6.4,6.585,12,6.585,8.48,0,13.711-6.133,13.711-14.612,0-1.829-2.055-3.315-4.6-3.315s-4.6,1.019-4.6,3.311c0,3.7-1.718,5.416-4.514,5.416s-4.509-1.8-4.509-5.232Z" transform="translate(-1809.776 3456.021)" fill="#af0d21"/><path d="M2374.8-898.2c14.4-12.7,23.782-34.7,23.782-59.817,0-27.684-11.525-51.663-28.434-63.477,22.876,11.822,37.021,35.637,37.021,63.341A71.453,71.453,0,0,1,2374.8-898.2" transform="translate(-1830.905 3450.499)" fill="#fff"/><path d="M2411.765-933.6h1.891v-6.322c0-.836.241-1.3.948-1.3.593,0,.927.426.927,1.111v6.509h1.893v-6.322c0-.836.241-1.3.945-1.3.594,0,.928.426.928,1.111v6.509h1.891v-7.214a2.052,2.052,0,0,0-2.059-2.3,2.377,2.377,0,0,0-1.966.947,2.06,2.06,0,0,0-1.687-.947,2,2,0,0,0-1.781,1.022h-.038V-943h-1.891Z" transform="translate(-1823.56 3464.331)" fill="#fff"/><path d="M2427.481-933.6h1.892v-6.545a2.711,2.711,0,0,0-2.836-2.968,2.836,2.836,0,0,0-2.059.8,3.117,3.117,0,0,0-.854,2.04h1.836a1.1,1.1,0,0,1,1.076-.946c.705,0,.945.481.945,1.112v.984c-.389-.02-.65-.055-.907-.055-2.374,0-2.987,1.037-2.987,3.189,0,2.076,1.17,2.5,2.042,2.5a2.012,2.012,0,0,0,1.817-1.075h.036Zm0-2.762c0,.76-.389,1.206-1.019,1.206-.614,0-.983-.484-.983-1.206,0-1,.668-1.335,1.483-1.335a2.7,2.7,0,0,1,.519.056Z" transform="translate(-1821.474 3464.331)" fill="#fff" fill-rule="evenodd"/><path d="M2434.425-940.145c0-.706.352-1.075.929-1.075s.926.352.926,1.112h1.892a2.756,2.756,0,0,0-2.817-3,2.691,2.691,0,0,0-2.468,1.353,4.144,4.144,0,0,0-.352,1.91v3.1a4.152,4.152,0,0,0,.352,1.912,2.691,2.691,0,0,0,2.468,1.353,2.761,2.761,0,0,0,2.058-.834,2.89,2.89,0,0,0,.76-2h-1.892c-.037.409-.2.948-.926.948a.85.85,0,0,1-.929-.928Z" transform="translate(-1819.896 3464.331)" fill="#fff"/><path d="M2446.287-940.367a2.654,2.654,0,0,0-2.671-2.745,2.725,2.725,0,0,0-2.783,2.745,2.677,2.677,0,0,0,1.912,2.6l.908.334c.723.278.947.631.947,1.15a1.025,1.025,0,0,1-1.056,1.02c-.706,0-.947-.538-1.021-1.059h-1.781a2.739,2.739,0,0,0,2.819,2.839,2.786,2.786,0,0,0,2.819-2.839,2.618,2.618,0,0,0-1.854-2.651l-1.113-.445c-.706-.278-.8-.612-.8-.963a.91.91,0,0,1,.928-.947.933.933,0,0,1,.963.965Z" transform="translate(-1818.448 3464.331)" fill="#fff"/><path d="M2464.267-943.017h-2l-1.133,5.842h-.035l-1-5.842h-1.483l-1.058,5.842h-.037l-1.151-5.842h-2l2.225,9.4h1.67l1.038-5.582h.038l1.038,5.582h1.669Z" transform="translate(-1816.042 3464.348)" fill="#fff"/><path d="M2465.978-936.752a4.163,4.163,0,0,0,.35,1.912,2.7,2.7,0,0,0,2.469,1.353,2.694,2.694,0,0,0,2.466-1.353,4.161,4.161,0,0,0,.353-1.912v-3.1a4.153,4.153,0,0,0-.353-1.91,2.694,2.694,0,0,0-2.466-1.353,2.7,2.7,0,0,0-2.469,1.353,4.155,4.155,0,0,0-.35,1.91Zm1.891-3.393c0-.706.351-1.075.928-1.075s.926.37.926,1.075v3.692c0,.7-.352,1.075-.926,1.075s-.928-.372-.928-1.075Z" transform="translate(-1813.994 3464.331)" fill="#fff" fill-rule="evenodd"/><path d="M2474.7-933.6h1.893v-5.581a1.886,1.886,0,0,1,1.928-2.039,1.49,1.49,0,0,1,.575.111v-2a3.454,3.454,0,0,0-2.5,1.114v-1H2474.7Z" transform="translate(-1812.454 3464.331)" fill="#fff" fill-rule="evenodd"/><path d="M2481.84-933.045h1.893v-2.632l.909-1.429,1.707,4.061h2.057l-2.708-5.581,2.244-3.821h-1.89l-2.281,4.1h-.038v-7.9h-1.893Z" transform="translate(-1811.195 3463.777)" fill="#fff"/><path d="M2501.907-937.586v-2.6a2.744,2.744,0,0,0-2.817-2.929,2.694,2.694,0,0,0-2.467,1.353,4.15,4.15,0,0,0-.353,1.91v3.1a4.158,4.158,0,0,0,.353,1.912,2.694,2.694,0,0,0,2.467,1.353,2.759,2.759,0,0,0,2.057-.834,2.879,2.879,0,0,0,.76-2h-1.89c-.037.409-.2.948-.927.948a.849.849,0,0,1-.927-.928v-1.28Zm-3.744-2.559c0-.706.352-1.075.927-1.075s.927.37.927,1.075v1.077h-1.854Z" transform="translate(-1808.649 3464.331)" fill="#fff" fill-rule="evenodd"/><path d="M2508.624-933.6h1.892v-6.545a2.713,2.713,0,0,0-2.838-2.968,2.84,2.84,0,0,0-2.059.8,3.11,3.11,0,0,0-.852,2.04h1.836a1.1,1.1,0,0,1,1.075-.946c.7,0,.946.481.946,1.112v.984c-.388-.02-.649-.055-.909-.055-2.375,0-2.985,1.037-2.985,3.189,0,2.076,1.167,2.5,2.039,2.5a2.013,2.013,0,0,0,1.819-1.075h.037Zm0-2.762c0,.76-.388,1.206-1.019,1.206-.613,0-.984-.484-.984-1.206,0-1,.668-1.335,1.484-1.335a2.712,2.712,0,0,1,.518.056Z" transform="translate(-1807.156 3464.331)" fill="#fff" fill-rule="evenodd"/><path d="M2518.845-940.367a2.656,2.656,0,0,0-2.672-2.745,2.722,2.722,0,0,0-2.781,2.745,2.675,2.675,0,0,0,1.909,2.6l.91.334c.722.278.945.631.945,1.15a1.025,1.025,0,0,1-1.057,1.02c-.706,0-.944-.538-1.02-1.059h-1.78a2.738,2.738,0,0,0,2.82,2.839,2.786,2.786,0,0,0,2.818-2.839,2.619,2.619,0,0,0-1.854-2.651l-1.113-.445c-.706-.278-.8-.612-.8-.963a.909.909,0,0,1,.926-.947.933.933,0,0,1,.965.965Z" transform="translate(-1805.643 3464.331)" fill="#fff"/><path d="M2521.883-933.045h1.892v-9.4h-1.892Zm0-11.312h1.892v-1.892h-1.892Z" transform="translate(-1804.129 3463.778)" fill="#fff" fill-rule="evenodd"/><path d="M2533.064-937.586v-2.6a2.745,2.745,0,0,0-2.82-2.929,2.692,2.692,0,0,0-2.466,1.353,4.153,4.153,0,0,0-.352,1.91v3.1a4.162,4.162,0,0,0,.352,1.912,2.692,2.692,0,0,0,2.466,1.353,2.762,2.762,0,0,0,2.059-.834,2.891,2.891,0,0,0,.76-2h-1.892c-.037.409-.2.948-.928.948a.849.849,0,0,1-.928-.928v-1.28Zm-3.747-2.559c0-.706.353-1.075.928-1.075s.928.37.928,1.075v1.077h-1.855Z" transform="translate(-1803.15 3464.331)" fill="#fff" fill-rule="evenodd"/><path d="M2536.153-933.6h1.892v-5.581a1.885,1.885,0,0,1,1.928-2.039,1.486,1.486,0,0,1,.576.111v-2a3.457,3.457,0,0,0-2.5,1.114v-1h-1.892Z" transform="translate(-1801.611 3464.331)" fill="#fff" fill-rule="evenodd"/><path d="M2411.79-958.256c0,3.7.45,6.945,1.713,9.289,2.165,3.971,6.4,6.586,12,6.586s9.831-2.615,12-6.586c1.264-2.345,1.714-5.592,1.714-9.289v-16.075c0-3.7-.449-6.946-1.714-9.291-2.165-3.969-6.4-6.586-12-6.586s-9.831,2.616-12,6.586c-1.263,2.345-1.713,5.592-1.713,9.291Zm9.2-17.519c0-3.428,1.714-5.232,4.51-5.232s4.51,1.8,4.51,5.232v18.961c0,3.428-1.714,5.233-4.51,5.233s-4.51-1.8-4.51-5.233Z" transform="translate(-1823.557 3456.021)" fill="#af0d21" fill-rule="evenodd"/><path d="M2338.015-975.775c0-3.428,1.714-5.232,4.511-5.232s4.51,1.8,4.51,5.232v19.254c0,3.427-1.713,5.232-4.51,5.232s-4.511-1.8-4.511-5.232Zm-9.152,21.628a13.8,13.8,0,0,0,1.953,7.547,8.637,8.637,0,0,0,7.883,4.223,9.111,9.111,0,0,0,8.357-5.6l.017,1.669c0,1.792,2.058,3.246,4.548,3.246s4.615-1.491,4.615-3.281v-27.987c0-3.7-.452-6.946-1.714-9.291-2.165-3.969-6.4-6.586-12-6.586s-9.832,2.616-12,6.586c-1.261,2.345-1.712,5.592-1.712,9.291v18.143c0,.7.045,2.034.047,2.041" transform="translate(-1838.198 3456.021)" fill="#af0d21" fill-rule="evenodd"/><path d="M2525.908-975.775c0-3.428,1.715-5.232,4.509-5.232s4.512,1.8,4.512,5.232v5.232h-9.021Zm4.562,24.2c-2.8,0-4.54-1.625-4.54-4.509l-.022-7.242H2541.5a2.62,2.62,0,0,0,2.633-2.6v-10.029c0-8.027-5.232-14.25-13.711-14.25-5.59,0-9.831,2.615-11.994,6.585-1.264,2.345-1.716,5.592-1.716,9.29l-.013,16.081c0,3.7.517,6.945,1.779,9.288,2.165,3.971,6.4,6.586,12,6.586a13.427,13.427,0,0,0,10.013-4.059,14.035,14.035,0,0,0,3.7-9.744c0-1.83-2.061-3.312-4.6-3.312s-4.6,1.485-4.6,3.314c-.181,1.985-.992,4.6-4.511,4.6" transform="translate(-1805.044 3456.021)" fill="#af0d21" fill-rule="evenodd"/></g></svg>