<svg xmlns="http://www.w3.org/2000/svg" width="151.082" height="62.064" viewBox="0 0 151.082 62.064"><g transform="translate(0 0)"><path d="M2289.573-968.172c0,.921-1.037,1.667-2.316,1.667s-2.316-.746-2.316-1.667v-20.486c0-.92,1.039-1.666,2.319-1.666s2.313.746,2.313,1.666v.952h.092a4.892,4.892,0,0,1,4.358-2.5,5.04,5.04,0,0,1,4.132,2.316,5.824,5.824,0,0,1,4.813-2.316c2.316,0,5.04,1.5,5.04,5.631v16.4c0,.921-1.036,1.667-2.316,1.667s-2.315-.746-2.315-1.667v-14.675c0-1.679-.818-2.725-2.271-2.725-1.726,0-2.316,1.135-2.316,3.179v14.221c0,.921-1.036,1.667-2.315,1.667s-2.317-.746-2.317-1.667v-14.675c0-1.679-.817-2.725-2.27-2.725-1.726,0-2.316,1.135-2.316,3.179Z" transform="translate(-2284.941 1008.786)" fill="#af0d21"/><path d="M2361.672-982.853c0-1.726.862-2.634,2.27-2.634s2.272.864,2.272,2.726c0,1.155,1.036,1.667,2.315,1.667s2.314-.748,2.314-1.669c0-4.267-2.633-7.355-6.9-7.355a6.591,6.591,0,0,0-6.039,3.315,10.129,10.129,0,0,0-.863,4.677v8.042a10.127,10.127,0,0,0,.863,4.676,6.591,6.591,0,0,0,6.039,3.315c4.269,0,6.9-3.087,6.9-7.355,0-.921-1.035-1.669-2.314-1.669s-2.315.512-2.315,1.667c0,1.862-.865,2.726-2.272,2.726s-2.27-.908-2.27-2.634Z" transform="translate(-2314.343 1008.702)" fill="#af0d21"/><path d="M2443.738-996.639V-1000c0-1,.5-1.589,1.362-1.589l.774,0c.87,0,1.577-.965,1.577-2.175s-.707-2.191-1.577-2.191l-.82,0c-3,0-5.948,1.724-5.948,6.174v3.133h-2.619c-.722,0-1.307.82-1.307,1.823s.585,1.813,1.307,1.813l2.619,0v18.465c0,.92,1.037,1.667,2.316,1.667s2.315-.747,2.315-1.667v-18.465h5.638v18.465c0,.92,1.038,1.667,2.316,1.667s2.315-.747,2.315-1.667v-18.465l2.816,0c.722,0,1.307-.813,1.307-1.817s-.585-1.812-1.308-1.812h-2.815V-1000c0-1,.5-1.589,1.362-1.589l.774,0c.871,0,1.577-.965,1.577-2.175s-.706-2.191-1.577-2.191l-.819,0c-3,0-5.949,1.724-5.949,6.174v3.133Z" transform="translate(-2346.208 1015.158)" fill="#af0d21"/><path d="M2481.6-988.54c0-.921-1.037-1.667-2.315-1.667s-2.316.747-2.316,1.667l0,20.416c0,.921,1.037,1.667,2.316,1.667s2.315-.746,2.315-1.667Z" transform="translate(-2363.249 1008.738)" fill="#af0d21"/><path d="M2481.6-1004.337c0-.92-1.038-1.667-2.315-1.667s-2.313.747-2.313,1.668v1.019c0,.921,1.037,1.667,2.315,1.667s2.316-.746,2.316-1.667Z" transform="translate(-2363.25 1015.18)" fill="#af0d21"/><path d="M2494.511-982.943c0-1.726.863-2.634,2.27-2.634s2.272.864,2.272,2.725c0,1.155,1.036,1.667,2.316,1.667s2.314-.747,2.314-1.668c0-4.267-2.634-7.356-6.9-7.356a6.592,6.592,0,0,0-6.038,3.315,10.129,10.129,0,0,0-.863,4.677v8.095a10.128,10.128,0,0,0,.863,4.676,6.592,6.592,0,0,0,6.038,3.315c4.269,0,6.9-3.087,6.9-7.355,0-.921-1.034-1.669-2.314-1.669s-2.316.513-2.316,1.667c0,1.862-.865,2.726-2.272,2.726s-2.27-.908-2.27-2.634Z" transform="translate(-2368.514 1008.739)" fill="#af0d21"/><path d="M2372.486-959.435c7.247-6.393,11.971-17.466,11.971-30.111,0-13.935-5.8-26.006-14.313-31.953,11.515,5.951,18.636,17.939,18.636,31.884a35.968,35.968,0,0,1-16.294,30.179" transform="translate(-2319.686 1021.499)" fill="#b6b7b7"/><path d="M2411.765-938.324h.951v-3.183c0-.421.122-.653.477-.653.3,0,.466.214.466.559v3.277h.953v-3.183c0-.421.122-.653.476-.653.3,0,.467.214.467.559v3.277h.952v-3.631a1.033,1.033,0,0,0-1.036-1.158,1.2,1.2,0,0,0-.99.477,1.037,1.037,0,0,0-.849-.477,1.006,1.006,0,0,0-.9.515h-.019v-.458h-.951Z" transform="translate(-2336.659 989.533)" fill="#b6b7b7"/><path d="M2425.546-938.323h.952v-3.294a1.365,1.365,0,0,0-1.428-1.494,1.428,1.428,0,0,0-1.036.4,1.568,1.568,0,0,0-.43,1.027h.925a.553.553,0,0,1,.542-.476c.355,0,.476.242.476.56v.5c-.2-.01-.327-.028-.457-.028-1.2,0-1.5.522-1.5,1.605,0,1.045.589,1.26,1.028,1.26a1.013,1.013,0,0,0,.915-.541h.018Zm0-1.39c0,.383-.2.607-.513.607s-.5-.243-.5-.607c0-.5.336-.672.747-.672a1.358,1.358,0,0,1,.261.028Z" transform="translate(-2341.479 989.533)" fill="#b6b7b7" fill-rule="evenodd"/><path d="M2433.486-941.618c0-.355.177-.541.468-.541s.466.177.466.56h.952a1.388,1.388,0,0,0-1.418-1.512,1.355,1.355,0,0,0-1.242.681,2.082,2.082,0,0,0-.177.962v1.559a2.087,2.087,0,0,0,.177.962,1.354,1.354,0,0,0,1.242.681,1.389,1.389,0,0,0,1.036-.42,1.455,1.455,0,0,0,.383-1.009h-.952c-.019.206-.1.477-.466.477a.428.428,0,0,1-.468-.467Z" transform="translate(-2345.129 989.533)" fill="#b6b7b7"/><path d="M2443.533-941.73a1.337,1.337,0,0,0-1.345-1.382,1.372,1.372,0,0,0-1.4,1.382,1.348,1.348,0,0,0,.962,1.307l.457.168c.364.14.477.318.477.579a.516.516,0,0,1-.532.513c-.355,0-.476-.271-.514-.533h-.9a1.379,1.379,0,0,0,1.419,1.429,1.4,1.4,0,0,0,1.419-1.429,1.318,1.318,0,0,0-.933-1.334l-.56-.224c-.355-.14-.4-.308-.4-.485a.458.458,0,0,1,.467-.477.47.47,0,0,1,.485.486Z" transform="translate(-2348.475 989.533)" fill="#b6b7b7"/><path d="M2459.349-943.017h-1.008l-.57,2.94h-.018l-.5-2.94h-.746l-.532,2.94h-.019l-.579-2.94h-1.008l1.12,4.733h.841l.523-2.81h.019l.523,2.81h.84Z" transform="translate(-2354.03 989.494)" fill="#b6b7b7"/><path d="M2465.977-939.91a2.09,2.09,0,0,0,.177.962,1.357,1.357,0,0,0,1.242.681,1.356,1.356,0,0,0,1.241-.681,2.1,2.1,0,0,0,.177-.962v-1.559a2.092,2.092,0,0,0-.177-.962,1.356,1.356,0,0,0-1.241-.681,1.357,1.357,0,0,0-1.242.681,2.086,2.086,0,0,0-.177.962Zm.952-1.708c0-.355.177-.541.467-.541s.466.186.466.541v1.858c0,.354-.177.541-.466.541s-.467-.187-.467-.541Z" transform="translate(-2358.766 989.533)" fill="#b6b7b7" fill-rule="evenodd"/><path d="M2474.7-938.324h.953v-2.809a.949.949,0,0,1,.971-1.026.752.752,0,0,1,.29.056v-1.009a1.739,1.739,0,0,0-1.26.561v-.5h-.953Z" transform="translate(-2362.324 989.533)" fill="#b6b7b7" fill-rule="evenodd"/><path d="M2481.84-939.6h.953v-1.325l.457-.719.859,2.044h1.036l-1.363-2.809,1.129-1.924h-.951l-1.148,2.063h-.019v-3.977h-.953Z" transform="translate(-2365.235 990.812)" fill="#b6b7b7"/><path d="M2499.107-940.33v-1.307a1.381,1.381,0,0,0-1.418-1.475,1.356,1.356,0,0,0-1.242.681,2.085,2.085,0,0,0-.178.962v1.559a2.09,2.09,0,0,0,.178.962,1.356,1.356,0,0,0,1.242.681,1.388,1.388,0,0,0,1.035-.42,1.449,1.449,0,0,0,.383-1.009h-.952c-.019.206-.1.477-.467.477a.427.427,0,0,1-.467-.467v-.644Zm-1.885-1.288c0-.355.177-.541.467-.541s.467.186.467.541v.542h-.933Z" transform="translate(-2371.12 989.533)" fill="#b6b7b7" fill-rule="evenodd"/><path d="M2506.69-938.323h.952v-3.294a1.365,1.365,0,0,0-1.428-1.494,1.43,1.43,0,0,0-1.036.4,1.564,1.564,0,0,0-.429,1.027h.924a.553.553,0,0,1,.541-.476c.355,0,.476.242.476.56v.5c-.2-.01-.327-.028-.457-.028-1.2,0-1.5.522-1.5,1.605,0,1.045.587,1.26,1.026,1.26a1.014,1.014,0,0,0,.916-.541h.018Zm0-1.39c0,.383-.2.607-.513.607s-.5-.243-.5-.607c0-.5.336-.672.747-.672a1.362,1.362,0,0,1,.261.028Z" transform="translate(-2374.569 989.533)" fill="#b6b7b7" fill-rule="evenodd"/><path d="M2516.09-941.73a1.336,1.336,0,0,0-1.345-1.382,1.37,1.37,0,0,0-1.4,1.382,1.346,1.346,0,0,0,.961,1.307l.458.168c.364.14.476.318.476.579a.516.516,0,0,1-.532.513c-.355,0-.475-.271-.513-.533h-.9a1.378,1.378,0,0,0,1.419,1.429,1.4,1.4,0,0,0,1.419-1.429,1.318,1.318,0,0,0-.933-1.334l-.56-.224c-.355-.14-.4-.308-.4-.485a.458.458,0,0,1,.466-.477.47.47,0,0,1,.486.486Z" transform="translate(-2378.063 989.533)" fill="#b6b7b7"/><path d="M2521.883-939.6h.953v-4.733h-.953Zm0-5.694h.953v-.952h-.953Z" transform="translate(-2381.564 990.812)" fill="#b6b7b7" fill-rule="evenodd"/><path d="M2530.264-940.33v-1.307a1.382,1.382,0,0,0-1.419-1.475,1.355,1.355,0,0,0-1.241.681,2.092,2.092,0,0,0-.177.962v1.559a2.1,2.1,0,0,0,.177.962,1.355,1.355,0,0,0,1.241.681,1.39,1.39,0,0,0,1.037-.42,1.455,1.455,0,0,0,.383-1.009h-.953c-.019.206-.1.477-.467.477a.428.428,0,0,1-.467-.467v-.644Zm-1.886-1.288c0-.355.178-.541.467-.541s.467.186.467.541v.542h-.934Z" transform="translate(-2383.825 989.533)" fill="#b6b7b7" fill-rule="evenodd"/><path d="M2536.153-938.324h.952v-2.809a.949.949,0,0,1,.971-1.026.75.75,0,0,1,.29.056v-1.009a1.74,1.74,0,0,0-1.261.561v-.5h-.952Z" transform="translate(-2387.384 989.533)" fill="#b6b7b7" fill-rule="evenodd"/><path d="M2411.791-974.124a10.131,10.131,0,0,0,.862,4.676,6.59,6.59,0,0,0,6.039,3.315,6.591,6.591,0,0,0,6.039-3.315,10.125,10.125,0,0,0,.862-4.676v-8.092a10.126,10.126,0,0,0-.862-4.677,6.592,6.592,0,0,0-6.039-3.315,6.591,6.591,0,0,0-6.039,3.315,10.132,10.132,0,0,0-.862,4.677Zm4.631-8.819c0-1.726.863-2.634,2.27-2.634s2.27.908,2.27,2.634v9.545c0,1.726-.863,2.634-2.27,2.634s-2.27-.908-2.27-2.634Z" transform="translate(-2336.67 1008.739)" fill="#af0d21" fill-rule="evenodd"/><path d="M2333.447-982.943c0-1.726.863-2.634,2.271-2.634s2.27.908,2.27,2.634v9.692c0,1.725-.862,2.633-2.27,2.633s-2.271-.908-2.271-2.633Zm-4.607,10.887a6.952,6.952,0,0,0,.983,3.8,4.348,4.348,0,0,0,3.968,2.126,4.586,4.586,0,0,0,4.207-2.82l.008.84c0,.9,1.036,1.634,2.289,1.634s2.323-.75,2.323-1.652v-14.088a10.138,10.138,0,0,0-.863-4.677,6.593,6.593,0,0,0-6.039-3.315,6.594,6.594,0,0,0-6.04,3.315,10.145,10.145,0,0,0-.862,4.677v9.133c0,.352.023,1.024.024,1.027" transform="translate(-2302.833 1008.739)" fill="#af0d21" fill-rule="evenodd"/><path d="M2521.333-982.942c0-1.726.863-2.634,2.27-2.634s2.271.908,2.271,2.634v2.634h-4.541Zm2.3,12.181a2.089,2.089,0,0,1-2.285-2.27l-.011-3.646h7.846a1.319,1.319,0,0,0,1.325-1.308v-5.048c0-4.041-2.634-7.173-6.9-7.173a6.59,6.59,0,0,0-6.038,3.314,10.122,10.122,0,0,0-.864,4.677l-.007,8.095a10.112,10.112,0,0,0,.9,4.675,6.591,6.591,0,0,0,6.039,3.315,6.759,6.759,0,0,0,5.04-2.043,7.065,7.065,0,0,0,1.862-4.9c0-.921-1.038-1.667-2.316-1.667s-2.315.747-2.315,1.668c-.091,1-.5,2.316-2.271,2.316" transform="translate(-2379.448 1008.738)" fill="#af0d21" fill-rule="evenodd"/></g></svg>