<svg xmlns="http://www.w3.org/2000/svg" width="30.852" height="24.578" viewBox="0 0 30.852 24.578"><path d="M9.99,3.352a1.749,1.749,0,0,0,.773-.172,4.233,4.233,0,0,0,.87-.623l4.512-4.039L14.9-2.686,10.431,1.439V-1.633a.864.864,0,0,0-.242-.671.852.852,0,0,0-.6-.22H7.5a3.087,3.087,0,0,1-2.229-.768,3.007,3.007,0,0,1-.8-2.272v-9.786a3.026,3.026,0,0,1,.8-2.277A3.074,3.074,0,0,1,7.5-18.4H22.655a3.074,3.074,0,0,1,2.229.773,3.026,3.026,0,0,1,.8,2.277v1.5h1.729v-1.568a5.184,5.184,0,0,0-.553-2.481,3.751,3.751,0,0,0-1.6-1.579,5.315,5.315,0,0,0-2.5-.548H7.391a5.2,5.2,0,0,0-2.444.548A3.908,3.908,0,0,0,3.319-17.9a4.987,4.987,0,0,0-.58,2.481v9.894a5.01,5.01,0,0,0,.58,2.492A3.874,3.874,0,0,0,4.947-1.456a5.243,5.243,0,0,0,2.444.542H8.809V2.03A1.426,1.426,0,0,0,9.115,3,1.1,1.1,0,0,0,9.99,3.352Zm17.5,1.2a1.05,1.05,0,0,0,.859-.365,1.49,1.49,0,0,0,.3-.978V.634H29.1A5.02,5.02,0,0,0,31.453.107a3.8,3.8,0,0,0,1.574-1.515,4.761,4.761,0,0,0,.564-2.4v-6.349a4.792,4.792,0,0,0-.564-2.4,3.787,3.787,0,0,0-1.574-1.52A5.02,5.02,0,0,0,29.1-14.6H18.67a5.135,5.135,0,0,0-2.412.526,3.6,3.6,0,0,0-1.536,1.52,5.027,5.027,0,0,0-.532,2.4V-3.8a5.027,5.027,0,0,0,.532,2.4A3.565,3.565,0,0,0,16.258.113,5.179,5.179,0,0,0,18.67.634h3.706l3.588,3.072a9.422,9.422,0,0,0,.816.634A1.251,1.251,0,0,0,27.489,4.555ZM27.038,2.61,23.59-.483a2.393,2.393,0,0,0-.58-.392,1.775,1.775,0,0,0-.7-.113H18.777a2.945,2.945,0,0,1-2.105-.72,2.818,2.818,0,0,1-.763-2.148L15.92-10.1a2.851,2.851,0,0,1,.757-2.148,2.9,2.9,0,0,1,2.1-.73H29a2.9,2.9,0,0,1,2.1.73,2.851,2.851,0,0,1,.757,2.148v6.241A2.821,2.821,0,0,1,31.1-1.713,2.916,2.916,0,0,1,29-.988H27.865a.85.85,0,0,0-.585.215.847.847,0,0,0-.242.666Z" transform="translate(-2.739 20.023)" fill="#fff"/></svg>