<svg xmlns="http://www.w3.org/2000/svg" width="20.313" height="19.268" viewBox="0 0 20.313 19.268"><path d="M3.594,2.207a1.229,1.229,0,0,0,.381-.063,2.247,2.247,0,0,0,.43-.2L9.375-.732l5.4,3.027a2.223,2.223,0,0,0,1.094.293,1.917,1.917,0,0,0,.977-.254l5.107-2.9a1.63,1.63,0,0,0,.645-.6,1.665,1.665,0,0,0,.205-.845V-15.166a1.134,1.134,0,0,0-.288-.83,1.092,1.092,0,0,0-.815-.293,1.229,1.229,0,0,0-.381.063,2.943,2.943,0,0,0-.439.19L15.7-13.154l-5.3-3.252a1.861,1.861,0,0,0-.986-.273,1.929,1.929,0,0,0-1.006.273L3.33-13.516a1.644,1.644,0,0,0-.635.6,1.686,1.686,0,0,0-.205.854V1.074a1.148,1.148,0,0,0,.288.84A1.092,1.092,0,0,0,3.594,2.207ZM8.74-2.285,4.336.137a.375.375,0,0,1-.146.049q-.127,0-.127-.156V-11.68a.623.623,0,0,1,.073-.308.614.614,0,0,1,.249-.229l4-2.344q.1-.049.181-.1l.171-.1Zm1.572.156V-14.551q.078.039.156.083t.156.093l4.355,2.656V.488Q14.873.43,14.766.376T14.551.264ZM16.553.664v-12.48l4.4-2.4a.38.38,0,0,1,.137-.049.129.129,0,0,1,.1.039.174.174,0,0,1,.034.117V-2.4a.651.651,0,0,1-.073.313.6.6,0,0,1-.249.234L16.992.42q-.107.068-.22.127Z" transform="translate(-2.49 16.68)" fill="#fff"/></svg>