<svg xmlns="http://www.w3.org/2000/svg" width="16.172" height="12.62" viewBox="0 0 16.172 12.62"><path d="M4.167,1.033H15.959A2.028,2.028,0,0,0,17.494.465a2.371,2.371,0,0,0,.546-1.7V-9.324a2.284,2.284,0,0,0-.575-1.7,2.361,2.361,0,0,0-1.725-.568H3.948a2.028,2.028,0,0,0-1.534.568,2.359,2.359,0,0,0-.546,1.7v8.086a2.3,2.3,0,0,0,.575,1.7A2.361,2.361,0,0,0,4.167,1.033ZM4.124-.088a1.149,1.149,0,0,1-.842-.289,1.159,1.159,0,0,1-.293-.861V-9.324a1.148,1.148,0,0,1,.293-.853,1.149,1.149,0,0,1,.842-.289h11.66a1.151,1.151,0,0,1,.839.289,1.15,1.15,0,0,1,.3.861V-1.23a1.14,1.14,0,0,1-.3.853,1.151,1.151,0,0,1-.839.289ZM9.968-3.325a1.836,1.836,0,0,0,.762-.168,2.7,2.7,0,0,0,.762-.549l5.947-5.845-.762-.769-5.823,5.75a1.947,1.947,0,0,1-.458.344.939.939,0,0,1-.428.11.928.928,0,0,1-.436-.114,2,2,0,0,1-.45-.341L3.23-10.686l-.769.769L8.445-4.043a2.589,2.589,0,0,0,.758.549A1.861,1.861,0,0,0,9.968-3.325ZM16.6.073,17.366-.7l-4.739-4.68-.762.762ZM2.563-.688l.762.769L8.071-4.614,7.3-5.376Z" transform="translate(-1.868 11.587)" fill="#d6d6d6"/></svg>