<svg xmlns="http://www.w3.org/2000/svg" xmlns:xlink="http://www.w3.org/1999/xlink" width="58" height="58" viewBox="0 0 58 58">
  <defs>
    <filter id="Rechteck_21" x="0" y="0" width="58" height="58" filterUnits="userSpaceOnUse">
      <feOffset dy="3" input="SourceAlpha"/>
      <feGaussianBlur stdDeviation="3" result="blur"/>
      <feFlood flood-opacity="0.161"/>
      <feComposite operator="in" in2="blur"/>
      <feComposite in="SourceGraphic"/>
    </filter>
  </defs>
  <g id="Gruppe_5711" data-name="Gruppe 5711" transform="translate(-694 -1807)">
    <g id="Gruppe_5686" data-name="Gruppe 5686" transform="translate(714.316 1824.316)">
      <path id="search" d="M2.061,2.061A6.77,6.77,0,0,1,7.028,0a6.77,6.77,0,0,1,4.967,2.061,6.769,6.769,0,0,1,2.061,4.967A6.936,6.936,0,0,1,12.5,11.454l4.629,4.629a.658.658,0,0,1,.237.524.75.75,0,0,1-.76.76.658.658,0,0,1-.524-.237L11.454,12.5a6.937,6.937,0,0,1-4.426,1.554,6.77,6.77,0,0,1-4.967-2.061A6.769,6.769,0,0,1,0,7.028,6.769,6.769,0,0,1,2.061,2.061Zm.777,9.19a5.7,5.7,0,0,0,4.19,1.723,5.731,5.731,0,0,0,4.207-1.74,5.731,5.731,0,0,0,1.74-4.206,5.731,5.731,0,0,0-1.74-4.206,5.731,5.731,0,0,0-4.207-1.74,5.731,5.731,0,0,0-4.207,1.74,5.73,5.73,0,0,0-1.74,4.206A5.758,5.758,0,0,0,2.838,11.251Zm-2.8,4.967" transform="translate(0 0)" fill="#707070"/>
    </g>
    <g transform="matrix(1, 0, 0, 1, 694, 1807)" filter="url(#Rechteck_21)">
      <g id="Rechteck_21-2" data-name="Rechteck 21" transform="translate(9 6)" fill="none" stroke="#525051" stroke-width="1">
        <rect width="40" height="40" rx="20" stroke="none"/>
        <rect x="0.5" y="0.5" width="39" height="39" rx="19.5" fill="none"/>
      </g>
    </g>
  </g>
</svg>
