<svg xmlns="http://www.w3.org/2000/svg" width="19.406" height="15.144" viewBox="0 0 19.406 15.144"><path d="M5,1.239h14.15A2.434,2.434,0,0,0,20.993.558a2.845,2.845,0,0,0,.655-2.043v-9.7a2.741,2.741,0,0,0-.69-2.035,2.834,2.834,0,0,0-2.07-.681H4.737a2.434,2.434,0,0,0-1.841.681,2.831,2.831,0,0,0-.655,2.035v9.7A2.754,2.754,0,0,0,2.931.558,2.834,2.834,0,0,0,5,1.239ZM4.948-.105A1.378,1.378,0,0,1,3.938-.453a1.391,1.391,0,0,1-.352-1.033v-9.7a1.378,1.378,0,0,1,.352-1.024,1.378,1.378,0,0,1,1.011-.347H18.94a1.381,1.381,0,0,1,1.006.347A1.38,1.38,0,0,1,20.3-11.18v9.7a1.368,1.368,0,0,1-.356,1.024,1.381,1.381,0,0,1-1.006.347ZM11.962-3.99a2.2,2.2,0,0,0,.914-.2,3.24,3.24,0,0,0,.914-.659l7.137-7.014-.914-.923-6.987,6.9a2.337,2.337,0,0,1-.549.413,1.127,1.127,0,0,1-.514.132,1.114,1.114,0,0,1-.523-.136,2.4,2.4,0,0,1-.541-.409L3.876-12.823l-.923.923,7.181,7.049a3.107,3.107,0,0,0,.91.659A2.233,2.233,0,0,0,11.962-3.99ZM19.925.088l.914-.923L15.152-6.451l-.914.914ZM3.076-.826,3.99.1l5.7-5.634-.923-.914Z" transform="translate(-2.241 13.904)" fill="#d6d6d6"/></svg>