<svg xmlns="http://www.w3.org/2000/svg" xmlns:xlink="http://www.w3.org/1999/xlink" width="58" height="58" viewBox="0 0 58 58"><defs><filter id="a" x="0" y="0" width="58" height="58" filterUnits="userSpaceOnUse"><feOffset dy="3" input="SourceAlpha"/><feGaussianBlur stdDeviation="3" result="b"/><feFlood flood-opacity="0.161"/><feComposite operator="in" in2="b"/><feComposite in="SourceGraphic"/></filter></defs><g transform="translate(-1463 -86)"><g transform="matrix(1, 0, 0, 1, 1463, 86)" filter="url(#a)"><g transform="translate(9 6)" fill="none" stroke="#525051" stroke-width="1"><rect width="40" height="40" rx="20" stroke="none"/><rect x="0.5" y="0.5" width="39" height="39" rx="19.5" fill="none"/></g></g><g transform="translate(1482 102)"><path d="M99.95,1.964h-.1a.573.573,0,0,1-.571-.571V.57A.573.573,0,0,1,99.854,0h.1a.573.573,0,0,1,.571.571v.823a.573.573,0,0,1-.571.571" transform="translate(-90.092 0.001)" fill="#4e595a"/><path d="M99.95,193.015h-.1a.573.573,0,0,1-.571-.571v-.823a.573.573,0,0,1,.571-.571h.1a.573.573,0,0,1,.571.571v.823a.573.573,0,0,1-.571.571" transform="translate(-90.092 -173.364)" fill="#4e595a"/><path d="M191.183,100.15v-.1a.573.573,0,0,1,.571-.571h.823a.573.573,0,0,1,.571.571v.1a.573.573,0,0,1-.571.571h-.823a.573.573,0,0,1-.571-.571" transform="translate(-173.484 -90.273)" fill="#4e595a"/><path d="M0,100.15v-.1a.573.573,0,0,1,.571-.571h.823a.573.573,0,0,1,.571.571v.1a.573.573,0,0,1-.571.571H.571A.573.573,0,0,1,0,100.15" transform="translate(0 -90.273)" fill="#4e595a"/><path d="M30.34,30.36l-.068.068a.573.573,0,0,1-.808,0l-.582-.582a.573.573,0,0,1,0-.808l.067-.068a.573.573,0,0,1,.808,0l.582.582a.573.573,0,0,1,0,.808" transform="translate(-26.058 -26.137)" fill="#4e595a"/><path d="M165.684,165.7l-.068.068a.573.573,0,0,1-.808,0l-.582-.582a.573.573,0,0,1,0-.808l.067-.068a.573.573,0,0,1,.808,0l.582.582a.573.573,0,0,1,0,.808" transform="translate(-148.872 -148.952)" fill="#4e595a"/><path d="M164.294,30.429l-.068-.068a.573.573,0,0,1,0-.808l.582-.582a.573.573,0,0,1,.808,0l.068.067a.573.573,0,0,1,0,.808l-.582.582a.573.573,0,0,1-.808,0" transform="translate(-148.872 -26.138)" fill="#4e595a"/><path d="M29.18,165.543l-.068-.068a.573.573,0,0,1,0-.808l.582-.582a.573.573,0,0,1,.808,0l.068.067a.573.573,0,0,1,0,.808l-.582.582a.573.573,0,0,1-.808,0" transform="translate(-26.266 -148.744)" fill="#4e595a"/><path d="M49.07,42.581a6.482,6.482,0,1,1-6.455-6.487,6.459,6.459,0,0,1,6.455,6.487M42.6,47.717a5.144,5.144,0,1,0-5.142-5.152A5.166,5.166,0,0,0,42.6,47.717" transform="translate(-32.763 -32.752)" fill="#4e595a"/></g></g></svg>