<svg xmlns="http://www.w3.org/2000/svg" width="24.797" height="19.35" viewBox="0 0 24.797 19.35"><path d="M6.39,1.583H24.471a3.11,3.11,0,0,0,2.353-.87A3.635,3.635,0,0,0,27.661-1.9V-14.3a3.5,3.5,0,0,0-.882-2.6,3.621,3.621,0,0,0-2.645-.87H6.053A3.11,3.11,0,0,0,3.7-16.9a3.618,3.618,0,0,0-.837,2.6V-1.9A3.519,3.519,0,0,0,3.745.713,3.621,3.621,0,0,0,6.39,1.583ZM6.323-.135A1.761,1.761,0,0,1,5.031-.578,1.777,1.777,0,0,1,4.582-1.9V-14.3A1.761,1.761,0,0,1,5.031-15.6a1.761,1.761,0,0,1,1.292-.444H24.2a1.765,1.765,0,0,1,1.286.444,1.764,1.764,0,0,1,.455,1.32v12.4a1.748,1.748,0,0,1-.455,1.308A1.765,1.765,0,0,1,24.2-.135ZM15.285-5.1a2.815,2.815,0,0,0,1.168-.258A4.14,4.14,0,0,0,17.621-6.2l9.119-8.962L25.572-16.34,16.644-7.524a2.986,2.986,0,0,1-.7.528,1.44,1.44,0,0,1-.657.168A1.424,1.424,0,0,1,14.616-7a3.074,3.074,0,0,1-.691-.522L4.953-16.385,3.773-15.206,12.949-6.2a3.971,3.971,0,0,0,1.162.842A2.853,2.853,0,0,0,15.285-5.1ZM25.459.112l1.168-1.179L19.361-8.243,18.193-7.075ZM3.931-1.056,5.1.124l7.277-7.2L11.2-8.243Z" transform="translate(-2.864 17.767)" fill="#fff"/></svg>