<svg xmlns="http://www.w3.org/2000/svg" width="19.922" height="19.922" viewBox="0 0 19.922 19.922"><path d="M6.6-6h5.1a.662.662,0,0,0,.488-.2.662.662,0,0,0,.2-.488v-6.582a.651.651,0,0,0-.2-.479.662.662,0,0,0-.488-.2.651.651,0,0,0-.479.2.651.651,0,0,0-.2.479v5.908H6.6a.662.662,0,0,0-.488.2.651.651,0,0,0-.2.479.662.662,0,0,0,.2.488A.662.662,0,0,0,6.6-6ZM11.709,2.91a9.555,9.555,0,0,0,3.843-.781A10.182,10.182,0,0,0,18.73-.029a10.182,10.182,0,0,0,2.158-3.179,9.555,9.555,0,0,0,.781-3.843,9.555,9.555,0,0,0-.781-3.843,10.182,10.182,0,0,0-2.158-3.179,10.166,10.166,0,0,0-3.184-2.158,9.589,9.589,0,0,0-3.848-.781,9.555,9.555,0,0,0-3.843.781,10.123,10.123,0,0,0-3.174,2.158,10.223,10.223,0,0,0-2.153,3.179,9.555,9.555,0,0,0-.781,3.843,9.555,9.555,0,0,0,.781,3.843A10.182,10.182,0,0,0,4.688-.029,10.182,10.182,0,0,0,7.866,2.129,9.555,9.555,0,0,0,11.709,2.91Zm0-1.66A8.118,8.118,0,0,1,8.477.605,8.35,8.35,0,0,1,5.835-1.177,8.283,8.283,0,0,1,4.058-3.818a8.172,8.172,0,0,1-.64-3.232,8.172,8.172,0,0,1,.64-3.232A8.381,8.381,0,0,1,5.83-12.93a8.187,8.187,0,0,1,2.637-1.782,8.172,8.172,0,0,1,3.232-.64,8.207,8.207,0,0,1,3.237.64,8.229,8.229,0,0,1,2.646,1.782,8.409,8.409,0,0,1,1.782,2.646,8.118,8.118,0,0,1,.645,3.232,8.172,8.172,0,0,1-.64,3.232,8.244,8.244,0,0,1-1.782,2.642A8.409,8.409,0,0,1,14.941.605,8.118,8.118,0,0,1,11.709,1.25Z" transform="translate(-1.748 17.012)" fill="#1f1e1e"/></svg>