<svg xmlns="http://www.w3.org/2000/svg" width="18.281" height="17.341" viewBox="0 0 18.281 17.341"><path d="M3.234,1.986a1.106,1.106,0,0,0,.343-.057,2.022,2.022,0,0,0,.387-.18L8.438-.659,13.3,2.065a2,2,0,0,0,.984.264,1.725,1.725,0,0,0,.879-.229l4.6-2.61a1.467,1.467,0,0,0,.58-.541,1.5,1.5,0,0,0,.185-.76V-13.649a1.021,1.021,0,0,0-.259-.747.983.983,0,0,0-.734-.264,1.106,1.106,0,0,0-.343.057,2.649,2.649,0,0,0-.4.171l-4.658,2.593L9.36-14.766a1.675,1.675,0,0,0-.888-.246,1.736,1.736,0,0,0-.905.246L3-12.164a1.48,1.48,0,0,0-.571.541,1.517,1.517,0,0,0-.185.769V.967a1.033,1.033,0,0,0,.259.756A.983.983,0,0,0,3.234,1.986ZM7.866-2.057,3.9.123a.337.337,0,0,1-.132.044q-.114,0-.114-.141V-10.512a.561.561,0,0,1,.066-.277A.553.553,0,0,1,3.946-11L7.55-13.1q.088-.044.163-.088l.154-.088Zm1.415.141V-13.1q.07.035.141.075t.141.083l3.92,2.391V.439q-.1-.053-.193-.1T13.1.237ZM14.9.6V-10.635L18.861-12.8a.342.342,0,0,1,.123-.044.116.116,0,0,1,.092.035.156.156,0,0,1,.031.105V-2.162a.586.586,0,0,1-.066.281.542.542,0,0,1-.224.211L15.293.378q-.1.062-.2.114Z" transform="translate(-2.241 15.012)" fill="#d6d6d6"/></svg>