<svg xmlns="http://www.w3.org/2000/svg" width="13.371" height="13.371" viewBox="0 0 13.371 13.371"><path d="M11.512,1.771a4.04,4.04,0,0,0,1.524-.256A3.1,3.1,0,0,0,14.185.67q.041-.041.079-.085T14.342.5a2.55,2.55,0,0,0,.455-.68,1.65,1.65,0,0,0,.147-.66,1.317,1.317,0,0,0-.219-.714,2.372,2.372,0,0,0-.677-.66L12.059-3.6a1.724,1.724,0,0,0-.967-.321,1.293,1.293,0,0,0-.94.417l-.526.526a.4.4,0,0,1-.222.13.329.329,0,0,1-.222-.062,4.932,4.932,0,0,1-.468-.349q-.284-.232-.591-.509t-.561-.53q-.267-.267-.516-.54t-.458-.53a4.781,4.781,0,0,1-.345-.475.347.347,0,0,1-.055-.222.4.4,0,0,1,.13-.222l.52-.526a1.284,1.284,0,0,0,.424-.94,1.724,1.724,0,0,0-.321-.967L5.558-10.705a2.422,2.422,0,0,0-.663-.673,1.364,1.364,0,0,0-.711-.222,1.988,1.988,0,0,0-1.34.6q-.041.041-.085.079l-.085.072A3.164,3.164,0,0,0,1.832-9.7a3.972,3.972,0,0,0-.26,1.518,6.131,6.131,0,0,0,.393,2.071A10.294,10.294,0,0,0,3.121-3.879,14.945,14.945,0,0,0,4.983-1.641,15.261,15.261,0,0,0,7.219.215,10.377,10.377,0,0,0,9.444,1.374,6.056,6.056,0,0,0,11.512,1.771ZM11.519.718A4.7,4.7,0,0,1,9.652.335a10.021,10.021,0,0,1-2-1.1A14.527,14.527,0,0,1,5.77-2.352,14.613,14.613,0,0,1,4.16-4.262,10.4,10.4,0,0,1,3.021-6.3a4.783,4.783,0,0,1-.4-1.883A2.863,2.863,0,0,1,2.83-9.225a2.2,2.2,0,0,1,.6-.824.707.707,0,0,1,.065-.058l.065-.051a1.27,1.27,0,0,1,.311-.2.761.761,0,0,1,.311-.072.566.566,0,0,1,.506.28L6.016-8.162a.576.576,0,0,1,.106.335.479.479,0,0,1-.161.328l-.6.6A1.046,1.046,0,0,0,5-6.142a1.21,1.21,0,0,0,.26.749q.294.4.745.909t.848.9q.26.26.6.571t.677.6q.338.291.6.489a1.245,1.245,0,0,0,.745.256,1.051,1.051,0,0,0,.759-.352l.6-.6a.457.457,0,0,1,.328-.164.625.625,0,0,1,.335.1l1.989,1.326a.626.626,0,0,1,.215.232.618.618,0,0,1,.065.28.957.957,0,0,1-.273.622l-.051.065a.707.707,0,0,1-.058.065,2.189,2.189,0,0,1-.827.6A2.8,2.8,0,0,1,11.519.718Z" transform="translate(-1.572 11.601)" fill="#d6d6d6"/></svg>