<svg xmlns="http://www.w3.org/2000/svg" width="37.886" height="35.18" viewBox="0 0 37.886 35.18"><path d="M16.237,7.907a8.379,8.379,0,0,0-3.256.634,8.54,8.54,0,0,0-4.44,4.44,8.674,8.674,0,0,0,0,6.512,8.54,8.54,0,0,0,4.44,4.44,8.674,8.674,0,0,0,6.512,0,8.54,8.54,0,0,0,4.44-4.44,8.674,8.674,0,0,0,0-6.512,8.54,8.54,0,0,0-4.44-4.44,8.379,8.379,0,0,0-3.256-.634Zm0,13.742a5.414,5.414,0,0,1-5.412-5.412,5.414,5.414,0,0,1,5.412-5.412,5.414,5.414,0,0,1,5.412,5.412,5.414,5.414,0,0,1-5.412,5.412ZM26.85,7.569a1.854,1.854,0,0,1-.571,1.4,1.993,1.993,0,0,1-2.748,0,1.854,1.854,0,0,1-.571-1.4,1.8,1.8,0,0,1,.571-1.353,1.993,1.993,0,0,1,2.748,0A1.8,1.8,0,0,1,26.85,7.569Zm4.778-1.945a8.23,8.23,0,0,0-1.882-2.9A8.322,8.322,0,0,0,26.893.846,13.984,13.984,0,0,0,24.926.317a10.655,10.655,0,0,0-2.008-.19Q21.649.042,20.592.021T16.237,0q-3.3,0-4.355.021T9.556.127a10.655,10.655,0,0,0-2.008.19A12.5,12.5,0,0,0,5.624.846,8.313,8.313,0,0,0,.846,5.624,12.5,12.5,0,0,0,.317,7.548,13.7,13.7,0,0,0,.085,9.556Q.042,10.867.021,11.9T0,16.237q0,3.3.021,4.355T.085,22.96a13.2,13.2,0,0,0,.233,1.987,14.24,14.24,0,0,0,.529,1.945,8.022,8.022,0,0,0,1.882,2.875,8.375,8.375,0,0,0,2.9,1.861,11.258,11.258,0,0,0,1.924.592,9.625,9.625,0,0,0,2.008.211q1.311.085,2.347.106t4.334.021q3.3,0,4.355-.021t2.368-.106a10.436,10.436,0,0,0,1.966-.19,13.984,13.984,0,0,0,1.966-.529,8.022,8.022,0,0,0,2.875-1.882,8.375,8.375,0,0,0,1.86-2.9,10.07,10.07,0,0,0,.571-1.924A10.655,10.655,0,0,0,32.389,23q.042-1.311.063-2.347t.021-4.334V11.945q0-1.036-.085-2.347a10.991,10.991,0,0,0-.19-2.03A9.98,9.98,0,0,0,31.628,5.624Zm-2.2,17.167a8.179,8.179,0,0,1-.148,1.565,10.412,10.412,0,0,1-.4,1.48,5.4,5.4,0,0,1-1.226,1.9,4.994,4.994,0,0,1-1.86,1.184,6.82,6.82,0,0,1-1.48.423,13.965,13.965,0,0,1-1.522.169q-1.311.042-2.3.063t-4.292.021q-3.3,0-4.292-.021t-2.3-.063a7.854,7.854,0,0,1-1.543-.148,9.028,9.028,0,0,1-1.5-.444,4.994,4.994,0,0,1-1.86-1.184,5.4,5.4,0,0,1-1.226-1.9,10.411,10.411,0,0,1-.4-1.48,7.958,7.958,0,0,1-.148-1.522q-.085-1.269-.085-2.283v-8.6q0-.994.085-2.3a7.958,7.958,0,0,1,.148-1.522,12.136,12.136,0,0,1,.4-1.522A5.535,5.535,0,0,1,6.554,3.51a12.5,12.5,0,0,1,1.5-.4A7.854,7.854,0,0,1,9.6,2.96q1.269-.042,2.283-.063t4.313-.021h4.292q.994,0,2.3.085a7.958,7.958,0,0,1,1.522.148,10.41,10.41,0,0,1,1.48.4A5.535,5.535,0,0,1,28.88,6.6a12.5,12.5,0,0,1,.4,1.5,7.854,7.854,0,0,1,.148,1.543q.042,1.269.063,2.283t.021,4.313v4.292q0,.994-.042,2.262ZM37.886,35.18" fill="#fff"/></svg>