<svg xmlns="http://www.w3.org/2000/svg" width="21.012" height="21.012" viewBox="0 0 21.012 21.012"><path d="M18.09,2.782a6.348,6.348,0,0,0,2.4-.4,4.868,4.868,0,0,0,1.8-1.327q.064-.064.124-.134t.124-.134a4.007,4.007,0,0,0,.714-1.069,2.592,2.592,0,0,0,.231-1.037,2.07,2.07,0,0,0-.344-1.123A3.727,3.727,0,0,0,22.075-3.48L18.949-5.65a2.708,2.708,0,0,0-1.52-.5,2.031,2.031,0,0,0-1.477.655l-.827.827a.633.633,0,0,1-.349.2.517.517,0,0,1-.349-.1,7.75,7.75,0,0,1-.736-.548q-.446-.365-.929-.8t-.881-.833q-.419-.419-.811-.849t-.72-.833a7.513,7.513,0,0,1-.542-.747.546.546,0,0,1-.086-.349.633.633,0,0,1,.2-.349l.816-.827a2.017,2.017,0,0,0,.666-1.477,2.708,2.708,0,0,0-.5-1.52l-2.17-3.126A3.805,3.805,0,0,0,7.691-17.88a2.144,2.144,0,0,0-1.117-.349,3.124,3.124,0,0,0-2.105.945q-.064.064-.134.124l-.134.113a4.973,4.973,0,0,0-1.321,1.8,6.241,6.241,0,0,0-.408,2.385A9.634,9.634,0,0,0,3.088-9.6,16.177,16.177,0,0,0,4.9-6.1,23.485,23.485,0,0,0,7.831-2.578,23.982,23.982,0,0,0,11.344.338a16.306,16.306,0,0,0,3.5,1.821A9.516,9.516,0,0,0,18.09,2.782ZM18.1,1.128a7.383,7.383,0,0,1-2.933-.6,15.747,15.747,0,0,1-3.137-1.735A22.828,22.828,0,0,1,9.066-3.7a22.964,22.964,0,0,1-2.53-3A16.35,16.35,0,0,1,4.748-9.9a7.517,7.517,0,0,1-.634-2.959A4.5,4.5,0,0,1,4.447-14.5a3.45,3.45,0,0,1,.945-1.294,1.11,1.11,0,0,1,.1-.091l.1-.081a2,2,0,0,1,.489-.317,1.2,1.2,0,0,1,.489-.113.889.889,0,0,1,.795.44l2.084,3.126a.905.905,0,0,1,.167.526.752.752,0,0,1-.252.516l-.945.945a1.644,1.644,0,0,0-.559,1.187,1.9,1.9,0,0,0,.408,1.176q.462.623,1.171,1.429t1.332,1.418q.408.408.94.9t1.063.945q.532.457.951.768a1.956,1.956,0,0,0,1.171.4,1.652,1.652,0,0,0,1.192-.553l.945-.945a.717.717,0,0,1,.516-.258.982.982,0,0,1,.526.161l3.126,2.084a.983.983,0,0,1,.338.365.971.971,0,0,1,.1.44,1.5,1.5,0,0,1-.43.978l-.081.1a1.11,1.11,0,0,1-.091.1,3.44,3.44,0,0,1-1.3.945A4.393,4.393,0,0,1,18.1,1.128Z" transform="translate(-2.471 18.23)" fill="#fff"/></svg>