<svg xmlns="http://www.w3.org/2000/svg" width="23.84" height="18.992" viewBox="0 0 23.84 18.992"><path d="M7.72,2.59a1.352,1.352,0,0,0,.6-.133,3.271,3.271,0,0,0,.672-.481l3.486-3.121-.963-.93L8.06,1.112V-1.262a.668.668,0,0,0-.187-.519.659.659,0,0,0-.461-.17H5.794a2.386,2.386,0,0,1-1.722-.594A2.324,2.324,0,0,1,3.453-4.3v-7.562a2.338,2.338,0,0,1,.618-1.76,2.376,2.376,0,0,1,1.722-.6H17.506a2.376,2.376,0,0,1,1.722.6,2.338,2.338,0,0,1,.618,1.76V-10.7h1.336v-1.212a4.005,4.005,0,0,0-.427-1.917,2.9,2.9,0,0,0-1.233-1.22,4.107,4.107,0,0,0-1.934-.423H5.711a4.018,4.018,0,0,0-1.888.423,3.02,3.02,0,0,0-1.258,1.22,3.853,3.853,0,0,0-.448,1.917v7.645a3.871,3.871,0,0,0,.448,1.926A2.994,2.994,0,0,0,3.823-1.125a4.051,4.051,0,0,0,1.888.419h1.1V1.569a1.1,1.1,0,0,0,.237.751A.852.852,0,0,0,7.72,2.59Zm13.522.93a.811.811,0,0,0,.664-.282,1.152,1.152,0,0,0,.232-.755V.49h.349A3.879,3.879,0,0,0,24.3.083a2.933,2.933,0,0,0,1.216-1.17,3.679,3.679,0,0,0,.436-1.851V-7.844A3.7,3.7,0,0,0,25.521-9.7,2.926,2.926,0,0,0,24.3-10.874a3.879,3.879,0,0,0-1.818-.407h-8.06a3.968,3.968,0,0,0-1.864.407A2.779,2.779,0,0,0,11.376-9.7a3.885,3.885,0,0,0-.411,1.855v4.906a3.885,3.885,0,0,0,.411,1.855A2.755,2.755,0,0,0,12.563.087a4,4,0,0,0,1.864.4h2.864l2.772,2.374a7.281,7.281,0,0,0,.631.49A.967.967,0,0,0,21.242,3.52Zm-.349-1.5L18.229-.374a1.849,1.849,0,0,0-.448-.3,1.372,1.372,0,0,0-.54-.087H14.51a2.276,2.276,0,0,1-1.627-.556,2.177,2.177,0,0,1-.589-1.66L12.3-7.8a2.2,2.2,0,0,1,.585-1.66,2.24,2.24,0,0,1,1.623-.564h7.9a2.24,2.24,0,0,1,1.623.564A2.2,2.2,0,0,1,24.62-7.8V-2.98a2.18,2.18,0,0,1-.589,1.656,2.253,2.253,0,0,1-1.619.56h-.88A.657.657,0,0,0,21.08-.6a.654.654,0,0,0-.187.515Z" transform="translate(-2.117 15.473)" fill="#d6d6d6"/></svg>