<svg xmlns="http://www.w3.org/2000/svg" width="68.407" height="64.645" viewBox="0 0 68.407 64.645"><path d="M27.186,11.908a4.235,4.235,0,0,0,2.274-.638,22.426,22.426,0,0,0,2.568-1.947L42.66-.131H61.929a16.637,16.637,0,0,0,7.819-1.685,11.293,11.293,0,0,0,4.875-4.891,16.7,16.7,0,0,0,1.668-7.786V-38.342a16.7,16.7,0,0,0-1.668-7.786,11.388,11.388,0,0,0-4.875-4.907,16.5,16.5,0,0,0-7.819-1.7H22.246a16.637,16.637,0,0,0-7.819,1.685,11.273,11.273,0,0,0-4.875,4.907,16.8,16.8,0,0,0-1.668,7.8v23.849a16.66,16.66,0,0,0,1.685,7.8A11.293,11.293,0,0,0,14.444-1.8a16.44,16.44,0,0,0,7.7,1.668h1.374V7.721a4.617,4.617,0,0,0,.949,3.042A3.327,3.327,0,0,0,27.186,11.908Zm1.407-6.281V-3.239a2.58,2.58,0,0,0-.573-1.9,2.638,2.638,0,0,0-1.881-.556H22.377q-4.547,0-6.723-2.257t-2.176-6.641V-38.244q0-4.384,2.176-6.641t6.723-2.257H61.8q4.547,0,6.739,2.257t2.192,6.641v23.653q0,4.384-2.192,6.641T61.8-5.692H42.4A6.794,6.794,0,0,0,40.19-5.4a4.637,4.637,0,0,0-1.75,1.276Zm-1.5-27.546a4.348,4.348,0,0,0,3.19-1.325,4.348,4.348,0,0,0,1.325-3.19,4.348,4.348,0,0,0-1.325-3.19,4.348,4.348,0,0,0-3.19-1.325,4.4,4.4,0,0,0-3.206,1.325,4.322,4.322,0,0,0-1.341,3.19,4.322,4.322,0,0,0,1.341,3.19A4.4,4.4,0,0,0,27.088-21.919Zm15.049,0a4.365,4.365,0,0,0,3.173-1.325,4.322,4.322,0,0,0,1.341-3.19,4.322,4.322,0,0,0-1.341-3.19,4.365,4.365,0,0,0-3.173-1.325,4.386,4.386,0,0,0-3.222,1.325,4.348,4.348,0,0,0-1.325,3.19,4.348,4.348,0,0,0,1.325,3.19A4.386,4.386,0,0,0,42.137-21.919Zm15.016,0a4.386,4.386,0,0,0,3.222-1.325,4.348,4.348,0,0,0,1.325-3.19,4.348,4.348,0,0,0-1.325-3.19,4.386,4.386,0,0,0-3.222-1.325,4.348,4.348,0,0,0-3.19,1.325,4.348,4.348,0,0,0-1.325,3.19,4.348,4.348,0,0,0,1.325,3.19A4.348,4.348,0,0,0,57.153-21.919Z" transform="translate(-7.884 52.736)" fill="#d6d6d6"/></svg>