<?xml version="1.0" encoding="utf-8"?>
<!-- Generator: Adobe Illustrator 28.1.0, SVG Export Plug-In . SVG Version: 6.00 Build 0)  -->
<svg version="1.1" id="Ebene_1" xmlns="http://www.w3.org/2000/svg" xmlns:xlink="http://www.w3.org/1999/xlink" x="0px" y="0px"
	 viewBox="0 0 24.3 24.3" style="enable-background:new 0 0 24.3 24.3;" xml:space="preserve">
<style type="text/css">
	.st0{fill:#707070;}
</style>
<g id="Gruppe_5686" transform="translate(-517.406 -1734.455)">
	<path id="search" class="st0" d="M517.4,1744.3c0,2.6,1,5.1,2.9,6.9c1.8,1.9,4.3,2.9,6.9,2.9c2.3,0,4.4-0.8,6.2-2.2l6.5,6.5
		c0.2,0.2,0.5,0.3,0.7,0.3c0.3,0,0.6-0.1,0.8-0.3c0.2-0.2,0.3-0.5,0.3-0.8c0-0.3-0.1-0.5-0.3-0.7l-6.5-6.5c1.4-1.7,2.2-3.9,2.2-6.2
		c0-2.6-1-5.1-2.9-6.9c-1.8-1.9-4.3-2.9-6.9-2.9c-2.6,0-5.1,1-6.9,2.9C518.4,1739.2,517.4,1741.7,517.4,1744.3z M518.9,1744.3
		c0-2.2,0.8-4.3,2.4-5.9c1.5-1.6,3.7-2.5,5.9-2.4c2.2,0,4.3,0.8,5.9,2.4c1.6,1.5,2.5,3.7,2.4,5.9c0,2.2-0.8,4.3-2.4,5.9
		c-1.5,1.6-3.7,2.5-5.9,2.4c-2.2,0-4.3-0.8-5.9-2.4C519.8,1748.6,518.9,1746.5,518.9,1744.3z"/>
</g>
</svg>
