<svg xmlns="http://www.w3.org/2000/svg" width="41.971" height="39.4" viewBox="0 0 41.971 39.4"><g transform="translate(-4.374 -5.113)"><path d="M16.567,7.179A2.341,2.341,0,0,0,17.862,6.8,12.544,12.544,0,0,0,19.31,5.656L25.879-.19H38.1a10.2,10.2,0,0,0,4.78-1.019A6.767,6.767,0,0,0,45.827-4.17a10.268,10.268,0,0,0,1-4.742V-23.5a10.268,10.268,0,0,0-1-4.742A6.767,6.767,0,0,0,42.885-31.2a10.2,10.2,0,0,0-4.78-1.019H13.578A10.2,10.2,0,0,0,8.8-31.2a6.767,6.767,0,0,0-2.942,2.961,10.268,10.268,0,0,0-1,4.742V-8.912a10.268,10.268,0,0,0,1,4.742A6.767,6.767,0,0,0,8.8-1.209,10.2,10.2,0,0,0,13.578-.19h.914V4.761a2.68,2.68,0,0,0,.543,1.761A1.877,1.877,0,0,0,16.567,7.179Zm.781-3.485V-1.828a1.531,1.531,0,0,0-.324-1.1,1.531,1.531,0,0,0-1.1-.324H13.578A5.684,5.684,0,0,1,9.3-4.694,5.891,5.891,0,0,1,7.922-8.931V-23.5A5.862,5.862,0,0,1,9.3-27.717a5.684,5.684,0,0,1,4.275-1.438H38.1a5.689,5.689,0,0,1,4.266,1.438,5.837,5.837,0,0,1,1.39,4.218V-8.931a5.866,5.866,0,0,1-1.39,4.237A5.689,5.689,0,0,1,38.1-3.256H25.765a4.045,4.045,0,0,0-1.295.171,2.74,2.74,0,0,0-1.028.724Zm-.819-17.177a2.613,2.613,0,0,0,1.933-.8,2.638,2.638,0,0,0,.79-1.923,2.638,2.638,0,0,0-.79-1.923,2.613,2.613,0,0,0-1.933-.8,2.622,2.622,0,0,0-1.923.8,2.622,2.622,0,0,0-.8,1.923,2.622,2.622,0,0,0,.8,1.923A2.622,2.622,0,0,0,16.529-13.482Zm9.331,0a2.622,2.622,0,0,0,1.923-.8,2.622,2.622,0,0,0,.8-1.923,2.622,2.622,0,0,0-.8-1.923,2.622,2.622,0,0,0-1.923-.8,2.644,2.644,0,0,0-1.942.8,2.622,2.622,0,0,0-.8,1.923,2.622,2.622,0,0,0,.8,1.923A2.644,2.644,0,0,0,25.86-13.482Zm9.312,0a2.622,2.622,0,0,0,1.923-.8,2.622,2.622,0,0,0,.8-1.923,2.622,2.622,0,0,0-.8-1.923,2.622,2.622,0,0,0-1.923-.8,2.622,2.622,0,0,0-1.923.8,2.622,2.622,0,0,0-.8,1.923,2.622,2.622,0,0,0,.8,1.923A2.622,2.622,0,0,0,35.172-13.482Z" transform="translate(-0.482 37.333)" fill="#d6d6d6"/></g></svg>