<svg xmlns="http://www.w3.org/2000/svg" xmlns:xlink="http://www.w3.org/1999/xlink" width="58" height="58" viewBox="0 0 58 58"><defs><filter id="a" x="0" y="0" width="58" height="58" filterUnits="userSpaceOnUse"><feOffset dy="3" input="SourceAlpha"/><feGaussianBlur stdDeviation="3" result="b"/><feFlood flood-opacity="0.161"/><feComposite operator="in" in2="b"/><feComposite in="SourceGraphic"/></filter></defs><g transform="translate(-1463 -86)"><g transform="matrix(1, 0, 0, 1, 1463, 86)" filter="url(#a)"><g transform="translate(9 6)" fill="none" stroke="#d6d6d6" stroke-width="1"><rect width="40" height="40" rx="20" stroke="none"/><rect x="0.5" y="0.5" width="39" height="39" rx="19.5" fill="none"/></g></g><g transform="translate(-124.756 -115.839)"><g transform="translate(1608.756 219.839)"><path d="M369.55,36.282a4.585,4.585,0,0,0-2.333,5.113,4.292,4.292,0,0,0,3.527,3.49,4.544,4.544,0,0,0,5.01-2.274c.959,2.109-.47,5.981-2.894,7.859a8.014,8.014,0,1,1-3.311-14.189m-3.776,1.911a6.326,6.326,0,0,0,2.083,12.269c2.711.045,5.568-1.923,5.985-4.122a6.36,6.36,0,0,1-8.069-8.147" transform="translate(-359.95 -36.104)" fill="#d6d6d6"/></g></g></g></svg>