<svg xmlns="http://www.w3.org/2000/svg" width="21.035" height="16.758" viewBox="0 0 21.035 16.758"><path d="M6.812,2.285a1.193,1.193,0,0,0,.527-.117,2.886,2.886,0,0,0,.593-.425l3.076-2.754-.85-.82L7.112.981V-1.113a.589.589,0,0,0-.165-.458.581.581,0,0,0-.406-.15H5.112a2.1,2.1,0,0,1-1.52-.524,2.05,2.05,0,0,1-.546-1.549v-6.672a2.063,2.063,0,0,1,.546-1.553,2.1,2.1,0,0,1,1.52-.527H15.447a2.1,2.1,0,0,1,1.52.527,2.063,2.063,0,0,1,.546,1.553v1.025h1.179V-10.51a3.534,3.534,0,0,0-.377-1.692,2.557,2.557,0,0,0-1.088-1.077,3.624,3.624,0,0,0-1.707-.374H5.039a3.546,3.546,0,0,0-1.666.374A2.665,2.665,0,0,0,2.263-12.2a3.4,3.4,0,0,0-.4,1.692v6.746a3.416,3.416,0,0,0,.4,1.7A2.642,2.642,0,0,0,3.373-.992a3.575,3.575,0,0,0,1.666.37h.967V1.384a.972.972,0,0,0,.209.663A.752.752,0,0,0,6.812,2.285Zm11.931.82a.716.716,0,0,0,.586-.249,1.016,1.016,0,0,0,.205-.667V.432h.308a3.422,3.422,0,0,0,1.6-.359A2.588,2.588,0,0,0,22.518-.959,3.246,3.246,0,0,0,22.9-2.593V-6.921a3.267,3.267,0,0,0-.385-1.637,2.582,2.582,0,0,0-1.073-1.036,3.422,3.422,0,0,0-1.6-.359H12.729a3.5,3.5,0,0,0-1.644.359,2.452,2.452,0,0,0-1.047,1.036,3.428,3.428,0,0,0-.363,1.637v4.329a3.428,3.428,0,0,0,.363,1.637A2.431,2.431,0,0,0,11.085.077a3.531,3.531,0,0,0,1.644.355h2.527L17.7,2.527a6.424,6.424,0,0,0,.557.432A.853.853,0,0,0,18.743,3.105ZM18.435,1.78,16.084-.33a1.632,1.632,0,0,0-.4-.267,1.21,1.21,0,0,0-.476-.077H12.8a2.008,2.008,0,0,1-1.436-.491,1.921,1.921,0,0,1-.52-1.465l.007-4.255a1.944,1.944,0,0,1,.516-1.465,1.977,1.977,0,0,1,1.432-.5h6.973a1.977,1.977,0,0,1,1.432.5,1.944,1.944,0,0,1,.516,1.465v4.255a1.923,1.923,0,0,1-.52,1.461,1.988,1.988,0,0,1-1.428.494H19a.58.58,0,0,0-.4.146.577.577,0,0,0-.165.454Z" transform="translate(-1.868 13.652)" fill="#d6d6d6"/></svg>