<svg xmlns="http://www.w3.org/2000/svg" width="16.236" height="16.237" viewBox="0 0 16.236 16.237"><path d="M13.979,2.15a4.905,4.905,0,0,0,1.851-.311A3.761,3.761,0,0,0,17.224.813q.05-.05.1-.1t.1-.1a3.1,3.1,0,0,0,.552-.826,2,2,0,0,0,.178-.8,1.6,1.6,0,0,0-.266-.867,2.88,2.88,0,0,0-.822-.8L14.643-4.366a2.093,2.093,0,0,0-1.175-.39,1.57,1.57,0,0,0-1.141.506l-.639.639a.489.489,0,0,1-.27.158.4.4,0,0,1-.27-.075,5.989,5.989,0,0,1-.569-.423q-.344-.282-.718-.618t-.681-.643q-.324-.324-.627-.656T8-6.512a5.805,5.805,0,0,1-.419-.577.422.422,0,0,1-.066-.27.489.489,0,0,1,.158-.27L8.3-8.268a1.559,1.559,0,0,0,.515-1.141,2.093,2.093,0,0,0-.39-1.175L6.749-13a2.941,2.941,0,0,0-.805-.818,1.656,1.656,0,0,0-.863-.27,2.414,2.414,0,0,0-1.627.73q-.05.05-.1.1l-.1.087a3.843,3.843,0,0,0-1.021,1.395,4.823,4.823,0,0,0-.315,1.843,7.444,7.444,0,0,0,.477,2.515,12.5,12.5,0,0,0,1.4,2.71A18.147,18.147,0,0,0,6.051-1.992,18.531,18.531,0,0,0,8.766.261a12.6,12.6,0,0,0,2.7,1.407A7.353,7.353,0,0,0,13.979,2.15ZM13.987.872A5.705,5.705,0,0,1,11.721.407,12.168,12.168,0,0,1,9.3-.934,17.64,17.64,0,0,1,7.006-2.855a17.745,17.745,0,0,1-1.955-2.32A12.634,12.634,0,0,1,3.669-7.649a5.808,5.808,0,0,1-.49-2.287A3.476,3.476,0,0,1,3.437-11.2a2.666,2.666,0,0,1,.73-1,.858.858,0,0,1,.079-.071l.079-.062A1.542,1.542,0,0,1,4.7-12.58a.923.923,0,0,1,.378-.087.687.687,0,0,1,.614.34L7.3-9.911a.7.7,0,0,1,.129.407.581.581,0,0,1-.2.4l-.73.73a1.27,1.27,0,0,0-.432.917,1.469,1.469,0,0,0,.315.909q.357.481.9,1.1t1.029,1.1q.315.315.726.693t.822.73q.411.353.735.594a1.511,1.511,0,0,0,.9.311,1.277,1.277,0,0,0,.921-.427l.73-.73a.554.554,0,0,1,.4-.2.759.759,0,0,1,.407.125l2.416,1.61a.76.76,0,0,1,.261.282.75.75,0,0,1,.079.34,1.162,1.162,0,0,1-.332.755l-.062.079a.858.858,0,0,1-.071.079,2.658,2.658,0,0,1-1,.73A3.4,3.4,0,0,1,13.987.872Z" transform="translate(-1.909 14.087)" fill="#d6d6d6"/></svg>