<svg xmlns="http://www.w3.org/2000/svg" width="72.104" height="67.687" viewBox="0 0 72.104 67.687"><path d="M28.462,12.333a4.021,4.021,0,0,0,2.225-.654,21.55,21.55,0,0,0,2.486-1.963L44.459-.327h21a17.519,17.519,0,0,0,8.211-1.75,11.625,11.625,0,0,0,5.054-5.087,17.64,17.64,0,0,0,1.718-8.146V-40.37a17.64,17.64,0,0,0-1.718-8.146A11.625,11.625,0,0,0,73.674-53.6a17.519,17.519,0,0,0-8.211-1.75H23.326a17.519,17.519,0,0,0-8.211,1.75,11.625,11.625,0,0,0-5.054,5.087A17.64,17.64,0,0,0,8.342-40.37v25.06A17.64,17.64,0,0,0,10.06-7.165a11.625,11.625,0,0,0,5.054,5.087,17.519,17.519,0,0,0,8.211,1.75H24.9V8.179a4.6,4.6,0,0,0,.932,3.026A3.224,3.224,0,0,0,28.462,12.333ZM29.8,6.347V-3.141a2.63,2.63,0,0,0-.556-1.9,2.63,2.63,0,0,0-1.9-.556H23.326q-4.973,0-7.344-2.47t-2.372-7.279V-40.37q0-4.776,2.372-7.246t7.344-2.47H65.462q4.94,0,7.328,2.47t2.388,7.246v25.027q0,4.809-2.388,7.279t-7.328,2.47h-21.2a6.949,6.949,0,0,0-2.225.294,4.707,4.707,0,0,0-1.767,1.243ZM28.4-23.162a4.489,4.489,0,0,0,3.321-1.374,4.532,4.532,0,0,0,1.358-3.3,4.532,4.532,0,0,0-1.358-3.3A4.489,4.489,0,0,0,28.4-32.519a4.5,4.5,0,0,0-3.3,1.374,4.5,4.5,0,0,0-1.374,3.3,4.5,4.5,0,0,0,1.374,3.3A4.5,4.5,0,0,0,28.4-23.162Zm16.03,0a4.5,4.5,0,0,0,3.3-1.374,4.5,4.5,0,0,0,1.374-3.3,4.5,4.5,0,0,0-1.374-3.3,4.5,4.5,0,0,0-3.3-1.374,4.543,4.543,0,0,0-3.337,1.374,4.5,4.5,0,0,0-1.374,3.3,4.5,4.5,0,0,0,1.374,3.3A4.543,4.543,0,0,0,44.427-23.162Zm16,0a4.5,4.5,0,0,0,3.3-1.374,4.5,4.5,0,0,0,1.374-3.3,4.5,4.5,0,0,0-1.374-3.3,4.5,4.5,0,0,0-3.3-1.374,4.5,4.5,0,0,0-3.3,1.374,4.5,4.5,0,0,0-1.374,3.3,4.5,4.5,0,0,0,1.374,3.3A4.5,4.5,0,0,0,60.424-23.162Z" transform="translate(-8.342 55.354)" fill="#707070"/></svg>