<svg xmlns="http://www.w3.org/2000/svg" width="23.261" height="21.6" viewBox="0 0 23.261 21.6"><path d="M9.969,4.855a5.145,5.145,0,0,0-2,.389A5.243,5.243,0,0,0,5.244,7.97a5.325,5.325,0,0,0,0,4A5.243,5.243,0,0,0,7.97,14.694a5.325,5.325,0,0,0,4,0,5.243,5.243,0,0,0,2.726-2.726,5.325,5.325,0,0,0,0-4,5.243,5.243,0,0,0-2.726-2.726,5.145,5.145,0,0,0-2-.389Zm0,8.437A3.324,3.324,0,0,1,6.646,9.969,3.324,3.324,0,0,1,9.969,6.646a3.324,3.324,0,0,1,3.323,3.323,3.324,3.324,0,0,1-3.323,3.323Zm6.516-8.645a1.138,1.138,0,0,1-.35.857,1.223,1.223,0,0,1-1.687,0,1.138,1.138,0,0,1-.35-.857,1.108,1.108,0,0,1,.35-.831,1.223,1.223,0,0,1,1.687,0A1.108,1.108,0,0,1,16.485,4.647Zm2.934-1.194a5.053,5.053,0,0,0-1.155-1.778A5.109,5.109,0,0,0,16.511.519,8.585,8.585,0,0,0,15.3.195,6.542,6.542,0,0,0,14.071.078Q13.292.026,12.643.013T9.969,0Q7.944,0,7.295.013T5.867.078A6.542,6.542,0,0,0,4.634.195,7.673,7.673,0,0,0,3.453.519,5.1,5.1,0,0,0,.519,3.453,7.673,7.673,0,0,0,.195,4.634,8.409,8.409,0,0,0,.052,5.867q-.026.8-.039,1.441T0,9.969q0,2.025.013,2.674T.052,14.1a8.1,8.1,0,0,0,.143,1.22,8.743,8.743,0,0,0,.325,1.194,4.925,4.925,0,0,0,1.155,1.765,5.142,5.142,0,0,0,1.778,1.142,6.912,6.912,0,0,0,1.181.363,5.909,5.909,0,0,0,1.233.13q.8.052,1.441.065t2.661.013q2.025,0,2.674-.013t1.454-.065a6.407,6.407,0,0,0,1.207-.117,8.586,8.586,0,0,0,1.207-.325,4.925,4.925,0,0,0,1.765-1.155,5.142,5.142,0,0,0,1.142-1.778,6.183,6.183,0,0,0,.35-1.181,6.542,6.542,0,0,0,.117-1.233q.026-.8.039-1.441t.013-2.661V7.334q0-.636-.052-1.441a6.748,6.748,0,0,0-.117-1.246A6.127,6.127,0,0,0,19.418,3.453Zm-1.35,10.54a5.021,5.021,0,0,1-.091.961,6.392,6.392,0,0,1-.247.909,3.312,3.312,0,0,1-.753,1.168,3.066,3.066,0,0,1-1.142.727,4.187,4.187,0,0,1-.909.26,8.574,8.574,0,0,1-.935.1q-.8.026-1.415.039t-2.635.013q-2.025,0-2.635-.013T5.893,18.12a4.822,4.822,0,0,1-.948-.091,5.543,5.543,0,0,1-.922-.273,3.066,3.066,0,0,1-1.142-.727,3.312,3.312,0,0,1-.753-1.168,6.392,6.392,0,0,1-.247-.909,4.886,4.886,0,0,1-.091-.935q-.052-.779-.052-1.4V7.334q0-.61.052-1.415a4.886,4.886,0,0,1,.091-.935,7.451,7.451,0,0,1,.247-.935,3.4,3.4,0,0,1,1.9-1.9,7.675,7.675,0,0,1,.922-.247,4.822,4.822,0,0,1,.948-.091q.779-.026,1.4-.039t2.648-.013h2.635q.61,0,1.415.052a4.886,4.886,0,0,1,.935.091,6.391,6.391,0,0,1,.909.247,3.4,3.4,0,0,1,1.9,1.9,7.675,7.675,0,0,1,.247.922,4.822,4.822,0,0,1,.091.948q.026.779.039,1.4t.013,2.648V12.6q0,.61-.026,1.389ZM23.261,21.6" fill="#fff"/></svg>