<svg xmlns="http://www.w3.org/2000/svg" width="15.938" height="15.938" viewBox="0 0 15.938 15.938"><path d="M5.281-4.8H9.359a.53.53,0,0,0,.391-.156.53.53,0,0,0,.156-.391v-5.266a.521.521,0,0,0-.156-.383.53.53,0,0,0-.391-.156.521.521,0,0,0-.383.156.521.521,0,0,0-.156.383v4.727H5.281a.53.53,0,0,0-.391.156.521.521,0,0,0-.156.383.53.53,0,0,0,.156.391A.53.53,0,0,0,5.281-4.8ZM9.367,2.328A7.644,7.644,0,0,0,12.441,1.7,8.146,8.146,0,0,0,14.984-.023a8.146,8.146,0,0,0,1.727-2.543,7.644,7.644,0,0,0,.625-3.074,7.644,7.644,0,0,0-.625-3.074,8.146,8.146,0,0,0-1.727-2.543,8.133,8.133,0,0,0-2.547-1.727,7.672,7.672,0,0,0-3.078-.625,7.644,7.644,0,0,0-3.074.625,8.1,8.1,0,0,0-2.539,1.727A8.179,8.179,0,0,0,2.023-8.715,7.644,7.644,0,0,0,1.4-5.641a7.644,7.644,0,0,0,.625,3.074A8.146,8.146,0,0,0,3.75-.023,8.146,8.146,0,0,0,6.293,1.7,7.644,7.644,0,0,0,9.367,2.328ZM9.367,1A6.5,6.5,0,0,1,6.781.484,6.68,6.68,0,0,1,4.668-.941,6.627,6.627,0,0,1,3.246-3.055a6.538,6.538,0,0,1-.512-2.586,6.538,6.538,0,0,1,.512-2.586,6.7,6.7,0,0,1,1.418-2.117A6.55,6.55,0,0,1,6.773-11.77a6.538,6.538,0,0,1,2.586-.512,6.566,6.566,0,0,1,2.59.512,6.583,6.583,0,0,1,2.117,1.426,6.727,6.727,0,0,1,1.426,2.117,6.5,6.5,0,0,1,.516,2.586A6.538,6.538,0,0,1,15.5-3.055,6.6,6.6,0,0,1,14.07-.941,6.727,6.727,0,0,1,11.953.484,6.5,6.5,0,0,1,9.367,1Z" transform="translate(-1.398 13.609)" fill="#d6d6d6"/></svg>